ISO-10303-21;
HEADER;
/* Generated by software containing ST-Developer
 * from STEP Tools, Inc. (www.steptools.com) 
 */

FILE_DESCRIPTION(
/* description */ (''),
/* implementation_level */ '2;1');

FILE_NAME(
/* name */ 'rod_label_collar.step',
/* time_stamp */ '2026-09-06T10:15:57-05:00',
/* author */ (''),
/* organization */ (''),
/* preprocessor_version */ 'ST-DEVELOPER v20.1',
/* originating_system */ 'Autodesk Translation Framework v15.8.0.0',
/* authorisation */ '');

FILE_SCHEMA (('AUTOMOTIVE_DESIGN { 1 0 10303 214 3 1 1 }'));
ENDSEC;

DATA;
#10=MECHANICAL_DESIGN_GEOMETRIC_PRESENTATION_REPRESENTATION('',(#13),#621);
#11=SHAPE_REPRESENTATION_RELATIONSHIP('SRR','None',#628,#12);
#12=ADVANCED_BREP_SHAPE_REPRESENTATION('',(#14),#620);
#13=STYLED_ITEM('',(#637),#14);
#14=MANIFOLD_SOLID_BREP('rod_label_collar',#357);
#15=FACE_BOUND('',#61,.T.);
#16=CONICAL_SURFACE('',#387,18.325,0.785398163397449);
#17=CONICAL_SURFACE('',#389,18.325,0.785398163397449);
#18=CONICAL_SURFACE('',#397,20.725,0.785398163397448);
#19=CYLINDRICAL_SURFACE('',#379,19.6);
#20=CYLINDRICAL_SURFACE('',#384,19.6);
#21=CYLINDRICAL_SURFACE('',#391,17.05);
#22=CYLINDRICAL_SURFACE('',#395,19.45);
#23=CYLINDRICAL_SURFACE('',#402,22.);
#24=CYLINDRICAL_SURFACE('',#403,19.45);
#25=CYLINDRICAL_SURFACE('',#405,17.05);
#26=FACE_OUTER_BOUND('',#45,.T.);
#27=FACE_OUTER_BOUND('',#46,.T.);
#28=FACE_OUTER_BOUND('',#47,.T.);
#29=FACE_OUTER_BOUND('',#48,.T.);
#30=FACE_OUTER_BOUND('',#49,.T.);
#31=FACE_OUTER_BOUND('',#50,.T.);
#32=FACE_OUTER_BOUND('',#51,.T.);
#33=FACE_OUTER_BOUND('',#52,.T.);
#34=FACE_OUTER_BOUND('',#53,.T.);
#35=FACE_OUTER_BOUND('',#54,.T.);
#36=FACE_OUTER_BOUND('',#55,.T.);
#37=FACE_OUTER_BOUND('',#56,.T.);
#38=FACE_OUTER_BOUND('',#57,.T.);
#39=FACE_OUTER_BOUND('',#58,.T.);
#40=FACE_OUTER_BOUND('',#59,.T.);
#41=FACE_OUTER_BOUND('',#60,.T.);
#42=FACE_OUTER_BOUND('',#62,.T.);
#43=FACE_OUTER_BOUND('',#63,.T.);
#44=FACE_OUTER_BOUND('',#64,.T.);
#45=EDGE_LOOP('',(#229,#230,#231,#232));
#46=EDGE_LOOP('',(#233,#234,#235,#236));
#47=EDGE_LOOP('',(#237,#238,#239,#240));
#48=EDGE_LOOP('',(#241,#242,#243,#244));
#49=EDGE_LOOP('',(#245,#246,#247,#248));
#50=EDGE_LOOP('',(#249,#250,#251,#252,#253,#254,#255,#256,#257,#258,#259,
#260));
#51=EDGE_LOOP('',(#261,#262,#263,#264,#265,#266,#267,#268,#269,#270,#271,
#272));
#52=EDGE_LOOP('',(#273,#274,#275,#276));
#53=EDGE_LOOP('',(#277,#278,#279,#280,#281,#282));
#54=EDGE_LOOP('',(#283,#284,#285,#286,#287,#288));
#55=EDGE_LOOP('',(#289,#290,#291,#292));
#56=EDGE_LOOP('',(#293,#294,#295,#296));
#57=EDGE_LOOP('',(#297,#298,#299,#300));
#58=EDGE_LOOP('',(#301,#302,#303,#304));
#59=EDGE_LOOP('',(#305,#306,#307,#308));
#60=EDGE_LOOP('',(#309,#310,#311,#312));
#61=EDGE_LOOP('',(#313,#314,#315,#316));
#62=EDGE_LOOP('',(#317,#318,#319,#320));
#63=EDGE_LOOP('',(#321,#322,#323,#324));
#64=EDGE_LOOP('',(#325,#326,#327,#328));
#65=LINE('',#522,#97);
#66=LINE('',#525,#98);
#67=LINE('',#528,#99);
#68=LINE('',#530,#100);
#69=LINE('',#531,#101);
#70=LINE('',#537,#102);
#71=LINE('',#539,#103);
#72=LINE('',#540,#104);
#73=LINE('',#545,#105);
#74=LINE('',#550,#106);
#75=LINE('',#552,#107);
#76=LINE('',#554,#108);
#77=LINE('',#556,#109);
#78=LINE('',#558,#110);
#79=LINE('',#560,#111);
#80=LINE('',#562,#112);
#81=LINE('',#564,#113);
#82=LINE('',#566,#114);
#83=LINE('',#568,#115);
#84=LINE('',#570,#116);
#85=LINE('',#571,#117);
#86=LINE('',#575,#118);
#87=LINE('',#577,#119);
#88=LINE('',#579,#120);
#89=LINE('',#581,#121);
#90=LINE('',#583,#122);
#91=LINE('',#585,#123);
#92=LINE('',#586,#124);
#93=LINE('',#588,#125);
#94=LINE('',#590,#126);
#95=LINE('',#592,#127);
#96=LINE('',#593,#128);
#97=VECTOR('',#414,10.);
#98=VECTOR('',#417,10.);
#99=VECTOR('',#420,10.);
#100=VECTOR('',#421,10.);
#101=VECTOR('',#422,10.);
#102=VECTOR('',#429,10.);
#103=VECTOR('',#432,10.);
#104=VECTOR('',#433,10.);
#105=VECTOR('',#438,10.);
#106=VECTOR('',#443,10.);
#107=VECTOR('',#444,10.);
#108=VECTOR('',#445,10.);
#109=VECTOR('',#446,10.);
#110=VECTOR('',#447,10.);
#111=VECTOR('',#448,10.);
#112=VECTOR('',#449,10.);
#113=VECTOR('',#450,10.);
#114=VECTOR('',#451,10.);
#115=VECTOR('',#452,10.);
#116=VECTOR('',#453,10.);
#117=VECTOR('',#454,10.);
#118=VECTOR('',#457,10.);
#119=VECTOR('',#458,10.);
#120=VECTOR('',#459,10.);
#121=VECTOR('',#460,10.);
#122=VECTOR('',#461,10.);
#123=VECTOR('',#462,10.);
#124=VECTOR('',#463,10.);
#125=VECTOR('',#464,10.);
#126=VECTOR('',#465,10.);
#127=VECTOR('',#466,10.);
#128=VECTOR('',#467,10.);
#129=CIRCLE('',#372,19.6);
#130=CIRCLE('',#373,22.);
#131=CIRCLE('',#376,19.6);
#132=CIRCLE('',#377,22.);
#133=CIRCLE('',#380,19.6);
#134=CIRCLE('',#381,19.6);
#135=CIRCLE('',#385,19.6);
#136=CIRCLE('',#386,19.6);
#137=CIRCLE('',#388,17.05);
#138=CIRCLE('',#390,17.05);
#139=CIRCLE('',#392,17.05);
#140=CIRCLE('',#394,19.45);
#141=CIRCLE('',#396,19.45);
#142=CIRCLE('',#398,19.45);
#143=CIRCLE('',#399,22.);
#144=CIRCLE('',#401,22.);
#145=CIRCLE('',#404,19.45);
#146=CIRCLE('',#406,17.05);
#147=VERTEX_POINT('',#518);
#148=VERTEX_POINT('',#519);
#149=VERTEX_POINT('',#521);
#150=VERTEX_POINT('',#523);
#151=VERTEX_POINT('',#527);
#152=VERTEX_POINT('',#529);
#153=VERTEX_POINT('',#533);
#154=VERTEX_POINT('',#535);
#155=VERTEX_POINT('',#542);
#156=VERTEX_POINT('',#544);
#157=VERTEX_POINT('',#548);
#158=VERTEX_POINT('',#549);
#159=VERTEX_POINT('',#551);
#160=VERTEX_POINT('',#553);
#161=VERTEX_POINT('',#555);
#162=VERTEX_POINT('',#557);
#163=VERTEX_POINT('',#559);
#164=VERTEX_POINT('',#561);
#165=VERTEX_POINT('',#563);
#166=VERTEX_POINT('',#565);
#167=VERTEX_POINT('',#567);
#168=VERTEX_POINT('',#569);
#169=VERTEX_POINT('',#573);
#170=VERTEX_POINT('',#574);
#171=VERTEX_POINT('',#576);
#172=VERTEX_POINT('',#578);
#173=VERTEX_POINT('',#580);
#174=VERTEX_POINT('',#582);
#175=VERTEX_POINT('',#584);
#176=VERTEX_POINT('',#587);
#177=VERTEX_POINT('',#589);
#178=VERTEX_POINT('',#591);
#179=EDGE_CURVE('',#147,#148,#129,.T.);
#180=EDGE_CURVE('',#147,#149,#65,.T.);
#181=EDGE_CURVE('',#150,#149,#130,.T.);
#182=EDGE_CURVE('',#148,#150,#66,.T.);
#183=EDGE_CURVE('',#148,#151,#67,.T.);
#184=EDGE_CURVE('',#152,#150,#68,.T.);
#185=EDGE_CURVE('',#151,#152,#69,.T.);
#186=EDGE_CURVE('',#153,#151,#131,.T.);
#187=EDGE_CURVE('',#154,#152,#132,.T.);
#188=EDGE_CURVE('',#153,#154,#70,.T.);
#189=EDGE_CURVE('',#153,#147,#71,.T.);
#190=EDGE_CURVE('',#149,#154,#72,.T.);
#191=EDGE_CURVE('',#151,#155,#133,.T.);
#192=EDGE_CURVE('',#155,#156,#73,.T.);
#193=EDGE_CURVE('',#148,#156,#134,.T.);
#194=EDGE_CURVE('',#157,#158,#74,.T.);
#195=EDGE_CURVE('',#159,#157,#75,.T.);
#196=EDGE_CURVE('',#160,#159,#76,.T.);
#197=EDGE_CURVE('',#161,#160,#77,.T.);
#198=EDGE_CURVE('',#162,#161,#78,.T.);
#199=EDGE_CURVE('',#163,#162,#79,.T.);
#200=EDGE_CURVE('',#164,#163,#80,.T.);
#201=EDGE_CURVE('',#165,#164,#81,.T.);
#202=EDGE_CURVE('',#166,#165,#82,.T.);
#203=EDGE_CURVE('',#167,#166,#83,.T.);
#204=EDGE_CURVE('',#168,#167,#84,.T.);
#205=EDGE_CURVE('',#158,#168,#85,.T.);
#206=EDGE_CURVE('',#169,#170,#86,.T.);
#207=EDGE_CURVE('',#171,#169,#87,.T.);
#208=EDGE_CURVE('',#172,#171,#88,.T.);
#209=EDGE_CURVE('',#173,#172,#89,.T.);
#210=EDGE_CURVE('',#174,#173,#90,.T.);
#211=EDGE_CURVE('',#175,#174,#91,.T.);
#212=EDGE_CURVE('',#156,#175,#92,.T.);
#213=EDGE_CURVE('',#176,#155,#93,.T.);
#214=EDGE_CURVE('',#177,#176,#94,.T.);
#215=EDGE_CURVE('',#178,#177,#95,.T.);
#216=EDGE_CURVE('',#170,#178,#96,.T.);
#217=EDGE_CURVE('',#163,#147,#135,.T.);
#218=EDGE_CURVE('',#162,#153,#136,.T.);
#219=EDGE_CURVE('',#164,#175,#137,.T.);
#220=EDGE_CURVE('',#176,#161,#138,.T.);
#221=EDGE_CURVE('',#177,#160,#139,.T.);
#222=EDGE_CURVE('',#159,#178,#140,.T.);
#223=EDGE_CURVE('',#157,#170,#141,.T.);
#224=EDGE_CURVE('',#172,#167,#142,.T.);
#225=EDGE_CURVE('',#168,#171,#143,.T.);
#226=EDGE_CURVE('',#158,#169,#144,.T.);
#227=EDGE_CURVE('',#173,#166,#145,.T.);
#228=EDGE_CURVE('',#165,#174,#146,.T.);
#229=ORIENTED_EDGE('',*,*,#179,.F.);
#230=ORIENTED_EDGE('',*,*,#180,.T.);
#231=ORIENTED_EDGE('',*,*,#181,.F.);
#232=ORIENTED_EDGE('',*,*,#182,.F.);
#233=ORIENTED_EDGE('',*,*,#183,.F.);
#234=ORIENTED_EDGE('',*,*,#182,.T.);
#235=ORIENTED_EDGE('',*,*,#184,.F.);
#236=ORIENTED_EDGE('',*,*,#185,.F.);
#237=ORIENTED_EDGE('',*,*,#186,.T.);
#238=ORIENTED_EDGE('',*,*,#185,.T.);
#239=ORIENTED_EDGE('',*,*,#187,.F.);
#240=ORIENTED_EDGE('',*,*,#188,.F.);
#241=ORIENTED_EDGE('',*,*,#189,.F.);
#242=ORIENTED_EDGE('',*,*,#188,.T.);
#243=ORIENTED_EDGE('',*,*,#190,.F.);
#244=ORIENTED_EDGE('',*,*,#180,.F.);
#245=ORIENTED_EDGE('',*,*,#183,.T.);
#246=ORIENTED_EDGE('',*,*,#191,.T.);
#247=ORIENTED_EDGE('',*,*,#192,.T.);
#248=ORIENTED_EDGE('',*,*,#193,.F.);
#249=ORIENTED_EDGE('',*,*,#194,.F.);
#250=ORIENTED_EDGE('',*,*,#195,.F.);
#251=ORIENTED_EDGE('',*,*,#196,.F.);
#252=ORIENTED_EDGE('',*,*,#197,.F.);
#253=ORIENTED_EDGE('',*,*,#198,.F.);
#254=ORIENTED_EDGE('',*,*,#199,.F.);
#255=ORIENTED_EDGE('',*,*,#200,.F.);
#256=ORIENTED_EDGE('',*,*,#201,.F.);
#257=ORIENTED_EDGE('',*,*,#202,.F.);
#258=ORIENTED_EDGE('',*,*,#203,.F.);
#259=ORIENTED_EDGE('',*,*,#204,.F.);
#260=ORIENTED_EDGE('',*,*,#205,.F.);
#261=ORIENTED_EDGE('',*,*,#206,.F.);
#262=ORIENTED_EDGE('',*,*,#207,.F.);
#263=ORIENTED_EDGE('',*,*,#208,.F.);
#264=ORIENTED_EDGE('',*,*,#209,.F.);
#265=ORIENTED_EDGE('',*,*,#210,.F.);
#266=ORIENTED_EDGE('',*,*,#211,.F.);
#267=ORIENTED_EDGE('',*,*,#212,.F.);
#268=ORIENTED_EDGE('',*,*,#192,.F.);
#269=ORIENTED_EDGE('',*,*,#213,.F.);
#270=ORIENTED_EDGE('',*,*,#214,.F.);
#271=ORIENTED_EDGE('',*,*,#215,.F.);
#272=ORIENTED_EDGE('',*,*,#216,.F.);
#273=ORIENTED_EDGE('',*,*,#189,.T.);
#274=ORIENTED_EDGE('',*,*,#217,.F.);
#275=ORIENTED_EDGE('',*,*,#199,.T.);
#276=ORIENTED_EDGE('',*,*,#218,.T.);
#277=ORIENTED_EDGE('',*,*,#200,.T.);
#278=ORIENTED_EDGE('',*,*,#217,.T.);
#279=ORIENTED_EDGE('',*,*,#179,.T.);
#280=ORIENTED_EDGE('',*,*,#193,.T.);
#281=ORIENTED_EDGE('',*,*,#212,.T.);
#282=ORIENTED_EDGE('',*,*,#219,.F.);
#283=ORIENTED_EDGE('',*,*,#198,.T.);
#284=ORIENTED_EDGE('',*,*,#220,.F.);
#285=ORIENTED_EDGE('',*,*,#213,.T.);
#286=ORIENTED_EDGE('',*,*,#191,.F.);
#287=ORIENTED_EDGE('',*,*,#186,.F.);
#288=ORIENTED_EDGE('',*,*,#218,.F.);
#289=ORIENTED_EDGE('',*,*,#197,.T.);
#290=ORIENTED_EDGE('',*,*,#221,.F.);
#291=ORIENTED_EDGE('',*,*,#214,.T.);
#292=ORIENTED_EDGE('',*,*,#220,.T.);
#293=ORIENTED_EDGE('',*,*,#196,.T.);
#294=ORIENTED_EDGE('',*,*,#222,.T.);
#295=ORIENTED_EDGE('',*,*,#215,.T.);
#296=ORIENTED_EDGE('',*,*,#221,.T.);
#297=ORIENTED_EDGE('',*,*,#195,.T.);
#298=ORIENTED_EDGE('',*,*,#223,.T.);
#299=ORIENTED_EDGE('',*,*,#216,.T.);
#300=ORIENTED_EDGE('',*,*,#222,.F.);
#301=ORIENTED_EDGE('',*,*,#204,.T.);
#302=ORIENTED_EDGE('',*,*,#224,.F.);
#303=ORIENTED_EDGE('',*,*,#208,.T.);
#304=ORIENTED_EDGE('',*,*,#225,.F.);
#305=ORIENTED_EDGE('',*,*,#194,.T.);
#306=ORIENTED_EDGE('',*,*,#226,.T.);
#307=ORIENTED_EDGE('',*,*,#206,.T.);
#308=ORIENTED_EDGE('',*,*,#223,.F.);
#309=ORIENTED_EDGE('',*,*,#205,.T.);
#310=ORIENTED_EDGE('',*,*,#225,.T.);
#311=ORIENTED_EDGE('',*,*,#207,.T.);
#312=ORIENTED_EDGE('',*,*,#226,.F.);
#313=ORIENTED_EDGE('',*,*,#187,.T.);
#314=ORIENTED_EDGE('',*,*,#184,.T.);
#315=ORIENTED_EDGE('',*,*,#181,.T.);
#316=ORIENTED_EDGE('',*,*,#190,.T.);
#317=ORIENTED_EDGE('',*,*,#203,.T.);
#318=ORIENTED_EDGE('',*,*,#227,.F.);
#319=ORIENTED_EDGE('',*,*,#209,.T.);
#320=ORIENTED_EDGE('',*,*,#224,.T.);
#321=ORIENTED_EDGE('',*,*,#201,.T.);
#322=ORIENTED_EDGE('',*,*,#219,.T.);
#323=ORIENTED_EDGE('',*,*,#211,.T.);
#324=ORIENTED_EDGE('',*,*,#228,.F.);
#325=ORIENTED_EDGE('',*,*,#202,.T.);
#326=ORIENTED_EDGE('',*,*,#228,.T.);
#327=ORIENTED_EDGE('',*,*,#210,.T.);
#328=ORIENTED_EDGE('',*,*,#227,.T.);
#329=PLANE('',#371);
#330=PLANE('',#374);
#331=PLANE('',#375);
#332=PLANE('',#378);
#333=PLANE('',#382);
#334=PLANE('',#383);
#335=PLANE('',#393);
#336=PLANE('',#400);
#337=PLANE('',#407);
#338=ADVANCED_FACE('',(#26),#329,.F.);
#339=ADVANCED_FACE('',(#27),#330,.F.);
#340=ADVANCED_FACE('',(#28),#331,.F.);
#341=ADVANCED_FACE('',(#29),#332,.F.);
#342=ADVANCED_FACE('',(#30),#19,.F.);
#343=ADVANCED_FACE('',(#31),#333,.F.);
#344=ADVANCED_FACE('',(#32),#334,.F.);
#345=ADVANCED_FACE('',(#33),#20,.F.);
#346=ADVANCED_FACE('',(#34),#16,.F.);
#347=ADVANCED_FACE('',(#35),#17,.F.);
#348=ADVANCED_FACE('',(#36),#21,.F.);
#349=ADVANCED_FACE('',(#37),#335,.F.);
#350=ADVANCED_FACE('',(#38),#22,.T.);
#351=ADVANCED_FACE('',(#39),#18,.T.);
#352=ADVANCED_FACE('',(#40),#336,.F.);
#353=ADVANCED_FACE('',(#41,#15),#23,.T.);
#354=ADVANCED_FACE('',(#42),#24,.T.);
#355=ADVANCED_FACE('',(#43),#25,.F.);
#356=ADVANCED_FACE('',(#44),#337,.T.);
#357=CLOSED_SHELL('',(#338,#339,#340,#341,#342,#343,#344,#345,#346,#347,
#348,#349,#350,#351,#352,#353,#354,#355,#356));
#358=DERIVED_UNIT_ELEMENT(#360,1.);
#359=DERIVED_UNIT_ELEMENT(#623,-3.);
#360=(
MASS_UNIT()
NAMED_UNIT(*)
SI_UNIT(.KILO.,.GRAM.)
);
#361=DERIVED_UNIT((#358,#359));
#362=MEASURE_REPRESENTATION_ITEM('density measure',
POSITIVE_RATIO_MEASURE(7850.),#361);
#363=PROPERTY_DEFINITION_REPRESENTATION(#368,#365);
#364=PROPERTY_DEFINITION_REPRESENTATION(#369,#366);
#365=REPRESENTATION('material name',(#367),#620);
#366=REPRESENTATION('density',(#362),#620);
#367=DESCRIPTIVE_REPRESENTATION_ITEM('Steel','Steel');
#368=PROPERTY_DEFINITION('material property','material name',#630);
#369=PROPERTY_DEFINITION('material property','density of part',#630);
#370=AXIS2_PLACEMENT_3D('',#516,#408,#409);
#371=AXIS2_PLACEMENT_3D('',#517,#410,#411);
#372=AXIS2_PLACEMENT_3D('',#520,#412,#413);
#373=AXIS2_PLACEMENT_3D('',#524,#415,#416);
#374=AXIS2_PLACEMENT_3D('',#526,#418,#419);
#375=AXIS2_PLACEMENT_3D('',#532,#423,#424);
#376=AXIS2_PLACEMENT_3D('',#534,#425,#426);
#377=AXIS2_PLACEMENT_3D('',#536,#427,#428);
#378=AXIS2_PLACEMENT_3D('',#538,#430,#431);
#379=AXIS2_PLACEMENT_3D('',#541,#434,#435);
#380=AXIS2_PLACEMENT_3D('',#543,#436,#437);
#381=AXIS2_PLACEMENT_3D('',#546,#439,#440);
#382=AXIS2_PLACEMENT_3D('',#547,#441,#442);
#383=AXIS2_PLACEMENT_3D('',#572,#455,#456);
#384=AXIS2_PLACEMENT_3D('',#594,#468,#469);
#385=AXIS2_PLACEMENT_3D('',#595,#470,#471);
#386=AXIS2_PLACEMENT_3D('',#596,#472,#473);
#387=AXIS2_PLACEMENT_3D('',#597,#474,#475);
#388=AXIS2_PLACEMENT_3D('',#598,#476,#477);
#389=AXIS2_PLACEMENT_3D('',#599,#478,#479);
#390=AXIS2_PLACEMENT_3D('',#600,#480,#481);
#391=AXIS2_PLACEMENT_3D('',#601,#482,#483);
#392=AXIS2_PLACEMENT_3D('',#602,#484,#485);
#393=AXIS2_PLACEMENT_3D('',#603,#486,#487);
#394=AXIS2_PLACEMENT_3D('',#604,#488,#489);
#395=AXIS2_PLACEMENT_3D('',#605,#490,#491);
#396=AXIS2_PLACEMENT_3D('',#606,#492,#493);
#397=AXIS2_PLACEMENT_3D('',#607,#494,#495);
#398=AXIS2_PLACEMENT_3D('',#608,#496,#497);
#399=AXIS2_PLACEMENT_3D('',#609,#498,#499);
#400=AXIS2_PLACEMENT_3D('',#610,#500,#501);
#401=AXIS2_PLACEMENT_3D('',#611,#502,#503);
#402=AXIS2_PLACEMENT_3D('',#612,#504,#505);
#403=AXIS2_PLACEMENT_3D('',#613,#506,#507);
#404=AXIS2_PLACEMENT_3D('',#614,#508,#509);
#405=AXIS2_PLACEMENT_3D('',#615,#510,#511);
#406=AXIS2_PLACEMENT_3D('',#616,#512,#513);
#407=AXIS2_PLACEMENT_3D('',#617,#514,#515);
#408=DIRECTION('axis',(0.,0.,1.));
#409=DIRECTION('refdir',(1.,0.,0.));
#410=DIRECTION('center_axis',(0.,1.,0.));
#411=DIRECTION('ref_axis',(0.984807753012208,0.,-0.17364817766693));
#412=DIRECTION('center_axis',(0.,-1.,0.));
#413=DIRECTION('ref_axis',(1.,0.,0.));
#414=DIRECTION('',(-0.17364817766693,0.,-0.984807753012208));
#415=DIRECTION('center_axis',(0.,1.,0.));
#416=DIRECTION('ref_axis',(1.,0.,0.));
#417=DIRECTION('',(-0.17364817766693,0.,-0.984807753012208));
#418=DIRECTION('center_axis',(0.984807753012208,0.,-0.17364817766693));
#419=DIRECTION('ref_axis',(0.,-1.,0.));
#420=DIRECTION('',(0.,-1.,0.));
#421=DIRECTION('',(0.,1.,0.));
#422=DIRECTION('',(-0.17364817766693,0.,-0.984807753012208));
#423=DIRECTION('center_axis',(0.,-1.,0.));
#424=DIRECTION('ref_axis',(-0.984807753012208,0.,0.17364817766693));
#425=DIRECTION('center_axis',(0.,-1.,0.));
#426=DIRECTION('ref_axis',(1.,0.,0.));
#427=DIRECTION('center_axis',(0.,-1.,0.));
#428=DIRECTION('ref_axis',(1.,0.,0.));
#429=DIRECTION('',(-0.17364817766693,0.,-0.984807753012208));
#430=DIRECTION('center_axis',(-0.984807753012208,0.,0.17364817766693));
#431=DIRECTION('ref_axis',(0.,1.,0.));
#432=DIRECTION('',(0.,1.,0.));
#433=DIRECTION('',(0.,-1.,0.));
#434=DIRECTION('center_axis',(0.,-1.,0.));
#435=DIRECTION('ref_axis',(1.,0.,0.));
#436=DIRECTION('center_axis',(0.,-1.,0.));
#437=DIRECTION('ref_axis',(1.,0.,0.));
#438=DIRECTION('',(0.,1.,0.));
#439=DIRECTION('center_axis',(0.,-1.,0.));
#440=DIRECTION('ref_axis',(1.,0.,0.));
#441=DIRECTION('center_axis',(-0.5,0.,-0.866025403784439));
#442=DIRECTION('ref_axis',(-0.866025403784439,0.,0.5));
#443=DIRECTION('',(-0.866025403784439,0.,0.5));
#444=DIRECTION('',(0.,1.,0.));
#445=DIRECTION('',(-0.866025403784439,0.,0.5));
#446=DIRECTION('',(0.,-1.,0.));
#447=DIRECTION('',(0.612372435695795,-0.707106781186547,-0.353553390593274));
#448=DIRECTION('',(0.,-1.,0.));
#449=DIRECTION('',(-0.612372435695795,-0.707106781186547,0.353553390593274));
#450=DIRECTION('',(0.,-1.,0.));
#451=DIRECTION('',(0.866025403784439,0.,-0.5));
#452=DIRECTION('',(0.,1.,0.));
#453=DIRECTION('',(0.612372435695795,0.707106781186547,-0.353553390593274));
#454=DIRECTION('',(0.,1.,0.));
#455=DIRECTION('center_axis',(0.5,0.,-0.866025403784439));
#456=DIRECTION('ref_axis',(-0.866025403784439,0.,-0.5));
#457=DIRECTION('',(-0.866025403784439,0.,-0.5));
#458=DIRECTION('',(0.,-1.,0.));
#459=DIRECTION('',(0.612372435695795,-0.707106781186547,0.353553390593274));
#460=DIRECTION('',(0.,-1.,0.));
#461=DIRECTION('',(0.866025403784439,0.,0.5));
#462=DIRECTION('',(0.,1.,0.));
#463=DIRECTION('',(-0.612372435695795,0.707106781186547,-0.353553390593274));
#464=DIRECTION('',(0.612372435695795,0.707106781186547,0.353553390593274));
#465=DIRECTION('',(0.,1.,0.));
#466=DIRECTION('',(-0.866025403784439,0.,-0.5));
#467=DIRECTION('',(0.,-1.,0.));
#468=DIRECTION('center_axis',(0.,-1.,0.));
#469=DIRECTION('ref_axis',(-0.921826532780699,0.,-0.387602687634534));
#470=DIRECTION('center_axis',(0.,-1.,0.));
#471=DIRECTION('ref_axis',(1.,0.,0.));
#472=DIRECTION('center_axis',(0.,-1.,0.));
#473=DIRECTION('ref_axis',(1.,0.,0.));
#474=DIRECTION('center_axis',(0.,-1.,0.));
#475=DIRECTION('ref_axis',(-1.83697019872103E-16,0.,-1.));
#476=DIRECTION('center_axis',(0.,-1.,0.));
#477=DIRECTION('ref_axis',(1.,0.,0.));
#478=DIRECTION('center_axis',(0.,1.,0.));
#479=DIRECTION('ref_axis',(-1.83697019872103E-16,0.,-1.));
#480=DIRECTION('center_axis',(0.,1.,0.));
#481=DIRECTION('ref_axis',(1.,0.,0.));
#482=DIRECTION('center_axis',(0.,1.,0.));
#483=DIRECTION('ref_axis',(-1.83697019872103E-16,0.,-1.));
#484=DIRECTION('center_axis',(0.,1.,0.));
#485=DIRECTION('ref_axis',(1.,0.,0.));
#486=DIRECTION('center_axis',(0.,1.,0.));
#487=DIRECTION('ref_axis',(1.,0.,0.));
#488=DIRECTION('center_axis',(0.,-1.,0.));
#489=DIRECTION('ref_axis',(1.,0.,0.));
#490=DIRECTION('center_axis',(0.,1.,0.));
#491=DIRECTION('ref_axis',(-1.83697019872103E-16,0.,-1.));
#492=DIRECTION('center_axis',(0.,-1.,0.));
#493=DIRECTION('ref_axis',(1.,0.,0.));
#494=DIRECTION('center_axis',(0.,-1.,0.));
#495=DIRECTION('ref_axis',(-1.83697019872103E-16,0.,-1.));
#496=DIRECTION('center_axis',(0.,1.,0.));
#497=DIRECTION('ref_axis',(1.,0.,0.));
#498=DIRECTION('center_axis',(0.,-1.,0.));
#499=DIRECTION('ref_axis',(1.,0.,0.));
#500=DIRECTION('center_axis',(0.,1.,0.));
#501=DIRECTION('ref_axis',(1.,0.,0.));
#502=DIRECTION('center_axis',(0.,-1.,0.));
#503=DIRECTION('ref_axis',(1.,0.,0.));
#504=DIRECTION('center_axis',(0.,1.,0.));
#505=DIRECTION('ref_axis',(-1.83697019872103E-16,0.,-1.));
#506=DIRECTION('center_axis',(0.,1.,0.));
#507=DIRECTION('ref_axis',(-1.83697019872103E-16,0.,-1.));
#508=DIRECTION('center_axis',(0.,1.,0.));
#509=DIRECTION('ref_axis',(1.,0.,0.));
#510=DIRECTION('center_axis',(0.,1.,0.));
#511=DIRECTION('ref_axis',(-1.83697019872103E-16,0.,-1.));
#512=DIRECTION('center_axis',(0.,-1.,0.));
#513=DIRECTION('ref_axis',(1.,0.,0.));
#514=DIRECTION('center_axis',(0.,1.,0.));
#515=DIRECTION('ref_axis',(1.,0.,0.));
#516=CARTESIAN_POINT('',(0.,0.,0.));
#517=CARTESIAN_POINT('Origin',(-4.70706773412322,4.65,-18.0569519395267));
#518=CARTESIAN_POINT('',(-4.87073422378918,4.65,-18.9851507268499));
#519=CARTESIAN_POINT('',(-1.91631096475255,4.65,-19.5060952598507));
#520=CARTESIAN_POINT('Origin',(0.,4.65,0.));
#521=CARTESIAN_POINT('',(-5.28858145783389,4.65,-21.3548801486652));
#522=CARTESIAN_POINT('',(-4.70706773412322,4.65,-18.0569519395267));
#523=CARTESIAN_POINT('',(-2.33415819879726,4.65,-21.875824681666));
#524=CARTESIAN_POINT('Origin',(0.,4.65,0.));
#525=CARTESIAN_POINT('',(-1.75264447508659,4.65,-18.5778964725275));
#526=CARTESIAN_POINT('Origin',(-1.75264447508659,4.65,-18.5778964725275));
#527=CARTESIAN_POINT('',(-1.91631096475255,-4.65,-19.5060952598507));
#528=CARTESIAN_POINT('',(-1.91631096475255,0.,-19.5060952598507));
#529=CARTESIAN_POINT('',(-2.33415819879726,-4.65,-21.875824681666));
#530=CARTESIAN_POINT('',(-2.33415819879726,0.,-21.875824681666));
#531=CARTESIAN_POINT('',(-1.75264447508659,-4.65,-18.5778964725275));
#532=CARTESIAN_POINT('Origin',(-1.75264447508659,-4.65,-18.5778964725275));
#533=CARTESIAN_POINT('',(-4.87073422378918,-4.65,-18.9851507268499));
#534=CARTESIAN_POINT('Origin',(0.,-4.65,0.));
#535=CARTESIAN_POINT('',(-5.28858145783389,-4.65,-21.3548801486652));
#536=CARTESIAN_POINT('Origin',(0.,-4.65,0.));
#537=CARTESIAN_POINT('',(-4.70706773412322,-4.65,-18.0569519395267));
#538=CARTESIAN_POINT('Origin',(-4.70706773412322,-4.65,-18.0569519395267));
#539=CARTESIAN_POINT('',(-4.87073422378918,0.,-18.9851507268499));
#540=CARTESIAN_POINT('',(-5.28858145783389,0.,-21.3548801486652));
#541=CARTESIAN_POINT('Origin',(0.,0.,0.));
#542=CARTESIAN_POINT('',(16.974097914175,-4.65,9.8));
#543=CARTESIAN_POINT('Origin',(0.,-4.65,0.));
#544=CARTESIAN_POINT('',(16.974097914175,4.65,9.8));
#545=CARTESIAN_POINT('',(16.974097914175,0.,9.8));
#546=CARTESIAN_POINT('Origin',(0.,4.65,0.));
#547=CARTESIAN_POINT('Origin',(0.,0.,0.));
#548=CARTESIAN_POINT('',(-16.8441941036073,-7.2,9.725));
#549=CARTESIAN_POINT('',(-19.0525588832576,-7.2,11.));
#550=CARTESIAN_POINT('',(0.,-7.2,0.));
#551=CARTESIAN_POINT('',(-16.8441941036073,-8.2,9.725));
#552=CARTESIAN_POINT('',(-16.8441941036073,0.,9.725));
#553=CARTESIAN_POINT('',(-14.7657331345247,-8.2,8.525));
#554=CARTESIAN_POINT('',(0.,-8.2,0.));
#555=CARTESIAN_POINT('',(-14.7657331345247,-7.2,8.525));
#556=CARTESIAN_POINT('',(-14.7657331345247,0.,8.525));
#557=CARTESIAN_POINT('',(-16.974097914175,-4.65,9.8));
#558=CARTESIAN_POINT('',(-15.8699155243498,-5.925,9.1625));
#559=CARTESIAN_POINT('',(-16.974097914175,4.65,9.8));
#560=CARTESIAN_POINT('',(-16.974097914175,0.,9.8));
#561=CARTESIAN_POINT('',(-14.7657331345247,7.2,8.525));
#562=CARTESIAN_POINT('',(-15.8699155243498,5.925,9.1625));
#563=CARTESIAN_POINT('',(-14.7657331345247,11.8,8.525));
#564=CARTESIAN_POINT('',(-14.7657331345247,0.,8.525));
#565=CARTESIAN_POINT('',(-16.8441941036073,11.8,9.725));
#566=CARTESIAN_POINT('',(0.,11.8,0.));
#567=CARTESIAN_POINT('',(-16.8441941036073,8.19411254969543,9.725));
#568=CARTESIAN_POINT('',(-16.8441941036073,0.,9.725));
#569=CARTESIAN_POINT('',(-19.0525588832576,5.64411254969542,11.));
#570=CARTESIAN_POINT('',(-17.9483764934325,6.91911254969543,10.3625));
#571=CARTESIAN_POINT('',(-19.0525588832576,0.,11.));
#572=CARTESIAN_POINT('Origin',(46.7653718043597,0.,27.));
#573=CARTESIAN_POINT('',(19.0525588832576,-7.2,11.));
#574=CARTESIAN_POINT('',(16.8441941036073,-7.2,9.725));
#575=CARTESIAN_POINT('',(23.3826859021798,-7.2,13.5));
#576=CARTESIAN_POINT('',(19.0525588832576,5.64411254969542,11.));
#577=CARTESIAN_POINT('',(19.0525588832576,0.,11.));
#578=CARTESIAN_POINT('',(16.8441941036073,8.19411254969543,9.725));
#579=CARTESIAN_POINT('',(17.9483764934325,6.91911254969543,10.3625));
#580=CARTESIAN_POINT('',(16.8441941036073,11.8,9.725));
#581=CARTESIAN_POINT('',(16.8441941036073,0.,9.725));
#582=CARTESIAN_POINT('',(14.7657331345247,11.8,8.525));
#583=CARTESIAN_POINT('',(23.3826859021798,11.8,13.5));
#584=CARTESIAN_POINT('',(14.7657331345247,7.2,8.525));
#585=CARTESIAN_POINT('',(14.7657331345247,0.,8.525));
#586=CARTESIAN_POINT('',(15.8699155243498,5.925,9.1625));
#587=CARTESIAN_POINT('',(14.7657331345247,-7.2,8.525));
#588=CARTESIAN_POINT('',(15.8699155243498,-5.925,9.1625));
#589=CARTESIAN_POINT('',(14.7657331345247,-8.2,8.525));
#590=CARTESIAN_POINT('',(14.7657331345247,0.,8.525));
#591=CARTESIAN_POINT('',(16.8441941036073,-8.2,9.725));
#592=CARTESIAN_POINT('',(23.3826859021798,-8.2,13.5));
#593=CARTESIAN_POINT('',(16.8441941036073,0.,9.725));
#594=CARTESIAN_POINT('Origin',(0.,0.,0.));
#595=CARTESIAN_POINT('Origin',(0.,4.65,0.));
#596=CARTESIAN_POINT('Origin',(0.,-4.65,0.));
#597=CARTESIAN_POINT('Origin',(0.,5.925,0.));
#598=CARTESIAN_POINT('Origin',(0.,7.2,0.));
#599=CARTESIAN_POINT('Origin',(0.,-5.925,0.));
#600=CARTESIAN_POINT('Origin',(0.,-7.2,0.));
#601=CARTESIAN_POINT('Origin',(0.,0.,0.));
#602=CARTESIAN_POINT('Origin',(0.,-8.2,0.));
#603=CARTESIAN_POINT('Origin',(0.,-8.2,0.));
#604=CARTESIAN_POINT('Origin',(0.,-8.2,0.));
#605=CARTESIAN_POINT('Origin',(0.,0.,0.));
#606=CARTESIAN_POINT('Origin',(0.,-7.2,0.));
#607=CARTESIAN_POINT('Origin',(0.,6.91911254969543,0.));
#608=CARTESIAN_POINT('Origin',(0.,8.19411254969543,0.));
#609=CARTESIAN_POINT('Origin',(0.,5.64411254969542,0.));
#610=CARTESIAN_POINT('Origin',(0.,-7.2,0.));
#611=CARTESIAN_POINT('Origin',(0.,-7.2,0.));
#612=CARTESIAN_POINT('Origin',(0.,0.,0.));
#613=CARTESIAN_POINT('Origin',(0.,0.,0.));
#614=CARTESIAN_POINT('Origin',(0.,11.8,0.));
#615=CARTESIAN_POINT('Origin',(0.,0.,0.));
#616=CARTESIAN_POINT('Origin',(0.,11.8,0.));
#617=CARTESIAN_POINT('Origin',(0.,11.8,0.));
#618=UNCERTAINTY_MEASURE_WITH_UNIT(LENGTH_MEASURE(0.01),#622,
'DISTANCE_ACCURACY_VALUE',
'Maximum model space distance between geometric entities at asserted c
onnectivities');
#619=UNCERTAINTY_MEASURE_WITH_UNIT(LENGTH_MEASURE(0.01),#622,
'DISTANCE_ACCURACY_VALUE',
'Maximum model space distance between geometric entities at asserted c
onnectivities');
#620=(
GEOMETRIC_REPRESENTATION_CONTEXT(3)
GLOBAL_UNCERTAINTY_ASSIGNED_CONTEXT((#618))
GLOBAL_UNIT_ASSIGNED_CONTEXT((#622,#624,#625))
REPRESENTATION_CONTEXT('','3D')
);
#621=(
GEOMETRIC_REPRESENTATION_CONTEXT(3)
GLOBAL_UNCERTAINTY_ASSIGNED_CONTEXT((#619))
GLOBAL_UNIT_ASSIGNED_CONTEXT((#622,#624,#625))
REPRESENTATION_CONTEXT('','3D')
);
#622=(
LENGTH_UNIT()
NAMED_UNIT(*)
SI_UNIT(.MILLI.,.METRE.)
);
#623=(
LENGTH_UNIT()
NAMED_UNIT(*)
SI_UNIT($,.METRE.)
);
#624=(
NAMED_UNIT(*)
PLANE_ANGLE_UNIT()
SI_UNIT($,.RADIAN.)
);
#625=(
NAMED_UNIT(*)
SI_UNIT($,.STERADIAN.)
SOLID_ANGLE_UNIT()
);
#626=SHAPE_DEFINITION_REPRESENTATION(#627,#628);
#627=PRODUCT_DEFINITION_SHAPE('',$,#630);
#628=SHAPE_REPRESENTATION('',(#370),#620);
#629=PRODUCT_DEFINITION_CONTEXT('part definition',#634,'design');
#630=PRODUCT_DEFINITION('2026-09-06-10-05-05-328','Rod Label Collar',#631,
#629);
#631=PRODUCT_DEFINITION_FORMATION('',$,#636);
#632=PRODUCT_RELATED_PRODUCT_CATEGORY('Rod Label Collar',
'Rod Label Collar',(#636));
#633=APPLICATION_PROTOCOL_DEFINITION('international standard',
'automotive_design',2009,#634);
#634=APPLICATION_CONTEXT(
'Core Data for Automotive Mechanical Design Process');
#635=PRODUCT_CONTEXT('part definition',#634,'mechanical');
#636=PRODUCT('2026-09-06-10-05-05-328','Rod Label Collar',$,(#635));
#637=PRESENTATION_STYLE_ASSIGNMENT((#638));
#638=SURFACE_STYLE_USAGE(.BOTH.,#639);
#639=SURFACE_SIDE_STYLE('',(#640));
#640=SURFACE_STYLE_FILL_AREA(#641);
#641=FILL_AREA_STYLE('Steel - Satin',(#642));
#642=FILL_AREA_STYLE_COLOUR('Steel - Satin',#643);
#643=COLOUR_RGB('Steel - Satin',0.627450980392157,0.627450980392157,0.627450980392157);
ENDSEC;
END-ISO-10303-21;
