ISO-10303-21;
HEADER;
/* Generated by software containing ST-Developer
 * from STEP Tools, Inc. (www.steptools.com) 
 */

FILE_DESCRIPTION(
/* description */ (''),
/* implementation_level */ '2;1');

FILE_NAME(
/* name */ 'rod_end_cap.step',
/* time_stamp */ '2026-09-04T12:23:01-05:00',
/* author */ (''),
/* organization */ (''),
/* preprocessor_version */ 'ST-DEVELOPER v20.1',
/* originating_system */ 'Autodesk Translation Framework v15.8.0.0',
/* authorisation */ '');

FILE_SCHEMA (('AUTOMOTIVE_DESIGN { 1 0 10303 214 3 1 1 }'));
ENDSEC;

DATA;
#10=MECHANICAL_DESIGN_GEOMETRIC_PRESENTATION_REPRESENTATION('',(#13),#757);
#11=SHAPE_REPRESENTATION_RELATIONSHIP('SRR','None',#764,#12);
#12=ADVANCED_BREP_SHAPE_REPRESENTATION('',(#14),#756);
#13=STYLED_ITEM('',(#773),#14);
#14=MANIFOLD_SOLID_BREP('rod_end_cap',#446);
#15=CONICAL_SURFACE('',#498,13.45,0.785398163397448);
#16=FACE_BOUND('',#81,.T.);
#17=FACE_BOUND('',#83,.T.);
#18=FACE_BOUND('',#84,.T.);
#19=FACE_BOUND('',#85,.T.);
#20=CYLINDRICAL_SURFACE('',#492,21.);
#21=CYLINDRICAL_SURFACE('',#496,14.7);
#22=CIRCLE('',#464,14.7);
#23=CIRCLE('',#472,14.7);
#24=CIRCLE('',#473,14.7);
#25=CIRCLE('',#480,14.7);
#26=CIRCLE('',#487,14.7);
#27=CIRCLE('',#491,21.);
#28=CIRCLE('',#493,21.);
#29=CIRCLE('',#495,14.7);
#30=CIRCLE('',#497,14.7);
#31=CIRCLE('',#499,12.2);
#32=FACE_OUTER_BOUND('',#58,.T.);
#33=FACE_OUTER_BOUND('',#59,.T.);
#34=FACE_OUTER_BOUND('',#60,.T.);
#35=FACE_OUTER_BOUND('',#61,.T.);
#36=FACE_OUTER_BOUND('',#62,.T.);
#37=FACE_OUTER_BOUND('',#63,.T.);
#38=FACE_OUTER_BOUND('',#64,.T.);
#39=FACE_OUTER_BOUND('',#65,.T.);
#40=FACE_OUTER_BOUND('',#66,.T.);
#41=FACE_OUTER_BOUND('',#67,.T.);
#42=FACE_OUTER_BOUND('',#68,.T.);
#43=FACE_OUTER_BOUND('',#69,.T.);
#44=FACE_OUTER_BOUND('',#70,.T.);
#45=FACE_OUTER_BOUND('',#71,.T.);
#46=FACE_OUTER_BOUND('',#72,.T.);
#47=FACE_OUTER_BOUND('',#73,.T.);
#48=FACE_OUTER_BOUND('',#74,.T.);
#49=FACE_OUTER_BOUND('',#75,.T.);
#50=FACE_OUTER_BOUND('',#76,.T.);
#51=FACE_OUTER_BOUND('',#77,.T.);
#52=FACE_OUTER_BOUND('',#78,.T.);
#53=FACE_OUTER_BOUND('',#79,.T.);
#54=FACE_OUTER_BOUND('',#80,.T.);
#55=FACE_OUTER_BOUND('',#82,.T.);
#56=FACE_OUTER_BOUND('',#86,.T.);
#57=FACE_OUTER_BOUND('',#87,.T.);
#58=EDGE_LOOP('',(#279,#280,#281,#282));
#59=EDGE_LOOP('',(#283,#284,#285,#286));
#60=EDGE_LOOP('',(#287,#288,#289,#290));
#61=EDGE_LOOP('',(#291,#292,#293,#294));
#62=EDGE_LOOP('',(#295,#296,#297,#298));
#63=EDGE_LOOP('',(#299,#300,#301,#302,#303));
#64=EDGE_LOOP('',(#304,#305,#306,#307));
#65=EDGE_LOOP('',(#308,#309,#310,#311,#312));
#66=EDGE_LOOP('',(#313,#314,#315,#316));
#67=EDGE_LOOP('',(#317,#318,#319,#320));
#68=EDGE_LOOP('',(#321,#322,#323,#324));
#69=EDGE_LOOP('',(#325,#326,#327,#328));
#70=EDGE_LOOP('',(#329,#330,#331,#332));
#71=EDGE_LOOP('',(#333,#334,#335,#336));
#72=EDGE_LOOP('',(#337,#338,#339,#340));
#73=EDGE_LOOP('',(#341,#342,#343,#344));
#74=EDGE_LOOP('',(#345,#346,#347,#348));
#75=EDGE_LOOP('',(#349,#350,#351,#352));
#76=EDGE_LOOP('',(#353,#354,#355,#356));
#77=EDGE_LOOP('',(#357,#358,#359,#360));
#78=EDGE_LOOP('',(#361));
#79=EDGE_LOOP('',(#362,#363,#364,#365));
#80=EDGE_LOOP('',(#366));
#81=EDGE_LOOP('',(#367));
#82=EDGE_LOOP('',(#368,#369,#370,#371,#372,#373,#374,#375,#376,#377,#378,
#379));
#83=EDGE_LOOP('',(#380,#381,#382,#383));
#84=EDGE_LOOP('',(#384,#385,#386,#387));
#85=EDGE_LOOP('',(#388,#389,#390,#391));
#86=EDGE_LOOP('',(#392,#393,#394,#395));
#87=EDGE_LOOP('',(#396));
#88=LINE('',#635,#132);
#89=LINE('',#637,#133);
#90=LINE('',#638,#134);
#91=LINE('',#641,#135);
#92=LINE('',#643,#136);
#93=LINE('',#644,#137);
#94=LINE('',#649,#138);
#95=LINE('',#650,#139);
#96=LINE('',#652,#140);
#97=LINE('',#654,#141);
#98=LINE('',#660,#142);
#99=LINE('',#662,#143);
#100=LINE('',#664,#144);
#101=LINE('',#668,#145);
#102=LINE('',#670,#146);
#103=LINE('',#671,#147);
#104=LINE('',#677,#148);
#105=LINE('',#678,#149);
#106=LINE('',#681,#150);
#107=LINE('',#683,#151);
#108=LINE('',#689,#152);
#109=LINE('',#691,#153);
#110=LINE('',#692,#154);
#111=LINE('',#695,#155);
#112=LINE('',#697,#156);
#113=LINE('',#698,#157);
#114=LINE('',#703,#158);
#115=LINE('',#704,#159);
#116=LINE('',#706,#160);
#117=LINE('',#708,#161);
#118=LINE('',#714,#162);
#119=LINE('',#716,#163);
#120=LINE('',#717,#164);
#121=LINE('',#720,#165);
#122=LINE('',#722,#166);
#123=LINE('',#723,#167);
#124=LINE('',#728,#168);
#125=LINE('',#729,#169);
#126=LINE('',#731,#170);
#127=LINE('',#733,#171);
#128=LINE('',#740,#172);
#129=LINE('',#747,#173);
#130=LINE('',#748,#174);
#131=LINE('',#752,#175);
#132=VECTOR('',#507,10.);
#133=VECTOR('',#508,10.);
#134=VECTOR('',#509,10.);
#135=VECTOR('',#512,10.);
#136=VECTOR('',#513,10.);
#137=VECTOR('',#514,10.);
#138=VECTOR('',#519,10.);
#139=VECTOR('',#520,10.);
#140=VECTOR('',#523,10.);
#141=VECTOR('',#526,10.);
#142=VECTOR('',#531,10.);
#143=VECTOR('',#532,10.);
#144=VECTOR('',#533,10.);
#145=VECTOR('',#538,10.);
#146=VECTOR('',#539,10.);
#147=VECTOR('',#540,10.);
#148=VECTOR('',#545,10.);
#149=VECTOR('',#546,10.);
#150=VECTOR('',#551,10.);
#151=VECTOR('',#554,10.);
#152=VECTOR('',#559,10.);
#153=VECTOR('',#560,10.);
#154=VECTOR('',#561,10.);
#155=VECTOR('',#564,10.);
#156=VECTOR('',#565,10.);
#157=VECTOR('',#566,10.);
#158=VECTOR('',#571,10.);
#159=VECTOR('',#572,10.);
#160=VECTOR('',#575,10.);
#161=VECTOR('',#578,10.);
#162=VECTOR('',#583,10.);
#163=VECTOR('',#584,10.);
#164=VECTOR('',#585,10.);
#165=VECTOR('',#588,10.);
#166=VECTOR('',#589,10.);
#167=VECTOR('',#590,10.);
#168=VECTOR('',#595,10.);
#169=VECTOR('',#596,10.);
#170=VECTOR('',#599,10.);
#171=VECTOR('',#602,10.);
#172=VECTOR('',#611,21.);
#173=VECTOR('',#620,14.7);
#174=VECTOR('',#621,14.7);
#175=VECTOR('',#626,13.45);
#176=ELLIPSE('',#461,147.733171630477,14.7);
#177=ELLIPSE('',#468,147.733171630477,14.7);
#178=ELLIPSE('',#469,147.733171630477,14.7);
#179=ELLIPSE('',#477,147.733171630477,14.7);
#180=ELLIPSE('',#484,147.733171630477,14.7);
#181=VERTEX_POINT('',#631);
#182=VERTEX_POINT('',#632);
#183=VERTEX_POINT('',#634);
#184=VERTEX_POINT('',#636);
#185=VERTEX_POINT('',#640);
#186=VERTEX_POINT('',#642);
#187=VERTEX_POINT('',#646);
#188=VERTEX_POINT('',#648);
#189=VERTEX_POINT('',#656);
#190=VERTEX_POINT('',#657);
#191=VERTEX_POINT('',#659);
#192=VERTEX_POINT('',#661);
#193=VERTEX_POINT('',#663);
#194=VERTEX_POINT('',#667);
#195=VERTEX_POINT('',#669);
#196=VERTEX_POINT('',#673);
#197=VERTEX_POINT('',#674);
#198=VERTEX_POINT('',#676);
#199=VERTEX_POINT('',#685);
#200=VERTEX_POINT('',#686);
#201=VERTEX_POINT('',#688);
#202=VERTEX_POINT('',#690);
#203=VERTEX_POINT('',#694);
#204=VERTEX_POINT('',#696);
#205=VERTEX_POINT('',#700);
#206=VERTEX_POINT('',#702);
#207=VERTEX_POINT('',#710);
#208=VERTEX_POINT('',#711);
#209=VERTEX_POINT('',#713);
#210=VERTEX_POINT('',#715);
#211=VERTEX_POINT('',#719);
#212=VERTEX_POINT('',#721);
#213=VERTEX_POINT('',#725);
#214=VERTEX_POINT('',#727);
#215=VERTEX_POINT('',#735);
#216=VERTEX_POINT('',#738);
#217=VERTEX_POINT('',#742);
#218=VERTEX_POINT('',#745);
#219=VERTEX_POINT('',#750);
#220=EDGE_CURVE('',#181,#182,#176,.T.);
#221=EDGE_CURVE('',#183,#181,#88,.T.);
#222=EDGE_CURVE('',#183,#184,#89,.T.);
#223=EDGE_CURVE('',#182,#184,#90,.T.);
#224=EDGE_CURVE('',#185,#181,#91,.T.);
#225=EDGE_CURVE('',#185,#186,#92,.T.);
#226=EDGE_CURVE('',#186,#183,#93,.T.);
#227=EDGE_CURVE('',#187,#185,#22,.T.);
#228=EDGE_CURVE('',#188,#187,#94,.T.);
#229=EDGE_CURVE('',#186,#188,#95,.T.);
#230=EDGE_CURVE('',#184,#188,#96,.T.);
#231=EDGE_CURVE('',#182,#187,#97,.T.);
#232=EDGE_CURVE('',#189,#190,#177,.T.);
#233=EDGE_CURVE('',#191,#189,#98,.T.);
#234=EDGE_CURVE('',#191,#192,#99,.T.);
#235=EDGE_CURVE('',#193,#192,#100,.T.);
#236=EDGE_CURVE('',#190,#193,#178,.T.);
#237=EDGE_CURVE('',#194,#189,#101,.T.);
#238=EDGE_CURVE('',#194,#195,#102,.T.);
#239=EDGE_CURVE('',#195,#191,#103,.T.);
#240=EDGE_CURVE('',#196,#197,#23,.T.);
#241=EDGE_CURVE('',#198,#196,#104,.T.);
#242=EDGE_CURVE('',#195,#198,#105,.T.);
#243=EDGE_CURVE('',#197,#194,#24,.T.);
#244=EDGE_CURVE('',#192,#198,#106,.T.);
#245=EDGE_CURVE('',#193,#196,#107,.T.);
#246=EDGE_CURVE('',#199,#200,#179,.T.);
#247=EDGE_CURVE('',#201,#199,#108,.T.);
#248=EDGE_CURVE('',#201,#202,#109,.T.);
#249=EDGE_CURVE('',#200,#202,#110,.T.);
#250=EDGE_CURVE('',#203,#199,#111,.T.);
#251=EDGE_CURVE('',#203,#204,#112,.T.);
#252=EDGE_CURVE('',#204,#201,#113,.T.);
#253=EDGE_CURVE('',#205,#203,#25,.T.);
#254=EDGE_CURVE('',#206,#205,#114,.T.);
#255=EDGE_CURVE('',#204,#206,#115,.T.);
#256=EDGE_CURVE('',#202,#206,#116,.T.);
#257=EDGE_CURVE('',#200,#205,#117,.T.);
#258=EDGE_CURVE('',#207,#208,#180,.T.);
#259=EDGE_CURVE('',#209,#207,#118,.T.);
#260=EDGE_CURVE('',#209,#210,#119,.T.);
#261=EDGE_CURVE('',#208,#210,#120,.T.);
#262=EDGE_CURVE('',#211,#207,#121,.T.);
#263=EDGE_CURVE('',#211,#212,#122,.T.);
#264=EDGE_CURVE('',#212,#209,#123,.T.);
#265=EDGE_CURVE('',#213,#211,#26,.T.);
#266=EDGE_CURVE('',#214,#213,#124,.T.);
#267=EDGE_CURVE('',#212,#214,#125,.T.);
#268=EDGE_CURVE('',#210,#214,#126,.T.);
#269=EDGE_CURVE('',#208,#213,#127,.T.);
#270=EDGE_CURVE('',#215,#215,#27,.T.);
#271=EDGE_CURVE('',#216,#216,#28,.T.);
#272=EDGE_CURVE('',#216,#215,#128,.T.);
#273=EDGE_CURVE('',#217,#217,#29,.T.);
#274=EDGE_CURVE('',#218,#218,#30,.T.);
#275=EDGE_CURVE('',#218,#190,#129,.T.);
#276=EDGE_CURVE('',#197,#217,#130,.T.);
#277=EDGE_CURVE('',#219,#219,#31,.T.);
#278=EDGE_CURVE('',#219,#218,#131,.T.);
#279=ORIENTED_EDGE('',*,*,#220,.F.);
#280=ORIENTED_EDGE('',*,*,#221,.F.);
#281=ORIENTED_EDGE('',*,*,#222,.T.);
#282=ORIENTED_EDGE('',*,*,#223,.F.);
#283=ORIENTED_EDGE('',*,*,#224,.F.);
#284=ORIENTED_EDGE('',*,*,#225,.T.);
#285=ORIENTED_EDGE('',*,*,#226,.T.);
#286=ORIENTED_EDGE('',*,*,#221,.T.);
#287=ORIENTED_EDGE('',*,*,#227,.F.);
#288=ORIENTED_EDGE('',*,*,#228,.F.);
#289=ORIENTED_EDGE('',*,*,#229,.F.);
#290=ORIENTED_EDGE('',*,*,#225,.F.);
#291=ORIENTED_EDGE('',*,*,#229,.T.);
#292=ORIENTED_EDGE('',*,*,#230,.F.);
#293=ORIENTED_EDGE('',*,*,#222,.F.);
#294=ORIENTED_EDGE('',*,*,#226,.F.);
#295=ORIENTED_EDGE('',*,*,#231,.F.);
#296=ORIENTED_EDGE('',*,*,#223,.T.);
#297=ORIENTED_EDGE('',*,*,#230,.T.);
#298=ORIENTED_EDGE('',*,*,#228,.T.);
#299=ORIENTED_EDGE('',*,*,#232,.F.);
#300=ORIENTED_EDGE('',*,*,#233,.F.);
#301=ORIENTED_EDGE('',*,*,#234,.T.);
#302=ORIENTED_EDGE('',*,*,#235,.F.);
#303=ORIENTED_EDGE('',*,*,#236,.F.);
#304=ORIENTED_EDGE('',*,*,#237,.F.);
#305=ORIENTED_EDGE('',*,*,#238,.T.);
#306=ORIENTED_EDGE('',*,*,#239,.T.);
#307=ORIENTED_EDGE('',*,*,#233,.T.);
#308=ORIENTED_EDGE('',*,*,#240,.F.);
#309=ORIENTED_EDGE('',*,*,#241,.F.);
#310=ORIENTED_EDGE('',*,*,#242,.F.);
#311=ORIENTED_EDGE('',*,*,#238,.F.);
#312=ORIENTED_EDGE('',*,*,#243,.F.);
#313=ORIENTED_EDGE('',*,*,#242,.T.);
#314=ORIENTED_EDGE('',*,*,#244,.F.);
#315=ORIENTED_EDGE('',*,*,#234,.F.);
#316=ORIENTED_EDGE('',*,*,#239,.F.);
#317=ORIENTED_EDGE('',*,*,#245,.F.);
#318=ORIENTED_EDGE('',*,*,#235,.T.);
#319=ORIENTED_EDGE('',*,*,#244,.T.);
#320=ORIENTED_EDGE('',*,*,#241,.T.);
#321=ORIENTED_EDGE('',*,*,#246,.F.);
#322=ORIENTED_EDGE('',*,*,#247,.F.);
#323=ORIENTED_EDGE('',*,*,#248,.T.);
#324=ORIENTED_EDGE('',*,*,#249,.F.);
#325=ORIENTED_EDGE('',*,*,#250,.F.);
#326=ORIENTED_EDGE('',*,*,#251,.T.);
#327=ORIENTED_EDGE('',*,*,#252,.T.);
#328=ORIENTED_EDGE('',*,*,#247,.T.);
#329=ORIENTED_EDGE('',*,*,#253,.F.);
#330=ORIENTED_EDGE('',*,*,#254,.F.);
#331=ORIENTED_EDGE('',*,*,#255,.F.);
#332=ORIENTED_EDGE('',*,*,#251,.F.);
#333=ORIENTED_EDGE('',*,*,#255,.T.);
#334=ORIENTED_EDGE('',*,*,#256,.F.);
#335=ORIENTED_EDGE('',*,*,#248,.F.);
#336=ORIENTED_EDGE('',*,*,#252,.F.);
#337=ORIENTED_EDGE('',*,*,#257,.F.);
#338=ORIENTED_EDGE('',*,*,#249,.T.);
#339=ORIENTED_EDGE('',*,*,#256,.T.);
#340=ORIENTED_EDGE('',*,*,#254,.T.);
#341=ORIENTED_EDGE('',*,*,#258,.F.);
#342=ORIENTED_EDGE('',*,*,#259,.F.);
#343=ORIENTED_EDGE('',*,*,#260,.T.);
#344=ORIENTED_EDGE('',*,*,#261,.F.);
#345=ORIENTED_EDGE('',*,*,#262,.F.);
#346=ORIENTED_EDGE('',*,*,#263,.T.);
#347=ORIENTED_EDGE('',*,*,#264,.T.);
#348=ORIENTED_EDGE('',*,*,#259,.T.);
#349=ORIENTED_EDGE('',*,*,#265,.F.);
#350=ORIENTED_EDGE('',*,*,#266,.F.);
#351=ORIENTED_EDGE('',*,*,#267,.F.);
#352=ORIENTED_EDGE('',*,*,#263,.F.);
#353=ORIENTED_EDGE('',*,*,#267,.T.);
#354=ORIENTED_EDGE('',*,*,#268,.F.);
#355=ORIENTED_EDGE('',*,*,#260,.F.);
#356=ORIENTED_EDGE('',*,*,#264,.F.);
#357=ORIENTED_EDGE('',*,*,#269,.F.);
#358=ORIENTED_EDGE('',*,*,#261,.T.);
#359=ORIENTED_EDGE('',*,*,#268,.T.);
#360=ORIENTED_EDGE('',*,*,#266,.T.);
#361=ORIENTED_EDGE('',*,*,#270,.F.);
#362=ORIENTED_EDGE('',*,*,#271,.F.);
#363=ORIENTED_EDGE('',*,*,#272,.T.);
#364=ORIENTED_EDGE('',*,*,#270,.T.);
#365=ORIENTED_EDGE('',*,*,#272,.F.);
#366=ORIENTED_EDGE('',*,*,#271,.T.);
#367=ORIENTED_EDGE('',*,*,#273,.F.);
#368=ORIENTED_EDGE('',*,*,#274,.F.);
#369=ORIENTED_EDGE('',*,*,#275,.T.);
#370=ORIENTED_EDGE('',*,*,#236,.T.);
#371=ORIENTED_EDGE('',*,*,#245,.T.);
#372=ORIENTED_EDGE('',*,*,#240,.T.);
#373=ORIENTED_EDGE('',*,*,#276,.T.);
#374=ORIENTED_EDGE('',*,*,#273,.T.);
#375=ORIENTED_EDGE('',*,*,#276,.F.);
#376=ORIENTED_EDGE('',*,*,#243,.T.);
#377=ORIENTED_EDGE('',*,*,#237,.T.);
#378=ORIENTED_EDGE('',*,*,#232,.T.);
#379=ORIENTED_EDGE('',*,*,#275,.F.);
#380=ORIENTED_EDGE('',*,*,#224,.T.);
#381=ORIENTED_EDGE('',*,*,#220,.T.);
#382=ORIENTED_EDGE('',*,*,#231,.T.);
#383=ORIENTED_EDGE('',*,*,#227,.T.);
#384=ORIENTED_EDGE('',*,*,#250,.T.);
#385=ORIENTED_EDGE('',*,*,#246,.T.);
#386=ORIENTED_EDGE('',*,*,#257,.T.);
#387=ORIENTED_EDGE('',*,*,#253,.T.);
#388=ORIENTED_EDGE('',*,*,#262,.T.);
#389=ORIENTED_EDGE('',*,*,#258,.T.);
#390=ORIENTED_EDGE('',*,*,#269,.T.);
#391=ORIENTED_EDGE('',*,*,#265,.T.);
#392=ORIENTED_EDGE('',*,*,#277,.F.);
#393=ORIENTED_EDGE('',*,*,#278,.T.);
#394=ORIENTED_EDGE('',*,*,#274,.T.);
#395=ORIENTED_EDGE('',*,*,#278,.F.);
#396=ORIENTED_EDGE('',*,*,#277,.T.);
#397=PLANE('',#460);
#398=PLANE('',#462);
#399=PLANE('',#463);
#400=PLANE('',#465);
#401=PLANE('',#466);
#402=PLANE('',#467);
#403=PLANE('',#470);
#404=PLANE('',#471);
#405=PLANE('',#474);
#406=PLANE('',#475);
#407=PLANE('',#476);
#408=PLANE('',#478);
#409=PLANE('',#479);
#410=PLANE('',#481);
#411=PLANE('',#482);
#412=PLANE('',#483);
#413=PLANE('',#485);
#414=PLANE('',#486);
#415=PLANE('',#488);
#416=PLANE('',#489);
#417=PLANE('',#490);
#418=PLANE('',#494);
#419=PLANE('',#500);
#420=ADVANCED_FACE('',(#32),#397,.T.);
#421=ADVANCED_FACE('',(#33),#398,.T.);
#422=ADVANCED_FACE('',(#34),#399,.T.);
#423=ADVANCED_FACE('',(#35),#400,.T.);
#424=ADVANCED_FACE('',(#36),#401,.T.);
#425=ADVANCED_FACE('',(#37),#402,.T.);
#426=ADVANCED_FACE('',(#38),#403,.T.);
#427=ADVANCED_FACE('',(#39),#404,.T.);
#428=ADVANCED_FACE('',(#40),#405,.T.);
#429=ADVANCED_FACE('',(#41),#406,.T.);
#430=ADVANCED_FACE('',(#42),#407,.T.);
#431=ADVANCED_FACE('',(#43),#408,.T.);
#432=ADVANCED_FACE('',(#44),#409,.T.);
#433=ADVANCED_FACE('',(#45),#410,.T.);
#434=ADVANCED_FACE('',(#46),#411,.T.);
#435=ADVANCED_FACE('',(#47),#412,.T.);
#436=ADVANCED_FACE('',(#48),#413,.T.);
#437=ADVANCED_FACE('',(#49),#414,.T.);
#438=ADVANCED_FACE('',(#50),#415,.T.);
#439=ADVANCED_FACE('',(#51),#416,.T.);
#440=ADVANCED_FACE('',(#52),#417,.T.);
#441=ADVANCED_FACE('',(#53),#20,.T.);
#442=ADVANCED_FACE('',(#54,#16),#418,.T.);
#443=ADVANCED_FACE('',(#55,#17,#18,#19),#21,.T.);
#444=ADVANCED_FACE('',(#56),#15,.T.);
#445=ADVANCED_FACE('',(#57),#419,.T.);
#446=CLOSED_SHELL('',(#420,#421,#422,#423,#424,#425,#426,#427,#428,#429,
#430,#431,#432,#433,#434,#435,#436,#437,#438,#439,#440,#441,#442,#443,#444,
#445));
#447=DERIVED_UNIT_ELEMENT(#449,1.);
#448=DERIVED_UNIT_ELEMENT(#759,-3.);
#449=(
MASS_UNIT()
NAMED_UNIT(*)
SI_UNIT(.KILO.,.GRAM.)
);
#450=DERIVED_UNIT((#447,#448));
#451=MEASURE_REPRESENTATION_ITEM('density measure',
POSITIVE_RATIO_MEASURE(7850.),#450);
#452=PROPERTY_DEFINITION_REPRESENTATION(#457,#454);
#453=PROPERTY_DEFINITION_REPRESENTATION(#458,#455);
#454=REPRESENTATION('material name',(#456),#756);
#455=REPRESENTATION('density',(#451),#756);
#456=DESCRIPTIVE_REPRESENTATION_ITEM('Steel','Steel');
#457=PROPERTY_DEFINITION('material property','material name',#766);
#458=PROPERTY_DEFINITION('material property','density of part',#766);
#459=AXIS2_PLACEMENT_3D('',#629,#501,#502);
#460=AXIS2_PLACEMENT_3D('',#630,#503,#504);
#461=AXIS2_PLACEMENT_3D('',#633,#505,#506);
#462=AXIS2_PLACEMENT_3D('',#639,#510,#511);
#463=AXIS2_PLACEMENT_3D('',#645,#515,#516);
#464=AXIS2_PLACEMENT_3D('',#647,#517,#518);
#465=AXIS2_PLACEMENT_3D('',#651,#521,#522);
#466=AXIS2_PLACEMENT_3D('',#653,#524,#525);
#467=AXIS2_PLACEMENT_3D('',#655,#527,#528);
#468=AXIS2_PLACEMENT_3D('',#658,#529,#530);
#469=AXIS2_PLACEMENT_3D('',#665,#534,#535);
#470=AXIS2_PLACEMENT_3D('',#666,#536,#537);
#471=AXIS2_PLACEMENT_3D('',#672,#541,#542);
#472=AXIS2_PLACEMENT_3D('',#675,#543,#544);
#473=AXIS2_PLACEMENT_3D('',#679,#547,#548);
#474=AXIS2_PLACEMENT_3D('',#680,#549,#550);
#475=AXIS2_PLACEMENT_3D('',#682,#552,#553);
#476=AXIS2_PLACEMENT_3D('',#684,#555,#556);
#477=AXIS2_PLACEMENT_3D('',#687,#557,#558);
#478=AXIS2_PLACEMENT_3D('',#693,#562,#563);
#479=AXIS2_PLACEMENT_3D('',#699,#567,#568);
#480=AXIS2_PLACEMENT_3D('',#701,#569,#570);
#481=AXIS2_PLACEMENT_3D('',#705,#573,#574);
#482=AXIS2_PLACEMENT_3D('',#707,#576,#577);
#483=AXIS2_PLACEMENT_3D('',#709,#579,#580);
#484=AXIS2_PLACEMENT_3D('',#712,#581,#582);
#485=AXIS2_PLACEMENT_3D('',#718,#586,#587);
#486=AXIS2_PLACEMENT_3D('',#724,#591,#592);
#487=AXIS2_PLACEMENT_3D('',#726,#593,#594);
#488=AXIS2_PLACEMENT_3D('',#730,#597,#598);
#489=AXIS2_PLACEMENT_3D('',#732,#600,#601);
#490=AXIS2_PLACEMENT_3D('',#734,#603,#604);
#491=AXIS2_PLACEMENT_3D('',#736,#605,#606);
#492=AXIS2_PLACEMENT_3D('',#737,#607,#608);
#493=AXIS2_PLACEMENT_3D('',#739,#609,#610);
#494=AXIS2_PLACEMENT_3D('',#741,#612,#613);
#495=AXIS2_PLACEMENT_3D('',#743,#614,#615);
#496=AXIS2_PLACEMENT_3D('',#744,#616,#617);
#497=AXIS2_PLACEMENT_3D('',#746,#618,#619);
#498=AXIS2_PLACEMENT_3D('',#749,#622,#623);
#499=AXIS2_PLACEMENT_3D('',#751,#624,#625);
#500=AXIS2_PLACEMENT_3D('',#753,#627,#628);
#501=DIRECTION('axis',(0.,0.,1.));
#502=DIRECTION('refdir',(1.,0.,0.));
#503=DIRECTION('center_axis',(-1.82785366503486E-16,-0.995037190209989,
0.0995037190209989));
#504=DIRECTION('ref_axis',(-1.82785366503486E-17,-0.0995037190209989,-0.995037190209989));
#505=DIRECTION('center_axis',(-1.82785366503486E-16,-0.995037190209989,
0.0995037190209989));
#506=DIRECTION('ref_axis',(0.,0.0995037190209988,0.995037190209989));
#507=DIRECTION('',(1.82785366503486E-17,0.0995037190209989,0.995037190209989));
#508=DIRECTION('',(1.,-1.83697019872103E-16,0.));
#509=DIRECTION('',(-1.82785366503486E-17,-0.0995037190209989,-0.995037190209989));
#510=DIRECTION('center_axis',(-1.,1.83697019872103E-16,0.));
#511=DIRECTION('ref_axis',(0.,0.,-1.));
#512=DIRECTION('',(0.,0.,1.));
#513=DIRECTION('',(-1.83697019872103E-16,-1.,0.));
#514=DIRECTION('',(0.,0.,1.));
#515=DIRECTION('center_axis',(0.,0.,-1.));
#516=DIRECTION('ref_axis',(1.83697019872103E-16,1.,0.));
#517=DIRECTION('center_axis',(0.,0.,-1.));
#518=DIRECTION('ref_axis',(1.,0.,0.));
#519=DIRECTION('',(1.83697019872103E-16,1.,0.));
#520=DIRECTION('',(1.,-1.83697019872103E-16,0.));
#521=DIRECTION('center_axis',(-1.83697019872103E-16,-1.,0.));
#522=DIRECTION('ref_axis',(0.,0.,-1.));
#523=DIRECTION('',(0.,0.,-1.));
#524=DIRECTION('center_axis',(1.,-1.83697019872103E-16,0.));
#525=DIRECTION('ref_axis',(0.,0.,1.));
#526=DIRECTION('',(0.,0.,-1.));
#527=DIRECTION('center_axis',(-0.995037190209989,1.21856911002324E-16,0.0995037190209989));
#528=DIRECTION('ref_axis',(-0.0995037190209989,1.21856911002324E-17,-0.995037190209989));
#529=DIRECTION('center_axis',(-0.995037190209989,1.21856911002324E-16,0.0995037190209989));
#530=DIRECTION('ref_axis',(0.0995037190209988,0.,0.995037190209989));
#531=DIRECTION('',(0.0995037190209989,-1.21856911002324E-17,0.995037190209989));
#532=DIRECTION('',(-1.22464679914735E-16,-1.,0.));
#533=DIRECTION('',(-0.0995037190209989,1.21856911002324E-17,-0.995037190209989));
#534=DIRECTION('center_axis',(-0.995037190209989,1.21856911002324E-16,0.0995037190209989));
#535=DIRECTION('ref_axis',(0.0995037190209988,0.,0.995037190209989));
#536=DIRECTION('center_axis',(1.22464679914735E-16,1.,0.));
#537=DIRECTION('ref_axis',(0.,0.,-1.));
#538=DIRECTION('',(0.,0.,1.));
#539=DIRECTION('',(-1.,1.22464679914735E-16,0.));
#540=DIRECTION('',(0.,0.,1.));
#541=DIRECTION('center_axis',(0.,0.,-1.));
#542=DIRECTION('ref_axis',(1.,-1.22464679914735E-16,0.));
#543=DIRECTION('center_axis',(0.,0.,-1.));
#544=DIRECTION('ref_axis',(1.,0.,0.));
#545=DIRECTION('',(1.,-1.22464679914735E-16,0.));
#546=DIRECTION('',(-1.22464679914735E-16,-1.,0.));
#547=DIRECTION('center_axis',(0.,0.,-1.));
#548=DIRECTION('ref_axis',(1.,0.,0.));
#549=DIRECTION('center_axis',(-1.,1.22464679914735E-16,0.));
#550=DIRECTION('ref_axis',(0.,0.,-1.));
#551=DIRECTION('',(0.,0.,-1.));
#552=DIRECTION('center_axis',(-1.22464679914735E-16,-1.,0.));
#553=DIRECTION('ref_axis',(0.,0.,1.));
#554=DIRECTION('',(0.,0.,-1.));
#555=DIRECTION('center_axis',(6.0928455501162E-17,0.995037190209989,0.0995037190209989));
#556=DIRECTION('ref_axis',(6.09284555011619E-18,0.0995037190209989,-0.995037190209989));
#557=DIRECTION('center_axis',(6.0928455501162E-17,0.995037190209989,0.0995037190209989));
#558=DIRECTION('ref_axis',(0.,0.0995037190209988,-0.995037190209989));
#559=DIRECTION('',(-6.09284555011619E-18,-0.0995037190209989,0.995037190209989));
#560=DIRECTION('',(-1.,6.12323399573677E-17,0.));
#561=DIRECTION('',(6.09284555011619E-18,0.0995037190209989,-0.995037190209989));
#562=DIRECTION('center_axis',(1.,-6.12323399573677E-17,0.));
#563=DIRECTION('ref_axis',(0.,0.,-1.));
#564=DIRECTION('',(0.,0.,1.));
#565=DIRECTION('',(6.12323399573677E-17,1.,0.));
#566=DIRECTION('',(0.,0.,1.));
#567=DIRECTION('center_axis',(0.,0.,-1.));
#568=DIRECTION('ref_axis',(-6.12323399573677E-17,-1.,0.));
#569=DIRECTION('center_axis',(0.,0.,-1.));
#570=DIRECTION('ref_axis',(1.,0.,0.));
#571=DIRECTION('',(-6.12323399573677E-17,-1.,0.));
#572=DIRECTION('',(-1.,6.12323399573677E-17,0.));
#573=DIRECTION('center_axis',(6.12323399573677E-17,1.,0.));
#574=DIRECTION('ref_axis',(0.,0.,-1.));
#575=DIRECTION('',(0.,0.,-1.));
#576=DIRECTION('center_axis',(-1.,6.12323399573677E-17,0.));
#577=DIRECTION('ref_axis',(0.,0.,1.));
#578=DIRECTION('',(0.,0.,-1.));
#579=DIRECTION('center_axis',(0.995037190209989,0.,0.0995037190209989));
#580=DIRECTION('ref_axis',(0.0995037190209989,0.,-0.995037190209989));
#581=DIRECTION('center_axis',(0.995037190209989,0.,0.0995037190209989));
#582=DIRECTION('ref_axis',(0.0995037190209988,0.,-0.995037190209989));
#583=DIRECTION('',(-0.0995037190209989,0.,0.995037190209989));
#584=DIRECTION('',(0.,1.,0.));
#585=DIRECTION('',(0.0995037190209989,0.,-0.995037190209989));
#586=DIRECTION('center_axis',(0.,-1.,0.));
#587=DIRECTION('ref_axis',(0.,0.,-1.));
#588=DIRECTION('',(0.,0.,1.));
#589=DIRECTION('',(1.,0.,0.));
#590=DIRECTION('',(0.,0.,1.));
#591=DIRECTION('center_axis',(0.,0.,-1.));
#592=DIRECTION('ref_axis',(-1.,0.,0.));
#593=DIRECTION('center_axis',(0.,0.,-1.));
#594=DIRECTION('ref_axis',(1.,0.,0.));
#595=DIRECTION('',(-1.,0.,0.));
#596=DIRECTION('',(0.,1.,0.));
#597=DIRECTION('center_axis',(1.,0.,0.));
#598=DIRECTION('ref_axis',(0.,0.,-1.));
#599=DIRECTION('',(0.,0.,-1.));
#600=DIRECTION('center_axis',(0.,1.,0.));
#601=DIRECTION('ref_axis',(0.,0.,1.));
#602=DIRECTION('',(0.,0.,-1.));
#603=DIRECTION('center_axis',(0.,0.,-1.));
#604=DIRECTION('ref_axis',(-1.,0.,0.));
#605=DIRECTION('center_axis',(0.,0.,1.));
#606=DIRECTION('ref_axis',(1.,0.,0.));
#607=DIRECTION('center_axis',(0.,0.,1.));
#608=DIRECTION('ref_axis',(1.,0.,0.));
#609=DIRECTION('center_axis',(0.,0.,1.));
#610=DIRECTION('ref_axis',(1.,0.,0.));
#611=DIRECTION('',(0.,0.,-1.));
#612=DIRECTION('center_axis',(0.,0.,1.));
#613=DIRECTION('ref_axis',(1.,0.,0.));
#614=DIRECTION('center_axis',(0.,0.,1.));
#615=DIRECTION('ref_axis',(1.,0.,0.));
#616=DIRECTION('center_axis',(0.,0.,1.));
#617=DIRECTION('ref_axis',(1.,0.,0.));
#618=DIRECTION('center_axis',(0.,0.,1.));
#619=DIRECTION('ref_axis',(1.,0.,0.));
#620=DIRECTION('',(0.,0.,-1.));
#621=DIRECTION('',(0.,0.,-1.));
#622=DIRECTION('center_axis',(0.,0.,-1.));
#623=DIRECTION('ref_axis',(1.,0.,0.));
#624=DIRECTION('center_axis',(0.,0.,1.));
#625=DIRECTION('ref_axis',(1.,0.,0.));
#626=DIRECTION('',(-0.707106781186548,-8.65956056235493E-17,-0.707106781186547));
#627=DIRECTION('center_axis',(0.,0.,1.));
#628=DIRECTION('ref_axis',(1.,0.,0.));
#629=CARTESIAN_POINT('',(0.,0.,0.));
#630=CARTESIAN_POINT('Origin',(-2.51664917224781E-15,-13.7,26.));
#631=CARTESIAN_POINT('',(-1.,-14.6659469520382,16.3405304796175));
#632=CARTESIAN_POINT('',(0.999999999999997,-14.6659469520382,16.3405304796175));
#633=CARTESIAN_POINT('Origin',(0.,0.,163.));
#634=CARTESIAN_POINT('',(-1.,-15.2,11.));
#635=CARTESIAN_POINT('',(-1.,-15.2,11.));
#636=CARTESIAN_POINT('',(0.999999999999997,-15.2,11.));
#637=CARTESIAN_POINT('',(-2.79219470205596E-15,-15.2,11.));
#638=CARTESIAN_POINT('',(0.999999999999997,-15.2,11.));
#639=CARTESIAN_POINT('Origin',(-1.,-14.45,15.5));
#640=CARTESIAN_POINT('',(-1.,-14.6659469520382,5.));
#641=CARTESIAN_POINT('',(-1.,-14.6659469520382,14.75));
#642=CARTESIAN_POINT('',(-1.,-15.2,5.));
#643=CARTESIAN_POINT('',(-1.,-13.7,5.));
#644=CARTESIAN_POINT('',(-1.,-15.2,5.));
#645=CARTESIAN_POINT('Origin',(-2.79219470205596E-15,-15.2,5.));
#646=CARTESIAN_POINT('',(0.999999999999997,-14.6659469520382,5.));
#647=CARTESIAN_POINT('Origin',(0.,0.,5.));
#648=CARTESIAN_POINT('',(0.999999999999997,-15.2,5.));
#649=CARTESIAN_POINT('',(0.999999999999998,-13.7,5.));
#650=CARTESIAN_POINT('',(-2.79219470205596E-15,-15.2,5.));
#651=CARTESIAN_POINT('Origin',(-2.79219470205596E-15,-15.2,11.));
#652=CARTESIAN_POINT('',(0.999999999999997,-15.2,5.));
#653=CARTESIAN_POINT('Origin',(0.999999999999997,-14.45,15.5));
#654=CARTESIAN_POINT('',(0.999999999999997,-14.6659469520382,14.75));
#655=CARTESIAN_POINT('Origin',(-13.7,1.67776611483187E-15,26.));
#656=CARTESIAN_POINT('',(-14.6659469520382,1.,16.3405304796175));
#657=CARTESIAN_POINT('',(-14.7,-1.80023079474661E-15,16.));
#658=CARTESIAN_POINT('Origin',(0.,0.,163.));
#659=CARTESIAN_POINT('',(-15.2,1.,11.));
#660=CARTESIAN_POINT('',(-15.2,1.,11.));
#661=CARTESIAN_POINT('',(-15.2,-0.999999999999998,11.));
#662=CARTESIAN_POINT('',(-15.2,1.86146313470398E-15,11.));
#663=CARTESIAN_POINT('',(-14.6659469520382,-0.999999999999998,16.3405304796175));
#664=CARTESIAN_POINT('',(-15.2,-0.999999999999998,11.));
#665=CARTESIAN_POINT('Origin',(0.,0.,163.));
#666=CARTESIAN_POINT('Origin',(-14.45,1.,15.5));
#667=CARTESIAN_POINT('',(-14.6659469520382,1.,5.));
#668=CARTESIAN_POINT('',(-14.6659469520382,1.,14.75));
#669=CARTESIAN_POINT('',(-15.2,1.,5.));
#670=CARTESIAN_POINT('',(-13.7,1.,5.));
#671=CARTESIAN_POINT('',(-15.2,1.,5.));
#672=CARTESIAN_POINT('Origin',(-15.2,1.86146313470398E-15,5.));
#673=CARTESIAN_POINT('',(-14.6659469520382,-0.999999999999998,5.));
#674=CARTESIAN_POINT('',(-14.7,-1.80023079474661E-15,5.));
#675=CARTESIAN_POINT('Origin',(0.,0.,5.));
#676=CARTESIAN_POINT('',(-15.2,-0.999999999999998,5.));
#677=CARTESIAN_POINT('',(-13.7,-0.999999999999998,5.));
#678=CARTESIAN_POINT('',(-15.2,1.86146313470398E-15,5.));
#679=CARTESIAN_POINT('Origin',(0.,0.,5.));
#680=CARTESIAN_POINT('Origin',(-15.2,1.86146313470398E-15,11.));
#681=CARTESIAN_POINT('',(-15.2,-0.999999999999998,5.));
#682=CARTESIAN_POINT('Origin',(-14.45,-0.999999999999998,15.5));
#683=CARTESIAN_POINT('',(-14.6659469520382,-0.999999999999998,14.75));
#684=CARTESIAN_POINT('Origin',(8.38883057415937E-16,13.7,26.));
#685=CARTESIAN_POINT('',(1.,14.6659469520382,16.3405304796175));
#686=CARTESIAN_POINT('',(-0.999999999999999,14.6659469520382,16.3405304796175));
#687=CARTESIAN_POINT('Origin',(0.,0.,163.));
#688=CARTESIAN_POINT('',(1.,15.2,11.));
#689=CARTESIAN_POINT('',(1.,15.2,11.));
#690=CARTESIAN_POINT('',(-0.999999999999999,15.2,11.));
#691=CARTESIAN_POINT('',(9.30731567351989E-16,15.2,11.));
#692=CARTESIAN_POINT('',(-0.999999999999999,15.2,11.));
#693=CARTESIAN_POINT('Origin',(1.,14.45,15.5));
#694=CARTESIAN_POINT('',(1.,14.6659469520382,5.));
#695=CARTESIAN_POINT('',(1.,14.6659469520382,14.75));
#696=CARTESIAN_POINT('',(1.,15.2,5.));
#697=CARTESIAN_POINT('',(1.,13.7,5.));
#698=CARTESIAN_POINT('',(1.,15.2,5.));
#699=CARTESIAN_POINT('Origin',(9.30731567351989E-16,15.2,5.));
#700=CARTESIAN_POINT('',(-0.999999999999999,14.6659469520382,5.));
#701=CARTESIAN_POINT('Origin',(0.,0.,5.));
#702=CARTESIAN_POINT('',(-0.999999999999999,15.2,5.));
#703=CARTESIAN_POINT('',(-0.999999999999999,13.7,5.));
#704=CARTESIAN_POINT('',(9.30731567351989E-16,15.2,5.));
#705=CARTESIAN_POINT('Origin',(9.30731567351989E-16,15.2,11.));
#706=CARTESIAN_POINT('',(-0.999999999999999,15.2,5.));
#707=CARTESIAN_POINT('Origin',(-0.999999999999999,14.45,15.5));
#708=CARTESIAN_POINT('',(-0.999999999999999,14.6659469520382,14.75));
#709=CARTESIAN_POINT('Origin',(13.7,0.,26.));
#710=CARTESIAN_POINT('',(14.6659469520382,-1.,16.3405304796175));
#711=CARTESIAN_POINT('',(14.6659469520382,1.,16.3405304796175));
#712=CARTESIAN_POINT('Origin',(0.,0.,163.));
#713=CARTESIAN_POINT('',(15.2,-1.,11.));
#714=CARTESIAN_POINT('',(15.2,-1.,11.));
#715=CARTESIAN_POINT('',(15.2,1.,11.));
#716=CARTESIAN_POINT('',(15.2,0.,11.));
#717=CARTESIAN_POINT('',(15.2,1.,11.));
#718=CARTESIAN_POINT('Origin',(14.45,-1.,15.5));
#719=CARTESIAN_POINT('',(14.6659469520382,-1.,5.));
#720=CARTESIAN_POINT('',(14.6659469520382,-1.,14.75));
#721=CARTESIAN_POINT('',(15.2,-1.,5.));
#722=CARTESIAN_POINT('',(13.7,-1.,5.));
#723=CARTESIAN_POINT('',(15.2,-1.,5.));
#724=CARTESIAN_POINT('Origin',(15.2,0.,5.));
#725=CARTESIAN_POINT('',(14.6659469520382,1.,5.));
#726=CARTESIAN_POINT('Origin',(0.,0.,5.));
#727=CARTESIAN_POINT('',(15.2,1.,5.));
#728=CARTESIAN_POINT('',(13.7,1.,5.));
#729=CARTESIAN_POINT('',(15.2,0.,5.));
#730=CARTESIAN_POINT('Origin',(15.2,0.,11.));
#731=CARTESIAN_POINT('',(15.2,1.,5.));
#732=CARTESIAN_POINT('Origin',(14.45,1.,15.5));
#733=CARTESIAN_POINT('',(14.6659469520382,1.,14.75));
#734=CARTESIAN_POINT('Origin',(21.,0.,0.));
#735=CARTESIAN_POINT('',(-21.,-2.57175827820944E-15,0.));
#736=CARTESIAN_POINT('Origin',(0.,0.,0.));
#737=CARTESIAN_POINT('Origin',(0.,0.,2.));
#738=CARTESIAN_POINT('',(-21.,-2.57175827820944E-15,4.));
#739=CARTESIAN_POINT('Origin',(0.,0.,4.));
#740=CARTESIAN_POINT('',(-21.,-2.57175827820944E-15,2.));
#741=CARTESIAN_POINT('Origin',(14.7,0.,4.));
#742=CARTESIAN_POINT('',(-14.7,-1.80023079474661E-15,4.));
#743=CARTESIAN_POINT('Origin',(0.,0.,4.));
#744=CARTESIAN_POINT('Origin',(0.,0.,14.75));
#745=CARTESIAN_POINT('',(-14.7,-1.80023079474661E-15,25.5));
#746=CARTESIAN_POINT('Origin',(0.,0.,25.5));
#747=CARTESIAN_POINT('',(-14.7,-1.80023079474661E-15,14.75));
#748=CARTESIAN_POINT('',(-14.7,-1.80023079474661E-15,14.75));
#749=CARTESIAN_POINT('Origin',(0.,0.,26.75));
#750=CARTESIAN_POINT('',(-12.2,-1.49406909495977E-15,28.));
#751=CARTESIAN_POINT('Origin',(0.,0.,28.));
#752=CARTESIAN_POINT('',(-13.45,-1.64714994485319E-15,26.75));
#753=CARTESIAN_POINT('Origin',(0.,0.,28.));
#754=UNCERTAINTY_MEASURE_WITH_UNIT(LENGTH_MEASURE(0.01),#758,
'DISTANCE_ACCURACY_VALUE',
'Maximum model space distance between geometric entities at asserted c
onnectivities');
#755=UNCERTAINTY_MEASURE_WITH_UNIT(LENGTH_MEASURE(0.01),#758,
'DISTANCE_ACCURACY_VALUE',
'Maximum model space distance between geometric entities at asserted c
onnectivities');
#756=(
GEOMETRIC_REPRESENTATION_CONTEXT(3)
GLOBAL_UNCERTAINTY_ASSIGNED_CONTEXT((#754))
GLOBAL_UNIT_ASSIGNED_CONTEXT((#758,#760,#761))
REPRESENTATION_CONTEXT('','3D')
);
#757=(
GEOMETRIC_REPRESENTATION_CONTEXT(3)
GLOBAL_UNCERTAINTY_ASSIGNED_CONTEXT((#755))
GLOBAL_UNIT_ASSIGNED_CONTEXT((#758,#760,#761))
REPRESENTATION_CONTEXT('','3D')
);
#758=(
LENGTH_UNIT()
NAMED_UNIT(*)
SI_UNIT(.MILLI.,.METRE.)
);
#759=(
LENGTH_UNIT()
NAMED_UNIT(*)
SI_UNIT($,.METRE.)
);
#760=(
NAMED_UNIT(*)
PLANE_ANGLE_UNIT()
SI_UNIT($,.RADIAN.)
);
#761=(
NAMED_UNIT(*)
SI_UNIT($,.STERADIAN.)
SOLID_ANGLE_UNIT()
);
#762=SHAPE_DEFINITION_REPRESENTATION(#763,#764);
#763=PRODUCT_DEFINITION_SHAPE('',$,#766);
#764=SHAPE_REPRESENTATION('',(#459),#756);
#765=PRODUCT_DEFINITION_CONTEXT('part definition',#770,'design');
#766=PRODUCT_DEFINITION('2026-09-03-23-52-10-226','Rod End Cap',#767,#765);
#767=PRODUCT_DEFINITION_FORMATION('',$,#772);
#768=PRODUCT_RELATED_PRODUCT_CATEGORY('Rod End Cap','Rod End Cap',(#772));
#769=APPLICATION_PROTOCOL_DEFINITION('international standard',
'automotive_design',2009,#770);
#770=APPLICATION_CONTEXT(
'Core Data for Automotive Mechanical Design Process');
#771=PRODUCT_CONTEXT('part definition',#770,'mechanical');
#772=PRODUCT('2026-09-03-23-52-10-226','Rod End Cap',$,(#771));
#773=PRESENTATION_STYLE_ASSIGNMENT((#774));
#774=SURFACE_STYLE_USAGE(.BOTH.,#775);
#775=SURFACE_SIDE_STYLE('',(#776));
#776=SURFACE_STYLE_FILL_AREA(#777);
#777=FILL_AREA_STYLE('Steel - Satin',(#778));
#778=FILL_AREA_STYLE_COLOUR('Steel - Satin',#779);
#779=COLOUR_RGB('Steel - Satin',0.627450980392157,0.627450980392157,0.627450980392157);
ENDSEC;
END-ISO-10303-21;
