ISO-10303-21;
HEADER;
/* Generated by software containing ST-Developer
 * from STEP Tools, Inc. (www.steptools.com) 
 */

FILE_DESCRIPTION(
/* description */ (''),
/* implementation_level */ '2;1');

FILE_NAME(
/* name */ 'rod_label_clip.step',
/* time_stamp */ '2026-09-05T19:48:44-05:00',
/* author */ (''),
/* organization */ (''),
/* preprocessor_version */ 'ST-DEVELOPER v20.1',
/* originating_system */ 'Autodesk Translation Framework v15.8.0.0',
/* authorisation */ '');

FILE_SCHEMA (('AUTOMOTIVE_DESIGN { 1 0 10303 214 3 1 1 }'));
ENDSEC;

DATA;
#10=MECHANICAL_DESIGN_GEOMETRIC_PRESENTATION_REPRESENTATION('',(#13),#453);
#11=SHAPE_REPRESENTATION_RELATIONSHIP('SRR','None',#460,#12);
#12=ADVANCED_BREP_SHAPE_REPRESENTATION('',(#14),#452);
#13=STYLED_ITEM('',(#469),#14);
#14=MANIFOLD_SOLID_BREP('rod_label_clip',#269);
#15=CYLINDRICAL_SURFACE('',#294,19.45);
#16=CYLINDRICAL_SURFACE('',#301,17.05);
#17=CYLINDRICAL_SURFACE('',#302,19.45);
#18=CIRCLE('',#291,19.45);
#19=CIRCLE('',#292,17.05);
#20=CIRCLE('',#293,19.45);
#21=CIRCLE('',#295,19.45);
#22=CIRCLE('',#299,19.45);
#23=CIRCLE('',#300,17.05);
#24=FACE_OUTER_BOUND('',#38,.T.);
#25=FACE_OUTER_BOUND('',#39,.T.);
#26=FACE_OUTER_BOUND('',#40,.T.);
#27=FACE_OUTER_BOUND('',#41,.T.);
#28=FACE_OUTER_BOUND('',#42,.T.);
#29=FACE_OUTER_BOUND('',#43,.T.);
#30=FACE_OUTER_BOUND('',#44,.T.);
#31=FACE_OUTER_BOUND('',#45,.T.);
#32=FACE_OUTER_BOUND('',#46,.T.);
#33=FACE_OUTER_BOUND('',#47,.T.);
#34=FACE_OUTER_BOUND('',#48,.T.);
#35=FACE_OUTER_BOUND('',#49,.T.);
#36=FACE_OUTER_BOUND('',#50,.T.);
#37=FACE_OUTER_BOUND('',#51,.T.);
#38=EDGE_LOOP('',(#172,#173,#174,#175));
#39=EDGE_LOOP('',(#176,#177,#178,#179));
#40=EDGE_LOOP('',(#180,#181,#182,#183));
#41=EDGE_LOOP('',(#184,#185,#186,#187));
#42=EDGE_LOOP('',(#188,#189,#190,#191));
#43=EDGE_LOOP('',(#192,#193,#194,#195,#196,#197,#198,#199));
#44=EDGE_LOOP('',(#200,#201,#202,#203,#204,#205,#206,#207));
#45=EDGE_LOOP('',(#208,#209,#210,#211,#212,#213,#214,#215));
#46=EDGE_LOOP('',(#216,#217,#218,#219));
#47=EDGE_LOOP('',(#220,#221,#222,#223));
#48=EDGE_LOOP('',(#224,#225,#226,#227));
#49=EDGE_LOOP('',(#228,#229,#230,#231,#232,#233,#234,#235));
#50=EDGE_LOOP('',(#236,#237,#238,#239));
#51=EDGE_LOOP('',(#240,#241,#242,#243));
#52=LINE('',#379,#82);
#53=LINE('',#381,#83);
#54=LINE('',#383,#84);
#55=LINE('',#384,#85);
#56=LINE('',#388,#86);
#57=LINE('',#390,#87);
#58=LINE('',#392,#88);
#59=LINE('',#393,#89);
#60=LINE('',#396,#90);
#61=LINE('',#398,#91);
#62=LINE('',#399,#92);
#63=LINE('',#402,#93);
#64=LINE('',#404,#94);
#65=LINE('',#405,#95);
#66=LINE('',#407,#96);
#67=LINE('',#408,#97);
#68=LINE('',#412,#98);
#69=LINE('',#413,#99);
#70=LINE('',#414,#100);
#71=LINE('',#418,#101);
#72=LINE('',#419,#102);
#73=LINE('',#420,#103);
#74=LINE('',#425,#104);
#75=LINE('',#429,#105);
#76=LINE('',#434,#106);
#77=LINE('',#437,#107);
#78=LINE('',#439,#108);
#79=LINE('',#440,#109);
#80=LINE('',#443,#110);
#81=LINE('',#444,#111);
#82=VECTOR('',#307,10.);
#83=VECTOR('',#308,10.);
#84=VECTOR('',#309,10.);
#85=VECTOR('',#310,10.);
#86=VECTOR('',#313,10.);
#87=VECTOR('',#314,10.);
#88=VECTOR('',#315,10.);
#89=VECTOR('',#316,10.);
#90=VECTOR('',#319,10.);
#91=VECTOR('',#320,10.);
#92=VECTOR('',#321,10.);
#93=VECTOR('',#324,10.);
#94=VECTOR('',#325,10.);
#95=VECTOR('',#326,10.);
#96=VECTOR('',#329,10.);
#97=VECTOR('',#330,10.);
#98=VECTOR('',#333,10.);
#99=VECTOR('',#334,10.);
#100=VECTOR('',#335,10.);
#101=VECTOR('',#338,10.);
#102=VECTOR('',#339,10.);
#103=VECTOR('',#340,10.);
#104=VECTOR('',#345,10.);
#105=VECTOR('',#348,10.);
#106=VECTOR('',#355,10.);
#107=VECTOR('',#358,10.);
#108=VECTOR('',#359,10.);
#109=VECTOR('',#360,10.);
#110=VECTOR('',#363,10.);
#111=VECTOR('',#364,10.);
#112=VERTEX_POINT('',#377);
#113=VERTEX_POINT('',#378);
#114=VERTEX_POINT('',#380);
#115=VERTEX_POINT('',#382);
#116=VERTEX_POINT('',#386);
#117=VERTEX_POINT('',#387);
#118=VERTEX_POINT('',#389);
#119=VERTEX_POINT('',#391);
#120=VERTEX_POINT('',#395);
#121=VERTEX_POINT('',#397);
#122=VERTEX_POINT('',#401);
#123=VERTEX_POINT('',#403);
#124=VERTEX_POINT('',#410);
#125=VERTEX_POINT('',#411);
#126=VERTEX_POINT('',#416);
#127=VERTEX_POINT('',#417);
#128=VERTEX_POINT('',#422);
#129=VERTEX_POINT('',#424);
#130=VERTEX_POINT('',#426);
#131=VERTEX_POINT('',#428);
#132=VERTEX_POINT('',#432);
#133=VERTEX_POINT('',#436);
#134=VERTEX_POINT('',#438);
#135=VERTEX_POINT('',#442);
#136=EDGE_CURVE('',#112,#113,#52,.T.);
#137=EDGE_CURVE('',#112,#114,#53,.T.);
#138=EDGE_CURVE('',#115,#114,#54,.T.);
#139=EDGE_CURVE('',#115,#113,#55,.T.);
#140=EDGE_CURVE('',#116,#117,#56,.T.);
#141=EDGE_CURVE('',#116,#118,#57,.T.);
#142=EDGE_CURVE('',#119,#118,#58,.T.);
#143=EDGE_CURVE('',#119,#117,#59,.T.);
#144=EDGE_CURVE('',#114,#120,#60,.T.);
#145=EDGE_CURVE('',#120,#121,#61,.T.);
#146=EDGE_CURVE('',#121,#115,#62,.T.);
#147=EDGE_CURVE('',#120,#122,#63,.T.);
#148=EDGE_CURVE('',#123,#122,#64,.T.);
#149=EDGE_CURVE('',#121,#123,#65,.T.);
#150=EDGE_CURVE('',#118,#123,#66,.T.);
#151=EDGE_CURVE('',#122,#119,#67,.T.);
#152=EDGE_CURVE('',#124,#125,#68,.T.);
#153=EDGE_CURVE('',#117,#124,#69,.T.);
#154=EDGE_CURVE('',#125,#112,#70,.T.);
#155=EDGE_CURVE('',#126,#127,#71,.T.);
#156=EDGE_CURVE('',#113,#126,#72,.T.);
#157=EDGE_CURVE('',#127,#116,#73,.T.);
#158=EDGE_CURVE('',#126,#128,#18,.T.);
#159=EDGE_CURVE('',#128,#129,#74,.T.);
#160=EDGE_CURVE('',#129,#130,#19,.T.);
#161=EDGE_CURVE('',#130,#131,#75,.T.);
#162=EDGE_CURVE('',#131,#125,#20,.T.);
#163=EDGE_CURVE('',#132,#127,#21,.T.);
#164=EDGE_CURVE('',#132,#128,#76,.T.);
#165=EDGE_CURVE('',#133,#130,#77,.T.);
#166=EDGE_CURVE('',#134,#133,#78,.T.);
#167=EDGE_CURVE('',#131,#134,#79,.T.);
#168=EDGE_CURVE('',#135,#132,#80,.T.);
#169=EDGE_CURVE('',#129,#135,#81,.T.);
#170=EDGE_CURVE('',#124,#134,#22,.T.);
#171=EDGE_CURVE('',#133,#135,#23,.T.);
#172=ORIENTED_EDGE('',*,*,#136,.F.);
#173=ORIENTED_EDGE('',*,*,#137,.T.);
#174=ORIENTED_EDGE('',*,*,#138,.F.);
#175=ORIENTED_EDGE('',*,*,#139,.T.);
#176=ORIENTED_EDGE('',*,*,#140,.F.);
#177=ORIENTED_EDGE('',*,*,#141,.T.);
#178=ORIENTED_EDGE('',*,*,#142,.F.);
#179=ORIENTED_EDGE('',*,*,#143,.T.);
#180=ORIENTED_EDGE('',*,*,#138,.T.);
#181=ORIENTED_EDGE('',*,*,#144,.T.);
#182=ORIENTED_EDGE('',*,*,#145,.T.);
#183=ORIENTED_EDGE('',*,*,#146,.T.);
#184=ORIENTED_EDGE('',*,*,#147,.T.);
#185=ORIENTED_EDGE('',*,*,#148,.F.);
#186=ORIENTED_EDGE('',*,*,#149,.F.);
#187=ORIENTED_EDGE('',*,*,#145,.F.);
#188=ORIENTED_EDGE('',*,*,#142,.T.);
#189=ORIENTED_EDGE('',*,*,#150,.T.);
#190=ORIENTED_EDGE('',*,*,#148,.T.);
#191=ORIENTED_EDGE('',*,*,#151,.T.);
#192=ORIENTED_EDGE('',*,*,#152,.F.);
#193=ORIENTED_EDGE('',*,*,#153,.F.);
#194=ORIENTED_EDGE('',*,*,#143,.F.);
#195=ORIENTED_EDGE('',*,*,#151,.F.);
#196=ORIENTED_EDGE('',*,*,#147,.F.);
#197=ORIENTED_EDGE('',*,*,#144,.F.);
#198=ORIENTED_EDGE('',*,*,#137,.F.);
#199=ORIENTED_EDGE('',*,*,#154,.F.);
#200=ORIENTED_EDGE('',*,*,#155,.F.);
#201=ORIENTED_EDGE('',*,*,#156,.F.);
#202=ORIENTED_EDGE('',*,*,#139,.F.);
#203=ORIENTED_EDGE('',*,*,#146,.F.);
#204=ORIENTED_EDGE('',*,*,#149,.T.);
#205=ORIENTED_EDGE('',*,*,#150,.F.);
#206=ORIENTED_EDGE('',*,*,#141,.F.);
#207=ORIENTED_EDGE('',*,*,#157,.F.);
#208=ORIENTED_EDGE('',*,*,#158,.T.);
#209=ORIENTED_EDGE('',*,*,#159,.T.);
#210=ORIENTED_EDGE('',*,*,#160,.T.);
#211=ORIENTED_EDGE('',*,*,#161,.T.);
#212=ORIENTED_EDGE('',*,*,#162,.T.);
#213=ORIENTED_EDGE('',*,*,#154,.T.);
#214=ORIENTED_EDGE('',*,*,#136,.T.);
#215=ORIENTED_EDGE('',*,*,#156,.T.);
#216=ORIENTED_EDGE('',*,*,#155,.T.);
#217=ORIENTED_EDGE('',*,*,#163,.F.);
#218=ORIENTED_EDGE('',*,*,#164,.T.);
#219=ORIENTED_EDGE('',*,*,#158,.F.);
#220=ORIENTED_EDGE('',*,*,#161,.F.);
#221=ORIENTED_EDGE('',*,*,#165,.F.);
#222=ORIENTED_EDGE('',*,*,#166,.F.);
#223=ORIENTED_EDGE('',*,*,#167,.F.);
#224=ORIENTED_EDGE('',*,*,#159,.F.);
#225=ORIENTED_EDGE('',*,*,#164,.F.);
#226=ORIENTED_EDGE('',*,*,#168,.F.);
#227=ORIENTED_EDGE('',*,*,#169,.F.);
#228=ORIENTED_EDGE('',*,*,#170,.T.);
#229=ORIENTED_EDGE('',*,*,#166,.T.);
#230=ORIENTED_EDGE('',*,*,#171,.T.);
#231=ORIENTED_EDGE('',*,*,#168,.T.);
#232=ORIENTED_EDGE('',*,*,#163,.T.);
#233=ORIENTED_EDGE('',*,*,#157,.T.);
#234=ORIENTED_EDGE('',*,*,#140,.T.);
#235=ORIENTED_EDGE('',*,*,#153,.T.);
#236=ORIENTED_EDGE('',*,*,#165,.T.);
#237=ORIENTED_EDGE('',*,*,#160,.F.);
#238=ORIENTED_EDGE('',*,*,#169,.T.);
#239=ORIENTED_EDGE('',*,*,#171,.F.);
#240=ORIENTED_EDGE('',*,*,#152,.T.);
#241=ORIENTED_EDGE('',*,*,#162,.F.);
#242=ORIENTED_EDGE('',*,*,#167,.T.);
#243=ORIENTED_EDGE('',*,*,#170,.F.);
#244=PLANE('',#283);
#245=PLANE('',#284);
#246=PLANE('',#285);
#247=PLANE('',#286);
#248=PLANE('',#287);
#249=PLANE('',#288);
#250=PLANE('',#289);
#251=PLANE('',#290);
#252=PLANE('',#296);
#253=PLANE('',#297);
#254=PLANE('',#298);
#255=ADVANCED_FACE('',(#24),#244,.T.);
#256=ADVANCED_FACE('',(#25),#245,.T.);
#257=ADVANCED_FACE('',(#26),#246,.T.);
#258=ADVANCED_FACE('',(#27),#247,.T.);
#259=ADVANCED_FACE('',(#28),#248,.T.);
#260=ADVANCED_FACE('',(#29),#249,.T.);
#261=ADVANCED_FACE('',(#30),#250,.T.);
#262=ADVANCED_FACE('',(#31),#251,.F.);
#263=ADVANCED_FACE('',(#32),#15,.T.);
#264=ADVANCED_FACE('',(#33),#252,.F.);
#265=ADVANCED_FACE('',(#34),#253,.F.);
#266=ADVANCED_FACE('',(#35),#254,.T.);
#267=ADVANCED_FACE('',(#36),#16,.F.);
#268=ADVANCED_FACE('',(#37),#17,.T.);
#269=CLOSED_SHELL('',(#255,#256,#257,#258,#259,#260,#261,#262,#263,#264,
#265,#266,#267,#268));
#270=DERIVED_UNIT_ELEMENT(#272,1.);
#271=DERIVED_UNIT_ELEMENT(#455,-3.);
#272=(
MASS_UNIT()
NAMED_UNIT(*)
SI_UNIT(.KILO.,.GRAM.)
);
#273=DERIVED_UNIT((#270,#271));
#274=MEASURE_REPRESENTATION_ITEM('density measure',
POSITIVE_RATIO_MEASURE(7850.),#273);
#275=PROPERTY_DEFINITION_REPRESENTATION(#280,#277);
#276=PROPERTY_DEFINITION_REPRESENTATION(#281,#278);
#277=REPRESENTATION('material name',(#279),#452);
#278=REPRESENTATION('density',(#274),#452);
#279=DESCRIPTIVE_REPRESENTATION_ITEM('Steel','Steel');
#280=PROPERTY_DEFINITION('material property','material name',#462);
#281=PROPERTY_DEFINITION('material property','density of part',#462);
#282=AXIS2_PLACEMENT_3D('',#375,#303,#304);
#283=AXIS2_PLACEMENT_3D('',#376,#305,#306);
#284=AXIS2_PLACEMENT_3D('',#385,#311,#312);
#285=AXIS2_PLACEMENT_3D('',#394,#317,#318);
#286=AXIS2_PLACEMENT_3D('',#400,#322,#323);
#287=AXIS2_PLACEMENT_3D('',#406,#327,#328);
#288=AXIS2_PLACEMENT_3D('',#409,#331,#332);
#289=AXIS2_PLACEMENT_3D('',#415,#336,#337);
#290=AXIS2_PLACEMENT_3D('',#421,#341,#342);
#291=AXIS2_PLACEMENT_3D('',#423,#343,#344);
#292=AXIS2_PLACEMENT_3D('',#427,#346,#347);
#293=AXIS2_PLACEMENT_3D('',#430,#349,#350);
#294=AXIS2_PLACEMENT_3D('',#431,#351,#352);
#295=AXIS2_PLACEMENT_3D('',#433,#353,#354);
#296=AXIS2_PLACEMENT_3D('',#435,#356,#357);
#297=AXIS2_PLACEMENT_3D('',#441,#361,#362);
#298=AXIS2_PLACEMENT_3D('',#445,#365,#366);
#299=AXIS2_PLACEMENT_3D('',#446,#367,#368);
#300=AXIS2_PLACEMENT_3D('',#447,#369,#370);
#301=AXIS2_PLACEMENT_3D('',#448,#371,#372);
#302=AXIS2_PLACEMENT_3D('',#449,#373,#374);
#303=DIRECTION('axis',(0.,0.,1.));
#304=DIRECTION('refdir',(1.,0.,0.));
#305=DIRECTION('center_axis',(-0.642787609686539,0.,0.766044443118979));
#306=DIRECTION('ref_axis',(0.766044443118979,0.,0.642787609686539));
#307=DIRECTION('',(0.766044443118979,0.,0.642787609686539));
#308=DIRECTION('',(0.,-1.,0.));
#309=DIRECTION('',(-0.766044443118979,0.,-0.642787609686539));
#310=DIRECTION('',(0.,1.,0.));
#311=DIRECTION('center_axis',(-0.642787609686539,0.,0.766044443118979));
#312=DIRECTION('ref_axis',(0.766044443118979,0.,0.642787609686539));
#313=DIRECTION('',(-0.766044443118979,0.,-0.642787609686539));
#314=DIRECTION('',(0.,1.,0.));
#315=DIRECTION('',(0.766044443118979,0.,0.642787609686539));
#316=DIRECTION('',(0.,-1.,0.));
#317=DIRECTION('center_axis',(0.,-1.,0.));
#318=DIRECTION('ref_axis',(0.,0.,-1.));
#319=DIRECTION('',(0.642787609686539,0.,-0.766044443118978));
#320=DIRECTION('',(0.766044443118978,0.,0.642787609686539));
#321=DIRECTION('',(-0.642787609686539,0.,0.766044443118978));
#322=DIRECTION('center_axis',(0.642787609686539,0.,-0.766044443118978));
#323=DIRECTION('ref_axis',(-0.766044443118978,0.,-0.642787609686539));
#324=DIRECTION('',(0.,1.,0.));
#325=DIRECTION('',(-0.766044443118978,0.,-0.642787609686539));
#326=DIRECTION('',(0.,1.,0.));
#327=DIRECTION('center_axis',(0.,1.,0.));
#328=DIRECTION('ref_axis',(0.,0.,1.));
#329=DIRECTION('',(0.642787609686539,0.,-0.766044443118978));
#330=DIRECTION('',(-0.642787609686539,0.,0.766044443118978));
#331=DIRECTION('center_axis',(-0.766044443118978,0.,-0.642787609686539));
#332=DIRECTION('ref_axis',(-0.642787609686539,0.,0.766044443118978));
#333=DIRECTION('',(0.,-1.,0.));
#334=DIRECTION('',(-0.642787609686539,0.,0.766044443118978));
#335=DIRECTION('',(0.642787609686539,0.,-0.766044443118978));
#336=DIRECTION('center_axis',(0.766044443118978,0.,0.642787609686539));
#337=DIRECTION('ref_axis',(0.642787609686539,0.,-0.766044443118978));
#338=DIRECTION('',(0.,1.,0.));
#339=DIRECTION('',(-0.642787609686539,0.,0.766044443118978));
#340=DIRECTION('',(0.642787609686539,0.,-0.766044443118978));
#341=DIRECTION('center_axis',(0.,1.,0.));
#342=DIRECTION('ref_axis',(1.,0.,0.));
#343=DIRECTION('center_axis',(0.,-1.,0.));
#344=DIRECTION('ref_axis',(1.,0.,0.));
#345=DIRECTION('',(-0.866025403784439,0.,-0.5));
#346=DIRECTION('center_axis',(0.,1.,0.));
#347=DIRECTION('ref_axis',(1.,0.,0.));
#348=DIRECTION('',(-0.866025403784439,0.,0.5));
#349=DIRECTION('center_axis',(0.,-1.,0.));
#350=DIRECTION('ref_axis',(1.,0.,0.));
#351=DIRECTION('center_axis',(0.,1.,0.));
#352=DIRECTION('ref_axis',(1.,0.,0.));
#353=DIRECTION('center_axis',(0.,1.,0.));
#354=DIRECTION('ref_axis',(1.,0.,0.));
#355=DIRECTION('',(0.,-1.,0.));
#356=DIRECTION('center_axis',(-0.5,0.,-0.866025403784439));
#357=DIRECTION('ref_axis',(-0.866025403784439,0.,0.5));
#358=DIRECTION('',(0.,-1.,0.));
#359=DIRECTION('',(0.866025403784439,0.,-0.5));
#360=DIRECTION('',(0.,1.,0.));
#361=DIRECTION('center_axis',(0.5,0.,-0.866025403784439));
#362=DIRECTION('ref_axis',(-0.866025403784439,0.,-0.5));
#363=DIRECTION('',(0.866025403784439,0.,0.5));
#364=DIRECTION('',(0.,1.,0.));
#365=DIRECTION('center_axis',(0.,1.,0.));
#366=DIRECTION('ref_axis',(1.,0.,0.));
#367=DIRECTION('center_axis',(0.,1.,0.));
#368=DIRECTION('ref_axis',(1.,0.,0.));
#369=DIRECTION('center_axis',(0.,-1.,0.));
#370=DIRECTION('ref_axis',(1.,0.,0.));
#371=DIRECTION('center_axis',(0.,1.,0.));
#372=DIRECTION('ref_axis',(-1.83697019872103E-16,0.,-1.));
#373=DIRECTION('center_axis',(0.,1.,0.));
#374=DIRECTION('ref_axis',(-0.66612385433121,0.,-0.745841143066627));
#375=CARTESIAN_POINT('',(0.,0.,0.));
#376=CARTESIAN_POINT('Origin',(18.9750231880556,0.,-24.4804206461562));
#377=CARTESIAN_POINT('',(18.9750231880556,-4.5,-24.4804206461562));
#378=CARTESIAN_POINT('',(20.8135298515412,-4.5,-22.9377303829085));
#379=CARTESIAN_POINT('',(20.8135298515412,-4.5,-22.9377303829085));
#380=CARTESIAN_POINT('',(18.9750231880556,-29.,-24.4804206461562));
#381=CARTESIAN_POINT('',(18.9750231880556,0.,-24.4804206461562));
#382=CARTESIAN_POINT('',(20.8135298515412,-29.,-22.9377303829085));
#383=CARTESIAN_POINT('',(18.9750231880556,-29.,-24.4804206461562));
#384=CARTESIAN_POINT('',(20.8135298515412,0.,-22.9377303829085));
#385=CARTESIAN_POINT('Origin',(18.9750231880556,0.,-24.4804206461562));
#386=CARTESIAN_POINT('',(20.8135298515412,4.5,-22.9377303829085));
#387=CARTESIAN_POINT('',(18.9750231880556,4.5,-24.4804206461562));
#388=CARTESIAN_POINT('',(20.8135298515412,4.5,-22.9377303829085));
#389=CARTESIAN_POINT('',(20.8135298515412,29.,-22.9377303829085));
#390=CARTESIAN_POINT('',(20.8135298515412,0.,-22.9377303829085));
#391=CARTESIAN_POINT('',(18.9750231880556,29.,-24.4804206461562));
#392=CARTESIAN_POINT('',(18.9750231880556,29.,-24.4804206461562));
#393=CARTESIAN_POINT('',(18.9750231880556,0.,-24.4804206461562));
#394=CARTESIAN_POINT('Origin',(29.2146968602532,-29.,-34.8167199397576));
#395=CARTESIAN_POINT('',(37.6158638689653,-29.,-46.6957094966066));
#396=CARTESIAN_POINT('',(37.6158638689653,-29.,-46.6957094966066));
#397=CARTESIAN_POINT('',(39.4543705324508,-29.,-45.1530192333589));
#398=CARTESIAN_POINT('',(39.4543705324508,-29.,-45.1530192333589));
#399=CARTESIAN_POINT('',(20.8135298515412,-29.,-22.9377303829085));
#400=CARTESIAN_POINT('Origin',(39.4543705324508,0.,-45.1530192333589));
#401=CARTESIAN_POINT('',(37.6158638689653,29.,-46.6957094966066));
#402=CARTESIAN_POINT('',(37.6158638689653,0.,-46.6957094966066));
#403=CARTESIAN_POINT('',(39.4543705324508,29.,-45.1530192333589));
#404=CARTESIAN_POINT('',(39.4543705324508,29.,-45.1530192333589));
#405=CARTESIAN_POINT('',(39.4543705324508,0.,-45.1530192333589));
#406=CARTESIAN_POINT('Origin',(29.2146968602532,29.,-34.8167199397576));
#407=CARTESIAN_POINT('',(20.8135298515412,29.,-22.9377303829085));
#408=CARTESIAN_POINT('',(37.6158638689653,29.,-46.6957094966066));
#409=CARTESIAN_POINT('Origin',(18.9750231880556,0.,-24.4804206461562));
#410=CARTESIAN_POINT('',(11.5591482815248,4.5,-15.6425250840688));
#411=CARTESIAN_POINT('',(11.5591482815248,-4.5,-15.6425250840688));
#412=CARTESIAN_POINT('',(11.5591482815248,0.,-15.6425250840688));
#413=CARTESIAN_POINT('',(18.9750231880556,4.5,-24.4804206461562));
#414=CARTESIAN_POINT('',(18.9750231880556,-4.5,-24.4804206461562));
#415=CARTESIAN_POINT('Origin',(12.6501272085221,0.,-13.2089659552975));
#416=CARTESIAN_POINT('',(13.3976549450103,-4.5,-14.0998348208211));
#417=CARTESIAN_POINT('',(13.3976549450103,4.5,-14.0998348208211));
#418=CARTESIAN_POINT('',(13.3976549450103,0.,-14.0998348208211));
#419=CARTESIAN_POINT('',(12.6501272085221,-4.5,-13.2089659552975));
#420=CARTESIAN_POINT('',(12.6501272085221,4.5,-13.2089659552975));
#421=CARTESIAN_POINT('Origin',(0.,-4.5,0.));
#422=CARTESIAN_POINT('',(16.8441941036073,-4.5,9.725));
#423=CARTESIAN_POINT('Origin',(0.,-4.5,0.));
#424=CARTESIAN_POINT('',(14.7657331345247,-4.5,8.525));
#425=CARTESIAN_POINT('',(21.1743211225295,-4.5,12.225));
#426=CARTESIAN_POINT('',(-14.7657331345247,-4.5,8.525));
#427=CARTESIAN_POINT('Origin',(0.,-4.5,0.));
#428=CARTESIAN_POINT('',(-16.8441941036073,-4.5,9.725));
#429=CARTESIAN_POINT('',(0.,-4.5,0.));
#430=CARTESIAN_POINT('Origin',(0.,-4.5,0.));
#431=CARTESIAN_POINT('Origin',(0.,0.,0.));
#432=CARTESIAN_POINT('',(16.8441941036073,4.5,9.725));
#433=CARTESIAN_POINT('Origin',(0.,4.5,0.));
#434=CARTESIAN_POINT('',(16.8441941036073,0.,9.725));
#435=CARTESIAN_POINT('Origin',(0.,0.,0.));
#436=CARTESIAN_POINT('',(-14.7657331345247,4.5,8.525));
#437=CARTESIAN_POINT('',(-14.7657331345247,0.,8.525));
#438=CARTESIAN_POINT('',(-16.8441941036073,4.5,9.725));
#439=CARTESIAN_POINT('',(0.,4.5,0.));
#440=CARTESIAN_POINT('',(-16.8441941036073,0.,9.725));
#441=CARTESIAN_POINT('Origin',(42.348642245059,0.,24.45));
#442=CARTESIAN_POINT('',(14.7657331345247,4.5,8.525));
#443=CARTESIAN_POINT('',(21.1743211225295,4.5,12.225));
#444=CARTESIAN_POINT('',(14.7657331345247,0.,8.525));
#445=CARTESIAN_POINT('Origin',(0.,4.5,0.));
#446=CARTESIAN_POINT('Origin',(0.,4.5,0.));
#447=CARTESIAN_POINT('Origin',(0.,4.5,0.));
#448=CARTESIAN_POINT('Origin',(0.,0.,0.));
#449=CARTESIAN_POINT('Origin',(0.,0.,0.));
#450=UNCERTAINTY_MEASURE_WITH_UNIT(LENGTH_MEASURE(0.01),#454,
'DISTANCE_ACCURACY_VALUE',
'Maximum model space distance between geometric entities at asserted c
onnectivities');
#451=UNCERTAINTY_MEASURE_WITH_UNIT(LENGTH_MEASURE(0.01),#454,
'DISTANCE_ACCURACY_VALUE',
'Maximum model space distance between geometric entities at asserted c
onnectivities');
#452=(
GEOMETRIC_REPRESENTATION_CONTEXT(3)
GLOBAL_UNCERTAINTY_ASSIGNED_CONTEXT((#450))
GLOBAL_UNIT_ASSIGNED_CONTEXT((#454,#456,#457))
REPRESENTATION_CONTEXT('','3D')
);
#453=(
GEOMETRIC_REPRESENTATION_CONTEXT(3)
GLOBAL_UNCERTAINTY_ASSIGNED_CONTEXT((#451))
GLOBAL_UNIT_ASSIGNED_CONTEXT((#454,#456,#457))
REPRESENTATION_CONTEXT('','3D')
);
#454=(
LENGTH_UNIT()
NAMED_UNIT(*)
SI_UNIT(.MILLI.,.METRE.)
);
#455=(
LENGTH_UNIT()
NAMED_UNIT(*)
SI_UNIT($,.METRE.)
);
#456=(
NAMED_UNIT(*)
PLANE_ANGLE_UNIT()
SI_UNIT($,.RADIAN.)
);
#457=(
NAMED_UNIT(*)
SI_UNIT($,.STERADIAN.)
SOLID_ANGLE_UNIT()
);
#458=SHAPE_DEFINITION_REPRESENTATION(#459,#460);
#459=PRODUCT_DEFINITION_SHAPE('',$,#462);
#460=SHAPE_REPRESENTATION('',(#282),#452);
#461=PRODUCT_DEFINITION_CONTEXT('part definition',#466,'design');
#462=PRODUCT_DEFINITION('2026-09-05-07-00-16-324','Rod Label Clip',#463,
#461);
#463=PRODUCT_DEFINITION_FORMATION('',$,#468);
#464=PRODUCT_RELATED_PRODUCT_CATEGORY('Rod Label Clip','Rod Label Clip',
(#468));
#465=APPLICATION_PROTOCOL_DEFINITION('international standard',
'automotive_design',2009,#466);
#466=APPLICATION_CONTEXT(
'Core Data for Automotive Mechanical Design Process');
#467=PRODUCT_CONTEXT('part definition',#466,'mechanical');
#468=PRODUCT('2026-09-05-07-00-16-324','Rod Label Clip',$,(#467));
#469=PRESENTATION_STYLE_ASSIGNMENT((#470));
#470=SURFACE_STYLE_USAGE(.BOTH.,#471);
#471=SURFACE_SIDE_STYLE('',(#472));
#472=SURFACE_STYLE_FILL_AREA(#473);
#473=FILL_AREA_STYLE('Steel - Satin',(#474));
#474=FILL_AREA_STYLE_COLOUR('Steel - Satin',#475);
#475=COLOUR_RGB('Steel - Satin',0.627450980392157,0.627450980392157,0.627450980392157);
ENDSEC;
END-ISO-10303-21;
