ISO-10303-21;
HEADER;
/* Generated by software containing ST-Developer
 * from STEP Tools, Inc. (www.steptools.com) 
 */

FILE_DESCRIPTION(
/* description */ (''),
/* implementation_level */ '2;1');

FILE_NAME(
/* name */ 'saddle_coupon.step',
/* time_stamp */ '2026-09-02T15:31:48-05:00',
/* author */ (''),
/* organization */ (''),
/* preprocessor_version */ 'ST-DEVELOPER v20.1',
/* originating_system */ 'Autodesk Translation Framework v15.8.0.0',
/* authorisation */ '');

FILE_SCHEMA (('AUTOMOTIVE_DESIGN { 1 0 10303 214 3 1 1 }'));
ENDSEC;

DATA;
#10=MECHANICAL_DESIGN_GEOMETRIC_PRESENTATION_REPRESENTATION('',(#13),#459);
#11=SHAPE_REPRESENTATION_RELATIONSHIP('SRR','None',#466,#12);
#12=ADVANCED_BREP_SHAPE_REPRESENTATION('',(#14),#458);
#13=STYLED_ITEM('',(#475),#14);
#14=MANIFOLD_SOLID_BREP('saddle_coupon',#263);
#15=CIRCLE('',#280,22.7);
#16=CIRCLE('',#281,22.7);
#17=CIRCLE('',#283,22.7);
#18=CIRCLE('',#284,22.7);
#19=CIRCLE('',#286,17.1);
#20=CIRCLE('',#287,22.7);
#21=CIRCLE('',#288,17.1);
#22=CIRCLE('',#289,22.7);
#23=CIRCLE('',#291,17.1);
#24=CIRCLE('',#295,22.7);
#25=CIRCLE('',#297,22.7);
#26=CIRCLE('',#299,17.1);
#27=CYLINDRICAL_SURFACE('',#279,22.7);
#28=CYLINDRICAL_SURFACE('',#282,22.7);
#29=CYLINDRICAL_SURFACE('',#290,17.1);
#30=CYLINDRICAL_SURFACE('',#294,22.7);
#31=CYLINDRICAL_SURFACE('',#296,22.7);
#32=CYLINDRICAL_SURFACE('',#298,17.1);
#33=FACE_OUTER_BOUND('',#47,.T.);
#34=FACE_OUTER_BOUND('',#48,.T.);
#35=FACE_OUTER_BOUND('',#49,.T.);
#36=FACE_OUTER_BOUND('',#50,.T.);
#37=FACE_OUTER_BOUND('',#51,.T.);
#38=FACE_OUTER_BOUND('',#52,.T.);
#39=FACE_OUTER_BOUND('',#53,.T.);
#40=FACE_OUTER_BOUND('',#54,.T.);
#41=FACE_OUTER_BOUND('',#55,.T.);
#42=FACE_OUTER_BOUND('',#56,.T.);
#43=FACE_OUTER_BOUND('',#57,.T.);
#44=FACE_OUTER_BOUND('',#58,.T.);
#45=FACE_OUTER_BOUND('',#59,.T.);
#46=FACE_OUTER_BOUND('',#60,.T.);
#47=EDGE_LOOP('',(#169,#170,#171,#172));
#48=EDGE_LOOP('',(#173,#174,#175,#176));
#49=EDGE_LOOP('',(#177,#178,#179,#180));
#50=EDGE_LOOP('',(#181,#182,#183,#184));
#51=EDGE_LOOP('',(#185,#186,#187,#188,#189,#190,#191,#192,#193,#194,#195,
#196));
#52=EDGE_LOOP('',(#197,#198,#199,#200));
#53=EDGE_LOOP('',(#201,#202,#203,#204));
#54=EDGE_LOOP('',(#205,#206,#207,#208));
#55=EDGE_LOOP('',(#209,#210,#211,#212));
#56=EDGE_LOOP('',(#213,#214,#215,#216));
#57=EDGE_LOOP('',(#217,#218,#219,#220));
#58=EDGE_LOOP('',(#221,#222,#223,#224));
#59=EDGE_LOOP('',(#225,#226,#227,#228,#229,#230,#231,#232,#233,#234,#235,
#236));
#60=EDGE_LOOP('',(#237,#238,#239,#240));
#61=LINE('',#385,#85);
#62=LINE('',#387,#86);
#63=LINE('',#389,#87);
#64=LINE('',#390,#88);
#65=LINE('',#394,#89);
#66=LINE('',#396,#90);
#67=LINE('',#398,#91);
#68=LINE('',#399,#92);
#69=LINE('',#404,#93);
#70=LINE('',#410,#94);
#71=LINE('',#415,#95);
#72=LINE('',#419,#96);
#73=LINE('',#423,#97);
#74=LINE('',#426,#98);
#75=LINE('',#432,#99);
#76=LINE('',#433,#100);
#77=LINE('',#434,#101);
#78=LINE('',#437,#102);
#79=LINE('',#439,#103);
#80=LINE('',#440,#104);
#81=LINE('',#444,#105);
#82=LINE('',#447,#106);
#83=LINE('',#452,#107);
#84=LINE('',#454,#108);
#85=VECTOR('',#307,10.);
#86=VECTOR('',#308,10.);
#87=VECTOR('',#309,10.);
#88=VECTOR('',#310,10.);
#89=VECTOR('',#313,10.);
#90=VECTOR('',#314,10.);
#91=VECTOR('',#315,10.);
#92=VECTOR('',#316,10.);
#93=VECTOR('',#321,10.);
#94=VECTOR('',#328,10.);
#95=VECTOR('',#335,10.);
#96=VECTOR('',#338,10.);
#97=VECTOR('',#341,10.);
#98=VECTOR('',#344,10.);
#99=VECTOR('',#351,10.);
#100=VECTOR('',#352,10.);
#101=VECTOR('',#353,10.);
#102=VECTOR('',#356,10.);
#103=VECTOR('',#357,10.);
#104=VECTOR('',#358,10.);
#105=VECTOR('',#363,10.);
#106=VECTOR('',#366,10.);
#107=VECTOR('',#375,10.);
#108=VECTOR('',#378,10.);
#109=VERTEX_POINT('',#383);
#110=VERTEX_POINT('',#384);
#111=VERTEX_POINT('',#386);
#112=VERTEX_POINT('',#388);
#113=VERTEX_POINT('',#392);
#114=VERTEX_POINT('',#393);
#115=VERTEX_POINT('',#395);
#116=VERTEX_POINT('',#397);
#117=VERTEX_POINT('',#401);
#118=VERTEX_POINT('',#403);
#119=VERTEX_POINT('',#407);
#120=VERTEX_POINT('',#409);
#121=VERTEX_POINT('',#414);
#122=VERTEX_POINT('',#416);
#123=VERTEX_POINT('',#418);
#124=VERTEX_POINT('',#420);
#125=VERTEX_POINT('',#422);
#126=VERTEX_POINT('',#424);
#127=VERTEX_POINT('',#430);
#128=VERTEX_POINT('',#431);
#129=VERTEX_POINT('',#436);
#130=VERTEX_POINT('',#438);
#131=VERTEX_POINT('',#442);
#132=VERTEX_POINT('',#446);
#133=EDGE_CURVE('',#109,#110,#61,.T.);
#134=EDGE_CURVE('',#111,#109,#62,.T.);
#135=EDGE_CURVE('',#112,#111,#63,.T.);
#136=EDGE_CURVE('',#110,#112,#64,.T.);
#137=EDGE_CURVE('',#113,#114,#65,.T.);
#138=EDGE_CURVE('',#115,#113,#66,.T.);
#139=EDGE_CURVE('',#116,#115,#67,.T.);
#140=EDGE_CURVE('',#114,#116,#68,.T.);
#141=EDGE_CURVE('',#117,#116,#15,.T.);
#142=EDGE_CURVE('',#118,#117,#69,.T.);
#143=EDGE_CURVE('',#114,#118,#16,.T.);
#144=EDGE_CURVE('',#119,#112,#17,.T.);
#145=EDGE_CURVE('',#120,#119,#70,.T.);
#146=EDGE_CURVE('',#110,#120,#18,.T.);
#147=EDGE_CURVE('',#111,#113,#19,.T.);
#148=EDGE_CURVE('',#118,#121,#71,.T.);
#149=EDGE_CURVE('',#121,#122,#20,.T.);
#150=EDGE_CURVE('',#122,#123,#72,.T.);
#151=EDGE_CURVE('',#123,#124,#21,.T.);
#152=EDGE_CURVE('',#124,#125,#73,.T.);
#153=EDGE_CURVE('',#125,#126,#22,.T.);
#154=EDGE_CURVE('',#126,#119,#74,.T.);
#155=EDGE_CURVE('',#115,#109,#23,.T.);
#156=EDGE_CURVE('',#127,#128,#75,.T.);
#157=EDGE_CURVE('',#123,#127,#76,.T.);
#158=EDGE_CURVE('',#128,#122,#77,.T.);
#159=EDGE_CURVE('',#129,#124,#78,.T.);
#160=EDGE_CURVE('',#130,#129,#79,.T.);
#161=EDGE_CURVE('',#125,#130,#80,.T.);
#162=EDGE_CURVE('',#131,#130,#24,.T.);
#163=EDGE_CURVE('',#126,#131,#81,.T.);
#164=EDGE_CURVE('',#132,#121,#82,.T.);
#165=EDGE_CURVE('',#128,#132,#25,.T.);
#166=EDGE_CURVE('',#129,#127,#26,.T.);
#167=EDGE_CURVE('',#132,#117,#83,.T.);
#168=EDGE_CURVE('',#120,#131,#84,.T.);
#169=ORIENTED_EDGE('',*,*,#133,.F.);
#170=ORIENTED_EDGE('',*,*,#134,.F.);
#171=ORIENTED_EDGE('',*,*,#135,.F.);
#172=ORIENTED_EDGE('',*,*,#136,.F.);
#173=ORIENTED_EDGE('',*,*,#137,.F.);
#174=ORIENTED_EDGE('',*,*,#138,.F.);
#175=ORIENTED_EDGE('',*,*,#139,.F.);
#176=ORIENTED_EDGE('',*,*,#140,.F.);
#177=ORIENTED_EDGE('',*,*,#140,.T.);
#178=ORIENTED_EDGE('',*,*,#141,.F.);
#179=ORIENTED_EDGE('',*,*,#142,.F.);
#180=ORIENTED_EDGE('',*,*,#143,.F.);
#181=ORIENTED_EDGE('',*,*,#136,.T.);
#182=ORIENTED_EDGE('',*,*,#144,.F.);
#183=ORIENTED_EDGE('',*,*,#145,.F.);
#184=ORIENTED_EDGE('',*,*,#146,.F.);
#185=ORIENTED_EDGE('',*,*,#135,.T.);
#186=ORIENTED_EDGE('',*,*,#147,.T.);
#187=ORIENTED_EDGE('',*,*,#137,.T.);
#188=ORIENTED_EDGE('',*,*,#143,.T.);
#189=ORIENTED_EDGE('',*,*,#148,.T.);
#190=ORIENTED_EDGE('',*,*,#149,.T.);
#191=ORIENTED_EDGE('',*,*,#150,.T.);
#192=ORIENTED_EDGE('',*,*,#151,.T.);
#193=ORIENTED_EDGE('',*,*,#152,.T.);
#194=ORIENTED_EDGE('',*,*,#153,.T.);
#195=ORIENTED_EDGE('',*,*,#154,.T.);
#196=ORIENTED_EDGE('',*,*,#144,.T.);
#197=ORIENTED_EDGE('',*,*,#134,.T.);
#198=ORIENTED_EDGE('',*,*,#155,.F.);
#199=ORIENTED_EDGE('',*,*,#138,.T.);
#200=ORIENTED_EDGE('',*,*,#147,.F.);
#201=ORIENTED_EDGE('',*,*,#156,.F.);
#202=ORIENTED_EDGE('',*,*,#157,.F.);
#203=ORIENTED_EDGE('',*,*,#150,.F.);
#204=ORIENTED_EDGE('',*,*,#158,.F.);
#205=ORIENTED_EDGE('',*,*,#152,.F.);
#206=ORIENTED_EDGE('',*,*,#159,.F.);
#207=ORIENTED_EDGE('',*,*,#160,.F.);
#208=ORIENTED_EDGE('',*,*,#161,.F.);
#209=ORIENTED_EDGE('',*,*,#161,.T.);
#210=ORIENTED_EDGE('',*,*,#162,.F.);
#211=ORIENTED_EDGE('',*,*,#163,.F.);
#212=ORIENTED_EDGE('',*,*,#153,.F.);
#213=ORIENTED_EDGE('',*,*,#158,.T.);
#214=ORIENTED_EDGE('',*,*,#149,.F.);
#215=ORIENTED_EDGE('',*,*,#164,.F.);
#216=ORIENTED_EDGE('',*,*,#165,.F.);
#217=ORIENTED_EDGE('',*,*,#157,.T.);
#218=ORIENTED_EDGE('',*,*,#166,.F.);
#219=ORIENTED_EDGE('',*,*,#159,.T.);
#220=ORIENTED_EDGE('',*,*,#151,.F.);
#221=ORIENTED_EDGE('',*,*,#142,.T.);
#222=ORIENTED_EDGE('',*,*,#167,.F.);
#223=ORIENTED_EDGE('',*,*,#164,.T.);
#224=ORIENTED_EDGE('',*,*,#148,.F.);
#225=ORIENTED_EDGE('',*,*,#133,.T.);
#226=ORIENTED_EDGE('',*,*,#146,.T.);
#227=ORIENTED_EDGE('',*,*,#168,.T.);
#228=ORIENTED_EDGE('',*,*,#162,.T.);
#229=ORIENTED_EDGE('',*,*,#160,.T.);
#230=ORIENTED_EDGE('',*,*,#166,.T.);
#231=ORIENTED_EDGE('',*,*,#156,.T.);
#232=ORIENTED_EDGE('',*,*,#165,.T.);
#233=ORIENTED_EDGE('',*,*,#167,.T.);
#234=ORIENTED_EDGE('',*,*,#141,.T.);
#235=ORIENTED_EDGE('',*,*,#139,.T.);
#236=ORIENTED_EDGE('',*,*,#155,.T.);
#237=ORIENTED_EDGE('',*,*,#145,.T.);
#238=ORIENTED_EDGE('',*,*,#154,.F.);
#239=ORIENTED_EDGE('',*,*,#163,.T.);
#240=ORIENTED_EDGE('',*,*,#168,.F.);
#241=PLANE('',#277);
#242=PLANE('',#278);
#243=PLANE('',#285);
#244=PLANE('',#292);
#245=PLANE('',#293);
#246=PLANE('',#300);
#247=PLANE('',#301);
#248=PLANE('',#302);
#249=ADVANCED_FACE('',(#33),#241,.F.);
#250=ADVANCED_FACE('',(#34),#242,.F.);
#251=ADVANCED_FACE('',(#35),#27,.T.);
#252=ADVANCED_FACE('',(#36),#28,.T.);
#253=ADVANCED_FACE('',(#37),#243,.T.);
#254=ADVANCED_FACE('',(#38),#29,.F.);
#255=ADVANCED_FACE('',(#39),#244,.F.);
#256=ADVANCED_FACE('',(#40),#245,.F.);
#257=ADVANCED_FACE('',(#41),#30,.T.);
#258=ADVANCED_FACE('',(#42),#31,.T.);
#259=ADVANCED_FACE('',(#43),#32,.F.);
#260=ADVANCED_FACE('',(#44),#246,.T.);
#261=ADVANCED_FACE('',(#45),#247,.T.);
#262=ADVANCED_FACE('',(#46),#248,.T.);
#263=CLOSED_SHELL('',(#249,#250,#251,#252,#253,#254,#255,#256,#257,#258,
#259,#260,#261,#262));
#264=DERIVED_UNIT_ELEMENT(#266,1.);
#265=DERIVED_UNIT_ELEMENT(#461,-3.);
#266=(
MASS_UNIT()
NAMED_UNIT(*)
SI_UNIT(.KILO.,.GRAM.)
);
#267=DERIVED_UNIT((#264,#265));
#268=MEASURE_REPRESENTATION_ITEM('density measure',
POSITIVE_RATIO_MEASURE(7850.),#267);
#269=PROPERTY_DEFINITION_REPRESENTATION(#274,#271);
#270=PROPERTY_DEFINITION_REPRESENTATION(#275,#272);
#271=REPRESENTATION('material name',(#273),#458);
#272=REPRESENTATION('density',(#268),#458);
#273=DESCRIPTIVE_REPRESENTATION_ITEM('Steel','Steel');
#274=PROPERTY_DEFINITION('material property','material name',#468);
#275=PROPERTY_DEFINITION('material property','density of part',#468);
#276=AXIS2_PLACEMENT_3D('',#381,#303,#304);
#277=AXIS2_PLACEMENT_3D('',#382,#305,#306);
#278=AXIS2_PLACEMENT_3D('',#391,#311,#312);
#279=AXIS2_PLACEMENT_3D('',#400,#317,#318);
#280=AXIS2_PLACEMENT_3D('',#402,#319,#320);
#281=AXIS2_PLACEMENT_3D('',#405,#322,#323);
#282=AXIS2_PLACEMENT_3D('',#406,#324,#325);
#283=AXIS2_PLACEMENT_3D('',#408,#326,#327);
#284=AXIS2_PLACEMENT_3D('',#411,#329,#330);
#285=AXIS2_PLACEMENT_3D('',#412,#331,#332);
#286=AXIS2_PLACEMENT_3D('',#413,#333,#334);
#287=AXIS2_PLACEMENT_3D('',#417,#336,#337);
#288=AXIS2_PLACEMENT_3D('',#421,#339,#340);
#289=AXIS2_PLACEMENT_3D('',#425,#342,#343);
#290=AXIS2_PLACEMENT_3D('',#427,#345,#346);
#291=AXIS2_PLACEMENT_3D('',#428,#347,#348);
#292=AXIS2_PLACEMENT_3D('',#429,#349,#350);
#293=AXIS2_PLACEMENT_3D('',#435,#354,#355);
#294=AXIS2_PLACEMENT_3D('',#441,#359,#360);
#295=AXIS2_PLACEMENT_3D('',#443,#361,#362);
#296=AXIS2_PLACEMENT_3D('',#445,#364,#365);
#297=AXIS2_PLACEMENT_3D('',#448,#367,#368);
#298=AXIS2_PLACEMENT_3D('',#449,#369,#370);
#299=AXIS2_PLACEMENT_3D('',#450,#371,#372);
#300=AXIS2_PLACEMENT_3D('',#451,#373,#374);
#301=AXIS2_PLACEMENT_3D('',#453,#376,#377);
#302=AXIS2_PLACEMENT_3D('',#455,#379,#380);
#303=DIRECTION('axis',(0.,0.,1.));
#304=DIRECTION('refdir',(1.,0.,0.));
#305=DIRECTION('center_axis',(-1.,0.,0.));
#306=DIRECTION('ref_axis',(0.,0.,1.));
#307=DIRECTION('',(0.,0.,1.));
#308=DIRECTION('',(0.,-1.,0.));
#309=DIRECTION('',(0.,0.,-1.));
#310=DIRECTION('',(0.,1.,0.));
#311=DIRECTION('center_axis',(1.,0.,0.));
#312=DIRECTION('ref_axis',(0.,0.,-1.));
#313=DIRECTION('',(0.,0.,1.));
#314=DIRECTION('',(0.,1.,0.));
#315=DIRECTION('',(0.,0.,-1.));
#316=DIRECTION('',(0.,-1.,0.));
#317=DIRECTION('center_axis',(0.,1.,0.));
#318=DIRECTION('ref_axis',(1.,0.,0.));
#319=DIRECTION('center_axis',(0.,-1.,0.));
#320=DIRECTION('ref_axis',(1.,0.,0.));
#321=DIRECTION('',(0.,-1.,0.));
#322=DIRECTION('center_axis',(0.,1.,0.));
#323=DIRECTION('ref_axis',(1.,0.,0.));
#324=DIRECTION('center_axis',(0.,1.,0.));
#325=DIRECTION('ref_axis',(1.,0.,0.));
#326=DIRECTION('center_axis',(0.,1.,0.));
#327=DIRECTION('ref_axis',(1.,0.,0.));
#328=DIRECTION('',(0.,1.,0.));
#329=DIRECTION('center_axis',(0.,-1.,0.));
#330=DIRECTION('ref_axis',(1.,0.,0.));
#331=DIRECTION('center_axis',(0.,1.,0.));
#332=DIRECTION('ref_axis',(0.,0.,1.));
#333=DIRECTION('center_axis',(0.,-1.,0.));
#334=DIRECTION('ref_axis',(1.,0.,0.));
#335=DIRECTION('',(-1.,0.,0.));
#336=DIRECTION('center_axis',(0.,1.,0.));
#337=DIRECTION('ref_axis',(1.,0.,0.));
#338=DIRECTION('',(0.,0.,-1.));
#339=DIRECTION('center_axis',(0.,-1.,0.));
#340=DIRECTION('ref_axis',(1.,0.,0.));
#341=DIRECTION('',(0.,0.,1.));
#342=DIRECTION('center_axis',(0.,1.,0.));
#343=DIRECTION('ref_axis',(1.,0.,0.));
#344=DIRECTION('',(1.,0.,0.));
#345=DIRECTION('center_axis',(0.,1.,0.));
#346=DIRECTION('ref_axis',(1.,0.,0.));
#347=DIRECTION('center_axis',(0.,1.,0.));
#348=DIRECTION('ref_axis',(1.,0.,0.));
#349=DIRECTION('center_axis',(-1.,0.,0.));
#350=DIRECTION('ref_axis',(0.,0.,1.));
#351=DIRECTION('',(0.,0.,1.));
#352=DIRECTION('',(0.,-1.,0.));
#353=DIRECTION('',(0.,1.,0.));
#354=DIRECTION('center_axis',(1.,0.,0.));
#355=DIRECTION('ref_axis',(0.,0.,-1.));
#356=DIRECTION('',(0.,1.,0.));
#357=DIRECTION('',(0.,0.,-1.));
#358=DIRECTION('',(0.,-1.,0.));
#359=DIRECTION('center_axis',(0.,1.,0.));
#360=DIRECTION('ref_axis',(1.,0.,0.));
#361=DIRECTION('center_axis',(0.,-1.,0.));
#362=DIRECTION('ref_axis',(1.,0.,0.));
#363=DIRECTION('',(0.,-1.,0.));
#364=DIRECTION('center_axis',(0.,1.,0.));
#365=DIRECTION('ref_axis',(-0.637431207653044,0.,-0.770507271549063));
#366=DIRECTION('',(0.,1.,0.));
#367=DIRECTION('center_axis',(0.,-1.,0.));
#368=DIRECTION('ref_axis',(1.,0.,0.));
#369=DIRECTION('center_axis',(0.,1.,0.));
#370=DIRECTION('ref_axis',(1.,0.,0.));
#371=DIRECTION('center_axis',(0.,1.,0.));
#372=DIRECTION('ref_axis',(1.,0.,0.));
#373=DIRECTION('center_axis',(0.,0.,-1.));
#374=DIRECTION('ref_axis',(-1.,0.,0.));
#375=DIRECTION('',(1.,0.,0.));
#376=DIRECTION('center_axis',(0.,-1.,0.));
#377=DIRECTION('ref_axis',(0.,0.,-1.));
#378=DIRECTION('',(-1.,0.,0.));
#379=DIRECTION('center_axis',(0.,0.,1.));
#380=DIRECTION('ref_axis',(1.,0.,0.));
#381=CARTESIAN_POINT('',(0.,0.,0.));
#382=CARTESIAN_POINT('Origin',(132.9,0.,90.));
#383=CARTESIAN_POINT('',(132.9,-4.,90.));
#384=CARTESIAN_POINT('',(132.9,-4.,104.929166085217));
#385=CARTESIAN_POINT('',(132.9,-4.,86.5));
#386=CARTESIAN_POINT('',(132.9,4.,90.));
#387=CARTESIAN_POINT('',(132.9,0.,90.));
#388=CARTESIAN_POINT('',(132.9,4.,104.929166085217));
#389=CARTESIAN_POINT('',(132.9,4.,86.5));
#390=CARTESIAN_POINT('',(132.9,0.,104.929166085217));
#391=CARTESIAN_POINT('Origin',(167.1,0.,117.7));
#392=CARTESIAN_POINT('',(167.1,4.,90.));
#393=CARTESIAN_POINT('',(167.1,4.,104.929166085217));
#394=CARTESIAN_POINT('',(167.1,4.,100.35));
#395=CARTESIAN_POINT('',(167.1,-4.,90.));
#396=CARTESIAN_POINT('',(167.1,0.,90.));
#397=CARTESIAN_POINT('',(167.1,-4.,104.929166085217));
#398=CARTESIAN_POINT('',(167.1,-4.,100.35));
#399=CARTESIAN_POINT('',(167.1,0.,104.929166085217));
#400=CARTESIAN_POINT('Origin',(150.,0.,90.));
#401=CARTESIAN_POINT('',(132.131312303362,-4.,76.));
#402=CARTESIAN_POINT('Origin',(150.,-4.,90.));
#403=CARTESIAN_POINT('',(132.131312303362,4.,76.));
#404=CARTESIAN_POINT('',(132.131312303362,0.,76.));
#405=CARTESIAN_POINT('Origin',(150.,4.,90.));
#406=CARTESIAN_POINT('Origin',(150.,0.,90.));
#407=CARTESIAN_POINT('',(127.3,4.,90.));
#408=CARTESIAN_POINT('Origin',(150.,4.,90.));
#409=CARTESIAN_POINT('',(127.3,-4.,90.));
#410=CARTESIAN_POINT('',(127.3,0.,90.));
#411=CARTESIAN_POINT('Origin',(150.,-4.,90.));
#412=CARTESIAN_POINT('Origin',(110.,4.,83.));
#413=CARTESIAN_POINT('Origin',(150.,4.,90.));
#414=CARTESIAN_POINT('',(87.8686876966385,4.,76.));
#415=CARTESIAN_POINT('',(70.,4.,76.));
#416=CARTESIAN_POINT('',(52.9,4.,104.929166085217));
#417=CARTESIAN_POINT('Origin',(70.,4.,90.));
#418=CARTESIAN_POINT('',(52.9,4.,90.));
#419=CARTESIAN_POINT('',(52.9,4.,86.5));
#420=CARTESIAN_POINT('',(87.1,4.,90.));
#421=CARTESIAN_POINT('Origin',(70.,4.,90.));
#422=CARTESIAN_POINT('',(87.1,4.,104.929166085217));
#423=CARTESIAN_POINT('',(87.1,4.,100.35));
#424=CARTESIAN_POINT('',(92.7,4.,90.));
#425=CARTESIAN_POINT('Origin',(70.,4.,90.));
#426=CARTESIAN_POINT('',(150.,4.,90.));
#427=CARTESIAN_POINT('Origin',(150.,0.,90.));
#428=CARTESIAN_POINT('Origin',(150.,-4.,90.));
#429=CARTESIAN_POINT('Origin',(52.9,0.,90.));
#430=CARTESIAN_POINT('',(52.9,-4.,90.));
#431=CARTESIAN_POINT('',(52.9,-4.,104.929166085217));
#432=CARTESIAN_POINT('',(52.9,-4.,86.5));
#433=CARTESIAN_POINT('',(52.9,0.,90.));
#434=CARTESIAN_POINT('',(52.9,0.,104.929166085217));
#435=CARTESIAN_POINT('Origin',(87.1,0.,117.7));
#436=CARTESIAN_POINT('',(87.1,-4.,90.));
#437=CARTESIAN_POINT('',(87.1,0.,90.));
#438=CARTESIAN_POINT('',(87.1,-4.,104.929166085217));
#439=CARTESIAN_POINT('',(87.1,-4.,100.35));
#440=CARTESIAN_POINT('',(87.1,0.,104.929166085217));
#441=CARTESIAN_POINT('Origin',(70.,0.,90.));
#442=CARTESIAN_POINT('',(92.7,-4.,90.));
#443=CARTESIAN_POINT('Origin',(70.,-4.,90.));
#444=CARTESIAN_POINT('',(92.7,0.,90.));
#445=CARTESIAN_POINT('Origin',(70.,0.,90.));
#446=CARTESIAN_POINT('',(87.8686876966385,-4.,76.));
#447=CARTESIAN_POINT('',(87.8686876966385,0.,76.));
#448=CARTESIAN_POINT('Origin',(70.,-4.,90.));
#449=CARTESIAN_POINT('Origin',(70.,0.,90.));
#450=CARTESIAN_POINT('Origin',(70.,-4.,90.));
#451=CARTESIAN_POINT('Origin',(150.,0.,76.));
#452=CARTESIAN_POINT('',(70.,-4.,76.));
#453=CARTESIAN_POINT('Origin',(110.,-4.,83.));
#454=CARTESIAN_POINT('',(150.,-4.,90.));
#455=CARTESIAN_POINT('Origin',(70.,0.,90.));
#456=UNCERTAINTY_MEASURE_WITH_UNIT(LENGTH_MEASURE(0.01),#460,
'DISTANCE_ACCURACY_VALUE',
'Maximum model space distance between geometric entities at asserted c
onnectivities');
#457=UNCERTAINTY_MEASURE_WITH_UNIT(LENGTH_MEASURE(0.01),#460,
'DISTANCE_ACCURACY_VALUE',
'Maximum model space distance between geometric entities at asserted c
onnectivities');
#458=(
GEOMETRIC_REPRESENTATION_CONTEXT(3)
GLOBAL_UNCERTAINTY_ASSIGNED_CONTEXT((#456))
GLOBAL_UNIT_ASSIGNED_CONTEXT((#460,#462,#463))
REPRESENTATION_CONTEXT('','3D')
);
#459=(
GEOMETRIC_REPRESENTATION_CONTEXT(3)
GLOBAL_UNCERTAINTY_ASSIGNED_CONTEXT((#457))
GLOBAL_UNIT_ASSIGNED_CONTEXT((#460,#462,#463))
REPRESENTATION_CONTEXT('','3D')
);
#460=(
LENGTH_UNIT()
NAMED_UNIT(*)
SI_UNIT(.MILLI.,.METRE.)
);
#461=(
LENGTH_UNIT()
NAMED_UNIT(*)
SI_UNIT($,.METRE.)
);
#462=(
NAMED_UNIT(*)
PLANE_ANGLE_UNIT()
SI_UNIT($,.RADIAN.)
);
#463=(
NAMED_UNIT(*)
SI_UNIT($,.STERADIAN.)
SOLID_ANGLE_UNIT()
);
#464=SHAPE_DEFINITION_REPRESENTATION(#465,#466);
#465=PRODUCT_DEFINITION_SHAPE('',$,#468);
#466=SHAPE_REPRESENTATION('',(#276),#458);
#467=PRODUCT_DEFINITION_CONTEXT('part definition',#472,'design');
#468=PRODUCT_DEFINITION('2026-09-02-15-31-47-686','(Unsaved)',#469,#467);
#469=PRODUCT_DEFINITION_FORMATION('',$,#474);
#470=PRODUCT_RELATED_PRODUCT_CATEGORY('(Unsaved)','(Unsaved)',(#474));
#471=APPLICATION_PROTOCOL_DEFINITION('international standard',
'automotive_design',2009,#472);
#472=APPLICATION_CONTEXT(
'Core Data for Automotive Mechanical Design Process');
#473=PRODUCT_CONTEXT('part definition',#472,'mechanical');
#474=PRODUCT('2026-09-02-15-31-47-686','(Unsaved)',$,(#473));
#475=PRESENTATION_STYLE_ASSIGNMENT((#476));
#476=SURFACE_STYLE_USAGE(.BOTH.,#477);
#477=SURFACE_SIDE_STYLE('',(#478));
#478=SURFACE_STYLE_FILL_AREA(#479);
#479=FILL_AREA_STYLE('Steel - Satin',(#480));
#480=FILL_AREA_STYLE_COLOUR('Steel - Satin',#481);
#481=COLOUR_RGB('Steel - Satin',0.627450980392157,0.627450980392157,0.627450980392157);
ENDSEC;
END-ISO-10303-21;
