ISO-10303-21;
HEADER;
/* Generated by software containing ST-Developer
 * from STEP Tools, Inc. (www.steptools.com) 
 */

FILE_DESCRIPTION(
/* description */ (''),
/* implementation_level */ '2;1');

FILE_NAME(
/* name */ 'slot_gauge.step',
/* time_stamp */ '2026-09-02T15:09:25-05:00',
/* author */ (''),
/* organization */ (''),
/* preprocessor_version */ 'ST-DEVELOPER v20.1',
/* originating_system */ 'Autodesk Translation Framework v15.8.0.0',
/* authorisation */ '');

FILE_SCHEMA (('AUTOMOTIVE_DESIGN { 1 0 10303 214 3 1 1 }'));
ENDSEC;

DATA;
#10=MECHANICAL_DESIGN_GEOMETRIC_PRESENTATION_REPRESENTATION('',(#13),#1431);
#11=SHAPE_REPRESENTATION_RELATIONSHIP('SRR','None',#1438,#12);
#12=ADVANCED_BREP_SHAPE_REPRESENTATION('',(#14),#1430);
#13=STYLED_ITEM('',(#1447),#14);
#14=MANIFOLD_SOLID_BREP('slot_gauge',#899);
#15=FACE_BOUND('',#113,.T.);
#16=FACE_BOUND('',#114,.T.);
#17=FACE_BOUND('',#115,.T.);
#18=FACE_BOUND('',#116,.T.);
#19=FACE_BOUND('',#117,.T.);
#20=FACE_BOUND('',#118,.T.);
#21=FACE_OUTER_BOUND('',#69,.T.);
#22=FACE_OUTER_BOUND('',#70,.T.);
#23=FACE_OUTER_BOUND('',#71,.T.);
#24=FACE_OUTER_BOUND('',#72,.T.);
#25=FACE_OUTER_BOUND('',#73,.T.);
#26=FACE_OUTER_BOUND('',#74,.T.);
#27=FACE_OUTER_BOUND('',#75,.T.);
#28=FACE_OUTER_BOUND('',#76,.T.);
#29=FACE_OUTER_BOUND('',#77,.T.);
#30=FACE_OUTER_BOUND('',#78,.T.);
#31=FACE_OUTER_BOUND('',#79,.T.);
#32=FACE_OUTER_BOUND('',#80,.T.);
#33=FACE_OUTER_BOUND('',#81,.T.);
#34=FACE_OUTER_BOUND('',#82,.T.);
#35=FACE_OUTER_BOUND('',#83,.T.);
#36=FACE_OUTER_BOUND('',#84,.T.);
#37=FACE_OUTER_BOUND('',#85,.T.);
#38=FACE_OUTER_BOUND('',#86,.T.);
#39=FACE_OUTER_BOUND('',#87,.T.);
#40=FACE_OUTER_BOUND('',#88,.T.);
#41=FACE_OUTER_BOUND('',#89,.T.);
#42=FACE_OUTER_BOUND('',#90,.T.);
#43=FACE_OUTER_BOUND('',#91,.T.);
#44=FACE_OUTER_BOUND('',#92,.T.);
#45=FACE_OUTER_BOUND('',#93,.T.);
#46=FACE_OUTER_BOUND('',#94,.T.);
#47=FACE_OUTER_BOUND('',#95,.T.);
#48=FACE_OUTER_BOUND('',#96,.T.);
#49=FACE_OUTER_BOUND('',#97,.T.);
#50=FACE_OUTER_BOUND('',#98,.T.);
#51=FACE_OUTER_BOUND('',#99,.T.);
#52=FACE_OUTER_BOUND('',#100,.T.);
#53=FACE_OUTER_BOUND('',#101,.T.);
#54=FACE_OUTER_BOUND('',#102,.T.);
#55=FACE_OUTER_BOUND('',#103,.T.);
#56=FACE_OUTER_BOUND('',#104,.T.);
#57=FACE_OUTER_BOUND('',#105,.T.);
#58=FACE_OUTER_BOUND('',#106,.T.);
#59=FACE_OUTER_BOUND('',#107,.T.);
#60=FACE_OUTER_BOUND('',#108,.T.);
#61=FACE_OUTER_BOUND('',#109,.T.);
#62=FACE_OUTER_BOUND('',#110,.T.);
#63=FACE_OUTER_BOUND('',#111,.T.);
#64=FACE_OUTER_BOUND('',#112,.T.);
#65=FACE_OUTER_BOUND('',#119,.T.);
#66=FACE_OUTER_BOUND('',#120,.T.);
#67=FACE_OUTER_BOUND('',#121,.T.);
#68=FACE_OUTER_BOUND('',#122,.T.);
#69=EDGE_LOOP('',(#563,#564,#565,#566,#567,#568));
#70=EDGE_LOOP('',(#569,#570,#571,#572,#573,#574));
#71=EDGE_LOOP('',(#575,#576,#577,#578,#579,#580));
#72=EDGE_LOOP('',(#581,#582,#583,#584,#585,#586));
#73=EDGE_LOOP('',(#587,#588,#589,#590,#591,#592));
#74=EDGE_LOOP('',(#593,#594,#595,#596,#597,#598));
#75=EDGE_LOOP('',(#599,#600,#601,#602));
#76=EDGE_LOOP('',(#603,#604,#605,#606));
#77=EDGE_LOOP('',(#607,#608,#609,#610));
#78=EDGE_LOOP('',(#611,#612,#613,#614));
#79=EDGE_LOOP('',(#615,#616,#617,#618));
#80=EDGE_LOOP('',(#619,#620,#621,#622));
#81=EDGE_LOOP('',(#623,#624,#625,#626));
#82=EDGE_LOOP('',(#627,#628,#629,#630));
#83=EDGE_LOOP('',(#631,#632,#633,#634));
#84=EDGE_LOOP('',(#635,#636,#637,#638));
#85=EDGE_LOOP('',(#639,#640,#641,#642));
#86=EDGE_LOOP('',(#643,#644,#645,#646));
#87=EDGE_LOOP('',(#647,#648,#649,#650));
#88=EDGE_LOOP('',(#651,#652,#653,#654));
#89=EDGE_LOOP('',(#655,#656,#657,#658));
#90=EDGE_LOOP('',(#659,#660,#661,#662));
#91=EDGE_LOOP('',(#663,#664,#665,#666));
#92=EDGE_LOOP('',(#667,#668,#669,#670));
#93=EDGE_LOOP('',(#671,#672,#673,#674));
#94=EDGE_LOOP('',(#675,#676,#677,#678));
#95=EDGE_LOOP('',(#679,#680,#681,#682));
#96=EDGE_LOOP('',(#683,#684,#685,#686));
#97=EDGE_LOOP('',(#687,#688,#689,#690));
#98=EDGE_LOOP('',(#691,#692,#693,#694));
#99=EDGE_LOOP('',(#695,#696,#697,#698));
#100=EDGE_LOOP('',(#699,#700,#701,#702));
#101=EDGE_LOOP('',(#703,#704,#705,#706));
#102=EDGE_LOOP('',(#707,#708,#709,#710));
#103=EDGE_LOOP('',(#711,#712,#713,#714));
#104=EDGE_LOOP('',(#715,#716,#717,#718));
#105=EDGE_LOOP('',(#719,#720,#721,#722,#723,#724));
#106=EDGE_LOOP('',(#725,#726,#727,#728,#729,#730));
#107=EDGE_LOOP('',(#731,#732,#733,#734,#735,#736));
#108=EDGE_LOOP('',(#737,#738,#739,#740,#741,#742));
#109=EDGE_LOOP('',(#743,#744,#745,#746,#747,#748));
#110=EDGE_LOOP('',(#749,#750,#751,#752,#753,#754));
#111=EDGE_LOOP('',(#755,#756,#757,#758));
#112=EDGE_LOOP('',(#759,#760,#761,#762));
#113=EDGE_LOOP('',(#763,#764,#765,#766));
#114=EDGE_LOOP('',(#767,#768,#769,#770));
#115=EDGE_LOOP('',(#771,#772,#773,#774));
#116=EDGE_LOOP('',(#775,#776,#777,#778));
#117=EDGE_LOOP('',(#779,#780,#781,#782));
#118=EDGE_LOOP('',(#783,#784,#785,#786));
#119=EDGE_LOOP('',(#787,#788,#789,#790));
#120=EDGE_LOOP('',(#791,#792,#793,#794));
#121=EDGE_LOOP('',(#795,#796,#797,#798));
#122=EDGE_LOOP('',(#799,#800,#801,#802));
#123=LINE('',#1183,#243);
#124=LINE('',#1185,#244);
#125=LINE('',#1187,#245);
#126=LINE('',#1189,#246);
#127=LINE('',#1191,#247);
#128=LINE('',#1192,#248);
#129=LINE('',#1196,#249);
#130=LINE('',#1198,#250);
#131=LINE('',#1200,#251);
#132=LINE('',#1202,#252);
#133=LINE('',#1204,#253);
#134=LINE('',#1205,#254);
#135=LINE('',#1209,#255);
#136=LINE('',#1211,#256);
#137=LINE('',#1213,#257);
#138=LINE('',#1215,#258);
#139=LINE('',#1217,#259);
#140=LINE('',#1218,#260);
#141=LINE('',#1222,#261);
#142=LINE('',#1224,#262);
#143=LINE('',#1226,#263);
#144=LINE('',#1228,#264);
#145=LINE('',#1230,#265);
#146=LINE('',#1231,#266);
#147=LINE('',#1235,#267);
#148=LINE('',#1237,#268);
#149=LINE('',#1239,#269);
#150=LINE('',#1241,#270);
#151=LINE('',#1243,#271);
#152=LINE('',#1244,#272);
#153=LINE('',#1248,#273);
#154=LINE('',#1250,#274);
#155=LINE('',#1252,#275);
#156=LINE('',#1254,#276);
#157=LINE('',#1256,#277);
#158=LINE('',#1257,#278);
#159=LINE('',#1260,#279);
#160=LINE('',#1262,#280);
#161=LINE('',#1263,#281);
#162=LINE('',#1266,#282);
#163=LINE('',#1268,#283);
#164=LINE('',#1269,#284);
#165=LINE('',#1272,#285);
#166=LINE('',#1273,#286);
#167=LINE('',#1276,#287);
#168=LINE('',#1277,#288);
#169=LINE('',#1280,#289);
#170=LINE('',#1281,#290);
#171=LINE('',#1284,#291);
#172=LINE('',#1285,#292);
#173=LINE('',#1288,#293);
#174=LINE('',#1289,#294);
#175=LINE('',#1292,#295);
#176=LINE('',#1293,#296);
#177=LINE('',#1296,#297);
#178=LINE('',#1297,#298);
#179=LINE('',#1300,#299);
#180=LINE('',#1301,#300);
#181=LINE('',#1304,#301);
#182=LINE('',#1306,#302);
#183=LINE('',#1307,#303);
#184=LINE('',#1310,#304);
#185=LINE('',#1312,#305);
#186=LINE('',#1313,#306);
#187=LINE('',#1316,#307);
#188=LINE('',#1317,#308);
#189=LINE('',#1320,#309);
#190=LINE('',#1321,#310);
#191=LINE('',#1324,#311);
#192=LINE('',#1325,#312);
#193=LINE('',#1328,#313);
#194=LINE('',#1329,#314);
#195=LINE('',#1332,#315);
#196=LINE('',#1333,#316);
#197=LINE('',#1336,#317);
#198=LINE('',#1337,#318);
#199=LINE('',#1340,#319);
#200=LINE('',#1341,#320);
#201=LINE('',#1344,#321);
#202=LINE('',#1345,#322);
#203=LINE('',#1348,#323);
#204=LINE('',#1350,#324);
#205=LINE('',#1351,#325);
#206=LINE('',#1354,#326);
#207=LINE('',#1356,#327);
#208=LINE('',#1357,#328);
#209=LINE('',#1360,#329);
#210=LINE('',#1361,#330);
#211=LINE('',#1364,#331);
#212=LINE('',#1365,#332);
#213=LINE('',#1368,#333);
#214=LINE('',#1369,#334);
#215=LINE('',#1372,#335);
#216=LINE('',#1373,#336);
#217=LINE('',#1376,#337);
#218=LINE('',#1377,#338);
#219=LINE('',#1380,#339);
#220=LINE('',#1381,#340);
#221=LINE('',#1384,#341);
#222=LINE('',#1385,#342);
#223=LINE('',#1388,#343);
#224=LINE('',#1389,#344);
#225=LINE('',#1391,#345);
#226=LINE('',#1393,#346);
#227=LINE('',#1395,#347);
#228=LINE('',#1397,#348);
#229=LINE('',#1399,#349);
#230=LINE('',#1401,#350);
#231=LINE('',#1405,#351);
#232=LINE('',#1407,#352);
#233=LINE('',#1409,#353);
#234=LINE('',#1410,#354);
#235=LINE('',#1413,#355);
#236=LINE('',#1415,#356);
#237=LINE('',#1416,#357);
#238=LINE('',#1419,#358);
#239=LINE('',#1420,#359);
#240=LINE('',#1423,#360);
#241=LINE('',#1424,#361);
#242=LINE('',#1426,#362);
#243=VECTOR('',#965,10.);
#244=VECTOR('',#966,10.);
#245=VECTOR('',#967,10.);
#246=VECTOR('',#968,10.);
#247=VECTOR('',#969,10.);
#248=VECTOR('',#970,10.);
#249=VECTOR('',#973,10.);
#250=VECTOR('',#974,10.);
#251=VECTOR('',#975,10.);
#252=VECTOR('',#976,10.);
#253=VECTOR('',#977,10.);
#254=VECTOR('',#978,10.);
#255=VECTOR('',#981,10.);
#256=VECTOR('',#982,10.);
#257=VECTOR('',#983,10.);
#258=VECTOR('',#984,10.);
#259=VECTOR('',#985,10.);
#260=VECTOR('',#986,10.);
#261=VECTOR('',#989,10.);
#262=VECTOR('',#990,10.);
#263=VECTOR('',#991,10.);
#264=VECTOR('',#992,10.);
#265=VECTOR('',#993,10.);
#266=VECTOR('',#994,10.);
#267=VECTOR('',#997,10.);
#268=VECTOR('',#998,10.);
#269=VECTOR('',#999,10.);
#270=VECTOR('',#1000,10.);
#271=VECTOR('',#1001,10.);
#272=VECTOR('',#1002,10.);
#273=VECTOR('',#1005,10.);
#274=VECTOR('',#1006,10.);
#275=VECTOR('',#1007,10.);
#276=VECTOR('',#1008,10.);
#277=VECTOR('',#1009,10.);
#278=VECTOR('',#1010,10.);
#279=VECTOR('',#1013,10.);
#280=VECTOR('',#1014,10.);
#281=VECTOR('',#1015,10.);
#282=VECTOR('',#1018,10.);
#283=VECTOR('',#1019,10.);
#284=VECTOR('',#1020,10.);
#285=VECTOR('',#1023,10.);
#286=VECTOR('',#1024,10.);
#287=VECTOR('',#1027,10.);
#288=VECTOR('',#1028,10.);
#289=VECTOR('',#1031,10.);
#290=VECTOR('',#1032,10.);
#291=VECTOR('',#1035,10.);
#292=VECTOR('',#1036,10.);
#293=VECTOR('',#1039,10.);
#294=VECTOR('',#1040,10.);
#295=VECTOR('',#1043,10.);
#296=VECTOR('',#1044,10.);
#297=VECTOR('',#1047,10.);
#298=VECTOR('',#1048,10.);
#299=VECTOR('',#1051,10.);
#300=VECTOR('',#1052,10.);
#301=VECTOR('',#1055,10.);
#302=VECTOR('',#1056,10.);
#303=VECTOR('',#1057,10.);
#304=VECTOR('',#1060,10.);
#305=VECTOR('',#1061,10.);
#306=VECTOR('',#1062,10.);
#307=VECTOR('',#1065,10.);
#308=VECTOR('',#1066,10.);
#309=VECTOR('',#1069,10.);
#310=VECTOR('',#1070,10.);
#311=VECTOR('',#1073,10.);
#312=VECTOR('',#1074,10.);
#313=VECTOR('',#1077,10.);
#314=VECTOR('',#1078,10.);
#315=VECTOR('',#1081,10.);
#316=VECTOR('',#1082,10.);
#317=VECTOR('',#1085,10.);
#318=VECTOR('',#1086,10.);
#319=VECTOR('',#1089,10.);
#320=VECTOR('',#1090,10.);
#321=VECTOR('',#1093,10.);
#322=VECTOR('',#1094,10.);
#323=VECTOR('',#1097,10.);
#324=VECTOR('',#1098,10.);
#325=VECTOR('',#1099,10.);
#326=VECTOR('',#1102,10.);
#327=VECTOR('',#1103,10.);
#328=VECTOR('',#1104,10.);
#329=VECTOR('',#1107,10.);
#330=VECTOR('',#1108,10.);
#331=VECTOR('',#1111,10.);
#332=VECTOR('',#1112,10.);
#333=VECTOR('',#1115,10.);
#334=VECTOR('',#1116,10.);
#335=VECTOR('',#1119,10.);
#336=VECTOR('',#1120,10.);
#337=VECTOR('',#1123,10.);
#338=VECTOR('',#1124,10.);
#339=VECTOR('',#1127,10.);
#340=VECTOR('',#1128,10.);
#341=VECTOR('',#1131,10.);
#342=VECTOR('',#1132,10.);
#343=VECTOR('',#1135,10.);
#344=VECTOR('',#1136,10.);
#345=VECTOR('',#1139,10.);
#346=VECTOR('',#1142,10.);
#347=VECTOR('',#1145,10.);
#348=VECTOR('',#1148,10.);
#349=VECTOR('',#1151,10.);
#350=VECTOR('',#1154,10.);
#351=VECTOR('',#1157,10.);
#352=VECTOR('',#1158,10.);
#353=VECTOR('',#1159,10.);
#354=VECTOR('',#1160,10.);
#355=VECTOR('',#1163,10.);
#356=VECTOR('',#1164,10.);
#357=VECTOR('',#1165,10.);
#358=VECTOR('',#1168,10.);
#359=VECTOR('',#1169,10.);
#360=VECTOR('',#1172,10.);
#361=VECTOR('',#1173,10.);
#362=VECTOR('',#1176,10.);
#363=VERTEX_POINT('',#1181);
#364=VERTEX_POINT('',#1182);
#365=VERTEX_POINT('',#1184);
#366=VERTEX_POINT('',#1186);
#367=VERTEX_POINT('',#1188);
#368=VERTEX_POINT('',#1190);
#369=VERTEX_POINT('',#1194);
#370=VERTEX_POINT('',#1195);
#371=VERTEX_POINT('',#1197);
#372=VERTEX_POINT('',#1199);
#373=VERTEX_POINT('',#1201);
#374=VERTEX_POINT('',#1203);
#375=VERTEX_POINT('',#1207);
#376=VERTEX_POINT('',#1208);
#377=VERTEX_POINT('',#1210);
#378=VERTEX_POINT('',#1212);
#379=VERTEX_POINT('',#1214);
#380=VERTEX_POINT('',#1216);
#381=VERTEX_POINT('',#1220);
#382=VERTEX_POINT('',#1221);
#383=VERTEX_POINT('',#1223);
#384=VERTEX_POINT('',#1225);
#385=VERTEX_POINT('',#1227);
#386=VERTEX_POINT('',#1229);
#387=VERTEX_POINT('',#1233);
#388=VERTEX_POINT('',#1234);
#389=VERTEX_POINT('',#1236);
#390=VERTEX_POINT('',#1238);
#391=VERTEX_POINT('',#1240);
#392=VERTEX_POINT('',#1242);
#393=VERTEX_POINT('',#1246);
#394=VERTEX_POINT('',#1247);
#395=VERTEX_POINT('',#1249);
#396=VERTEX_POINT('',#1251);
#397=VERTEX_POINT('',#1253);
#398=VERTEX_POINT('',#1255);
#399=VERTEX_POINT('',#1259);
#400=VERTEX_POINT('',#1261);
#401=VERTEX_POINT('',#1265);
#402=VERTEX_POINT('',#1267);
#403=VERTEX_POINT('',#1271);
#404=VERTEX_POINT('',#1275);
#405=VERTEX_POINT('',#1279);
#406=VERTEX_POINT('',#1283);
#407=VERTEX_POINT('',#1287);
#408=VERTEX_POINT('',#1291);
#409=VERTEX_POINT('',#1295);
#410=VERTEX_POINT('',#1299);
#411=VERTEX_POINT('',#1303);
#412=VERTEX_POINT('',#1305);
#413=VERTEX_POINT('',#1309);
#414=VERTEX_POINT('',#1311);
#415=VERTEX_POINT('',#1315);
#416=VERTEX_POINT('',#1319);
#417=VERTEX_POINT('',#1323);
#418=VERTEX_POINT('',#1327);
#419=VERTEX_POINT('',#1331);
#420=VERTEX_POINT('',#1335);
#421=VERTEX_POINT('',#1339);
#422=VERTEX_POINT('',#1343);
#423=VERTEX_POINT('',#1347);
#424=VERTEX_POINT('',#1349);
#425=VERTEX_POINT('',#1353);
#426=VERTEX_POINT('',#1355);
#427=VERTEX_POINT('',#1359);
#428=VERTEX_POINT('',#1363);
#429=VERTEX_POINT('',#1367);
#430=VERTEX_POINT('',#1371);
#431=VERTEX_POINT('',#1375);
#432=VERTEX_POINT('',#1379);
#433=VERTEX_POINT('',#1383);
#434=VERTEX_POINT('',#1387);
#435=VERTEX_POINT('',#1403);
#436=VERTEX_POINT('',#1404);
#437=VERTEX_POINT('',#1406);
#438=VERTEX_POINT('',#1408);
#439=VERTEX_POINT('',#1412);
#440=VERTEX_POINT('',#1414);
#441=VERTEX_POINT('',#1418);
#442=VERTEX_POINT('',#1422);
#443=EDGE_CURVE('',#363,#364,#123,.T.);
#444=EDGE_CURVE('',#365,#363,#124,.T.);
#445=EDGE_CURVE('',#366,#365,#125,.T.);
#446=EDGE_CURVE('',#367,#366,#126,.T.);
#447=EDGE_CURVE('',#368,#367,#127,.T.);
#448=EDGE_CURVE('',#364,#368,#128,.T.);
#449=EDGE_CURVE('',#369,#370,#129,.T.);
#450=EDGE_CURVE('',#371,#369,#130,.T.);
#451=EDGE_CURVE('',#372,#371,#131,.T.);
#452=EDGE_CURVE('',#373,#372,#132,.T.);
#453=EDGE_CURVE('',#374,#373,#133,.T.);
#454=EDGE_CURVE('',#370,#374,#134,.T.);
#455=EDGE_CURVE('',#375,#376,#135,.T.);
#456=EDGE_CURVE('',#377,#375,#136,.T.);
#457=EDGE_CURVE('',#378,#377,#137,.T.);
#458=EDGE_CURVE('',#379,#378,#138,.T.);
#459=EDGE_CURVE('',#380,#379,#139,.T.);
#460=EDGE_CURVE('',#376,#380,#140,.T.);
#461=EDGE_CURVE('',#381,#382,#141,.T.);
#462=EDGE_CURVE('',#383,#381,#142,.T.);
#463=EDGE_CURVE('',#384,#383,#143,.T.);
#464=EDGE_CURVE('',#385,#384,#144,.T.);
#465=EDGE_CURVE('',#386,#385,#145,.T.);
#466=EDGE_CURVE('',#382,#386,#146,.T.);
#467=EDGE_CURVE('',#387,#388,#147,.T.);
#468=EDGE_CURVE('',#389,#387,#148,.T.);
#469=EDGE_CURVE('',#390,#389,#149,.T.);
#470=EDGE_CURVE('',#391,#390,#150,.T.);
#471=EDGE_CURVE('',#392,#391,#151,.T.);
#472=EDGE_CURVE('',#388,#392,#152,.T.);
#473=EDGE_CURVE('',#393,#394,#153,.T.);
#474=EDGE_CURVE('',#395,#393,#154,.T.);
#475=EDGE_CURVE('',#396,#395,#155,.T.);
#476=EDGE_CURVE('',#397,#396,#156,.T.);
#477=EDGE_CURVE('',#398,#397,#157,.T.);
#478=EDGE_CURVE('',#394,#398,#158,.T.);
#479=EDGE_CURVE('',#399,#364,#159,.T.);
#480=EDGE_CURVE('',#400,#399,#160,.T.);
#481=EDGE_CURVE('',#400,#363,#161,.T.);
#482=EDGE_CURVE('',#370,#401,#162,.T.);
#483=EDGE_CURVE('',#402,#401,#163,.T.);
#484=EDGE_CURVE('',#369,#402,#164,.T.);
#485=EDGE_CURVE('',#403,#400,#165,.T.);
#486=EDGE_CURVE('',#403,#365,#166,.T.);
#487=EDGE_CURVE('',#374,#404,#167,.T.);
#488=EDGE_CURVE('',#401,#404,#168,.T.);
#489=EDGE_CURVE('',#405,#403,#169,.T.);
#490=EDGE_CURVE('',#405,#366,#170,.T.);
#491=EDGE_CURVE('',#373,#406,#171,.T.);
#492=EDGE_CURVE('',#404,#406,#172,.T.);
#493=EDGE_CURVE('',#407,#405,#173,.T.);
#494=EDGE_CURVE('',#407,#367,#174,.T.);
#495=EDGE_CURVE('',#372,#408,#175,.T.);
#496=EDGE_CURVE('',#406,#408,#176,.T.);
#497=EDGE_CURVE('',#409,#407,#177,.T.);
#498=EDGE_CURVE('',#368,#409,#178,.T.);
#499=EDGE_CURVE('',#410,#371,#179,.T.);
#500=EDGE_CURVE('',#408,#410,#180,.T.);
#501=EDGE_CURVE('',#411,#376,#181,.T.);
#502=EDGE_CURVE('',#412,#411,#182,.T.);
#503=EDGE_CURVE('',#412,#375,#183,.T.);
#504=EDGE_CURVE('',#382,#413,#184,.T.);
#505=EDGE_CURVE('',#414,#413,#185,.T.);
#506=EDGE_CURVE('',#381,#414,#186,.T.);
#507=EDGE_CURVE('',#415,#412,#187,.T.);
#508=EDGE_CURVE('',#415,#377,#188,.T.);
#509=EDGE_CURVE('',#386,#416,#189,.T.);
#510=EDGE_CURVE('',#413,#416,#190,.T.);
#511=EDGE_CURVE('',#417,#415,#191,.T.);
#512=EDGE_CURVE('',#417,#378,#192,.T.);
#513=EDGE_CURVE('',#385,#418,#193,.T.);
#514=EDGE_CURVE('',#416,#418,#194,.T.);
#515=EDGE_CURVE('',#419,#417,#195,.T.);
#516=EDGE_CURVE('',#419,#379,#196,.T.);
#517=EDGE_CURVE('',#384,#420,#197,.T.);
#518=EDGE_CURVE('',#418,#420,#198,.T.);
#519=EDGE_CURVE('',#421,#419,#199,.T.);
#520=EDGE_CURVE('',#380,#421,#200,.T.);
#521=EDGE_CURVE('',#422,#383,#201,.T.);
#522=EDGE_CURVE('',#420,#422,#202,.T.);
#523=EDGE_CURVE('',#423,#388,#203,.T.);
#524=EDGE_CURVE('',#424,#423,#204,.T.);
#525=EDGE_CURVE('',#424,#387,#205,.T.);
#526=EDGE_CURVE('',#394,#425,#206,.T.);
#527=EDGE_CURVE('',#426,#425,#207,.T.);
#528=EDGE_CURVE('',#393,#426,#208,.T.);
#529=EDGE_CURVE('',#427,#424,#209,.T.);
#530=EDGE_CURVE('',#427,#389,#210,.T.);
#531=EDGE_CURVE('',#398,#428,#211,.T.);
#532=EDGE_CURVE('',#425,#428,#212,.T.);
#533=EDGE_CURVE('',#429,#427,#213,.T.);
#534=EDGE_CURVE('',#429,#390,#214,.T.);
#535=EDGE_CURVE('',#397,#430,#215,.T.);
#536=EDGE_CURVE('',#428,#430,#216,.T.);
#537=EDGE_CURVE('',#431,#429,#217,.T.);
#538=EDGE_CURVE('',#431,#391,#218,.T.);
#539=EDGE_CURVE('',#396,#432,#219,.T.);
#540=EDGE_CURVE('',#430,#432,#220,.T.);
#541=EDGE_CURVE('',#433,#431,#221,.T.);
#542=EDGE_CURVE('',#392,#433,#222,.T.);
#543=EDGE_CURVE('',#434,#395,#223,.T.);
#544=EDGE_CURVE('',#432,#434,#224,.T.);
#545=EDGE_CURVE('',#433,#423,#225,.T.);
#546=EDGE_CURVE('',#426,#434,#226,.T.);
#547=EDGE_CURVE('',#421,#411,#227,.T.);
#548=EDGE_CURVE('',#414,#422,#228,.T.);
#549=EDGE_CURVE('',#409,#399,#229,.T.);
#550=EDGE_CURVE('',#402,#410,#230,.T.);
#551=EDGE_CURVE('',#435,#436,#231,.T.);
#552=EDGE_CURVE('',#436,#437,#232,.T.);
#553=EDGE_CURVE('',#437,#438,#233,.T.);
#554=EDGE_CURVE('',#438,#435,#234,.T.);
#555=EDGE_CURVE('',#439,#436,#235,.T.);
#556=EDGE_CURVE('',#440,#439,#236,.T.);
#557=EDGE_CURVE('',#437,#440,#237,.T.);
#558=EDGE_CURVE('',#441,#440,#238,.T.);
#559=EDGE_CURVE('',#438,#441,#239,.T.);
#560=EDGE_CURVE('',#442,#441,#240,.T.);
#561=EDGE_CURVE('',#435,#442,#241,.T.);
#562=EDGE_CURVE('',#439,#442,#242,.T.);
#563=ORIENTED_EDGE('',*,*,#443,.F.);
#564=ORIENTED_EDGE('',*,*,#444,.F.);
#565=ORIENTED_EDGE('',*,*,#445,.F.);
#566=ORIENTED_EDGE('',*,*,#446,.F.);
#567=ORIENTED_EDGE('',*,*,#447,.F.);
#568=ORIENTED_EDGE('',*,*,#448,.F.);
#569=ORIENTED_EDGE('',*,*,#449,.F.);
#570=ORIENTED_EDGE('',*,*,#450,.F.);
#571=ORIENTED_EDGE('',*,*,#451,.F.);
#572=ORIENTED_EDGE('',*,*,#452,.F.);
#573=ORIENTED_EDGE('',*,*,#453,.F.);
#574=ORIENTED_EDGE('',*,*,#454,.F.);
#575=ORIENTED_EDGE('',*,*,#455,.F.);
#576=ORIENTED_EDGE('',*,*,#456,.F.);
#577=ORIENTED_EDGE('',*,*,#457,.F.);
#578=ORIENTED_EDGE('',*,*,#458,.F.);
#579=ORIENTED_EDGE('',*,*,#459,.F.);
#580=ORIENTED_EDGE('',*,*,#460,.F.);
#581=ORIENTED_EDGE('',*,*,#461,.F.);
#582=ORIENTED_EDGE('',*,*,#462,.F.);
#583=ORIENTED_EDGE('',*,*,#463,.F.);
#584=ORIENTED_EDGE('',*,*,#464,.F.);
#585=ORIENTED_EDGE('',*,*,#465,.F.);
#586=ORIENTED_EDGE('',*,*,#466,.F.);
#587=ORIENTED_EDGE('',*,*,#467,.F.);
#588=ORIENTED_EDGE('',*,*,#468,.F.);
#589=ORIENTED_EDGE('',*,*,#469,.F.);
#590=ORIENTED_EDGE('',*,*,#470,.F.);
#591=ORIENTED_EDGE('',*,*,#471,.F.);
#592=ORIENTED_EDGE('',*,*,#472,.F.);
#593=ORIENTED_EDGE('',*,*,#473,.F.);
#594=ORIENTED_EDGE('',*,*,#474,.F.);
#595=ORIENTED_EDGE('',*,*,#475,.F.);
#596=ORIENTED_EDGE('',*,*,#476,.F.);
#597=ORIENTED_EDGE('',*,*,#477,.F.);
#598=ORIENTED_EDGE('',*,*,#478,.F.);
#599=ORIENTED_EDGE('',*,*,#443,.T.);
#600=ORIENTED_EDGE('',*,*,#479,.F.);
#601=ORIENTED_EDGE('',*,*,#480,.F.);
#602=ORIENTED_EDGE('',*,*,#481,.T.);
#603=ORIENTED_EDGE('',*,*,#449,.T.);
#604=ORIENTED_EDGE('',*,*,#482,.T.);
#605=ORIENTED_EDGE('',*,*,#483,.F.);
#606=ORIENTED_EDGE('',*,*,#484,.F.);
#607=ORIENTED_EDGE('',*,*,#444,.T.);
#608=ORIENTED_EDGE('',*,*,#481,.F.);
#609=ORIENTED_EDGE('',*,*,#485,.F.);
#610=ORIENTED_EDGE('',*,*,#486,.T.);
#611=ORIENTED_EDGE('',*,*,#454,.T.);
#612=ORIENTED_EDGE('',*,*,#487,.T.);
#613=ORIENTED_EDGE('',*,*,#488,.F.);
#614=ORIENTED_EDGE('',*,*,#482,.F.);
#615=ORIENTED_EDGE('',*,*,#445,.T.);
#616=ORIENTED_EDGE('',*,*,#486,.F.);
#617=ORIENTED_EDGE('',*,*,#489,.F.);
#618=ORIENTED_EDGE('',*,*,#490,.T.);
#619=ORIENTED_EDGE('',*,*,#453,.T.);
#620=ORIENTED_EDGE('',*,*,#491,.T.);
#621=ORIENTED_EDGE('',*,*,#492,.F.);
#622=ORIENTED_EDGE('',*,*,#487,.F.);
#623=ORIENTED_EDGE('',*,*,#446,.T.);
#624=ORIENTED_EDGE('',*,*,#490,.F.);
#625=ORIENTED_EDGE('',*,*,#493,.F.);
#626=ORIENTED_EDGE('',*,*,#494,.T.);
#627=ORIENTED_EDGE('',*,*,#452,.T.);
#628=ORIENTED_EDGE('',*,*,#495,.T.);
#629=ORIENTED_EDGE('',*,*,#496,.F.);
#630=ORIENTED_EDGE('',*,*,#491,.F.);
#631=ORIENTED_EDGE('',*,*,#447,.T.);
#632=ORIENTED_EDGE('',*,*,#494,.F.);
#633=ORIENTED_EDGE('',*,*,#497,.F.);
#634=ORIENTED_EDGE('',*,*,#498,.F.);
#635=ORIENTED_EDGE('',*,*,#451,.T.);
#636=ORIENTED_EDGE('',*,*,#499,.F.);
#637=ORIENTED_EDGE('',*,*,#500,.F.);
#638=ORIENTED_EDGE('',*,*,#495,.F.);
#639=ORIENTED_EDGE('',*,*,#455,.T.);
#640=ORIENTED_EDGE('',*,*,#501,.F.);
#641=ORIENTED_EDGE('',*,*,#502,.F.);
#642=ORIENTED_EDGE('',*,*,#503,.T.);
#643=ORIENTED_EDGE('',*,*,#461,.T.);
#644=ORIENTED_EDGE('',*,*,#504,.T.);
#645=ORIENTED_EDGE('',*,*,#505,.F.);
#646=ORIENTED_EDGE('',*,*,#506,.F.);
#647=ORIENTED_EDGE('',*,*,#456,.T.);
#648=ORIENTED_EDGE('',*,*,#503,.F.);
#649=ORIENTED_EDGE('',*,*,#507,.F.);
#650=ORIENTED_EDGE('',*,*,#508,.T.);
#651=ORIENTED_EDGE('',*,*,#466,.T.);
#652=ORIENTED_EDGE('',*,*,#509,.T.);
#653=ORIENTED_EDGE('',*,*,#510,.F.);
#654=ORIENTED_EDGE('',*,*,#504,.F.);
#655=ORIENTED_EDGE('',*,*,#457,.T.);
#656=ORIENTED_EDGE('',*,*,#508,.F.);
#657=ORIENTED_EDGE('',*,*,#511,.F.);
#658=ORIENTED_EDGE('',*,*,#512,.T.);
#659=ORIENTED_EDGE('',*,*,#465,.T.);
#660=ORIENTED_EDGE('',*,*,#513,.T.);
#661=ORIENTED_EDGE('',*,*,#514,.F.);
#662=ORIENTED_EDGE('',*,*,#509,.F.);
#663=ORIENTED_EDGE('',*,*,#458,.T.);
#664=ORIENTED_EDGE('',*,*,#512,.F.);
#665=ORIENTED_EDGE('',*,*,#515,.F.);
#666=ORIENTED_EDGE('',*,*,#516,.T.);
#667=ORIENTED_EDGE('',*,*,#464,.T.);
#668=ORIENTED_EDGE('',*,*,#517,.T.);
#669=ORIENTED_EDGE('',*,*,#518,.F.);
#670=ORIENTED_EDGE('',*,*,#513,.F.);
#671=ORIENTED_EDGE('',*,*,#459,.T.);
#672=ORIENTED_EDGE('',*,*,#516,.F.);
#673=ORIENTED_EDGE('',*,*,#519,.F.);
#674=ORIENTED_EDGE('',*,*,#520,.F.);
#675=ORIENTED_EDGE('',*,*,#463,.T.);
#676=ORIENTED_EDGE('',*,*,#521,.F.);
#677=ORIENTED_EDGE('',*,*,#522,.F.);
#678=ORIENTED_EDGE('',*,*,#517,.F.);
#679=ORIENTED_EDGE('',*,*,#467,.T.);
#680=ORIENTED_EDGE('',*,*,#523,.F.);
#681=ORIENTED_EDGE('',*,*,#524,.F.);
#682=ORIENTED_EDGE('',*,*,#525,.T.);
#683=ORIENTED_EDGE('',*,*,#473,.T.);
#684=ORIENTED_EDGE('',*,*,#526,.T.);
#685=ORIENTED_EDGE('',*,*,#527,.F.);
#686=ORIENTED_EDGE('',*,*,#528,.F.);
#687=ORIENTED_EDGE('',*,*,#468,.T.);
#688=ORIENTED_EDGE('',*,*,#525,.F.);
#689=ORIENTED_EDGE('',*,*,#529,.F.);
#690=ORIENTED_EDGE('',*,*,#530,.T.);
#691=ORIENTED_EDGE('',*,*,#478,.T.);
#692=ORIENTED_EDGE('',*,*,#531,.T.);
#693=ORIENTED_EDGE('',*,*,#532,.F.);
#694=ORIENTED_EDGE('',*,*,#526,.F.);
#695=ORIENTED_EDGE('',*,*,#469,.T.);
#696=ORIENTED_EDGE('',*,*,#530,.F.);
#697=ORIENTED_EDGE('',*,*,#533,.F.);
#698=ORIENTED_EDGE('',*,*,#534,.T.);
#699=ORIENTED_EDGE('',*,*,#477,.T.);
#700=ORIENTED_EDGE('',*,*,#535,.T.);
#701=ORIENTED_EDGE('',*,*,#536,.F.);
#702=ORIENTED_EDGE('',*,*,#531,.F.);
#703=ORIENTED_EDGE('',*,*,#470,.T.);
#704=ORIENTED_EDGE('',*,*,#534,.F.);
#705=ORIENTED_EDGE('',*,*,#537,.F.);
#706=ORIENTED_EDGE('',*,*,#538,.T.);
#707=ORIENTED_EDGE('',*,*,#476,.T.);
#708=ORIENTED_EDGE('',*,*,#539,.T.);
#709=ORIENTED_EDGE('',*,*,#540,.F.);
#710=ORIENTED_EDGE('',*,*,#535,.F.);
#711=ORIENTED_EDGE('',*,*,#471,.T.);
#712=ORIENTED_EDGE('',*,*,#538,.F.);
#713=ORIENTED_EDGE('',*,*,#541,.F.);
#714=ORIENTED_EDGE('',*,*,#542,.F.);
#715=ORIENTED_EDGE('',*,*,#475,.T.);
#716=ORIENTED_EDGE('',*,*,#543,.F.);
#717=ORIENTED_EDGE('',*,*,#544,.F.);
#718=ORIENTED_EDGE('',*,*,#539,.F.);
#719=ORIENTED_EDGE('',*,*,#524,.T.);
#720=ORIENTED_EDGE('',*,*,#545,.F.);
#721=ORIENTED_EDGE('',*,*,#541,.T.);
#722=ORIENTED_EDGE('',*,*,#537,.T.);
#723=ORIENTED_EDGE('',*,*,#533,.T.);
#724=ORIENTED_EDGE('',*,*,#529,.T.);
#725=ORIENTED_EDGE('',*,*,#527,.T.);
#726=ORIENTED_EDGE('',*,*,#532,.T.);
#727=ORIENTED_EDGE('',*,*,#536,.T.);
#728=ORIENTED_EDGE('',*,*,#540,.T.);
#729=ORIENTED_EDGE('',*,*,#544,.T.);
#730=ORIENTED_EDGE('',*,*,#546,.F.);
#731=ORIENTED_EDGE('',*,*,#502,.T.);
#732=ORIENTED_EDGE('',*,*,#547,.F.);
#733=ORIENTED_EDGE('',*,*,#519,.T.);
#734=ORIENTED_EDGE('',*,*,#515,.T.);
#735=ORIENTED_EDGE('',*,*,#511,.T.);
#736=ORIENTED_EDGE('',*,*,#507,.T.);
#737=ORIENTED_EDGE('',*,*,#505,.T.);
#738=ORIENTED_EDGE('',*,*,#510,.T.);
#739=ORIENTED_EDGE('',*,*,#514,.T.);
#740=ORIENTED_EDGE('',*,*,#518,.T.);
#741=ORIENTED_EDGE('',*,*,#522,.T.);
#742=ORIENTED_EDGE('',*,*,#548,.F.);
#743=ORIENTED_EDGE('',*,*,#480,.T.);
#744=ORIENTED_EDGE('',*,*,#549,.F.);
#745=ORIENTED_EDGE('',*,*,#497,.T.);
#746=ORIENTED_EDGE('',*,*,#493,.T.);
#747=ORIENTED_EDGE('',*,*,#489,.T.);
#748=ORIENTED_EDGE('',*,*,#485,.T.);
#749=ORIENTED_EDGE('',*,*,#483,.T.);
#750=ORIENTED_EDGE('',*,*,#488,.T.);
#751=ORIENTED_EDGE('',*,*,#492,.T.);
#752=ORIENTED_EDGE('',*,*,#496,.T.);
#753=ORIENTED_EDGE('',*,*,#500,.T.);
#754=ORIENTED_EDGE('',*,*,#550,.F.);
#755=ORIENTED_EDGE('',*,*,#551,.T.);
#756=ORIENTED_EDGE('',*,*,#552,.T.);
#757=ORIENTED_EDGE('',*,*,#553,.T.);
#758=ORIENTED_EDGE('',*,*,#554,.T.);
#759=ORIENTED_EDGE('',*,*,#555,.F.);
#760=ORIENTED_EDGE('',*,*,#556,.F.);
#761=ORIENTED_EDGE('',*,*,#557,.F.);
#762=ORIENTED_EDGE('',*,*,#552,.F.);
#763=ORIENTED_EDGE('',*,*,#484,.T.);
#764=ORIENTED_EDGE('',*,*,#550,.T.);
#765=ORIENTED_EDGE('',*,*,#499,.T.);
#766=ORIENTED_EDGE('',*,*,#450,.T.);
#767=ORIENTED_EDGE('',*,*,#506,.T.);
#768=ORIENTED_EDGE('',*,*,#548,.T.);
#769=ORIENTED_EDGE('',*,*,#521,.T.);
#770=ORIENTED_EDGE('',*,*,#462,.T.);
#771=ORIENTED_EDGE('',*,*,#528,.T.);
#772=ORIENTED_EDGE('',*,*,#546,.T.);
#773=ORIENTED_EDGE('',*,*,#543,.T.);
#774=ORIENTED_EDGE('',*,*,#474,.T.);
#775=ORIENTED_EDGE('',*,*,#472,.T.);
#776=ORIENTED_EDGE('',*,*,#542,.T.);
#777=ORIENTED_EDGE('',*,*,#545,.T.);
#778=ORIENTED_EDGE('',*,*,#523,.T.);
#779=ORIENTED_EDGE('',*,*,#460,.T.);
#780=ORIENTED_EDGE('',*,*,#520,.T.);
#781=ORIENTED_EDGE('',*,*,#547,.T.);
#782=ORIENTED_EDGE('',*,*,#501,.T.);
#783=ORIENTED_EDGE('',*,*,#448,.T.);
#784=ORIENTED_EDGE('',*,*,#498,.T.);
#785=ORIENTED_EDGE('',*,*,#549,.T.);
#786=ORIENTED_EDGE('',*,*,#479,.T.);
#787=ORIENTED_EDGE('',*,*,#557,.T.);
#788=ORIENTED_EDGE('',*,*,#558,.F.);
#789=ORIENTED_EDGE('',*,*,#559,.F.);
#790=ORIENTED_EDGE('',*,*,#553,.F.);
#791=ORIENTED_EDGE('',*,*,#559,.T.);
#792=ORIENTED_EDGE('',*,*,#560,.F.);
#793=ORIENTED_EDGE('',*,*,#561,.F.);
#794=ORIENTED_EDGE('',*,*,#554,.F.);
#795=ORIENTED_EDGE('',*,*,#561,.T.);
#796=ORIENTED_EDGE('',*,*,#562,.F.);
#797=ORIENTED_EDGE('',*,*,#555,.T.);
#798=ORIENTED_EDGE('',*,*,#551,.F.);
#799=ORIENTED_EDGE('',*,*,#562,.T.);
#800=ORIENTED_EDGE('',*,*,#560,.T.);
#801=ORIENTED_EDGE('',*,*,#558,.T.);
#802=ORIENTED_EDGE('',*,*,#556,.T.);
#803=PLANE('',#913);
#804=PLANE('',#914);
#805=PLANE('',#915);
#806=PLANE('',#916);
#807=PLANE('',#917);
#808=PLANE('',#918);
#809=PLANE('',#919);
#810=PLANE('',#920);
#811=PLANE('',#921);
#812=PLANE('',#922);
#813=PLANE('',#923);
#814=PLANE('',#924);
#815=PLANE('',#925);
#816=PLANE('',#926);
#817=PLANE('',#927);
#818=PLANE('',#928);
#819=PLANE('',#929);
#820=PLANE('',#930);
#821=PLANE('',#931);
#822=PLANE('',#932);
#823=PLANE('',#933);
#824=PLANE('',#934);
#825=PLANE('',#935);
#826=PLANE('',#936);
#827=PLANE('',#937);
#828=PLANE('',#938);
#829=PLANE('',#939);
#830=PLANE('',#940);
#831=PLANE('',#941);
#832=PLANE('',#942);
#833=PLANE('',#943);
#834=PLANE('',#944);
#835=PLANE('',#945);
#836=PLANE('',#946);
#837=PLANE('',#947);
#838=PLANE('',#948);
#839=PLANE('',#949);
#840=PLANE('',#950);
#841=PLANE('',#951);
#842=PLANE('',#952);
#843=PLANE('',#953);
#844=PLANE('',#954);
#845=PLANE('',#955);
#846=PLANE('',#956);
#847=PLANE('',#957);
#848=PLANE('',#958);
#849=PLANE('',#959);
#850=PLANE('',#960);
#851=ADVANCED_FACE('',(#21),#803,.F.);
#852=ADVANCED_FACE('',(#22),#804,.F.);
#853=ADVANCED_FACE('',(#23),#805,.F.);
#854=ADVANCED_FACE('',(#24),#806,.F.);
#855=ADVANCED_FACE('',(#25),#807,.F.);
#856=ADVANCED_FACE('',(#26),#808,.F.);
#857=ADVANCED_FACE('',(#27),#809,.T.);
#858=ADVANCED_FACE('',(#28),#810,.T.);
#859=ADVANCED_FACE('',(#29),#811,.T.);
#860=ADVANCED_FACE('',(#30),#812,.T.);
#861=ADVANCED_FACE('',(#31),#813,.T.);
#862=ADVANCED_FACE('',(#32),#814,.T.);
#863=ADVANCED_FACE('',(#33),#815,.T.);
#864=ADVANCED_FACE('',(#34),#816,.T.);
#865=ADVANCED_FACE('',(#35),#817,.T.);
#866=ADVANCED_FACE('',(#36),#818,.T.);
#867=ADVANCED_FACE('',(#37),#819,.T.);
#868=ADVANCED_FACE('',(#38),#820,.T.);
#869=ADVANCED_FACE('',(#39),#821,.T.);
#870=ADVANCED_FACE('',(#40),#822,.T.);
#871=ADVANCED_FACE('',(#41),#823,.T.);
#872=ADVANCED_FACE('',(#42),#824,.T.);
#873=ADVANCED_FACE('',(#43),#825,.T.);
#874=ADVANCED_FACE('',(#44),#826,.T.);
#875=ADVANCED_FACE('',(#45),#827,.T.);
#876=ADVANCED_FACE('',(#46),#828,.T.);
#877=ADVANCED_FACE('',(#47),#829,.T.);
#878=ADVANCED_FACE('',(#48),#830,.T.);
#879=ADVANCED_FACE('',(#49),#831,.T.);
#880=ADVANCED_FACE('',(#50),#832,.T.);
#881=ADVANCED_FACE('',(#51),#833,.T.);
#882=ADVANCED_FACE('',(#52),#834,.T.);
#883=ADVANCED_FACE('',(#53),#835,.T.);
#884=ADVANCED_FACE('',(#54),#836,.T.);
#885=ADVANCED_FACE('',(#55),#837,.T.);
#886=ADVANCED_FACE('',(#56),#838,.T.);
#887=ADVANCED_FACE('',(#57),#839,.T.);
#888=ADVANCED_FACE('',(#58),#840,.T.);
#889=ADVANCED_FACE('',(#59),#841,.T.);
#890=ADVANCED_FACE('',(#60),#842,.T.);
#891=ADVANCED_FACE('',(#61),#843,.T.);
#892=ADVANCED_FACE('',(#62),#844,.T.);
#893=ADVANCED_FACE('',(#63),#845,.T.);
#894=ADVANCED_FACE('',(#64,#15,#16,#17,#18,#19,#20),#846,.T.);
#895=ADVANCED_FACE('',(#65),#847,.T.);
#896=ADVANCED_FACE('',(#66),#848,.T.);
#897=ADVANCED_FACE('',(#67),#849,.T.);
#898=ADVANCED_FACE('',(#68),#850,.T.);
#899=CLOSED_SHELL('',(#851,#852,#853,#854,#855,#856,#857,#858,#859,#860,
#861,#862,#863,#864,#865,#866,#867,#868,#869,#870,#871,#872,#873,#874,#875,
#876,#877,#878,#879,#880,#881,#882,#883,#884,#885,#886,#887,#888,#889,#890,
#891,#892,#893,#894,#895,#896,#897,#898));
#900=DERIVED_UNIT_ELEMENT(#902,1.);
#901=DERIVED_UNIT_ELEMENT(#1433,-3.);
#902=(
MASS_UNIT()
NAMED_UNIT(*)
SI_UNIT(.KILO.,.GRAM.)
);
#903=DERIVED_UNIT((#900,#901));
#904=MEASURE_REPRESENTATION_ITEM('density measure',
POSITIVE_RATIO_MEASURE(7850.),#903);
#905=PROPERTY_DEFINITION_REPRESENTATION(#910,#907);
#906=PROPERTY_DEFINITION_REPRESENTATION(#911,#908);
#907=REPRESENTATION('material name',(#909),#1430);
#908=REPRESENTATION('density',(#904),#1430);
#909=DESCRIPTIVE_REPRESENTATION_ITEM('Steel','Steel');
#910=PROPERTY_DEFINITION('material property','material name',#1440);
#911=PROPERTY_DEFINITION('material property','density of part',#1440);
#912=AXIS2_PLACEMENT_3D('',#1179,#961,#962);
#913=AXIS2_PLACEMENT_3D('',#1180,#963,#964);
#914=AXIS2_PLACEMENT_3D('',#1193,#971,#972);
#915=AXIS2_PLACEMENT_3D('',#1206,#979,#980);
#916=AXIS2_PLACEMENT_3D('',#1219,#987,#988);
#917=AXIS2_PLACEMENT_3D('',#1232,#995,#996);
#918=AXIS2_PLACEMENT_3D('',#1245,#1003,#1004);
#919=AXIS2_PLACEMENT_3D('',#1258,#1011,#1012);
#920=AXIS2_PLACEMENT_3D('',#1264,#1016,#1017);
#921=AXIS2_PLACEMENT_3D('',#1270,#1021,#1022);
#922=AXIS2_PLACEMENT_3D('',#1274,#1025,#1026);
#923=AXIS2_PLACEMENT_3D('',#1278,#1029,#1030);
#924=AXIS2_PLACEMENT_3D('',#1282,#1033,#1034);
#925=AXIS2_PLACEMENT_3D('',#1286,#1037,#1038);
#926=AXIS2_PLACEMENT_3D('',#1290,#1041,#1042);
#927=AXIS2_PLACEMENT_3D('',#1294,#1045,#1046);
#928=AXIS2_PLACEMENT_3D('',#1298,#1049,#1050);
#929=AXIS2_PLACEMENT_3D('',#1302,#1053,#1054);
#930=AXIS2_PLACEMENT_3D('',#1308,#1058,#1059);
#931=AXIS2_PLACEMENT_3D('',#1314,#1063,#1064);
#932=AXIS2_PLACEMENT_3D('',#1318,#1067,#1068);
#933=AXIS2_PLACEMENT_3D('',#1322,#1071,#1072);
#934=AXIS2_PLACEMENT_3D('',#1326,#1075,#1076);
#935=AXIS2_PLACEMENT_3D('',#1330,#1079,#1080);
#936=AXIS2_PLACEMENT_3D('',#1334,#1083,#1084);
#937=AXIS2_PLACEMENT_3D('',#1338,#1087,#1088);
#938=AXIS2_PLACEMENT_3D('',#1342,#1091,#1092);
#939=AXIS2_PLACEMENT_3D('',#1346,#1095,#1096);
#940=AXIS2_PLACEMENT_3D('',#1352,#1100,#1101);
#941=AXIS2_PLACEMENT_3D('',#1358,#1105,#1106);
#942=AXIS2_PLACEMENT_3D('',#1362,#1109,#1110);
#943=AXIS2_PLACEMENT_3D('',#1366,#1113,#1114);
#944=AXIS2_PLACEMENT_3D('',#1370,#1117,#1118);
#945=AXIS2_PLACEMENT_3D('',#1374,#1121,#1122);
#946=AXIS2_PLACEMENT_3D('',#1378,#1125,#1126);
#947=AXIS2_PLACEMENT_3D('',#1382,#1129,#1130);
#948=AXIS2_PLACEMENT_3D('',#1386,#1133,#1134);
#949=AXIS2_PLACEMENT_3D('',#1390,#1137,#1138);
#950=AXIS2_PLACEMENT_3D('',#1392,#1140,#1141);
#951=AXIS2_PLACEMENT_3D('',#1394,#1143,#1144);
#952=AXIS2_PLACEMENT_3D('',#1396,#1146,#1147);
#953=AXIS2_PLACEMENT_3D('',#1398,#1149,#1150);
#954=AXIS2_PLACEMENT_3D('',#1400,#1152,#1153);
#955=AXIS2_PLACEMENT_3D('',#1402,#1155,#1156);
#956=AXIS2_PLACEMENT_3D('',#1411,#1161,#1162);
#957=AXIS2_PLACEMENT_3D('',#1417,#1166,#1167);
#958=AXIS2_PLACEMENT_3D('',#1421,#1170,#1171);
#959=AXIS2_PLACEMENT_3D('',#1425,#1174,#1175);
#960=AXIS2_PLACEMENT_3D('',#1427,#1177,#1178);
#961=DIRECTION('axis',(0.,0.,1.));
#962=DIRECTION('refdir',(1.,0.,0.));
#963=DIRECTION('center_axis',(0.,-1.,0.));
#964=DIRECTION('ref_axis',(0.,0.,-1.));
#965=DIRECTION('',(1.,0.,0.));
#966=DIRECTION('',(0.,0.,1.));
#967=DIRECTION('',(1.,0.,0.));
#968=DIRECTION('',(0.,0.,-1.));
#969=DIRECTION('',(-1.,0.,0.));
#970=DIRECTION('',(0.,0.,1.));
#971=DIRECTION('center_axis',(0.,1.,0.));
#972=DIRECTION('ref_axis',(0.,0.,1.));
#973=DIRECTION('',(-1.,0.,0.));
#974=DIRECTION('',(0.,0.,-1.));
#975=DIRECTION('',(1.,0.,0.));
#976=DIRECTION('',(0.,0.,1.));
#977=DIRECTION('',(-1.,0.,0.));
#978=DIRECTION('',(0.,0.,-1.));
#979=DIRECTION('center_axis',(0.,-1.,0.));
#980=DIRECTION('ref_axis',(0.,0.,-1.));
#981=DIRECTION('',(1.,0.,0.));
#982=DIRECTION('',(0.,0.,1.));
#983=DIRECTION('',(1.,0.,0.));
#984=DIRECTION('',(0.,0.,-1.));
#985=DIRECTION('',(-1.,0.,0.));
#986=DIRECTION('',(0.,0.,1.));
#987=DIRECTION('center_axis',(0.,1.,0.));
#988=DIRECTION('ref_axis',(0.,0.,1.));
#989=DIRECTION('',(-1.,0.,0.));
#990=DIRECTION('',(0.,0.,-1.));
#991=DIRECTION('',(1.,0.,0.));
#992=DIRECTION('',(0.,0.,1.));
#993=DIRECTION('',(-1.,0.,0.));
#994=DIRECTION('',(0.,0.,-1.));
#995=DIRECTION('center_axis',(0.,-1.,0.));
#996=DIRECTION('ref_axis',(0.,0.,-1.));
#997=DIRECTION('',(1.,0.,0.));
#998=DIRECTION('',(0.,0.,1.));
#999=DIRECTION('',(1.,0.,0.));
#1000=DIRECTION('',(0.,0.,-1.));
#1001=DIRECTION('',(-1.,0.,0.));
#1002=DIRECTION('',(0.,0.,1.));
#1003=DIRECTION('center_axis',(0.,1.,0.));
#1004=DIRECTION('ref_axis',(0.,0.,1.));
#1005=DIRECTION('',(-1.,0.,0.));
#1006=DIRECTION('',(0.,0.,-1.));
#1007=DIRECTION('',(1.,0.,0.));
#1008=DIRECTION('',(0.,0.,1.));
#1009=DIRECTION('',(-1.,0.,0.));
#1010=DIRECTION('',(0.,0.,-1.));
#1011=DIRECTION('center_axis',(0.,0.,-1.));
#1012=DIRECTION('ref_axis',(-1.,0.,0.));
#1013=DIRECTION('',(0.,1.,0.));
#1014=DIRECTION('',(1.,0.,0.));
#1015=DIRECTION('',(0.,1.,0.));
#1016=DIRECTION('center_axis',(0.,0.,-1.));
#1017=DIRECTION('ref_axis',(-1.,0.,0.));
#1018=DIRECTION('',(0.,1.,0.));
#1019=DIRECTION('',(-1.,0.,0.));
#1020=DIRECTION('',(0.,1.,0.));
#1021=DIRECTION('center_axis',(1.,0.,0.));
#1022=DIRECTION('ref_axis',(0.,0.,-1.));
#1023=DIRECTION('',(0.,0.,1.));
#1024=DIRECTION('',(0.,1.,0.));
#1025=DIRECTION('center_axis',(1.,0.,0.));
#1026=DIRECTION('ref_axis',(0.,0.,-1.));
#1027=DIRECTION('',(0.,1.,0.));
#1028=DIRECTION('',(0.,0.,-1.));
#1029=DIRECTION('center_axis',(0.,0.,-1.));
#1030=DIRECTION('ref_axis',(-1.,0.,0.));
#1031=DIRECTION('',(1.,0.,0.));
#1032=DIRECTION('',(0.,1.,0.));
#1033=DIRECTION('center_axis',(0.,0.,-1.));
#1034=DIRECTION('ref_axis',(-1.,0.,0.));
#1035=DIRECTION('',(0.,1.,0.));
#1036=DIRECTION('',(-1.,0.,0.));
#1037=DIRECTION('center_axis',(-1.,0.,0.));
#1038=DIRECTION('ref_axis',(0.,0.,1.));
#1039=DIRECTION('',(0.,0.,-1.));
#1040=DIRECTION('',(0.,1.,0.));
#1041=DIRECTION('center_axis',(-1.,0.,0.));
#1042=DIRECTION('ref_axis',(0.,0.,1.));
#1043=DIRECTION('',(0.,1.,0.));
#1044=DIRECTION('',(0.,0.,1.));
#1045=DIRECTION('center_axis',(0.,0.,1.));
#1046=DIRECTION('ref_axis',(1.,0.,0.));
#1047=DIRECTION('',(-1.,0.,0.));
#1048=DIRECTION('',(0.,-1.,0.));
#1049=DIRECTION('center_axis',(0.,0.,1.));
#1050=DIRECTION('ref_axis',(1.,0.,0.));
#1051=DIRECTION('',(0.,-1.,0.));
#1052=DIRECTION('',(1.,0.,0.));
#1053=DIRECTION('center_axis',(0.,0.,-1.));
#1054=DIRECTION('ref_axis',(-1.,0.,0.));
#1055=DIRECTION('',(0.,1.,0.));
#1056=DIRECTION('',(1.,0.,0.));
#1057=DIRECTION('',(0.,1.,0.));
#1058=DIRECTION('center_axis',(0.,0.,-1.));
#1059=DIRECTION('ref_axis',(-1.,0.,0.));
#1060=DIRECTION('',(0.,1.,0.));
#1061=DIRECTION('',(-1.,0.,0.));
#1062=DIRECTION('',(0.,1.,0.));
#1063=DIRECTION('center_axis',(1.,0.,0.));
#1064=DIRECTION('ref_axis',(0.,0.,-1.));
#1065=DIRECTION('',(0.,0.,1.));
#1066=DIRECTION('',(0.,1.,0.));
#1067=DIRECTION('center_axis',(1.,0.,0.));
#1068=DIRECTION('ref_axis',(0.,0.,-1.));
#1069=DIRECTION('',(0.,1.,0.));
#1070=DIRECTION('',(0.,0.,-1.));
#1071=DIRECTION('center_axis',(0.,0.,-1.));
#1072=DIRECTION('ref_axis',(-1.,0.,0.));
#1073=DIRECTION('',(1.,0.,0.));
#1074=DIRECTION('',(0.,1.,0.));
#1075=DIRECTION('center_axis',(0.,0.,-1.));
#1076=DIRECTION('ref_axis',(-1.,0.,0.));
#1077=DIRECTION('',(0.,1.,0.));
#1078=DIRECTION('',(-1.,0.,0.));
#1079=DIRECTION('center_axis',(-1.,0.,0.));
#1080=DIRECTION('ref_axis',(0.,0.,1.));
#1081=DIRECTION('',(0.,0.,-1.));
#1082=DIRECTION('',(0.,1.,0.));
#1083=DIRECTION('center_axis',(-1.,0.,0.));
#1084=DIRECTION('ref_axis',(0.,0.,1.));
#1085=DIRECTION('',(0.,1.,0.));
#1086=DIRECTION('',(0.,0.,1.));
#1087=DIRECTION('center_axis',(0.,0.,1.));
#1088=DIRECTION('ref_axis',(1.,0.,0.));
#1089=DIRECTION('',(-1.,0.,0.));
#1090=DIRECTION('',(0.,-1.,0.));
#1091=DIRECTION('center_axis',(0.,0.,1.));
#1092=DIRECTION('ref_axis',(1.,0.,0.));
#1093=DIRECTION('',(0.,-1.,0.));
#1094=DIRECTION('',(1.,0.,0.));
#1095=DIRECTION('center_axis',(0.,0.,-1.));
#1096=DIRECTION('ref_axis',(-1.,0.,0.));
#1097=DIRECTION('',(0.,1.,0.));
#1098=DIRECTION('',(1.,0.,0.));
#1099=DIRECTION('',(0.,1.,0.));
#1100=DIRECTION('center_axis',(0.,0.,-1.));
#1101=DIRECTION('ref_axis',(-1.,0.,0.));
#1102=DIRECTION('',(0.,1.,0.));
#1103=DIRECTION('',(-1.,0.,0.));
#1104=DIRECTION('',(0.,1.,0.));
#1105=DIRECTION('center_axis',(1.,0.,0.));
#1106=DIRECTION('ref_axis',(0.,0.,-1.));
#1107=DIRECTION('',(0.,0.,1.));
#1108=DIRECTION('',(0.,1.,0.));
#1109=DIRECTION('center_axis',(1.,0.,0.));
#1110=DIRECTION('ref_axis',(0.,0.,-1.));
#1111=DIRECTION('',(0.,1.,0.));
#1112=DIRECTION('',(0.,0.,-1.));
#1113=DIRECTION('center_axis',(0.,0.,-1.));
#1114=DIRECTION('ref_axis',(-1.,0.,0.));
#1115=DIRECTION('',(1.,0.,0.));
#1116=DIRECTION('',(0.,1.,0.));
#1117=DIRECTION('center_axis',(0.,0.,-1.));
#1118=DIRECTION('ref_axis',(-1.,0.,0.));
#1119=DIRECTION('',(0.,1.,0.));
#1120=DIRECTION('',(-1.,0.,0.));
#1121=DIRECTION('center_axis',(-1.,0.,0.));
#1122=DIRECTION('ref_axis',(0.,0.,1.));
#1123=DIRECTION('',(0.,0.,-1.));
#1124=DIRECTION('',(0.,1.,0.));
#1125=DIRECTION('center_axis',(-1.,0.,0.));
#1126=DIRECTION('ref_axis',(0.,0.,1.));
#1127=DIRECTION('',(0.,1.,0.));
#1128=DIRECTION('',(0.,0.,1.));
#1129=DIRECTION('center_axis',(0.,0.,1.));
#1130=DIRECTION('ref_axis',(1.,0.,0.));
#1131=DIRECTION('',(-1.,0.,0.));
#1132=DIRECTION('',(0.,-1.,0.));
#1133=DIRECTION('center_axis',(0.,0.,1.));
#1134=DIRECTION('ref_axis',(1.,0.,0.));
#1135=DIRECTION('',(0.,-1.,0.));
#1136=DIRECTION('',(1.,0.,0.));
#1137=DIRECTION('center_axis',(0.,-1.,0.));
#1138=DIRECTION('ref_axis',(0.,0.,-1.));
#1139=DIRECTION('',(0.,0.,-1.));
#1140=DIRECTION('center_axis',(0.,1.,0.));
#1141=DIRECTION('ref_axis',(0.,0.,1.));
#1142=DIRECTION('',(0.,0.,1.));
#1143=DIRECTION('center_axis',(0.,-1.,0.));
#1144=DIRECTION('ref_axis',(0.,0.,-1.));
#1145=DIRECTION('',(0.,0.,-1.));
#1146=DIRECTION('center_axis',(0.,1.,0.));
#1147=DIRECTION('ref_axis',(0.,0.,1.));
#1148=DIRECTION('',(0.,0.,1.));
#1149=DIRECTION('center_axis',(0.,-1.,0.));
#1150=DIRECTION('ref_axis',(0.,0.,-1.));
#1151=DIRECTION('',(0.,0.,-1.));
#1152=DIRECTION('center_axis',(0.,1.,0.));
#1153=DIRECTION('ref_axis',(0.,0.,1.));
#1154=DIRECTION('',(0.,0.,1.));
#1155=DIRECTION('center_axis',(0.,-1.,0.));
#1156=DIRECTION('ref_axis',(0.,0.,-1.));
#1157=DIRECTION('',(-1.,0.,0.));
#1158=DIRECTION('',(0.,0.,-1.));
#1159=DIRECTION('',(1.,0.,0.));
#1160=DIRECTION('',(0.,0.,1.));
#1161=DIRECTION('center_axis',(-1.,0.,0.));
#1162=DIRECTION('ref_axis',(0.,0.,1.));
#1163=DIRECTION('',(0.,-1.,0.));
#1164=DIRECTION('',(0.,0.,1.));
#1165=DIRECTION('',(0.,1.,0.));
#1166=DIRECTION('center_axis',(0.,0.,-1.));
#1167=DIRECTION('ref_axis',(-1.,0.,0.));
#1168=DIRECTION('',(-1.,0.,0.));
#1169=DIRECTION('',(0.,1.,0.));
#1170=DIRECTION('center_axis',(1.,0.,0.));
#1171=DIRECTION('ref_axis',(0.,0.,-1.));
#1172=DIRECTION('',(0.,0.,-1.));
#1173=DIRECTION('',(0.,1.,0.));
#1174=DIRECTION('center_axis',(0.,0.,1.));
#1175=DIRECTION('ref_axis',(1.,0.,0.));
#1176=DIRECTION('',(1.,0.,0.));
#1177=DIRECTION('center_axis',(0.,1.,0.));
#1178=DIRECTION('ref_axis',(0.,0.,1.));
#1179=CARTESIAN_POINT('',(0.,0.,0.));
#1180=CARTESIAN_POINT('Origin',(-3.4,-11.5,65.5));
#1181=CARTESIAN_POINT('',(-2.8,-11.5,69.));
#1182=CARTESIAN_POINT('',(0.,-11.5,69.));
#1183=CARTESIAN_POINT('',(-1.7,-11.5,69.));
#1184=CARTESIAN_POINT('',(-2.8,-11.5,57.));
#1185=CARTESIAN_POINT('',(-2.8,-11.5,67.25));
#1186=CARTESIAN_POINT('',(-6.8,-11.5,57.));
#1187=CARTESIAN_POINT('',(-3.1,-11.5,57.));
#1188=CARTESIAN_POINT('',(-6.8,-11.5,74.));
#1189=CARTESIAN_POINT('',(-6.8,-11.5,61.25));
#1190=CARTESIAN_POINT('',(0.,-11.5,74.));
#1191=CARTESIAN_POINT('',(-5.1,-11.5,74.));
#1192=CARTESIAN_POINT('',(0.,-11.5,69.));
#1193=CARTESIAN_POINT('Origin',(-3.4,11.5,65.5));
#1194=CARTESIAN_POINT('',(0.,11.5,69.));
#1195=CARTESIAN_POINT('',(-2.8,11.5,69.));
#1196=CARTESIAN_POINT('',(-1.7,11.5,69.));
#1197=CARTESIAN_POINT('',(0.,11.5,74.));
#1198=CARTESIAN_POINT('',(0.,11.5,69.));
#1199=CARTESIAN_POINT('',(-6.8,11.5,74.));
#1200=CARTESIAN_POINT('',(-5.1,11.5,74.));
#1201=CARTESIAN_POINT('',(-6.8,11.5,57.));
#1202=CARTESIAN_POINT('',(-6.8,11.5,61.25));
#1203=CARTESIAN_POINT('',(-2.8,11.5,57.));
#1204=CARTESIAN_POINT('',(-3.1,11.5,57.));
#1205=CARTESIAN_POINT('',(-2.8,11.5,67.25));
#1206=CARTESIAN_POINT('Origin',(-3.4,-11.5,40.1));
#1207=CARTESIAN_POINT('',(-2.8,-11.5,43.6));
#1208=CARTESIAN_POINT('',(0.,-11.5,43.6));
#1209=CARTESIAN_POINT('',(-1.7,-11.5,43.6));
#1210=CARTESIAN_POINT('',(-2.8,-11.5,31.6));
#1211=CARTESIAN_POINT('',(-2.8,-11.5,41.85));
#1212=CARTESIAN_POINT('',(-6.8,-11.5,31.6));
#1213=CARTESIAN_POINT('',(-3.1,-11.5,31.6));
#1214=CARTESIAN_POINT('',(-6.8,-11.5,48.6));
#1215=CARTESIAN_POINT('',(-6.8,-11.5,35.85));
#1216=CARTESIAN_POINT('',(0.,-11.5,48.6));
#1217=CARTESIAN_POINT('',(-5.1,-11.5,48.6));
#1218=CARTESIAN_POINT('',(0.,-11.5,43.6));
#1219=CARTESIAN_POINT('Origin',(-3.4,11.5,40.1));
#1220=CARTESIAN_POINT('',(0.,11.5,43.6));
#1221=CARTESIAN_POINT('',(-2.8,11.5,43.6));
#1222=CARTESIAN_POINT('',(-1.7,11.5,43.6));
#1223=CARTESIAN_POINT('',(0.,11.5,48.6));
#1224=CARTESIAN_POINT('',(0.,11.5,43.6));
#1225=CARTESIAN_POINT('',(-6.8,11.5,48.6));
#1226=CARTESIAN_POINT('',(-5.1,11.5,48.6));
#1227=CARTESIAN_POINT('',(-6.8,11.5,31.6));
#1228=CARTESIAN_POINT('',(-6.8,11.5,35.85));
#1229=CARTESIAN_POINT('',(-2.8,11.5,31.6));
#1230=CARTESIAN_POINT('',(-3.1,11.5,31.6));
#1231=CARTESIAN_POINT('',(-2.8,11.5,41.85));
#1232=CARTESIAN_POINT('Origin',(-3.4,-11.5,14.7));
#1233=CARTESIAN_POINT('',(-2.8,-11.5,18.2));
#1234=CARTESIAN_POINT('',(0.,-11.5,18.2));
#1235=CARTESIAN_POINT('',(-1.7,-11.5,18.2));
#1236=CARTESIAN_POINT('',(-2.8,-11.5,6.2));
#1237=CARTESIAN_POINT('',(-2.8,-11.5,16.45));
#1238=CARTESIAN_POINT('',(-6.8,-11.5,6.2));
#1239=CARTESIAN_POINT('',(-3.1,-11.5,6.2));
#1240=CARTESIAN_POINT('',(-6.8,-11.5,23.2));
#1241=CARTESIAN_POINT('',(-6.8,-11.5,10.45));
#1242=CARTESIAN_POINT('',(0.,-11.5,23.2));
#1243=CARTESIAN_POINT('',(-5.1,-11.5,23.2));
#1244=CARTESIAN_POINT('',(0.,-11.5,18.2));
#1245=CARTESIAN_POINT('Origin',(-3.4,11.5,14.7));
#1246=CARTESIAN_POINT('',(0.,11.5,18.2));
#1247=CARTESIAN_POINT('',(-2.8,11.5,18.2));
#1248=CARTESIAN_POINT('',(-1.7,11.5,18.2));
#1249=CARTESIAN_POINT('',(0.,11.5,23.2));
#1250=CARTESIAN_POINT('',(0.,11.5,18.2));
#1251=CARTESIAN_POINT('',(-6.8,11.5,23.2));
#1252=CARTESIAN_POINT('',(-5.1,11.5,23.2));
#1253=CARTESIAN_POINT('',(-6.8,11.5,6.2));
#1254=CARTESIAN_POINT('',(-6.8,11.5,10.45));
#1255=CARTESIAN_POINT('',(-2.8,11.5,6.2));
#1256=CARTESIAN_POINT('',(-3.1,11.5,6.2));
#1257=CARTESIAN_POINT('',(-2.8,11.5,16.45));
#1258=CARTESIAN_POINT('Origin',(0.,0.,69.));
#1259=CARTESIAN_POINT('',(0.,-13.9,69.));
#1260=CARTESIAN_POINT('',(0.,0.,69.));
#1261=CARTESIAN_POINT('',(-2.8,-13.9,69.));
#1262=CARTESIAN_POINT('',(-2.8,-13.9,69.));
#1263=CARTESIAN_POINT('',(-2.8,0.,69.));
#1264=CARTESIAN_POINT('Origin',(0.,0.,69.));
#1265=CARTESIAN_POINT('',(-2.8,13.9,69.));
#1266=CARTESIAN_POINT('',(-2.8,0.,69.));
#1267=CARTESIAN_POINT('',(0.,13.9,69.));
#1268=CARTESIAN_POINT('',(-2.8,13.9,69.));
#1269=CARTESIAN_POINT('',(0.,0.,69.));
#1270=CARTESIAN_POINT('Origin',(-2.8,0.,69.));
#1271=CARTESIAN_POINT('',(-2.8,-13.9,57.));
#1272=CARTESIAN_POINT('',(-2.8,-13.9,57.));
#1273=CARTESIAN_POINT('',(-2.8,0.,57.));
#1274=CARTESIAN_POINT('Origin',(-2.8,0.,69.));
#1275=CARTESIAN_POINT('',(-2.8,13.9,57.));
#1276=CARTESIAN_POINT('',(-2.8,0.,57.));
#1277=CARTESIAN_POINT('',(-2.8,13.9,57.));
#1278=CARTESIAN_POINT('Origin',(-2.8,0.,57.));
#1279=CARTESIAN_POINT('',(-6.8,-13.9,57.));
#1280=CARTESIAN_POINT('',(-6.8,-13.9,57.));
#1281=CARTESIAN_POINT('',(-6.8,0.,57.));
#1282=CARTESIAN_POINT('Origin',(-2.8,0.,57.));
#1283=CARTESIAN_POINT('',(-6.8,13.9,57.));
#1284=CARTESIAN_POINT('',(-6.8,0.,57.));
#1285=CARTESIAN_POINT('',(-6.8,13.9,57.));
#1286=CARTESIAN_POINT('Origin',(-6.8,0.,57.));
#1287=CARTESIAN_POINT('',(-6.8,-13.9,74.));
#1288=CARTESIAN_POINT('',(-6.8,-13.9,74.));
#1289=CARTESIAN_POINT('',(-6.8,0.,74.));
#1290=CARTESIAN_POINT('Origin',(-6.8,0.,57.));
#1291=CARTESIAN_POINT('',(-6.8,13.9,74.));
#1292=CARTESIAN_POINT('',(-6.8,0.,74.));
#1293=CARTESIAN_POINT('',(-6.8,13.9,74.));
#1294=CARTESIAN_POINT('Origin',(-6.8,0.,74.));
#1295=CARTESIAN_POINT('',(0.,-13.9,74.));
#1296=CARTESIAN_POINT('',(0.,-13.9,74.));
#1297=CARTESIAN_POINT('',(0.,0.,74.));
#1298=CARTESIAN_POINT('Origin',(-6.8,0.,74.));
#1299=CARTESIAN_POINT('',(0.,13.9,74.));
#1300=CARTESIAN_POINT('',(0.,0.,74.));
#1301=CARTESIAN_POINT('',(0.,13.9,74.));
#1302=CARTESIAN_POINT('Origin',(0.,0.,43.6));
#1303=CARTESIAN_POINT('',(0.,-13.9,43.6));
#1304=CARTESIAN_POINT('',(0.,0.,43.6));
#1305=CARTESIAN_POINT('',(-2.8,-13.9,43.6));
#1306=CARTESIAN_POINT('',(-2.8,-13.9,43.6));
#1307=CARTESIAN_POINT('',(-2.8,0.,43.6));
#1308=CARTESIAN_POINT('Origin',(0.,0.,43.6));
#1309=CARTESIAN_POINT('',(-2.8,13.9,43.6));
#1310=CARTESIAN_POINT('',(-2.8,0.,43.6));
#1311=CARTESIAN_POINT('',(0.,13.9,43.6));
#1312=CARTESIAN_POINT('',(-2.8,13.9,43.6));
#1313=CARTESIAN_POINT('',(0.,0.,43.6));
#1314=CARTESIAN_POINT('Origin',(-2.8,0.,43.6));
#1315=CARTESIAN_POINT('',(-2.8,-13.9,31.6));
#1316=CARTESIAN_POINT('',(-2.8,-13.9,31.6));
#1317=CARTESIAN_POINT('',(-2.8,0.,31.6));
#1318=CARTESIAN_POINT('Origin',(-2.8,0.,43.6));
#1319=CARTESIAN_POINT('',(-2.8,13.9,31.6));
#1320=CARTESIAN_POINT('',(-2.8,0.,31.6));
#1321=CARTESIAN_POINT('',(-2.8,13.9,31.6));
#1322=CARTESIAN_POINT('Origin',(-2.8,0.,31.6));
#1323=CARTESIAN_POINT('',(-6.8,-13.9,31.6));
#1324=CARTESIAN_POINT('',(-6.8,-13.9,31.6));
#1325=CARTESIAN_POINT('',(-6.8,0.,31.6));
#1326=CARTESIAN_POINT('Origin',(-2.8,0.,31.6));
#1327=CARTESIAN_POINT('',(-6.8,13.9,31.6));
#1328=CARTESIAN_POINT('',(-6.8,0.,31.6));
#1329=CARTESIAN_POINT('',(-6.8,13.9,31.6));
#1330=CARTESIAN_POINT('Origin',(-6.8,0.,31.6));
#1331=CARTESIAN_POINT('',(-6.8,-13.9,48.6));
#1332=CARTESIAN_POINT('',(-6.8,-13.9,48.6));
#1333=CARTESIAN_POINT('',(-6.8,0.,48.6));
#1334=CARTESIAN_POINT('Origin',(-6.8,0.,31.6));
#1335=CARTESIAN_POINT('',(-6.8,13.9,48.6));
#1336=CARTESIAN_POINT('',(-6.8,0.,48.6));
#1337=CARTESIAN_POINT('',(-6.8,13.9,48.6));
#1338=CARTESIAN_POINT('Origin',(-6.8,0.,48.6));
#1339=CARTESIAN_POINT('',(0.,-13.9,48.6));
#1340=CARTESIAN_POINT('',(0.,-13.9,48.6));
#1341=CARTESIAN_POINT('',(0.,0.,48.6));
#1342=CARTESIAN_POINT('Origin',(-6.8,0.,48.6));
#1343=CARTESIAN_POINT('',(0.,13.9,48.6));
#1344=CARTESIAN_POINT('',(0.,0.,48.6));
#1345=CARTESIAN_POINT('',(0.,13.9,48.6));
#1346=CARTESIAN_POINT('Origin',(0.,0.,18.2));
#1347=CARTESIAN_POINT('',(0.,-13.9,18.2));
#1348=CARTESIAN_POINT('',(0.,0.,18.2));
#1349=CARTESIAN_POINT('',(-2.8,-13.9,18.2));
#1350=CARTESIAN_POINT('',(-2.8,-13.9,18.2));
#1351=CARTESIAN_POINT('',(-2.8,0.,18.2));
#1352=CARTESIAN_POINT('Origin',(0.,0.,18.2));
#1353=CARTESIAN_POINT('',(-2.8,13.9,18.2));
#1354=CARTESIAN_POINT('',(-2.8,0.,18.2));
#1355=CARTESIAN_POINT('',(0.,13.9,18.2));
#1356=CARTESIAN_POINT('',(-2.8,13.9,18.2));
#1357=CARTESIAN_POINT('',(0.,0.,18.2));
#1358=CARTESIAN_POINT('Origin',(-2.8,0.,18.2));
#1359=CARTESIAN_POINT('',(-2.8,-13.9,6.2));
#1360=CARTESIAN_POINT('',(-2.8,-13.9,6.2));
#1361=CARTESIAN_POINT('',(-2.8,0.,6.2));
#1362=CARTESIAN_POINT('Origin',(-2.8,0.,18.2));
#1363=CARTESIAN_POINT('',(-2.8,13.9,6.2));
#1364=CARTESIAN_POINT('',(-2.8,0.,6.2));
#1365=CARTESIAN_POINT('',(-2.8,13.9,6.2));
#1366=CARTESIAN_POINT('Origin',(-2.8,0.,6.2));
#1367=CARTESIAN_POINT('',(-6.8,-13.9,6.2));
#1368=CARTESIAN_POINT('',(-6.8,-13.9,6.2));
#1369=CARTESIAN_POINT('',(-6.8,0.,6.2));
#1370=CARTESIAN_POINT('Origin',(-2.8,0.,6.2));
#1371=CARTESIAN_POINT('',(-6.8,13.9,6.2));
#1372=CARTESIAN_POINT('',(-6.8,0.,6.2));
#1373=CARTESIAN_POINT('',(-6.8,13.9,6.2));
#1374=CARTESIAN_POINT('Origin',(-6.8,0.,6.2));
#1375=CARTESIAN_POINT('',(-6.8,-13.9,23.2));
#1376=CARTESIAN_POINT('',(-6.8,-13.9,23.2));
#1377=CARTESIAN_POINT('',(-6.8,0.,23.2));
#1378=CARTESIAN_POINT('Origin',(-6.8,0.,6.2));
#1379=CARTESIAN_POINT('',(-6.8,13.9,23.2));
#1380=CARTESIAN_POINT('',(-6.8,0.,23.2));
#1381=CARTESIAN_POINT('',(-6.8,13.9,23.2));
#1382=CARTESIAN_POINT('Origin',(-6.8,0.,23.2));
#1383=CARTESIAN_POINT('',(0.,-13.9,23.2));
#1384=CARTESIAN_POINT('',(0.,-13.9,23.2));
#1385=CARTESIAN_POINT('',(0.,0.,23.2));
#1386=CARTESIAN_POINT('Origin',(-6.8,0.,23.2));
#1387=CARTESIAN_POINT('',(0.,13.9,23.2));
#1388=CARTESIAN_POINT('',(0.,0.,23.2));
#1389=CARTESIAN_POINT('',(0.,13.9,23.2));
#1390=CARTESIAN_POINT('Origin',(-3.4,-13.9,14.7));
#1391=CARTESIAN_POINT('',(0.,-13.9,7.35));
#1392=CARTESIAN_POINT('Origin',(-3.4,13.9,14.7));
#1393=CARTESIAN_POINT('',(0.,13.9,7.35));
#1394=CARTESIAN_POINT('Origin',(-3.4,-13.9,40.1));
#1395=CARTESIAN_POINT('',(0.,-13.9,20.05));
#1396=CARTESIAN_POINT('Origin',(-3.4,13.9,40.1));
#1397=CARTESIAN_POINT('',(0.,13.9,20.05));
#1398=CARTESIAN_POINT('Origin',(-3.4,-13.9,65.5));
#1399=CARTESIAN_POINT('',(0.,-13.9,32.75));
#1400=CARTESIAN_POINT('Origin',(-3.4,13.9,65.5));
#1401=CARTESIAN_POINT('',(0.,13.9,32.75));
#1402=CARTESIAN_POINT('Origin',(2.5,-20.,38.));
#1403=CARTESIAN_POINT('',(5.,-20.,76.));
#1404=CARTESIAN_POINT('',(0.,-20.,76.));
#1405=CARTESIAN_POINT('',(5.,-20.,76.));
#1406=CARTESIAN_POINT('',(0.,-20.,0.));
#1407=CARTESIAN_POINT('',(0.,-20.,76.));
#1408=CARTESIAN_POINT('',(5.,-20.,0.));
#1409=CARTESIAN_POINT('',(0.,-20.,0.));
#1410=CARTESIAN_POINT('',(5.,-20.,0.));
#1411=CARTESIAN_POINT('Origin',(0.,0.,0.));
#1412=CARTESIAN_POINT('',(0.,20.,76.));
#1413=CARTESIAN_POINT('',(0.,0.,76.));
#1414=CARTESIAN_POINT('',(0.,20.,0.));
#1415=CARTESIAN_POINT('',(0.,20.,76.));
#1416=CARTESIAN_POINT('',(0.,0.,0.));
#1417=CARTESIAN_POINT('Origin',(5.,0.,0.));
#1418=CARTESIAN_POINT('',(5.,20.,0.));
#1419=CARTESIAN_POINT('',(0.,20.,0.));
#1420=CARTESIAN_POINT('',(5.,0.,0.));
#1421=CARTESIAN_POINT('Origin',(5.,0.,76.));
#1422=CARTESIAN_POINT('',(5.,20.,76.));
#1423=CARTESIAN_POINT('',(5.,20.,0.));
#1424=CARTESIAN_POINT('',(5.,0.,76.));
#1425=CARTESIAN_POINT('Origin',(0.,0.,76.));
#1426=CARTESIAN_POINT('',(5.,20.,76.));
#1427=CARTESIAN_POINT('Origin',(2.5,20.,38.));
#1428=UNCERTAINTY_MEASURE_WITH_UNIT(LENGTH_MEASURE(0.01),#1432,
'DISTANCE_ACCURACY_VALUE',
'Maximum model space distance between geometric entities at asserted c
onnectivities');
#1429=UNCERTAINTY_MEASURE_WITH_UNIT(LENGTH_MEASURE(0.01),#1432,
'DISTANCE_ACCURACY_VALUE',
'Maximum model space distance between geometric entities at asserted c
onnectivities');
#1430=(
GEOMETRIC_REPRESENTATION_CONTEXT(3)
GLOBAL_UNCERTAINTY_ASSIGNED_CONTEXT((#1428))
GLOBAL_UNIT_ASSIGNED_CONTEXT((#1432,#1434,#1435))
REPRESENTATION_CONTEXT('','3D')
);
#1431=(
GEOMETRIC_REPRESENTATION_CONTEXT(3)
GLOBAL_UNCERTAINTY_ASSIGNED_CONTEXT((#1429))
GLOBAL_UNIT_ASSIGNED_CONTEXT((#1432,#1434,#1435))
REPRESENTATION_CONTEXT('','3D')
);
#1432=(
LENGTH_UNIT()
NAMED_UNIT(*)
SI_UNIT(.MILLI.,.METRE.)
);
#1433=(
LENGTH_UNIT()
NAMED_UNIT(*)
SI_UNIT($,.METRE.)
);
#1434=(
NAMED_UNIT(*)
PLANE_ANGLE_UNIT()
SI_UNIT($,.RADIAN.)
);
#1435=(
NAMED_UNIT(*)
SI_UNIT($,.STERADIAN.)
SOLID_ANGLE_UNIT()
);
#1436=SHAPE_DEFINITION_REPRESENTATION(#1437,#1438);
#1437=PRODUCT_DEFINITION_SHAPE('',$,#1440);
#1438=SHAPE_REPRESENTATION('',(#912),#1430);
#1439=PRODUCT_DEFINITION_CONTEXT('part definition',#1444,'design');
#1440=PRODUCT_DEFINITION('2026-09-02-15-09-24-795','(Unsaved)',#1441,#1439);
#1441=PRODUCT_DEFINITION_FORMATION('',$,#1446);
#1442=PRODUCT_RELATED_PRODUCT_CATEGORY('(Unsaved)','(Unsaved)',(#1446));
#1443=APPLICATION_PROTOCOL_DEFINITION('international standard',
'automotive_design',2009,#1444);
#1444=APPLICATION_CONTEXT(
'Core Data for Automotive Mechanical Design Process');
#1445=PRODUCT_CONTEXT('part definition',#1444,'mechanical');
#1446=PRODUCT('2026-09-02-15-09-24-795','(Unsaved)',$,(#1445));
#1447=PRESENTATION_STYLE_ASSIGNMENT((#1448));
#1448=SURFACE_STYLE_USAGE(.BOTH.,#1449);
#1449=SURFACE_SIDE_STYLE('',(#1450));
#1450=SURFACE_STYLE_FILL_AREA(#1451);
#1451=FILL_AREA_STYLE('Steel - Satin',(#1452));
#1452=FILL_AREA_STYLE_COLOUR('Steel - Satin',#1453);
#1453=COLOUR_RGB('Steel - Satin',0.627450980392157,0.627450980392157,0.627450980392157);
ENDSEC;
END-ISO-10303-21;
