ISO-10303-21;
HEADER;
/* Generated by software containing ST-Developer
 * from STEP Tools, Inc. (www.steptools.com) 
 */

FILE_DESCRIPTION(
/* description */ (''),
/* implementation_level */ '2;1');

FILE_NAME(
/* name */ 'spool_cradle_bracket.step',
/* time_stamp */ '2026-09-02T15:19:19-05:00',
/* author */ (''),
/* organization */ (''),
/* preprocessor_version */ 'ST-DEVELOPER v20.1',
/* originating_system */ 'Autodesk Translation Framework v15.8.0.0',
/* authorisation */ '');

FILE_SCHEMA (('AUTOMOTIVE_DESIGN { 1 0 10303 214 3 1 1 }'));
ENDSEC;

DATA;
#10=MECHANICAL_DESIGN_GEOMETRIC_PRESENTATION_REPRESENTATION('',(#13),#1975);
#11=SHAPE_REPRESENTATION_RELATIONSHIP('SRR','None',#1982,#12);
#12=ADVANCED_BREP_SHAPE_REPRESENTATION('',(#14),#1974);
#13=STYLED_ITEM('',(#1991),#14);
#14=MANIFOLD_SOLID_BREP('spool_cradle_bracket',#1227);
#15=FACE_BOUND('',#152,.T.);
#16=FACE_BOUND('',#160,.T.);
#17=FACE_BOUND('',#170,.T.);
#18=FACE_BOUND('',#171,.T.);
#19=FACE_BOUND('',#172,.T.);
#20=FACE_BOUND('',#173,.T.);
#21=FACE_BOUND('',#174,.T.);
#22=FACE_BOUND('',#175,.T.);
#23=CIRCLE('',#1286,22.7);
#24=CIRCLE('',#1287,22.7);
#25=CIRCLE('',#1289,22.7);
#26=CIRCLE('',#1290,22.7);
#27=CIRCLE('',#1292,17.1);
#28=CIRCLE('',#1293,22.7);
#29=CIRCLE('',#1294,17.1);
#30=CIRCLE('',#1295,22.7);
#31=CIRCLE('',#1297,17.1);
#32=CIRCLE('',#1301,22.7);
#33=CIRCLE('',#1303,22.7);
#34=CIRCLE('',#1305,17.1);
#35=CYLINDRICAL_SURFACE('',#1285,22.7);
#36=CYLINDRICAL_SURFACE('',#1288,22.7);
#37=CYLINDRICAL_SURFACE('',#1296,17.1);
#38=CYLINDRICAL_SURFACE('',#1300,22.7);
#39=CYLINDRICAL_SURFACE('',#1302,22.7);
#40=CYLINDRICAL_SURFACE('',#1304,17.1);
#41=FACE_OUTER_BOUND('',#105,.T.);
#42=FACE_OUTER_BOUND('',#106,.T.);
#43=FACE_OUTER_BOUND('',#107,.T.);
#44=FACE_OUTER_BOUND('',#108,.T.);
#45=FACE_OUTER_BOUND('',#109,.T.);
#46=FACE_OUTER_BOUND('',#110,.T.);
#47=FACE_OUTER_BOUND('',#111,.T.);
#48=FACE_OUTER_BOUND('',#112,.T.);
#49=FACE_OUTER_BOUND('',#113,.T.);
#50=FACE_OUTER_BOUND('',#114,.T.);
#51=FACE_OUTER_BOUND('',#115,.T.);
#52=FACE_OUTER_BOUND('',#116,.T.);
#53=FACE_OUTER_BOUND('',#117,.T.);
#54=FACE_OUTER_BOUND('',#118,.T.);
#55=FACE_OUTER_BOUND('',#119,.T.);
#56=FACE_OUTER_BOUND('',#120,.T.);
#57=FACE_OUTER_BOUND('',#121,.T.);
#58=FACE_OUTER_BOUND('',#122,.T.);
#59=FACE_OUTER_BOUND('',#123,.T.);
#60=FACE_OUTER_BOUND('',#124,.T.);
#61=FACE_OUTER_BOUND('',#125,.T.);
#62=FACE_OUTER_BOUND('',#126,.T.);
#63=FACE_OUTER_BOUND('',#127,.T.);
#64=FACE_OUTER_BOUND('',#128,.T.);
#65=FACE_OUTER_BOUND('',#129,.T.);
#66=FACE_OUTER_BOUND('',#130,.T.);
#67=FACE_OUTER_BOUND('',#131,.T.);
#68=FACE_OUTER_BOUND('',#132,.T.);
#69=FACE_OUTER_BOUND('',#133,.T.);
#70=FACE_OUTER_BOUND('',#134,.T.);
#71=FACE_OUTER_BOUND('',#135,.T.);
#72=FACE_OUTER_BOUND('',#136,.T.);
#73=FACE_OUTER_BOUND('',#137,.T.);
#74=FACE_OUTER_BOUND('',#138,.T.);
#75=FACE_OUTER_BOUND('',#139,.T.);
#76=FACE_OUTER_BOUND('',#140,.T.);
#77=FACE_OUTER_BOUND('',#141,.T.);
#78=FACE_OUTER_BOUND('',#142,.T.);
#79=FACE_OUTER_BOUND('',#143,.T.);
#80=FACE_OUTER_BOUND('',#144,.T.);
#81=FACE_OUTER_BOUND('',#145,.T.);
#82=FACE_OUTER_BOUND('',#146,.T.);
#83=FACE_OUTER_BOUND('',#147,.T.);
#84=FACE_OUTER_BOUND('',#148,.T.);
#85=FACE_OUTER_BOUND('',#149,.T.);
#86=FACE_OUTER_BOUND('',#150,.T.);
#87=FACE_OUTER_BOUND('',#151,.T.);
#88=FACE_OUTER_BOUND('',#153,.T.);
#89=FACE_OUTER_BOUND('',#154,.T.);
#90=FACE_OUTER_BOUND('',#155,.T.);
#91=FACE_OUTER_BOUND('',#156,.T.);
#92=FACE_OUTER_BOUND('',#157,.T.);
#93=FACE_OUTER_BOUND('',#158,.T.);
#94=FACE_OUTER_BOUND('',#159,.T.);
#95=FACE_OUTER_BOUND('',#161,.T.);
#96=FACE_OUTER_BOUND('',#162,.T.);
#97=FACE_OUTER_BOUND('',#163,.T.);
#98=FACE_OUTER_BOUND('',#164,.T.);
#99=FACE_OUTER_BOUND('',#165,.T.);
#100=FACE_OUTER_BOUND('',#166,.T.);
#101=FACE_OUTER_BOUND('',#167,.T.);
#102=FACE_OUTER_BOUND('',#168,.T.);
#103=FACE_OUTER_BOUND('',#169,.T.);
#104=FACE_OUTER_BOUND('',#176,.T.);
#105=EDGE_LOOP('',(#769,#770,#771,#772,#773,#774));
#106=EDGE_LOOP('',(#775,#776,#777,#778,#779,#780));
#107=EDGE_LOOP('',(#781,#782,#783,#784,#785,#786));
#108=EDGE_LOOP('',(#787,#788,#789,#790,#791,#792));
#109=EDGE_LOOP('',(#793,#794,#795,#796,#797,#798));
#110=EDGE_LOOP('',(#799,#800,#801,#802,#803,#804));
#111=EDGE_LOOP('',(#805,#806,#807,#808));
#112=EDGE_LOOP('',(#809,#810,#811,#812));
#113=EDGE_LOOP('',(#813,#814,#815,#816));
#114=EDGE_LOOP('',(#817,#818,#819,#820));
#115=EDGE_LOOP('',(#821,#822,#823,#824));
#116=EDGE_LOOP('',(#825,#826,#827,#828));
#117=EDGE_LOOP('',(#829,#830,#831,#832));
#118=EDGE_LOOP('',(#833,#834,#835,#836));
#119=EDGE_LOOP('',(#837,#838,#839,#840));
#120=EDGE_LOOP('',(#841,#842,#843,#844));
#121=EDGE_LOOP('',(#845,#846,#847,#848));
#122=EDGE_LOOP('',(#849,#850,#851,#852));
#123=EDGE_LOOP('',(#853,#854,#855,#856));
#124=EDGE_LOOP('',(#857,#858,#859,#860));
#125=EDGE_LOOP('',(#861,#862,#863,#864));
#126=EDGE_LOOP('',(#865,#866,#867,#868));
#127=EDGE_LOOP('',(#869,#870,#871,#872));
#128=EDGE_LOOP('',(#873,#874,#875,#876));
#129=EDGE_LOOP('',(#877,#878,#879,#880));
#130=EDGE_LOOP('',(#881,#882,#883,#884));
#131=EDGE_LOOP('',(#885,#886,#887,#888));
#132=EDGE_LOOP('',(#889,#890,#891,#892));
#133=EDGE_LOOP('',(#893,#894,#895,#896));
#134=EDGE_LOOP('',(#897,#898,#899,#900));
#135=EDGE_LOOP('',(#901,#902,#903,#904));
#136=EDGE_LOOP('',(#905,#906,#907,#908));
#137=EDGE_LOOP('',(#909,#910,#911,#912));
#138=EDGE_LOOP('',(#913,#914,#915,#916));
#139=EDGE_LOOP('',(#917,#918,#919,#920));
#140=EDGE_LOOP('',(#921,#922,#923,#924));
#141=EDGE_LOOP('',(#925,#926,#927,#928,#929,#930));
#142=EDGE_LOOP('',(#931,#932,#933,#934,#935,#936));
#143=EDGE_LOOP('',(#937,#938,#939,#940,#941,#942));
#144=EDGE_LOOP('',(#943,#944,#945,#946,#947,#948));
#145=EDGE_LOOP('',(#949,#950,#951,#952,#953,#954));
#146=EDGE_LOOP('',(#955,#956,#957,#958,#959,#960));
#147=EDGE_LOOP('',(#961,#962,#963,#964));
#148=EDGE_LOOP('',(#965,#966,#967,#968));
#149=EDGE_LOOP('',(#969,#970,#971,#972));
#150=EDGE_LOOP('',(#973,#974,#975,#976));
#151=EDGE_LOOP('',(#977,#978,#979,#980,#981,#982,#983,#984,#985,#986,#987,
#988,#989,#990,#991,#992));
#152=EDGE_LOOP('',(#993,#994,#995,#996));
#153=EDGE_LOOP('',(#997,#998,#999,#1000));
#154=EDGE_LOOP('',(#1001,#1002,#1003,#1004));
#155=EDGE_LOOP('',(#1005,#1006,#1007,#1008));
#156=EDGE_LOOP('',(#1009,#1010,#1011,#1012));
#157=EDGE_LOOP('',(#1013,#1014,#1015,#1016));
#158=EDGE_LOOP('',(#1017,#1018,#1019,#1020));
#159=EDGE_LOOP('',(#1021,#1022,#1023,#1024,#1025,#1026,#1027,#1028,#1029,
#1030,#1031,#1032,#1033,#1034,#1035,#1036));
#160=EDGE_LOOP('',(#1037,#1038,#1039,#1040));
#161=EDGE_LOOP('',(#1041,#1042,#1043,#1044));
#162=EDGE_LOOP('',(#1045,#1046,#1047,#1048));
#163=EDGE_LOOP('',(#1049,#1050,#1051,#1052));
#164=EDGE_LOOP('',(#1053,#1054,#1055,#1056));
#165=EDGE_LOOP('',(#1057,#1058,#1059,#1060));
#166=EDGE_LOOP('',(#1061,#1062,#1063,#1064));
#167=EDGE_LOOP('',(#1065,#1066,#1067,#1068));
#168=EDGE_LOOP('',(#1069,#1070,#1071,#1072));
#169=EDGE_LOOP('',(#1073,#1074,#1075,#1076));
#170=EDGE_LOOP('',(#1077,#1078,#1079,#1080));
#171=EDGE_LOOP('',(#1081,#1082,#1083,#1084));
#172=EDGE_LOOP('',(#1085,#1086,#1087,#1088));
#173=EDGE_LOOP('',(#1089,#1090,#1091,#1092));
#174=EDGE_LOOP('',(#1093,#1094,#1095,#1096));
#175=EDGE_LOOP('',(#1097,#1098,#1099,#1100));
#176=EDGE_LOOP('',(#1101,#1102,#1103,#1104));
#177=LINE('',#1631,#333);
#178=LINE('',#1633,#334);
#179=LINE('',#1635,#335);
#180=LINE('',#1637,#336);
#181=LINE('',#1639,#337);
#182=LINE('',#1640,#338);
#183=LINE('',#1644,#339);
#184=LINE('',#1646,#340);
#185=LINE('',#1648,#341);
#186=LINE('',#1650,#342);
#187=LINE('',#1652,#343);
#188=LINE('',#1653,#344);
#189=LINE('',#1657,#345);
#190=LINE('',#1659,#346);
#191=LINE('',#1661,#347);
#192=LINE('',#1663,#348);
#193=LINE('',#1665,#349);
#194=LINE('',#1666,#350);
#195=LINE('',#1670,#351);
#196=LINE('',#1672,#352);
#197=LINE('',#1674,#353);
#198=LINE('',#1676,#354);
#199=LINE('',#1678,#355);
#200=LINE('',#1679,#356);
#201=LINE('',#1683,#357);
#202=LINE('',#1685,#358);
#203=LINE('',#1687,#359);
#204=LINE('',#1689,#360);
#205=LINE('',#1691,#361);
#206=LINE('',#1692,#362);
#207=LINE('',#1696,#363);
#208=LINE('',#1698,#364);
#209=LINE('',#1700,#365);
#210=LINE('',#1702,#366);
#211=LINE('',#1704,#367);
#212=LINE('',#1705,#368);
#213=LINE('',#1708,#369);
#214=LINE('',#1710,#370);
#215=LINE('',#1711,#371);
#216=LINE('',#1714,#372);
#217=LINE('',#1716,#373);
#218=LINE('',#1717,#374);
#219=LINE('',#1720,#375);
#220=LINE('',#1721,#376);
#221=LINE('',#1724,#377);
#222=LINE('',#1725,#378);
#223=LINE('',#1728,#379);
#224=LINE('',#1729,#380);
#225=LINE('',#1732,#381);
#226=LINE('',#1733,#382);
#227=LINE('',#1736,#383);
#228=LINE('',#1737,#384);
#229=LINE('',#1740,#385);
#230=LINE('',#1741,#386);
#231=LINE('',#1744,#387);
#232=LINE('',#1745,#388);
#233=LINE('',#1748,#389);
#234=LINE('',#1749,#390);
#235=LINE('',#1752,#391);
#236=LINE('',#1754,#392);
#237=LINE('',#1755,#393);
#238=LINE('',#1758,#394);
#239=LINE('',#1760,#395);
#240=LINE('',#1761,#396);
#241=LINE('',#1764,#397);
#242=LINE('',#1765,#398);
#243=LINE('',#1768,#399);
#244=LINE('',#1769,#400);
#245=LINE('',#1772,#401);
#246=LINE('',#1773,#402);
#247=LINE('',#1776,#403);
#248=LINE('',#1777,#404);
#249=LINE('',#1780,#405);
#250=LINE('',#1781,#406);
#251=LINE('',#1784,#407);
#252=LINE('',#1785,#408);
#253=LINE('',#1788,#409);
#254=LINE('',#1789,#410);
#255=LINE('',#1792,#411);
#256=LINE('',#1793,#412);
#257=LINE('',#1796,#413);
#258=LINE('',#1798,#414);
#259=LINE('',#1799,#415);
#260=LINE('',#1802,#416);
#261=LINE('',#1804,#417);
#262=LINE('',#1805,#418);
#263=LINE('',#1808,#419);
#264=LINE('',#1809,#420);
#265=LINE('',#1812,#421);
#266=LINE('',#1813,#422);
#267=LINE('',#1816,#423);
#268=LINE('',#1817,#424);
#269=LINE('',#1820,#425);
#270=LINE('',#1821,#426);
#271=LINE('',#1824,#427);
#272=LINE('',#1825,#428);
#273=LINE('',#1828,#429);
#274=LINE('',#1829,#430);
#275=LINE('',#1832,#431);
#276=LINE('',#1833,#432);
#277=LINE('',#1836,#433);
#278=LINE('',#1837,#434);
#279=LINE('',#1839,#435);
#280=LINE('',#1841,#436);
#281=LINE('',#1843,#437);
#282=LINE('',#1845,#438);
#283=LINE('',#1847,#439);
#284=LINE('',#1849,#440);
#285=LINE('',#1853,#441);
#286=LINE('',#1855,#442);
#287=LINE('',#1857,#443);
#288=LINE('',#1858,#444);
#289=LINE('',#1862,#445);
#290=LINE('',#1864,#446);
#291=LINE('',#1866,#447);
#292=LINE('',#1867,#448);
#293=LINE('',#1872,#449);
#294=LINE('',#1878,#450);
#295=LINE('',#1883,#451);
#296=LINE('',#1885,#452);
#297=LINE('',#1887,#453);
#298=LINE('',#1889,#454);
#299=LINE('',#1891,#455);
#300=LINE('',#1895,#456);
#301=LINE('',#1899,#457);
#302=LINE('',#1902,#458);
#303=LINE('',#1905,#459);
#304=LINE('',#1907,#460);
#305=LINE('',#1909,#461);
#306=LINE('',#1910,#462);
#307=LINE('',#1916,#463);
#308=LINE('',#1917,#464);
#309=LINE('',#1918,#465);
#310=LINE('',#1921,#466);
#311=LINE('',#1923,#467);
#312=LINE('',#1924,#468);
#313=LINE('',#1928,#469);
#314=LINE('',#1931,#470);
#315=LINE('',#1936,#471);
#316=LINE('',#1938,#472);
#317=LINE('',#1940,#473);
#318=LINE('',#1942,#474);
#319=LINE('',#1944,#475);
#320=LINE('',#1945,#476);
#321=LINE('',#1948,#477);
#322=LINE('',#1950,#478);
#323=LINE('',#1952,#479);
#324=LINE('',#1953,#480);
#325=LINE('',#1956,#481);
#326=LINE('',#1958,#482);
#327=LINE('',#1959,#483);
#328=LINE('',#1961,#484);
#329=LINE('',#1963,#485);
#330=LINE('',#1966,#486);
#331=LINE('',#1967,#487);
#332=LINE('',#1969,#488);
#333=VECTOR('',#1321,10.);
#334=VECTOR('',#1322,10.);
#335=VECTOR('',#1323,10.);
#336=VECTOR('',#1324,10.);
#337=VECTOR('',#1325,10.);
#338=VECTOR('',#1326,10.);
#339=VECTOR('',#1329,10.);
#340=VECTOR('',#1330,10.);
#341=VECTOR('',#1331,10.);
#342=VECTOR('',#1332,10.);
#343=VECTOR('',#1333,10.);
#344=VECTOR('',#1334,10.);
#345=VECTOR('',#1337,10.);
#346=VECTOR('',#1338,10.);
#347=VECTOR('',#1339,10.);
#348=VECTOR('',#1340,10.);
#349=VECTOR('',#1341,10.);
#350=VECTOR('',#1342,10.);
#351=VECTOR('',#1345,10.);
#352=VECTOR('',#1346,10.);
#353=VECTOR('',#1347,10.);
#354=VECTOR('',#1348,10.);
#355=VECTOR('',#1349,10.);
#356=VECTOR('',#1350,10.);
#357=VECTOR('',#1353,10.);
#358=VECTOR('',#1354,10.);
#359=VECTOR('',#1355,10.);
#360=VECTOR('',#1356,10.);
#361=VECTOR('',#1357,10.);
#362=VECTOR('',#1358,10.);
#363=VECTOR('',#1361,10.);
#364=VECTOR('',#1362,10.);
#365=VECTOR('',#1363,10.);
#366=VECTOR('',#1364,10.);
#367=VECTOR('',#1365,10.);
#368=VECTOR('',#1366,10.);
#369=VECTOR('',#1369,10.);
#370=VECTOR('',#1370,10.);
#371=VECTOR('',#1371,10.);
#372=VECTOR('',#1374,10.);
#373=VECTOR('',#1375,10.);
#374=VECTOR('',#1376,10.);
#375=VECTOR('',#1379,10.);
#376=VECTOR('',#1380,10.);
#377=VECTOR('',#1383,10.);
#378=VECTOR('',#1384,10.);
#379=VECTOR('',#1387,10.);
#380=VECTOR('',#1388,10.);
#381=VECTOR('',#1391,10.);
#382=VECTOR('',#1392,10.);
#383=VECTOR('',#1395,10.);
#384=VECTOR('',#1396,10.);
#385=VECTOR('',#1399,10.);
#386=VECTOR('',#1400,10.);
#387=VECTOR('',#1403,10.);
#388=VECTOR('',#1404,10.);
#389=VECTOR('',#1407,10.);
#390=VECTOR('',#1408,10.);
#391=VECTOR('',#1411,10.);
#392=VECTOR('',#1412,10.);
#393=VECTOR('',#1413,10.);
#394=VECTOR('',#1416,10.);
#395=VECTOR('',#1417,10.);
#396=VECTOR('',#1418,10.);
#397=VECTOR('',#1421,10.);
#398=VECTOR('',#1422,10.);
#399=VECTOR('',#1425,10.);
#400=VECTOR('',#1426,10.);
#401=VECTOR('',#1429,10.);
#402=VECTOR('',#1430,10.);
#403=VECTOR('',#1433,10.);
#404=VECTOR('',#1434,10.);
#405=VECTOR('',#1437,10.);
#406=VECTOR('',#1438,10.);
#407=VECTOR('',#1441,10.);
#408=VECTOR('',#1442,10.);
#409=VECTOR('',#1445,10.);
#410=VECTOR('',#1446,10.);
#411=VECTOR('',#1449,10.);
#412=VECTOR('',#1450,10.);
#413=VECTOR('',#1453,10.);
#414=VECTOR('',#1454,10.);
#415=VECTOR('',#1455,10.);
#416=VECTOR('',#1458,10.);
#417=VECTOR('',#1459,10.);
#418=VECTOR('',#1460,10.);
#419=VECTOR('',#1463,10.);
#420=VECTOR('',#1464,10.);
#421=VECTOR('',#1467,10.);
#422=VECTOR('',#1468,10.);
#423=VECTOR('',#1471,10.);
#424=VECTOR('',#1472,10.);
#425=VECTOR('',#1475,10.);
#426=VECTOR('',#1476,10.);
#427=VECTOR('',#1479,10.);
#428=VECTOR('',#1480,10.);
#429=VECTOR('',#1483,10.);
#430=VECTOR('',#1484,10.);
#431=VECTOR('',#1487,10.);
#432=VECTOR('',#1488,10.);
#433=VECTOR('',#1491,10.);
#434=VECTOR('',#1492,10.);
#435=VECTOR('',#1495,10.);
#436=VECTOR('',#1498,10.);
#437=VECTOR('',#1501,10.);
#438=VECTOR('',#1504,10.);
#439=VECTOR('',#1507,10.);
#440=VECTOR('',#1510,10.);
#441=VECTOR('',#1513,10.);
#442=VECTOR('',#1514,10.);
#443=VECTOR('',#1515,10.);
#444=VECTOR('',#1516,10.);
#445=VECTOR('',#1519,10.);
#446=VECTOR('',#1520,10.);
#447=VECTOR('',#1521,10.);
#448=VECTOR('',#1522,10.);
#449=VECTOR('',#1527,10.);
#450=VECTOR('',#1534,10.);
#451=VECTOR('',#1541,10.);
#452=VECTOR('',#1542,10.);
#453=VECTOR('',#1543,10.);
#454=VECTOR('',#1544,10.);
#455=VECTOR('',#1545,10.);
#456=VECTOR('',#1548,10.);
#457=VECTOR('',#1551,10.);
#458=VECTOR('',#1554,10.);
#459=VECTOR('',#1555,10.);
#460=VECTOR('',#1556,10.);
#461=VECTOR('',#1557,10.);
#462=VECTOR('',#1558,10.);
#463=VECTOR('',#1565,10.);
#464=VECTOR('',#1566,10.);
#465=VECTOR('',#1567,10.);
#466=VECTOR('',#1570,10.);
#467=VECTOR('',#1571,10.);
#468=VECTOR('',#1572,10.);
#469=VECTOR('',#1577,10.);
#470=VECTOR('',#1580,10.);
#471=VECTOR('',#1589,10.);
#472=VECTOR('',#1590,10.);
#473=VECTOR('',#1591,10.);
#474=VECTOR('',#1592,10.);
#475=VECTOR('',#1593,10.);
#476=VECTOR('',#1594,10.);
#477=VECTOR('',#1595,10.);
#478=VECTOR('',#1596,10.);
#479=VECTOR('',#1597,10.);
#480=VECTOR('',#1598,10.);
#481=VECTOR('',#1603,10.);
#482=VECTOR('',#1606,10.);
#483=VECTOR('',#1607,10.);
#484=VECTOR('',#1610,10.);
#485=VECTOR('',#1613,10.);
#486=VECTOR('',#1618,10.);
#487=VECTOR('',#1619,10.);
#488=VECTOR('',#1622,10.);
#489=VERTEX_POINT('',#1629);
#490=VERTEX_POINT('',#1630);
#491=VERTEX_POINT('',#1632);
#492=VERTEX_POINT('',#1634);
#493=VERTEX_POINT('',#1636);
#494=VERTEX_POINT('',#1638);
#495=VERTEX_POINT('',#1642);
#496=VERTEX_POINT('',#1643);
#497=VERTEX_POINT('',#1645);
#498=VERTEX_POINT('',#1647);
#499=VERTEX_POINT('',#1649);
#500=VERTEX_POINT('',#1651);
#501=VERTEX_POINT('',#1655);
#502=VERTEX_POINT('',#1656);
#503=VERTEX_POINT('',#1658);
#504=VERTEX_POINT('',#1660);
#505=VERTEX_POINT('',#1662);
#506=VERTEX_POINT('',#1664);
#507=VERTEX_POINT('',#1668);
#508=VERTEX_POINT('',#1669);
#509=VERTEX_POINT('',#1671);
#510=VERTEX_POINT('',#1673);
#511=VERTEX_POINT('',#1675);
#512=VERTEX_POINT('',#1677);
#513=VERTEX_POINT('',#1681);
#514=VERTEX_POINT('',#1682);
#515=VERTEX_POINT('',#1684);
#516=VERTEX_POINT('',#1686);
#517=VERTEX_POINT('',#1688);
#518=VERTEX_POINT('',#1690);
#519=VERTEX_POINT('',#1694);
#520=VERTEX_POINT('',#1695);
#521=VERTEX_POINT('',#1697);
#522=VERTEX_POINT('',#1699);
#523=VERTEX_POINT('',#1701);
#524=VERTEX_POINT('',#1703);
#525=VERTEX_POINT('',#1707);
#526=VERTEX_POINT('',#1709);
#527=VERTEX_POINT('',#1713);
#528=VERTEX_POINT('',#1715);
#529=VERTEX_POINT('',#1719);
#530=VERTEX_POINT('',#1723);
#531=VERTEX_POINT('',#1727);
#532=VERTEX_POINT('',#1731);
#533=VERTEX_POINT('',#1735);
#534=VERTEX_POINT('',#1739);
#535=VERTEX_POINT('',#1743);
#536=VERTEX_POINT('',#1747);
#537=VERTEX_POINT('',#1751);
#538=VERTEX_POINT('',#1753);
#539=VERTEX_POINT('',#1757);
#540=VERTEX_POINT('',#1759);
#541=VERTEX_POINT('',#1763);
#542=VERTEX_POINT('',#1767);
#543=VERTEX_POINT('',#1771);
#544=VERTEX_POINT('',#1775);
#545=VERTEX_POINT('',#1779);
#546=VERTEX_POINT('',#1783);
#547=VERTEX_POINT('',#1787);
#548=VERTEX_POINT('',#1791);
#549=VERTEX_POINT('',#1795);
#550=VERTEX_POINT('',#1797);
#551=VERTEX_POINT('',#1801);
#552=VERTEX_POINT('',#1803);
#553=VERTEX_POINT('',#1807);
#554=VERTEX_POINT('',#1811);
#555=VERTEX_POINT('',#1815);
#556=VERTEX_POINT('',#1819);
#557=VERTEX_POINT('',#1823);
#558=VERTEX_POINT('',#1827);
#559=VERTEX_POINT('',#1831);
#560=VERTEX_POINT('',#1835);
#561=VERTEX_POINT('',#1851);
#562=VERTEX_POINT('',#1852);
#563=VERTEX_POINT('',#1854);
#564=VERTEX_POINT('',#1856);
#565=VERTEX_POINT('',#1860);
#566=VERTEX_POINT('',#1861);
#567=VERTEX_POINT('',#1863);
#568=VERTEX_POINT('',#1865);
#569=VERTEX_POINT('',#1869);
#570=VERTEX_POINT('',#1871);
#571=VERTEX_POINT('',#1875);
#572=VERTEX_POINT('',#1877);
#573=VERTEX_POINT('',#1882);
#574=VERTEX_POINT('',#1884);
#575=VERTEX_POINT('',#1886);
#576=VERTEX_POINT('',#1888);
#577=VERTEX_POINT('',#1890);
#578=VERTEX_POINT('',#1892);
#579=VERTEX_POINT('',#1894);
#580=VERTEX_POINT('',#1896);
#581=VERTEX_POINT('',#1898);
#582=VERTEX_POINT('',#1900);
#583=VERTEX_POINT('',#1903);
#584=VERTEX_POINT('',#1904);
#585=VERTEX_POINT('',#1906);
#586=VERTEX_POINT('',#1908);
#587=VERTEX_POINT('',#1914);
#588=VERTEX_POINT('',#1915);
#589=VERTEX_POINT('',#1920);
#590=VERTEX_POINT('',#1922);
#591=VERTEX_POINT('',#1926);
#592=VERTEX_POINT('',#1930);
#593=VERTEX_POINT('',#1937);
#594=VERTEX_POINT('',#1939);
#595=VERTEX_POINT('',#1941);
#596=VERTEX_POINT('',#1943);
#597=VERTEX_POINT('',#1946);
#598=VERTEX_POINT('',#1947);
#599=VERTEX_POINT('',#1949);
#600=VERTEX_POINT('',#1951);
#601=EDGE_CURVE('',#489,#490,#177,.T.);
#602=EDGE_CURVE('',#491,#489,#178,.T.);
#603=EDGE_CURVE('',#492,#491,#179,.T.);
#604=EDGE_CURVE('',#493,#492,#180,.T.);
#605=EDGE_CURVE('',#494,#493,#181,.T.);
#606=EDGE_CURVE('',#490,#494,#182,.T.);
#607=EDGE_CURVE('',#495,#496,#183,.T.);
#608=EDGE_CURVE('',#497,#495,#184,.T.);
#609=EDGE_CURVE('',#498,#497,#185,.T.);
#610=EDGE_CURVE('',#499,#498,#186,.T.);
#611=EDGE_CURVE('',#500,#499,#187,.T.);
#612=EDGE_CURVE('',#496,#500,#188,.T.);
#613=EDGE_CURVE('',#501,#502,#189,.T.);
#614=EDGE_CURVE('',#503,#501,#190,.T.);
#615=EDGE_CURVE('',#504,#503,#191,.T.);
#616=EDGE_CURVE('',#505,#504,#192,.T.);
#617=EDGE_CURVE('',#506,#505,#193,.T.);
#618=EDGE_CURVE('',#502,#506,#194,.T.);
#619=EDGE_CURVE('',#507,#508,#195,.T.);
#620=EDGE_CURVE('',#509,#507,#196,.T.);
#621=EDGE_CURVE('',#510,#509,#197,.T.);
#622=EDGE_CURVE('',#511,#510,#198,.T.);
#623=EDGE_CURVE('',#512,#511,#199,.T.);
#624=EDGE_CURVE('',#508,#512,#200,.T.);
#625=EDGE_CURVE('',#513,#514,#201,.T.);
#626=EDGE_CURVE('',#515,#513,#202,.T.);
#627=EDGE_CURVE('',#516,#515,#203,.T.);
#628=EDGE_CURVE('',#517,#516,#204,.T.);
#629=EDGE_CURVE('',#518,#517,#205,.T.);
#630=EDGE_CURVE('',#514,#518,#206,.T.);
#631=EDGE_CURVE('',#519,#520,#207,.T.);
#632=EDGE_CURVE('',#521,#519,#208,.T.);
#633=EDGE_CURVE('',#522,#521,#209,.T.);
#634=EDGE_CURVE('',#523,#522,#210,.T.);
#635=EDGE_CURVE('',#524,#523,#211,.T.);
#636=EDGE_CURVE('',#520,#524,#212,.T.);
#637=EDGE_CURVE('',#525,#490,#213,.T.);
#638=EDGE_CURVE('',#526,#525,#214,.T.);
#639=EDGE_CURVE('',#526,#489,#215,.T.);
#640=EDGE_CURVE('',#496,#527,#216,.T.);
#641=EDGE_CURVE('',#528,#527,#217,.T.);
#642=EDGE_CURVE('',#495,#528,#218,.T.);
#643=EDGE_CURVE('',#529,#526,#219,.T.);
#644=EDGE_CURVE('',#529,#491,#220,.T.);
#645=EDGE_CURVE('',#500,#530,#221,.T.);
#646=EDGE_CURVE('',#527,#530,#222,.T.);
#647=EDGE_CURVE('',#531,#529,#223,.T.);
#648=EDGE_CURVE('',#531,#492,#224,.T.);
#649=EDGE_CURVE('',#499,#532,#225,.T.);
#650=EDGE_CURVE('',#530,#532,#226,.T.);
#651=EDGE_CURVE('',#533,#531,#227,.T.);
#652=EDGE_CURVE('',#533,#493,#228,.T.);
#653=EDGE_CURVE('',#498,#534,#229,.T.);
#654=EDGE_CURVE('',#532,#534,#230,.T.);
#655=EDGE_CURVE('',#535,#533,#231,.T.);
#656=EDGE_CURVE('',#494,#535,#232,.T.);
#657=EDGE_CURVE('',#536,#497,#233,.T.);
#658=EDGE_CURVE('',#534,#536,#234,.T.);
#659=EDGE_CURVE('',#537,#502,#235,.T.);
#660=EDGE_CURVE('',#538,#537,#236,.T.);
#661=EDGE_CURVE('',#538,#501,#237,.T.);
#662=EDGE_CURVE('',#508,#539,#238,.T.);
#663=EDGE_CURVE('',#540,#539,#239,.T.);
#664=EDGE_CURVE('',#507,#540,#240,.T.);
#665=EDGE_CURVE('',#541,#538,#241,.T.);
#666=EDGE_CURVE('',#541,#503,#242,.T.);
#667=EDGE_CURVE('',#512,#542,#243,.T.);
#668=EDGE_CURVE('',#539,#542,#244,.T.);
#669=EDGE_CURVE('',#543,#541,#245,.T.);
#670=EDGE_CURVE('',#543,#504,#246,.T.);
#671=EDGE_CURVE('',#511,#544,#247,.T.);
#672=EDGE_CURVE('',#542,#544,#248,.T.);
#673=EDGE_CURVE('',#545,#543,#249,.T.);
#674=EDGE_CURVE('',#545,#505,#250,.T.);
#675=EDGE_CURVE('',#510,#546,#251,.T.);
#676=EDGE_CURVE('',#544,#546,#252,.T.);
#677=EDGE_CURVE('',#547,#545,#253,.T.);
#678=EDGE_CURVE('',#506,#547,#254,.T.);
#679=EDGE_CURVE('',#548,#509,#255,.T.);
#680=EDGE_CURVE('',#546,#548,#256,.T.);
#681=EDGE_CURVE('',#549,#514,#257,.T.);
#682=EDGE_CURVE('',#550,#549,#258,.T.);
#683=EDGE_CURVE('',#550,#513,#259,.T.);
#684=EDGE_CURVE('',#520,#551,#260,.T.);
#685=EDGE_CURVE('',#552,#551,#261,.T.);
#686=EDGE_CURVE('',#519,#552,#262,.T.);
#687=EDGE_CURVE('',#553,#550,#263,.T.);
#688=EDGE_CURVE('',#553,#515,#264,.T.);
#689=EDGE_CURVE('',#524,#554,#265,.T.);
#690=EDGE_CURVE('',#551,#554,#266,.T.);
#691=EDGE_CURVE('',#555,#553,#267,.T.);
#692=EDGE_CURVE('',#555,#516,#268,.T.);
#693=EDGE_CURVE('',#523,#556,#269,.T.);
#694=EDGE_CURVE('',#554,#556,#270,.T.);
#695=EDGE_CURVE('',#557,#555,#271,.T.);
#696=EDGE_CURVE('',#557,#517,#272,.T.);
#697=EDGE_CURVE('',#522,#558,#273,.T.);
#698=EDGE_CURVE('',#556,#558,#274,.T.);
#699=EDGE_CURVE('',#559,#557,#275,.T.);
#700=EDGE_CURVE('',#518,#559,#276,.T.);
#701=EDGE_CURVE('',#560,#521,#277,.T.);
#702=EDGE_CURVE('',#558,#560,#278,.T.);
#703=EDGE_CURVE('',#559,#549,#279,.T.);
#704=EDGE_CURVE('',#552,#560,#280,.T.);
#705=EDGE_CURVE('',#547,#537,#281,.T.);
#706=EDGE_CURVE('',#540,#548,#282,.T.);
#707=EDGE_CURVE('',#535,#525,#283,.T.);
#708=EDGE_CURVE('',#528,#536,#284,.T.);
#709=EDGE_CURVE('',#561,#562,#285,.T.);
#710=EDGE_CURVE('',#563,#561,#286,.T.);
#711=EDGE_CURVE('',#564,#563,#287,.T.);
#712=EDGE_CURVE('',#562,#564,#288,.T.);
#713=EDGE_CURVE('',#565,#566,#289,.T.);
#714=EDGE_CURVE('',#567,#565,#290,.T.);
#715=EDGE_CURVE('',#568,#567,#291,.T.);
#716=EDGE_CURVE('',#566,#568,#292,.T.);
#717=EDGE_CURVE('',#569,#568,#23,.T.);
#718=EDGE_CURVE('',#570,#569,#293,.T.);
#719=EDGE_CURVE('',#566,#570,#24,.T.);
#720=EDGE_CURVE('',#571,#564,#25,.T.);
#721=EDGE_CURVE('',#572,#571,#294,.T.);
#722=EDGE_CURVE('',#562,#572,#26,.T.);
#723=EDGE_CURVE('',#563,#565,#27,.T.);
#724=EDGE_CURVE('',#570,#573,#295,.T.);
#725=EDGE_CURVE('',#573,#574,#296,.T.);
#726=EDGE_CURVE('',#574,#575,#297,.T.);
#727=EDGE_CURVE('',#575,#576,#298,.T.);
#728=EDGE_CURVE('',#576,#577,#299,.T.);
#729=EDGE_CURVE('',#577,#578,#28,.T.);
#730=EDGE_CURVE('',#578,#579,#300,.T.);
#731=EDGE_CURVE('',#579,#580,#29,.T.);
#732=EDGE_CURVE('',#580,#581,#301,.T.);
#733=EDGE_CURVE('',#581,#582,#30,.T.);
#734=EDGE_CURVE('',#582,#571,#302,.T.);
#735=EDGE_CURVE('',#583,#584,#303,.T.);
#736=EDGE_CURVE('',#584,#585,#304,.T.);
#737=EDGE_CURVE('',#585,#586,#305,.T.);
#738=EDGE_CURVE('',#586,#583,#306,.T.);
#739=EDGE_CURVE('',#567,#561,#31,.T.);
#740=EDGE_CURVE('',#587,#588,#307,.T.);
#741=EDGE_CURVE('',#579,#587,#308,.T.);
#742=EDGE_CURVE('',#588,#578,#309,.T.);
#743=EDGE_CURVE('',#589,#580,#310,.T.);
#744=EDGE_CURVE('',#590,#589,#311,.T.);
#745=EDGE_CURVE('',#581,#590,#312,.T.);
#746=EDGE_CURVE('',#591,#590,#32,.T.);
#747=EDGE_CURVE('',#582,#591,#313,.T.);
#748=EDGE_CURVE('',#592,#577,#314,.T.);
#749=EDGE_CURVE('',#588,#592,#33,.T.);
#750=EDGE_CURVE('',#589,#587,#34,.T.);
#751=EDGE_CURVE('',#572,#591,#315,.T.);
#752=EDGE_CURVE('',#592,#593,#316,.T.);
#753=EDGE_CURVE('',#593,#594,#317,.T.);
#754=EDGE_CURVE('',#594,#595,#318,.T.);
#755=EDGE_CURVE('',#595,#596,#319,.T.);
#756=EDGE_CURVE('',#596,#569,#320,.T.);
#757=EDGE_CURVE('',#597,#598,#321,.T.);
#758=EDGE_CURVE('',#598,#599,#322,.T.);
#759=EDGE_CURVE('',#599,#600,#323,.T.);
#760=EDGE_CURVE('',#600,#597,#324,.T.);
#761=EDGE_CURVE('',#593,#576,#325,.T.);
#762=EDGE_CURVE('',#600,#585,#326,.T.);
#763=EDGE_CURVE('',#599,#586,#327,.T.);
#764=EDGE_CURVE('',#583,#598,#328,.T.);
#765=EDGE_CURVE('',#597,#584,#329,.T.);
#766=EDGE_CURVE('',#596,#573,#330,.T.);
#767=EDGE_CURVE('',#595,#574,#331,.T.);
#768=EDGE_CURVE('',#594,#575,#332,.T.);
#769=ORIENTED_EDGE('',*,*,#601,.F.);
#770=ORIENTED_EDGE('',*,*,#602,.F.);
#771=ORIENTED_EDGE('',*,*,#603,.F.);
#772=ORIENTED_EDGE('',*,*,#604,.F.);
#773=ORIENTED_EDGE('',*,*,#605,.F.);
#774=ORIENTED_EDGE('',*,*,#606,.F.);
#775=ORIENTED_EDGE('',*,*,#607,.F.);
#776=ORIENTED_EDGE('',*,*,#608,.F.);
#777=ORIENTED_EDGE('',*,*,#609,.F.);
#778=ORIENTED_EDGE('',*,*,#610,.F.);
#779=ORIENTED_EDGE('',*,*,#611,.F.);
#780=ORIENTED_EDGE('',*,*,#612,.F.);
#781=ORIENTED_EDGE('',*,*,#613,.F.);
#782=ORIENTED_EDGE('',*,*,#614,.F.);
#783=ORIENTED_EDGE('',*,*,#615,.F.);
#784=ORIENTED_EDGE('',*,*,#616,.F.);
#785=ORIENTED_EDGE('',*,*,#617,.F.);
#786=ORIENTED_EDGE('',*,*,#618,.F.);
#787=ORIENTED_EDGE('',*,*,#619,.F.);
#788=ORIENTED_EDGE('',*,*,#620,.F.);
#789=ORIENTED_EDGE('',*,*,#621,.F.);
#790=ORIENTED_EDGE('',*,*,#622,.F.);
#791=ORIENTED_EDGE('',*,*,#623,.F.);
#792=ORIENTED_EDGE('',*,*,#624,.F.);
#793=ORIENTED_EDGE('',*,*,#625,.F.);
#794=ORIENTED_EDGE('',*,*,#626,.F.);
#795=ORIENTED_EDGE('',*,*,#627,.F.);
#796=ORIENTED_EDGE('',*,*,#628,.F.);
#797=ORIENTED_EDGE('',*,*,#629,.F.);
#798=ORIENTED_EDGE('',*,*,#630,.F.);
#799=ORIENTED_EDGE('',*,*,#631,.F.);
#800=ORIENTED_EDGE('',*,*,#632,.F.);
#801=ORIENTED_EDGE('',*,*,#633,.F.);
#802=ORIENTED_EDGE('',*,*,#634,.F.);
#803=ORIENTED_EDGE('',*,*,#635,.F.);
#804=ORIENTED_EDGE('',*,*,#636,.F.);
#805=ORIENTED_EDGE('',*,*,#601,.T.);
#806=ORIENTED_EDGE('',*,*,#637,.F.);
#807=ORIENTED_EDGE('',*,*,#638,.F.);
#808=ORIENTED_EDGE('',*,*,#639,.T.);
#809=ORIENTED_EDGE('',*,*,#607,.T.);
#810=ORIENTED_EDGE('',*,*,#640,.T.);
#811=ORIENTED_EDGE('',*,*,#641,.F.);
#812=ORIENTED_EDGE('',*,*,#642,.F.);
#813=ORIENTED_EDGE('',*,*,#602,.T.);
#814=ORIENTED_EDGE('',*,*,#639,.F.);
#815=ORIENTED_EDGE('',*,*,#643,.F.);
#816=ORIENTED_EDGE('',*,*,#644,.T.);
#817=ORIENTED_EDGE('',*,*,#612,.T.);
#818=ORIENTED_EDGE('',*,*,#645,.T.);
#819=ORIENTED_EDGE('',*,*,#646,.F.);
#820=ORIENTED_EDGE('',*,*,#640,.F.);
#821=ORIENTED_EDGE('',*,*,#603,.T.);
#822=ORIENTED_EDGE('',*,*,#644,.F.);
#823=ORIENTED_EDGE('',*,*,#647,.F.);
#824=ORIENTED_EDGE('',*,*,#648,.T.);
#825=ORIENTED_EDGE('',*,*,#611,.T.);
#826=ORIENTED_EDGE('',*,*,#649,.T.);
#827=ORIENTED_EDGE('',*,*,#650,.F.);
#828=ORIENTED_EDGE('',*,*,#645,.F.);
#829=ORIENTED_EDGE('',*,*,#604,.T.);
#830=ORIENTED_EDGE('',*,*,#648,.F.);
#831=ORIENTED_EDGE('',*,*,#651,.F.);
#832=ORIENTED_EDGE('',*,*,#652,.T.);
#833=ORIENTED_EDGE('',*,*,#610,.T.);
#834=ORIENTED_EDGE('',*,*,#653,.T.);
#835=ORIENTED_EDGE('',*,*,#654,.F.);
#836=ORIENTED_EDGE('',*,*,#649,.F.);
#837=ORIENTED_EDGE('',*,*,#605,.T.);
#838=ORIENTED_EDGE('',*,*,#652,.F.);
#839=ORIENTED_EDGE('',*,*,#655,.F.);
#840=ORIENTED_EDGE('',*,*,#656,.F.);
#841=ORIENTED_EDGE('',*,*,#609,.T.);
#842=ORIENTED_EDGE('',*,*,#657,.F.);
#843=ORIENTED_EDGE('',*,*,#658,.F.);
#844=ORIENTED_EDGE('',*,*,#653,.F.);
#845=ORIENTED_EDGE('',*,*,#613,.T.);
#846=ORIENTED_EDGE('',*,*,#659,.F.);
#847=ORIENTED_EDGE('',*,*,#660,.F.);
#848=ORIENTED_EDGE('',*,*,#661,.T.);
#849=ORIENTED_EDGE('',*,*,#619,.T.);
#850=ORIENTED_EDGE('',*,*,#662,.T.);
#851=ORIENTED_EDGE('',*,*,#663,.F.);
#852=ORIENTED_EDGE('',*,*,#664,.F.);
#853=ORIENTED_EDGE('',*,*,#614,.T.);
#854=ORIENTED_EDGE('',*,*,#661,.F.);
#855=ORIENTED_EDGE('',*,*,#665,.F.);
#856=ORIENTED_EDGE('',*,*,#666,.T.);
#857=ORIENTED_EDGE('',*,*,#624,.T.);
#858=ORIENTED_EDGE('',*,*,#667,.T.);
#859=ORIENTED_EDGE('',*,*,#668,.F.);
#860=ORIENTED_EDGE('',*,*,#662,.F.);
#861=ORIENTED_EDGE('',*,*,#615,.T.);
#862=ORIENTED_EDGE('',*,*,#666,.F.);
#863=ORIENTED_EDGE('',*,*,#669,.F.);
#864=ORIENTED_EDGE('',*,*,#670,.T.);
#865=ORIENTED_EDGE('',*,*,#623,.T.);
#866=ORIENTED_EDGE('',*,*,#671,.T.);
#867=ORIENTED_EDGE('',*,*,#672,.F.);
#868=ORIENTED_EDGE('',*,*,#667,.F.);
#869=ORIENTED_EDGE('',*,*,#616,.T.);
#870=ORIENTED_EDGE('',*,*,#670,.F.);
#871=ORIENTED_EDGE('',*,*,#673,.F.);
#872=ORIENTED_EDGE('',*,*,#674,.T.);
#873=ORIENTED_EDGE('',*,*,#622,.T.);
#874=ORIENTED_EDGE('',*,*,#675,.T.);
#875=ORIENTED_EDGE('',*,*,#676,.F.);
#876=ORIENTED_EDGE('',*,*,#671,.F.);
#877=ORIENTED_EDGE('',*,*,#617,.T.);
#878=ORIENTED_EDGE('',*,*,#674,.F.);
#879=ORIENTED_EDGE('',*,*,#677,.F.);
#880=ORIENTED_EDGE('',*,*,#678,.F.);
#881=ORIENTED_EDGE('',*,*,#621,.T.);
#882=ORIENTED_EDGE('',*,*,#679,.F.);
#883=ORIENTED_EDGE('',*,*,#680,.F.);
#884=ORIENTED_EDGE('',*,*,#675,.F.);
#885=ORIENTED_EDGE('',*,*,#625,.T.);
#886=ORIENTED_EDGE('',*,*,#681,.F.);
#887=ORIENTED_EDGE('',*,*,#682,.F.);
#888=ORIENTED_EDGE('',*,*,#683,.T.);
#889=ORIENTED_EDGE('',*,*,#631,.T.);
#890=ORIENTED_EDGE('',*,*,#684,.T.);
#891=ORIENTED_EDGE('',*,*,#685,.F.);
#892=ORIENTED_EDGE('',*,*,#686,.F.);
#893=ORIENTED_EDGE('',*,*,#626,.T.);
#894=ORIENTED_EDGE('',*,*,#683,.F.);
#895=ORIENTED_EDGE('',*,*,#687,.F.);
#896=ORIENTED_EDGE('',*,*,#688,.T.);
#897=ORIENTED_EDGE('',*,*,#636,.T.);
#898=ORIENTED_EDGE('',*,*,#689,.T.);
#899=ORIENTED_EDGE('',*,*,#690,.F.);
#900=ORIENTED_EDGE('',*,*,#684,.F.);
#901=ORIENTED_EDGE('',*,*,#627,.T.);
#902=ORIENTED_EDGE('',*,*,#688,.F.);
#903=ORIENTED_EDGE('',*,*,#691,.F.);
#904=ORIENTED_EDGE('',*,*,#692,.T.);
#905=ORIENTED_EDGE('',*,*,#635,.T.);
#906=ORIENTED_EDGE('',*,*,#693,.T.);
#907=ORIENTED_EDGE('',*,*,#694,.F.);
#908=ORIENTED_EDGE('',*,*,#689,.F.);
#909=ORIENTED_EDGE('',*,*,#628,.T.);
#910=ORIENTED_EDGE('',*,*,#692,.F.);
#911=ORIENTED_EDGE('',*,*,#695,.F.);
#912=ORIENTED_EDGE('',*,*,#696,.T.);
#913=ORIENTED_EDGE('',*,*,#634,.T.);
#914=ORIENTED_EDGE('',*,*,#697,.T.);
#915=ORIENTED_EDGE('',*,*,#698,.F.);
#916=ORIENTED_EDGE('',*,*,#693,.F.);
#917=ORIENTED_EDGE('',*,*,#629,.T.);
#918=ORIENTED_EDGE('',*,*,#696,.F.);
#919=ORIENTED_EDGE('',*,*,#699,.F.);
#920=ORIENTED_EDGE('',*,*,#700,.F.);
#921=ORIENTED_EDGE('',*,*,#633,.T.);
#922=ORIENTED_EDGE('',*,*,#701,.F.);
#923=ORIENTED_EDGE('',*,*,#702,.F.);
#924=ORIENTED_EDGE('',*,*,#697,.F.);
#925=ORIENTED_EDGE('',*,*,#682,.T.);
#926=ORIENTED_EDGE('',*,*,#703,.F.);
#927=ORIENTED_EDGE('',*,*,#699,.T.);
#928=ORIENTED_EDGE('',*,*,#695,.T.);
#929=ORIENTED_EDGE('',*,*,#691,.T.);
#930=ORIENTED_EDGE('',*,*,#687,.T.);
#931=ORIENTED_EDGE('',*,*,#685,.T.);
#932=ORIENTED_EDGE('',*,*,#690,.T.);
#933=ORIENTED_EDGE('',*,*,#694,.T.);
#934=ORIENTED_EDGE('',*,*,#698,.T.);
#935=ORIENTED_EDGE('',*,*,#702,.T.);
#936=ORIENTED_EDGE('',*,*,#704,.F.);
#937=ORIENTED_EDGE('',*,*,#660,.T.);
#938=ORIENTED_EDGE('',*,*,#705,.F.);
#939=ORIENTED_EDGE('',*,*,#677,.T.);
#940=ORIENTED_EDGE('',*,*,#673,.T.);
#941=ORIENTED_EDGE('',*,*,#669,.T.);
#942=ORIENTED_EDGE('',*,*,#665,.T.);
#943=ORIENTED_EDGE('',*,*,#663,.T.);
#944=ORIENTED_EDGE('',*,*,#668,.T.);
#945=ORIENTED_EDGE('',*,*,#672,.T.);
#946=ORIENTED_EDGE('',*,*,#676,.T.);
#947=ORIENTED_EDGE('',*,*,#680,.T.);
#948=ORIENTED_EDGE('',*,*,#706,.F.);
#949=ORIENTED_EDGE('',*,*,#638,.T.);
#950=ORIENTED_EDGE('',*,*,#707,.F.);
#951=ORIENTED_EDGE('',*,*,#655,.T.);
#952=ORIENTED_EDGE('',*,*,#651,.T.);
#953=ORIENTED_EDGE('',*,*,#647,.T.);
#954=ORIENTED_EDGE('',*,*,#643,.T.);
#955=ORIENTED_EDGE('',*,*,#641,.T.);
#956=ORIENTED_EDGE('',*,*,#646,.T.);
#957=ORIENTED_EDGE('',*,*,#650,.T.);
#958=ORIENTED_EDGE('',*,*,#654,.T.);
#959=ORIENTED_EDGE('',*,*,#658,.T.);
#960=ORIENTED_EDGE('',*,*,#708,.F.);
#961=ORIENTED_EDGE('',*,*,#709,.F.);
#962=ORIENTED_EDGE('',*,*,#710,.F.);
#963=ORIENTED_EDGE('',*,*,#711,.F.);
#964=ORIENTED_EDGE('',*,*,#712,.F.);
#965=ORIENTED_EDGE('',*,*,#713,.F.);
#966=ORIENTED_EDGE('',*,*,#714,.F.);
#967=ORIENTED_EDGE('',*,*,#715,.F.);
#968=ORIENTED_EDGE('',*,*,#716,.F.);
#969=ORIENTED_EDGE('',*,*,#716,.T.);
#970=ORIENTED_EDGE('',*,*,#717,.F.);
#971=ORIENTED_EDGE('',*,*,#718,.F.);
#972=ORIENTED_EDGE('',*,*,#719,.F.);
#973=ORIENTED_EDGE('',*,*,#712,.T.);
#974=ORIENTED_EDGE('',*,*,#720,.F.);
#975=ORIENTED_EDGE('',*,*,#721,.F.);
#976=ORIENTED_EDGE('',*,*,#722,.F.);
#977=ORIENTED_EDGE('',*,*,#711,.T.);
#978=ORIENTED_EDGE('',*,*,#723,.T.);
#979=ORIENTED_EDGE('',*,*,#713,.T.);
#980=ORIENTED_EDGE('',*,*,#719,.T.);
#981=ORIENTED_EDGE('',*,*,#724,.T.);
#982=ORIENTED_EDGE('',*,*,#725,.T.);
#983=ORIENTED_EDGE('',*,*,#726,.T.);
#984=ORIENTED_EDGE('',*,*,#727,.T.);
#985=ORIENTED_EDGE('',*,*,#728,.T.);
#986=ORIENTED_EDGE('',*,*,#729,.T.);
#987=ORIENTED_EDGE('',*,*,#730,.T.);
#988=ORIENTED_EDGE('',*,*,#731,.T.);
#989=ORIENTED_EDGE('',*,*,#732,.T.);
#990=ORIENTED_EDGE('',*,*,#733,.T.);
#991=ORIENTED_EDGE('',*,*,#734,.T.);
#992=ORIENTED_EDGE('',*,*,#720,.T.);
#993=ORIENTED_EDGE('',*,*,#735,.T.);
#994=ORIENTED_EDGE('',*,*,#736,.T.);
#995=ORIENTED_EDGE('',*,*,#737,.T.);
#996=ORIENTED_EDGE('',*,*,#738,.T.);
#997=ORIENTED_EDGE('',*,*,#710,.T.);
#998=ORIENTED_EDGE('',*,*,#739,.F.);
#999=ORIENTED_EDGE('',*,*,#714,.T.);
#1000=ORIENTED_EDGE('',*,*,#723,.F.);
#1001=ORIENTED_EDGE('',*,*,#740,.F.);
#1002=ORIENTED_EDGE('',*,*,#741,.F.);
#1003=ORIENTED_EDGE('',*,*,#730,.F.);
#1004=ORIENTED_EDGE('',*,*,#742,.F.);
#1005=ORIENTED_EDGE('',*,*,#732,.F.);
#1006=ORIENTED_EDGE('',*,*,#743,.F.);
#1007=ORIENTED_EDGE('',*,*,#744,.F.);
#1008=ORIENTED_EDGE('',*,*,#745,.F.);
#1009=ORIENTED_EDGE('',*,*,#745,.T.);
#1010=ORIENTED_EDGE('',*,*,#746,.F.);
#1011=ORIENTED_EDGE('',*,*,#747,.F.);
#1012=ORIENTED_EDGE('',*,*,#733,.F.);
#1013=ORIENTED_EDGE('',*,*,#742,.T.);
#1014=ORIENTED_EDGE('',*,*,#729,.F.);
#1015=ORIENTED_EDGE('',*,*,#748,.F.);
#1016=ORIENTED_EDGE('',*,*,#749,.F.);
#1017=ORIENTED_EDGE('',*,*,#741,.T.);
#1018=ORIENTED_EDGE('',*,*,#750,.F.);
#1019=ORIENTED_EDGE('',*,*,#743,.T.);
#1020=ORIENTED_EDGE('',*,*,#731,.F.);
#1021=ORIENTED_EDGE('',*,*,#709,.T.);
#1022=ORIENTED_EDGE('',*,*,#722,.T.);
#1023=ORIENTED_EDGE('',*,*,#751,.T.);
#1024=ORIENTED_EDGE('',*,*,#746,.T.);
#1025=ORIENTED_EDGE('',*,*,#744,.T.);
#1026=ORIENTED_EDGE('',*,*,#750,.T.);
#1027=ORIENTED_EDGE('',*,*,#740,.T.);
#1028=ORIENTED_EDGE('',*,*,#749,.T.);
#1029=ORIENTED_EDGE('',*,*,#752,.T.);
#1030=ORIENTED_EDGE('',*,*,#753,.T.);
#1031=ORIENTED_EDGE('',*,*,#754,.T.);
#1032=ORIENTED_EDGE('',*,*,#755,.T.);
#1033=ORIENTED_EDGE('',*,*,#756,.T.);
#1034=ORIENTED_EDGE('',*,*,#717,.T.);
#1035=ORIENTED_EDGE('',*,*,#715,.T.);
#1036=ORIENTED_EDGE('',*,*,#739,.T.);
#1037=ORIENTED_EDGE('',*,*,#757,.T.);
#1038=ORIENTED_EDGE('',*,*,#758,.T.);
#1039=ORIENTED_EDGE('',*,*,#759,.T.);
#1040=ORIENTED_EDGE('',*,*,#760,.T.);
#1041=ORIENTED_EDGE('',*,*,#721,.T.);
#1042=ORIENTED_EDGE('',*,*,#734,.F.);
#1043=ORIENTED_EDGE('',*,*,#747,.T.);
#1044=ORIENTED_EDGE('',*,*,#751,.F.);
#1045=ORIENTED_EDGE('',*,*,#748,.T.);
#1046=ORIENTED_EDGE('',*,*,#728,.F.);
#1047=ORIENTED_EDGE('',*,*,#761,.F.);
#1048=ORIENTED_EDGE('',*,*,#752,.F.);
#1049=ORIENTED_EDGE('',*,*,#737,.F.);
#1050=ORIENTED_EDGE('',*,*,#762,.F.);
#1051=ORIENTED_EDGE('',*,*,#759,.F.);
#1052=ORIENTED_EDGE('',*,*,#763,.T.);
#1053=ORIENTED_EDGE('',*,*,#738,.F.);
#1054=ORIENTED_EDGE('',*,*,#763,.F.);
#1055=ORIENTED_EDGE('',*,*,#758,.F.);
#1056=ORIENTED_EDGE('',*,*,#764,.F.);
#1057=ORIENTED_EDGE('',*,*,#735,.F.);
#1058=ORIENTED_EDGE('',*,*,#764,.T.);
#1059=ORIENTED_EDGE('',*,*,#757,.F.);
#1060=ORIENTED_EDGE('',*,*,#765,.T.);
#1061=ORIENTED_EDGE('',*,*,#736,.F.);
#1062=ORIENTED_EDGE('',*,*,#765,.F.);
#1063=ORIENTED_EDGE('',*,*,#760,.F.);
#1064=ORIENTED_EDGE('',*,*,#762,.T.);
#1065=ORIENTED_EDGE('',*,*,#766,.F.);
#1066=ORIENTED_EDGE('',*,*,#755,.F.);
#1067=ORIENTED_EDGE('',*,*,#767,.T.);
#1068=ORIENTED_EDGE('',*,*,#725,.F.);
#1069=ORIENTED_EDGE('',*,*,#768,.T.);
#1070=ORIENTED_EDGE('',*,*,#726,.F.);
#1071=ORIENTED_EDGE('',*,*,#767,.F.);
#1072=ORIENTED_EDGE('',*,*,#754,.F.);
#1073=ORIENTED_EDGE('',*,*,#761,.T.);
#1074=ORIENTED_EDGE('',*,*,#727,.F.);
#1075=ORIENTED_EDGE('',*,*,#768,.F.);
#1076=ORIENTED_EDGE('',*,*,#753,.F.);
#1077=ORIENTED_EDGE('',*,*,#642,.T.);
#1078=ORIENTED_EDGE('',*,*,#708,.T.);
#1079=ORIENTED_EDGE('',*,*,#657,.T.);
#1080=ORIENTED_EDGE('',*,*,#608,.T.);
#1081=ORIENTED_EDGE('',*,*,#664,.T.);
#1082=ORIENTED_EDGE('',*,*,#706,.T.);
#1083=ORIENTED_EDGE('',*,*,#679,.T.);
#1084=ORIENTED_EDGE('',*,*,#620,.T.);
#1085=ORIENTED_EDGE('',*,*,#686,.T.);
#1086=ORIENTED_EDGE('',*,*,#704,.T.);
#1087=ORIENTED_EDGE('',*,*,#701,.T.);
#1088=ORIENTED_EDGE('',*,*,#632,.T.);
#1089=ORIENTED_EDGE('',*,*,#630,.T.);
#1090=ORIENTED_EDGE('',*,*,#700,.T.);
#1091=ORIENTED_EDGE('',*,*,#703,.T.);
#1092=ORIENTED_EDGE('',*,*,#681,.T.);
#1093=ORIENTED_EDGE('',*,*,#618,.T.);
#1094=ORIENTED_EDGE('',*,*,#678,.T.);
#1095=ORIENTED_EDGE('',*,*,#705,.T.);
#1096=ORIENTED_EDGE('',*,*,#659,.T.);
#1097=ORIENTED_EDGE('',*,*,#606,.T.);
#1098=ORIENTED_EDGE('',*,*,#656,.T.);
#1099=ORIENTED_EDGE('',*,*,#707,.T.);
#1100=ORIENTED_EDGE('',*,*,#637,.T.);
#1101=ORIENTED_EDGE('',*,*,#718,.T.);
#1102=ORIENTED_EDGE('',*,*,#756,.F.);
#1103=ORIENTED_EDGE('',*,*,#766,.T.);
#1104=ORIENTED_EDGE('',*,*,#724,.F.);
#1105=PLANE('',#1241);
#1106=PLANE('',#1242);
#1107=PLANE('',#1243);
#1108=PLANE('',#1244);
#1109=PLANE('',#1245);
#1110=PLANE('',#1246);
#1111=PLANE('',#1247);
#1112=PLANE('',#1248);
#1113=PLANE('',#1249);
#1114=PLANE('',#1250);
#1115=PLANE('',#1251);
#1116=PLANE('',#1252);
#1117=PLANE('',#1253);
#1118=PLANE('',#1254);
#1119=PLANE('',#1255);
#1120=PLANE('',#1256);
#1121=PLANE('',#1257);
#1122=PLANE('',#1258);
#1123=PLANE('',#1259);
#1124=PLANE('',#1260);
#1125=PLANE('',#1261);
#1126=PLANE('',#1262);
#1127=PLANE('',#1263);
#1128=PLANE('',#1264);
#1129=PLANE('',#1265);
#1130=PLANE('',#1266);
#1131=PLANE('',#1267);
#1132=PLANE('',#1268);
#1133=PLANE('',#1269);
#1134=PLANE('',#1270);
#1135=PLANE('',#1271);
#1136=PLANE('',#1272);
#1137=PLANE('',#1273);
#1138=PLANE('',#1274);
#1139=PLANE('',#1275);
#1140=PLANE('',#1276);
#1141=PLANE('',#1277);
#1142=PLANE('',#1278);
#1143=PLANE('',#1279);
#1144=PLANE('',#1280);
#1145=PLANE('',#1281);
#1146=PLANE('',#1282);
#1147=PLANE('',#1283);
#1148=PLANE('',#1284);
#1149=PLANE('',#1291);
#1150=PLANE('',#1298);
#1151=PLANE('',#1299);
#1152=PLANE('',#1306);
#1153=PLANE('',#1307);
#1154=PLANE('',#1308);
#1155=PLANE('',#1309);
#1156=PLANE('',#1310);
#1157=PLANE('',#1311);
#1158=PLANE('',#1312);
#1159=PLANE('',#1313);
#1160=PLANE('',#1314);
#1161=PLANE('',#1315);
#1162=PLANE('',#1316);
#1163=ADVANCED_FACE('',(#41),#1105,.F.);
#1164=ADVANCED_FACE('',(#42),#1106,.F.);
#1165=ADVANCED_FACE('',(#43),#1107,.F.);
#1166=ADVANCED_FACE('',(#44),#1108,.F.);
#1167=ADVANCED_FACE('',(#45),#1109,.F.);
#1168=ADVANCED_FACE('',(#46),#1110,.F.);
#1169=ADVANCED_FACE('',(#47),#1111,.T.);
#1170=ADVANCED_FACE('',(#48),#1112,.T.);
#1171=ADVANCED_FACE('',(#49),#1113,.T.);
#1172=ADVANCED_FACE('',(#50),#1114,.T.);
#1173=ADVANCED_FACE('',(#51),#1115,.T.);
#1174=ADVANCED_FACE('',(#52),#1116,.T.);
#1175=ADVANCED_FACE('',(#53),#1117,.T.);
#1176=ADVANCED_FACE('',(#54),#1118,.T.);
#1177=ADVANCED_FACE('',(#55),#1119,.T.);
#1178=ADVANCED_FACE('',(#56),#1120,.T.);
#1179=ADVANCED_FACE('',(#57),#1121,.T.);
#1180=ADVANCED_FACE('',(#58),#1122,.T.);
#1181=ADVANCED_FACE('',(#59),#1123,.T.);
#1182=ADVANCED_FACE('',(#60),#1124,.T.);
#1183=ADVANCED_FACE('',(#61),#1125,.T.);
#1184=ADVANCED_FACE('',(#62),#1126,.T.);
#1185=ADVANCED_FACE('',(#63),#1127,.T.);
#1186=ADVANCED_FACE('',(#64),#1128,.T.);
#1187=ADVANCED_FACE('',(#65),#1129,.T.);
#1188=ADVANCED_FACE('',(#66),#1130,.T.);
#1189=ADVANCED_FACE('',(#67),#1131,.T.);
#1190=ADVANCED_FACE('',(#68),#1132,.T.);
#1191=ADVANCED_FACE('',(#69),#1133,.T.);
#1192=ADVANCED_FACE('',(#70),#1134,.T.);
#1193=ADVANCED_FACE('',(#71),#1135,.T.);
#1194=ADVANCED_FACE('',(#72),#1136,.T.);
#1195=ADVANCED_FACE('',(#73),#1137,.T.);
#1196=ADVANCED_FACE('',(#74),#1138,.T.);
#1197=ADVANCED_FACE('',(#75),#1139,.T.);
#1198=ADVANCED_FACE('',(#76),#1140,.T.);
#1199=ADVANCED_FACE('',(#77),#1141,.T.);
#1200=ADVANCED_FACE('',(#78),#1142,.T.);
#1201=ADVANCED_FACE('',(#79),#1143,.T.);
#1202=ADVANCED_FACE('',(#80),#1144,.T.);
#1203=ADVANCED_FACE('',(#81),#1145,.T.);
#1204=ADVANCED_FACE('',(#82),#1146,.T.);
#1205=ADVANCED_FACE('',(#83),#1147,.F.);
#1206=ADVANCED_FACE('',(#84),#1148,.F.);
#1207=ADVANCED_FACE('',(#85),#35,.T.);
#1208=ADVANCED_FACE('',(#86),#36,.T.);
#1209=ADVANCED_FACE('',(#87,#15),#1149,.T.);
#1210=ADVANCED_FACE('',(#88),#37,.F.);
#1211=ADVANCED_FACE('',(#89),#1150,.F.);
#1212=ADVANCED_FACE('',(#90),#1151,.F.);
#1213=ADVANCED_FACE('',(#91),#38,.T.);
#1214=ADVANCED_FACE('',(#92),#39,.T.);
#1215=ADVANCED_FACE('',(#93),#40,.F.);
#1216=ADVANCED_FACE('',(#94,#16),#1152,.T.);
#1217=ADVANCED_FACE('',(#95),#1153,.T.);
#1218=ADVANCED_FACE('',(#96),#1154,.T.);
#1219=ADVANCED_FACE('',(#97),#1155,.F.);
#1220=ADVANCED_FACE('',(#98),#1156,.F.);
#1221=ADVANCED_FACE('',(#99),#1157,.F.);
#1222=ADVANCED_FACE('',(#100),#1158,.F.);
#1223=ADVANCED_FACE('',(#101),#1159,.T.);
#1224=ADVANCED_FACE('',(#102),#1160,.T.);
#1225=ADVANCED_FACE('',(#103,#17,#18,#19,#20,#21,#22),#1161,.T.);
#1226=ADVANCED_FACE('',(#104),#1162,.T.);
#1227=CLOSED_SHELL('',(#1163,#1164,#1165,#1166,#1167,#1168,#1169,#1170,
#1171,#1172,#1173,#1174,#1175,#1176,#1177,#1178,#1179,#1180,#1181,#1182,
#1183,#1184,#1185,#1186,#1187,#1188,#1189,#1190,#1191,#1192,#1193,#1194,
#1195,#1196,#1197,#1198,#1199,#1200,#1201,#1202,#1203,#1204,#1205,#1206,
#1207,#1208,#1209,#1210,#1211,#1212,#1213,#1214,#1215,#1216,#1217,#1218,
#1219,#1220,#1221,#1222,#1223,#1224,#1225,#1226));
#1228=DERIVED_UNIT_ELEMENT(#1230,1.);
#1229=DERIVED_UNIT_ELEMENT(#1977,-3.);
#1230=(
MASS_UNIT()
NAMED_UNIT(*)
SI_UNIT(.KILO.,.GRAM.)
);
#1231=DERIVED_UNIT((#1228,#1229));
#1232=MEASURE_REPRESENTATION_ITEM('density measure',
POSITIVE_RATIO_MEASURE(7850.),#1231);
#1233=PROPERTY_DEFINITION_REPRESENTATION(#1238,#1235);
#1234=PROPERTY_DEFINITION_REPRESENTATION(#1239,#1236);
#1235=REPRESENTATION('material name',(#1237),#1974);
#1236=REPRESENTATION('density',(#1232),#1974);
#1237=DESCRIPTIVE_REPRESENTATION_ITEM('Steel','Steel');
#1238=PROPERTY_DEFINITION('material property','material name',#1984);
#1239=PROPERTY_DEFINITION('material property','density of part',#1984);
#1240=AXIS2_PLACEMENT_3D('',#1627,#1317,#1318);
#1241=AXIS2_PLACEMENT_3D('',#1628,#1319,#1320);
#1242=AXIS2_PLACEMENT_3D('',#1641,#1327,#1328);
#1243=AXIS2_PLACEMENT_3D('',#1654,#1335,#1336);
#1244=AXIS2_PLACEMENT_3D('',#1667,#1343,#1344);
#1245=AXIS2_PLACEMENT_3D('',#1680,#1351,#1352);
#1246=AXIS2_PLACEMENT_3D('',#1693,#1359,#1360);
#1247=AXIS2_PLACEMENT_3D('',#1706,#1367,#1368);
#1248=AXIS2_PLACEMENT_3D('',#1712,#1372,#1373);
#1249=AXIS2_PLACEMENT_3D('',#1718,#1377,#1378);
#1250=AXIS2_PLACEMENT_3D('',#1722,#1381,#1382);
#1251=AXIS2_PLACEMENT_3D('',#1726,#1385,#1386);
#1252=AXIS2_PLACEMENT_3D('',#1730,#1389,#1390);
#1253=AXIS2_PLACEMENT_3D('',#1734,#1393,#1394);
#1254=AXIS2_PLACEMENT_3D('',#1738,#1397,#1398);
#1255=AXIS2_PLACEMENT_3D('',#1742,#1401,#1402);
#1256=AXIS2_PLACEMENT_3D('',#1746,#1405,#1406);
#1257=AXIS2_PLACEMENT_3D('',#1750,#1409,#1410);
#1258=AXIS2_PLACEMENT_3D('',#1756,#1414,#1415);
#1259=AXIS2_PLACEMENT_3D('',#1762,#1419,#1420);
#1260=AXIS2_PLACEMENT_3D('',#1766,#1423,#1424);
#1261=AXIS2_PLACEMENT_3D('',#1770,#1427,#1428);
#1262=AXIS2_PLACEMENT_3D('',#1774,#1431,#1432);
#1263=AXIS2_PLACEMENT_3D('',#1778,#1435,#1436);
#1264=AXIS2_PLACEMENT_3D('',#1782,#1439,#1440);
#1265=AXIS2_PLACEMENT_3D('',#1786,#1443,#1444);
#1266=AXIS2_PLACEMENT_3D('',#1790,#1447,#1448);
#1267=AXIS2_PLACEMENT_3D('',#1794,#1451,#1452);
#1268=AXIS2_PLACEMENT_3D('',#1800,#1456,#1457);
#1269=AXIS2_PLACEMENT_3D('',#1806,#1461,#1462);
#1270=AXIS2_PLACEMENT_3D('',#1810,#1465,#1466);
#1271=AXIS2_PLACEMENT_3D('',#1814,#1469,#1470);
#1272=AXIS2_PLACEMENT_3D('',#1818,#1473,#1474);
#1273=AXIS2_PLACEMENT_3D('',#1822,#1477,#1478);
#1274=AXIS2_PLACEMENT_3D('',#1826,#1481,#1482);
#1275=AXIS2_PLACEMENT_3D('',#1830,#1485,#1486);
#1276=AXIS2_PLACEMENT_3D('',#1834,#1489,#1490);
#1277=AXIS2_PLACEMENT_3D('',#1838,#1493,#1494);
#1278=AXIS2_PLACEMENT_3D('',#1840,#1496,#1497);
#1279=AXIS2_PLACEMENT_3D('',#1842,#1499,#1500);
#1280=AXIS2_PLACEMENT_3D('',#1844,#1502,#1503);
#1281=AXIS2_PLACEMENT_3D('',#1846,#1505,#1506);
#1282=AXIS2_PLACEMENT_3D('',#1848,#1508,#1509);
#1283=AXIS2_PLACEMENT_3D('',#1850,#1511,#1512);
#1284=AXIS2_PLACEMENT_3D('',#1859,#1517,#1518);
#1285=AXIS2_PLACEMENT_3D('',#1868,#1523,#1524);
#1286=AXIS2_PLACEMENT_3D('',#1870,#1525,#1526);
#1287=AXIS2_PLACEMENT_3D('',#1873,#1528,#1529);
#1288=AXIS2_PLACEMENT_3D('',#1874,#1530,#1531);
#1289=AXIS2_PLACEMENT_3D('',#1876,#1532,#1533);
#1290=AXIS2_PLACEMENT_3D('',#1879,#1535,#1536);
#1291=AXIS2_PLACEMENT_3D('',#1880,#1537,#1538);
#1292=AXIS2_PLACEMENT_3D('',#1881,#1539,#1540);
#1293=AXIS2_PLACEMENT_3D('',#1893,#1546,#1547);
#1294=AXIS2_PLACEMENT_3D('',#1897,#1549,#1550);
#1295=AXIS2_PLACEMENT_3D('',#1901,#1552,#1553);
#1296=AXIS2_PLACEMENT_3D('',#1911,#1559,#1560);
#1297=AXIS2_PLACEMENT_3D('',#1912,#1561,#1562);
#1298=AXIS2_PLACEMENT_3D('',#1913,#1563,#1564);
#1299=AXIS2_PLACEMENT_3D('',#1919,#1568,#1569);
#1300=AXIS2_PLACEMENT_3D('',#1925,#1573,#1574);
#1301=AXIS2_PLACEMENT_3D('',#1927,#1575,#1576);
#1302=AXIS2_PLACEMENT_3D('',#1929,#1578,#1579);
#1303=AXIS2_PLACEMENT_3D('',#1932,#1581,#1582);
#1304=AXIS2_PLACEMENT_3D('',#1933,#1583,#1584);
#1305=AXIS2_PLACEMENT_3D('',#1934,#1585,#1586);
#1306=AXIS2_PLACEMENT_3D('',#1935,#1587,#1588);
#1307=AXIS2_PLACEMENT_3D('',#1954,#1599,#1600);
#1308=AXIS2_PLACEMENT_3D('',#1955,#1601,#1602);
#1309=AXIS2_PLACEMENT_3D('',#1957,#1604,#1605);
#1310=AXIS2_PLACEMENT_3D('',#1960,#1608,#1609);
#1311=AXIS2_PLACEMENT_3D('',#1962,#1611,#1612);
#1312=AXIS2_PLACEMENT_3D('',#1964,#1614,#1615);
#1313=AXIS2_PLACEMENT_3D('',#1965,#1616,#1617);
#1314=AXIS2_PLACEMENT_3D('',#1968,#1620,#1621);
#1315=AXIS2_PLACEMENT_3D('',#1970,#1623,#1624);
#1316=AXIS2_PLACEMENT_3D('',#1971,#1625,#1626);
#1317=DIRECTION('axis',(0.,0.,1.));
#1318=DIRECTION('refdir',(1.,0.,0.));
#1319=DIRECTION('center_axis',(0.,-1.,0.));
#1320=DIRECTION('ref_axis',(0.,0.,-1.));
#1321=DIRECTION('',(1.,0.,0.));
#1322=DIRECTION('',(0.,0.,1.));
#1323=DIRECTION('',(1.,0.,0.));
#1324=DIRECTION('',(0.,0.,-1.));
#1325=DIRECTION('',(-1.,0.,0.));
#1326=DIRECTION('',(0.,0.,1.));
#1327=DIRECTION('center_axis',(0.,1.,0.));
#1328=DIRECTION('ref_axis',(0.,0.,1.));
#1329=DIRECTION('',(-1.,0.,0.));
#1330=DIRECTION('',(0.,0.,-1.));
#1331=DIRECTION('',(1.,0.,0.));
#1332=DIRECTION('',(0.,0.,1.));
#1333=DIRECTION('',(-1.,0.,0.));
#1334=DIRECTION('',(0.,0.,-1.));
#1335=DIRECTION('center_axis',(0.,-1.,0.));
#1336=DIRECTION('ref_axis',(0.,0.,-1.));
#1337=DIRECTION('',(1.,0.,0.));
#1338=DIRECTION('',(0.,0.,1.));
#1339=DIRECTION('',(1.,0.,0.));
#1340=DIRECTION('',(0.,0.,-1.));
#1341=DIRECTION('',(-1.,0.,0.));
#1342=DIRECTION('',(0.,0.,1.));
#1343=DIRECTION('center_axis',(0.,1.,0.));
#1344=DIRECTION('ref_axis',(0.,0.,1.));
#1345=DIRECTION('',(-1.,0.,0.));
#1346=DIRECTION('',(0.,0.,-1.));
#1347=DIRECTION('',(1.,0.,0.));
#1348=DIRECTION('',(0.,0.,1.));
#1349=DIRECTION('',(-1.,0.,0.));
#1350=DIRECTION('',(0.,0.,-1.));
#1351=DIRECTION('center_axis',(0.,-1.,0.));
#1352=DIRECTION('ref_axis',(0.,0.,-1.));
#1353=DIRECTION('',(1.,0.,0.));
#1354=DIRECTION('',(0.,0.,1.));
#1355=DIRECTION('',(1.,0.,0.));
#1356=DIRECTION('',(0.,0.,-1.));
#1357=DIRECTION('',(-1.,0.,0.));
#1358=DIRECTION('',(0.,0.,1.));
#1359=DIRECTION('center_axis',(0.,1.,0.));
#1360=DIRECTION('ref_axis',(0.,0.,1.));
#1361=DIRECTION('',(-1.,0.,0.));
#1362=DIRECTION('',(0.,0.,-1.));
#1363=DIRECTION('',(1.,0.,0.));
#1364=DIRECTION('',(0.,0.,1.));
#1365=DIRECTION('',(-1.,0.,0.));
#1366=DIRECTION('',(0.,0.,-1.));
#1367=DIRECTION('center_axis',(0.,0.,-1.));
#1368=DIRECTION('ref_axis',(-1.,0.,0.));
#1369=DIRECTION('',(0.,1.,0.));
#1370=DIRECTION('',(1.,0.,0.));
#1371=DIRECTION('',(0.,1.,0.));
#1372=DIRECTION('center_axis',(0.,0.,-1.));
#1373=DIRECTION('ref_axis',(-1.,0.,0.));
#1374=DIRECTION('',(0.,1.,0.));
#1375=DIRECTION('',(-1.,0.,0.));
#1376=DIRECTION('',(0.,1.,0.));
#1377=DIRECTION('center_axis',(1.,0.,0.));
#1378=DIRECTION('ref_axis',(0.,0.,-1.));
#1379=DIRECTION('',(0.,0.,1.));
#1380=DIRECTION('',(0.,1.,0.));
#1381=DIRECTION('center_axis',(1.,0.,0.));
#1382=DIRECTION('ref_axis',(0.,0.,-1.));
#1383=DIRECTION('',(0.,1.,0.));
#1384=DIRECTION('',(0.,0.,-1.));
#1385=DIRECTION('center_axis',(0.,0.,-1.));
#1386=DIRECTION('ref_axis',(-1.,0.,0.));
#1387=DIRECTION('',(1.,0.,0.));
#1388=DIRECTION('',(0.,1.,0.));
#1389=DIRECTION('center_axis',(0.,0.,-1.));
#1390=DIRECTION('ref_axis',(-1.,0.,0.));
#1391=DIRECTION('',(0.,1.,0.));
#1392=DIRECTION('',(-1.,0.,0.));
#1393=DIRECTION('center_axis',(-1.,0.,0.));
#1394=DIRECTION('ref_axis',(0.,0.,1.));
#1395=DIRECTION('',(0.,0.,-1.));
#1396=DIRECTION('',(0.,1.,0.));
#1397=DIRECTION('center_axis',(-1.,0.,0.));
#1398=DIRECTION('ref_axis',(0.,0.,1.));
#1399=DIRECTION('',(0.,1.,0.));
#1400=DIRECTION('',(0.,0.,1.));
#1401=DIRECTION('center_axis',(0.,0.,1.));
#1402=DIRECTION('ref_axis',(1.,0.,0.));
#1403=DIRECTION('',(-1.,0.,0.));
#1404=DIRECTION('',(0.,-1.,0.));
#1405=DIRECTION('center_axis',(0.,0.,1.));
#1406=DIRECTION('ref_axis',(1.,0.,0.));
#1407=DIRECTION('',(0.,-1.,0.));
#1408=DIRECTION('',(1.,0.,0.));
#1409=DIRECTION('center_axis',(0.,0.,-1.));
#1410=DIRECTION('ref_axis',(-1.,0.,0.));
#1411=DIRECTION('',(0.,1.,0.));
#1412=DIRECTION('',(1.,0.,0.));
#1413=DIRECTION('',(0.,1.,0.));
#1414=DIRECTION('center_axis',(0.,0.,-1.));
#1415=DIRECTION('ref_axis',(-1.,0.,0.));
#1416=DIRECTION('',(0.,1.,0.));
#1417=DIRECTION('',(-1.,0.,0.));
#1418=DIRECTION('',(0.,1.,0.));
#1419=DIRECTION('center_axis',(1.,0.,0.));
#1420=DIRECTION('ref_axis',(0.,0.,-1.));
#1421=DIRECTION('',(0.,0.,1.));
#1422=DIRECTION('',(0.,1.,0.));
#1423=DIRECTION('center_axis',(1.,0.,0.));
#1424=DIRECTION('ref_axis',(0.,0.,-1.));
#1425=DIRECTION('',(0.,1.,0.));
#1426=DIRECTION('',(0.,0.,-1.));
#1427=DIRECTION('center_axis',(0.,0.,-1.));
#1428=DIRECTION('ref_axis',(-1.,0.,0.));
#1429=DIRECTION('',(1.,0.,0.));
#1430=DIRECTION('',(0.,1.,0.));
#1431=DIRECTION('center_axis',(0.,0.,-1.));
#1432=DIRECTION('ref_axis',(-1.,0.,0.));
#1433=DIRECTION('',(0.,1.,0.));
#1434=DIRECTION('',(-1.,0.,0.));
#1435=DIRECTION('center_axis',(-1.,0.,0.));
#1436=DIRECTION('ref_axis',(0.,0.,1.));
#1437=DIRECTION('',(0.,0.,-1.));
#1438=DIRECTION('',(0.,1.,0.));
#1439=DIRECTION('center_axis',(-1.,0.,0.));
#1440=DIRECTION('ref_axis',(0.,0.,1.));
#1441=DIRECTION('',(0.,1.,0.));
#1442=DIRECTION('',(0.,0.,1.));
#1443=DIRECTION('center_axis',(0.,0.,1.));
#1444=DIRECTION('ref_axis',(1.,0.,0.));
#1445=DIRECTION('',(-1.,0.,0.));
#1446=DIRECTION('',(0.,-1.,0.));
#1447=DIRECTION('center_axis',(0.,0.,1.));
#1448=DIRECTION('ref_axis',(1.,0.,0.));
#1449=DIRECTION('',(0.,-1.,0.));
#1450=DIRECTION('',(1.,0.,0.));
#1451=DIRECTION('center_axis',(0.,0.,-1.));
#1452=DIRECTION('ref_axis',(-1.,0.,0.));
#1453=DIRECTION('',(0.,1.,0.));
#1454=DIRECTION('',(1.,0.,0.));
#1455=DIRECTION('',(0.,1.,0.));
#1456=DIRECTION('center_axis',(0.,0.,-1.));
#1457=DIRECTION('ref_axis',(-1.,0.,0.));
#1458=DIRECTION('',(0.,1.,0.));
#1459=DIRECTION('',(-1.,0.,0.));
#1460=DIRECTION('',(0.,1.,0.));
#1461=DIRECTION('center_axis',(1.,0.,0.));
#1462=DIRECTION('ref_axis',(0.,0.,-1.));
#1463=DIRECTION('',(0.,0.,1.));
#1464=DIRECTION('',(0.,1.,0.));
#1465=DIRECTION('center_axis',(1.,0.,0.));
#1466=DIRECTION('ref_axis',(0.,0.,-1.));
#1467=DIRECTION('',(0.,1.,0.));
#1468=DIRECTION('',(0.,0.,-1.));
#1469=DIRECTION('center_axis',(0.,0.,-1.));
#1470=DIRECTION('ref_axis',(-1.,0.,0.));
#1471=DIRECTION('',(1.,0.,0.));
#1472=DIRECTION('',(0.,1.,0.));
#1473=DIRECTION('center_axis',(0.,0.,-1.));
#1474=DIRECTION('ref_axis',(-1.,0.,0.));
#1475=DIRECTION('',(0.,1.,0.));
#1476=DIRECTION('',(-1.,0.,0.));
#1477=DIRECTION('center_axis',(-1.,0.,0.));
#1478=DIRECTION('ref_axis',(0.,0.,1.));
#1479=DIRECTION('',(0.,0.,-1.));
#1480=DIRECTION('',(0.,1.,0.));
#1481=DIRECTION('center_axis',(-1.,0.,0.));
#1482=DIRECTION('ref_axis',(0.,0.,1.));
#1483=DIRECTION('',(0.,1.,0.));
#1484=DIRECTION('',(0.,0.,1.));
#1485=DIRECTION('center_axis',(0.,0.,1.));
#1486=DIRECTION('ref_axis',(1.,0.,0.));
#1487=DIRECTION('',(-1.,0.,0.));
#1488=DIRECTION('',(0.,-1.,0.));
#1489=DIRECTION('center_axis',(0.,0.,1.));
#1490=DIRECTION('ref_axis',(1.,0.,0.));
#1491=DIRECTION('',(0.,-1.,0.));
#1492=DIRECTION('',(1.,0.,0.));
#1493=DIRECTION('center_axis',(0.,-1.,0.));
#1494=DIRECTION('ref_axis',(0.,0.,-1.));
#1495=DIRECTION('',(0.,0.,-1.));
#1496=DIRECTION('center_axis',(0.,1.,0.));
#1497=DIRECTION('ref_axis',(0.,0.,1.));
#1498=DIRECTION('',(0.,0.,1.));
#1499=DIRECTION('center_axis',(0.,-1.,0.));
#1500=DIRECTION('ref_axis',(0.,0.,-1.));
#1501=DIRECTION('',(0.,0.,-1.));
#1502=DIRECTION('center_axis',(0.,1.,0.));
#1503=DIRECTION('ref_axis',(0.,0.,1.));
#1504=DIRECTION('',(0.,0.,1.));
#1505=DIRECTION('center_axis',(0.,-1.,0.));
#1506=DIRECTION('ref_axis',(0.,0.,-1.));
#1507=DIRECTION('',(0.,0.,-1.));
#1508=DIRECTION('center_axis',(0.,1.,0.));
#1509=DIRECTION('ref_axis',(0.,0.,1.));
#1510=DIRECTION('',(0.,0.,1.));
#1511=DIRECTION('center_axis',(-1.,0.,0.));
#1512=DIRECTION('ref_axis',(0.,0.,1.));
#1513=DIRECTION('',(0.,0.,1.));
#1514=DIRECTION('',(0.,-1.,0.));
#1515=DIRECTION('',(0.,0.,-1.));
#1516=DIRECTION('',(0.,1.,0.));
#1517=DIRECTION('center_axis',(1.,0.,0.));
#1518=DIRECTION('ref_axis',(0.,0.,-1.));
#1519=DIRECTION('',(0.,0.,1.));
#1520=DIRECTION('',(0.,1.,0.));
#1521=DIRECTION('',(0.,0.,-1.));
#1522=DIRECTION('',(0.,-1.,0.));
#1523=DIRECTION('center_axis',(0.,1.,0.));
#1524=DIRECTION('ref_axis',(1.,0.,0.));
#1525=DIRECTION('center_axis',(0.,-1.,0.));
#1526=DIRECTION('ref_axis',(1.,0.,0.));
#1527=DIRECTION('',(0.,-1.,0.));
#1528=DIRECTION('center_axis',(0.,1.,0.));
#1529=DIRECTION('ref_axis',(1.,0.,0.));
#1530=DIRECTION('center_axis',(0.,1.,0.));
#1531=DIRECTION('ref_axis',(1.,0.,0.));
#1532=DIRECTION('center_axis',(0.,1.,0.));
#1533=DIRECTION('ref_axis',(1.,0.,0.));
#1534=DIRECTION('',(0.,1.,0.));
#1535=DIRECTION('center_axis',(0.,-1.,0.));
#1536=DIRECTION('ref_axis',(1.,0.,0.));
#1537=DIRECTION('center_axis',(0.,1.,0.));
#1538=DIRECTION('ref_axis',(0.,0.,1.));
#1539=DIRECTION('center_axis',(0.,-1.,0.));
#1540=DIRECTION('ref_axis',(1.,0.,0.));
#1541=DIRECTION('',(-0.892035776030269,0.,-0.451964793188669));
#1542=DIRECTION('',(0.,0.,-1.));
#1543=DIRECTION('',(-1.,0.,0.));
#1544=DIRECTION('',(0.,0.,1.));
#1545=DIRECTION('',(1.,0.,0.));
#1546=DIRECTION('center_axis',(0.,1.,0.));
#1547=DIRECTION('ref_axis',(1.,0.,0.));
#1548=DIRECTION('',(0.,0.,-1.));
#1549=DIRECTION('center_axis',(0.,-1.,0.));
#1550=DIRECTION('ref_axis',(1.,0.,0.));
#1551=DIRECTION('',(0.,0.,1.));
#1552=DIRECTION('center_axis',(0.,1.,0.));
#1553=DIRECTION('ref_axis',(1.,0.,0.));
#1554=DIRECTION('',(1.,0.,0.));
#1555=DIRECTION('',(0.,0.,1.));
#1556=DIRECTION('',(-1.,0.,0.));
#1557=DIRECTION('',(0.,0.,-1.));
#1558=DIRECTION('',(0.892035776030269,0.,0.451964793188669));
#1559=DIRECTION('center_axis',(0.,1.,0.));
#1560=DIRECTION('ref_axis',(1.,0.,0.));
#1561=DIRECTION('center_axis',(0.,1.,0.));
#1562=DIRECTION('ref_axis',(1.,0.,0.));
#1563=DIRECTION('center_axis',(-1.,0.,0.));
#1564=DIRECTION('ref_axis',(0.,0.,1.));
#1565=DIRECTION('',(0.,0.,1.));
#1566=DIRECTION('',(0.,-1.,0.));
#1567=DIRECTION('',(0.,1.,0.));
#1568=DIRECTION('center_axis',(1.,0.,0.));
#1569=DIRECTION('ref_axis',(0.,0.,-1.));
#1570=DIRECTION('',(0.,1.,0.));
#1571=DIRECTION('',(0.,0.,-1.));
#1572=DIRECTION('',(0.,-1.,0.));
#1573=DIRECTION('center_axis',(0.,1.,0.));
#1574=DIRECTION('ref_axis',(1.,0.,0.));
#1575=DIRECTION('center_axis',(0.,-1.,0.));
#1576=DIRECTION('ref_axis',(1.,0.,0.));
#1577=DIRECTION('',(0.,-1.,0.));
#1578=DIRECTION('center_axis',(0.,1.,0.));
#1579=DIRECTION('ref_axis',(1.,0.,0.));
#1580=DIRECTION('',(0.,1.,0.));
#1581=DIRECTION('center_axis',(0.,-1.,0.));
#1582=DIRECTION('ref_axis',(1.,0.,0.));
#1583=DIRECTION('center_axis',(0.,1.,0.));
#1584=DIRECTION('ref_axis',(1.,0.,0.));
#1585=DIRECTION('center_axis',(0.,1.,0.));
#1586=DIRECTION('ref_axis',(1.,0.,0.));
#1587=DIRECTION('center_axis',(0.,-1.,0.));
#1588=DIRECTION('ref_axis',(0.,0.,-1.));
#1589=DIRECTION('',(-1.,0.,0.));
#1590=DIRECTION('',(-1.,0.,0.));
#1591=DIRECTION('',(0.,0.,-1.));
#1592=DIRECTION('',(1.,0.,0.));
#1593=DIRECTION('',(0.,0.,1.));
#1594=DIRECTION('',(0.892035776030269,0.,0.451964793188669));
#1595=DIRECTION('',(0.,0.,-1.));
#1596=DIRECTION('',(-0.892035776030269,0.,-0.451964793188669));
#1597=DIRECTION('',(0.,0.,1.));
#1598=DIRECTION('',(1.,0.,0.));
#1599=DIRECTION('center_axis',(0.,0.,1.));
#1600=DIRECTION('ref_axis',(1.,0.,0.));
#1601=DIRECTION('center_axis',(0.,0.,1.));
#1602=DIRECTION('ref_axis',(1.,0.,0.));
#1603=DIRECTION('',(0.,1.,0.));
#1604=DIRECTION('center_axis',(-1.,0.,0.));
#1605=DIRECTION('ref_axis',(0.,0.,1.));
#1606=DIRECTION('',(0.,1.,0.));
#1607=DIRECTION('',(0.,1.,0.));
#1608=DIRECTION('center_axis',(0.451964793188669,0.,-0.892035776030269));
#1609=DIRECTION('ref_axis',(-0.892035776030269,0.,-0.451964793188669));
#1610=DIRECTION('',(0.,-1.,0.));
#1611=DIRECTION('center_axis',(1.,0.,0.));
#1612=DIRECTION('ref_axis',(0.,0.,-1.));
#1613=DIRECTION('',(0.,1.,0.));
#1614=DIRECTION('center_axis',(0.,0.,1.));
#1615=DIRECTION('ref_axis',(1.,0.,0.));
#1616=DIRECTION('center_axis',(1.,0.,0.));
#1617=DIRECTION('ref_axis',(0.,0.,-1.));
#1618=DIRECTION('',(0.,1.,0.));
#1619=DIRECTION('',(0.,1.,0.));
#1620=DIRECTION('center_axis',(0.,0.,-1.));
#1621=DIRECTION('ref_axis',(-1.,0.,0.));
#1622=DIRECTION('',(0.,1.,0.));
#1623=DIRECTION('center_axis',(-1.,0.,0.));
#1624=DIRECTION('ref_axis',(0.,0.,1.));
#1625=DIRECTION('center_axis',(0.451964793188669,0.,-0.892035776030269));
#1626=DIRECTION('ref_axis',(-0.892035776030269,0.,-0.451964793188669));
#1627=CARTESIAN_POINT('',(0.,0.,0.));
#1628=CARTESIAN_POINT('Origin',(-3.4,-11.5,65.5));
#1629=CARTESIAN_POINT('',(-2.8,-11.5,69.));
#1630=CARTESIAN_POINT('',(0.,-11.5,69.));
#1631=CARTESIAN_POINT('',(-1.7,-11.5,69.));
#1632=CARTESIAN_POINT('',(-2.8,-11.5,57.));
#1633=CARTESIAN_POINT('',(-2.8,-11.5,67.25));
#1634=CARTESIAN_POINT('',(-6.8,-11.5,57.));
#1635=CARTESIAN_POINT('',(-3.1,-11.5,57.));
#1636=CARTESIAN_POINT('',(-6.8,-11.5,74.));
#1637=CARTESIAN_POINT('',(-6.8,-11.5,61.25));
#1638=CARTESIAN_POINT('',(0.,-11.5,74.));
#1639=CARTESIAN_POINT('',(-5.1,-11.5,74.));
#1640=CARTESIAN_POINT('',(0.,-11.5,69.));
#1641=CARTESIAN_POINT('Origin',(-3.4,11.5,65.5));
#1642=CARTESIAN_POINT('',(0.,11.5,69.));
#1643=CARTESIAN_POINT('',(-2.8,11.5,69.));
#1644=CARTESIAN_POINT('',(-1.7,11.5,69.));
#1645=CARTESIAN_POINT('',(0.,11.5,74.));
#1646=CARTESIAN_POINT('',(0.,11.5,69.));
#1647=CARTESIAN_POINT('',(-6.8,11.5,74.));
#1648=CARTESIAN_POINT('',(-5.1,11.5,74.));
#1649=CARTESIAN_POINT('',(-6.8,11.5,57.));
#1650=CARTESIAN_POINT('',(-6.8,11.5,61.25));
#1651=CARTESIAN_POINT('',(-2.8,11.5,57.));
#1652=CARTESIAN_POINT('',(-3.1,11.5,57.));
#1653=CARTESIAN_POINT('',(-2.8,11.5,67.25));
#1654=CARTESIAN_POINT('Origin',(-3.4,-11.5,40.1));
#1655=CARTESIAN_POINT('',(-2.8,-11.5,43.6));
#1656=CARTESIAN_POINT('',(0.,-11.5,43.6));
#1657=CARTESIAN_POINT('',(-1.7,-11.5,43.6));
#1658=CARTESIAN_POINT('',(-2.8,-11.5,31.6));
#1659=CARTESIAN_POINT('',(-2.8,-11.5,41.85));
#1660=CARTESIAN_POINT('',(-6.8,-11.5,31.6));
#1661=CARTESIAN_POINT('',(-3.1,-11.5,31.6));
#1662=CARTESIAN_POINT('',(-6.8,-11.5,48.6));
#1663=CARTESIAN_POINT('',(-6.8,-11.5,35.85));
#1664=CARTESIAN_POINT('',(0.,-11.5,48.6));
#1665=CARTESIAN_POINT('',(-5.1,-11.5,48.6));
#1666=CARTESIAN_POINT('',(0.,-11.5,43.6));
#1667=CARTESIAN_POINT('Origin',(-3.4,11.5,40.1));
#1668=CARTESIAN_POINT('',(0.,11.5,43.6));
#1669=CARTESIAN_POINT('',(-2.8,11.5,43.6));
#1670=CARTESIAN_POINT('',(-1.7,11.5,43.6));
#1671=CARTESIAN_POINT('',(0.,11.5,48.6));
#1672=CARTESIAN_POINT('',(0.,11.5,43.6));
#1673=CARTESIAN_POINT('',(-6.8,11.5,48.6));
#1674=CARTESIAN_POINT('',(-5.1,11.5,48.6));
#1675=CARTESIAN_POINT('',(-6.8,11.5,31.6));
#1676=CARTESIAN_POINT('',(-6.8,11.5,35.85));
#1677=CARTESIAN_POINT('',(-2.8,11.5,31.6));
#1678=CARTESIAN_POINT('',(-3.1,11.5,31.6));
#1679=CARTESIAN_POINT('',(-2.8,11.5,41.85));
#1680=CARTESIAN_POINT('Origin',(-3.4,-11.5,14.7));
#1681=CARTESIAN_POINT('',(-2.8,-11.5,18.2));
#1682=CARTESIAN_POINT('',(0.,-11.5,18.2));
#1683=CARTESIAN_POINT('',(-1.7,-11.5,18.2));
#1684=CARTESIAN_POINT('',(-2.8,-11.5,6.2));
#1685=CARTESIAN_POINT('',(-2.8,-11.5,16.45));
#1686=CARTESIAN_POINT('',(-6.8,-11.5,6.2));
#1687=CARTESIAN_POINT('',(-3.1,-11.5,6.2));
#1688=CARTESIAN_POINT('',(-6.8,-11.5,23.2));
#1689=CARTESIAN_POINT('',(-6.8,-11.5,10.45));
#1690=CARTESIAN_POINT('',(0.,-11.5,23.2));
#1691=CARTESIAN_POINT('',(-5.1,-11.5,23.2));
#1692=CARTESIAN_POINT('',(0.,-11.5,18.2));
#1693=CARTESIAN_POINT('Origin',(-3.4,11.5,14.7));
#1694=CARTESIAN_POINT('',(0.,11.5,18.2));
#1695=CARTESIAN_POINT('',(-2.8,11.5,18.2));
#1696=CARTESIAN_POINT('',(-1.7,11.5,18.2));
#1697=CARTESIAN_POINT('',(0.,11.5,23.2));
#1698=CARTESIAN_POINT('',(0.,11.5,18.2));
#1699=CARTESIAN_POINT('',(-6.8,11.5,23.2));
#1700=CARTESIAN_POINT('',(-5.1,11.5,23.2));
#1701=CARTESIAN_POINT('',(-6.8,11.5,6.2));
#1702=CARTESIAN_POINT('',(-6.8,11.5,10.45));
#1703=CARTESIAN_POINT('',(-2.8,11.5,6.2));
#1704=CARTESIAN_POINT('',(-3.1,11.5,6.2));
#1705=CARTESIAN_POINT('',(-2.8,11.5,16.45));
#1706=CARTESIAN_POINT('Origin',(0.,0.,69.));
#1707=CARTESIAN_POINT('',(0.,-13.9,69.));
#1708=CARTESIAN_POINT('',(0.,0.,69.));
#1709=CARTESIAN_POINT('',(-2.8,-13.9,69.));
#1710=CARTESIAN_POINT('',(-2.8,-13.9,69.));
#1711=CARTESIAN_POINT('',(-2.8,0.,69.));
#1712=CARTESIAN_POINT('Origin',(0.,0.,69.));
#1713=CARTESIAN_POINT('',(-2.8,13.9,69.));
#1714=CARTESIAN_POINT('',(-2.8,0.,69.));
#1715=CARTESIAN_POINT('',(0.,13.9,69.));
#1716=CARTESIAN_POINT('',(-2.8,13.9,69.));
#1717=CARTESIAN_POINT('',(0.,0.,69.));
#1718=CARTESIAN_POINT('Origin',(-2.8,0.,69.));
#1719=CARTESIAN_POINT('',(-2.8,-13.9,57.));
#1720=CARTESIAN_POINT('',(-2.8,-13.9,57.));
#1721=CARTESIAN_POINT('',(-2.8,0.,57.));
#1722=CARTESIAN_POINT('Origin',(-2.8,0.,69.));
#1723=CARTESIAN_POINT('',(-2.8,13.9,57.));
#1724=CARTESIAN_POINT('',(-2.8,0.,57.));
#1725=CARTESIAN_POINT('',(-2.8,13.9,57.));
#1726=CARTESIAN_POINT('Origin',(-2.8,0.,57.));
#1727=CARTESIAN_POINT('',(-6.8,-13.9,57.));
#1728=CARTESIAN_POINT('',(-6.8,-13.9,57.));
#1729=CARTESIAN_POINT('',(-6.8,0.,57.));
#1730=CARTESIAN_POINT('Origin',(-2.8,0.,57.));
#1731=CARTESIAN_POINT('',(-6.8,13.9,57.));
#1732=CARTESIAN_POINT('',(-6.8,0.,57.));
#1733=CARTESIAN_POINT('',(-6.8,13.9,57.));
#1734=CARTESIAN_POINT('Origin',(-6.8,0.,57.));
#1735=CARTESIAN_POINT('',(-6.8,-13.9,74.));
#1736=CARTESIAN_POINT('',(-6.8,-13.9,74.));
#1737=CARTESIAN_POINT('',(-6.8,0.,74.));
#1738=CARTESIAN_POINT('Origin',(-6.8,0.,57.));
#1739=CARTESIAN_POINT('',(-6.8,13.9,74.));
#1740=CARTESIAN_POINT('',(-6.8,0.,74.));
#1741=CARTESIAN_POINT('',(-6.8,13.9,74.));
#1742=CARTESIAN_POINT('Origin',(-6.8,0.,74.));
#1743=CARTESIAN_POINT('',(0.,-13.9,74.));
#1744=CARTESIAN_POINT('',(0.,-13.9,74.));
#1745=CARTESIAN_POINT('',(0.,0.,74.));
#1746=CARTESIAN_POINT('Origin',(-6.8,0.,74.));
#1747=CARTESIAN_POINT('',(0.,13.9,74.));
#1748=CARTESIAN_POINT('',(0.,0.,74.));
#1749=CARTESIAN_POINT('',(0.,13.9,74.));
#1750=CARTESIAN_POINT('Origin',(0.,0.,43.6));
#1751=CARTESIAN_POINT('',(0.,-13.9,43.6));
#1752=CARTESIAN_POINT('',(0.,0.,43.6));
#1753=CARTESIAN_POINT('',(-2.8,-13.9,43.6));
#1754=CARTESIAN_POINT('',(-2.8,-13.9,43.6));
#1755=CARTESIAN_POINT('',(-2.8,0.,43.6));
#1756=CARTESIAN_POINT('Origin',(0.,0.,43.6));
#1757=CARTESIAN_POINT('',(-2.8,13.9,43.6));
#1758=CARTESIAN_POINT('',(-2.8,0.,43.6));
#1759=CARTESIAN_POINT('',(0.,13.9,43.6));
#1760=CARTESIAN_POINT('',(-2.8,13.9,43.6));
#1761=CARTESIAN_POINT('',(0.,0.,43.6));
#1762=CARTESIAN_POINT('Origin',(-2.8,0.,43.6));
#1763=CARTESIAN_POINT('',(-2.8,-13.9,31.6));
#1764=CARTESIAN_POINT('',(-2.8,-13.9,31.6));
#1765=CARTESIAN_POINT('',(-2.8,0.,31.6));
#1766=CARTESIAN_POINT('Origin',(-2.8,0.,43.6));
#1767=CARTESIAN_POINT('',(-2.8,13.9,31.6));
#1768=CARTESIAN_POINT('',(-2.8,0.,31.6));
#1769=CARTESIAN_POINT('',(-2.8,13.9,31.6));
#1770=CARTESIAN_POINT('Origin',(-2.8,0.,31.6));
#1771=CARTESIAN_POINT('',(-6.8,-13.9,31.6));
#1772=CARTESIAN_POINT('',(-6.8,-13.9,31.6));
#1773=CARTESIAN_POINT('',(-6.8,0.,31.6));
#1774=CARTESIAN_POINT('Origin',(-2.8,0.,31.6));
#1775=CARTESIAN_POINT('',(-6.8,13.9,31.6));
#1776=CARTESIAN_POINT('',(-6.8,0.,31.6));
#1777=CARTESIAN_POINT('',(-6.8,13.9,31.6));
#1778=CARTESIAN_POINT('Origin',(-6.8,0.,31.6));
#1779=CARTESIAN_POINT('',(-6.8,-13.9,48.6));
#1780=CARTESIAN_POINT('',(-6.8,-13.9,48.6));
#1781=CARTESIAN_POINT('',(-6.8,0.,48.6));
#1782=CARTESIAN_POINT('Origin',(-6.8,0.,31.6));
#1783=CARTESIAN_POINT('',(-6.8,13.9,48.6));
#1784=CARTESIAN_POINT('',(-6.8,0.,48.6));
#1785=CARTESIAN_POINT('',(-6.8,13.9,48.6));
#1786=CARTESIAN_POINT('Origin',(-6.8,0.,48.6));
#1787=CARTESIAN_POINT('',(0.,-13.9,48.6));
#1788=CARTESIAN_POINT('',(0.,-13.9,48.6));
#1789=CARTESIAN_POINT('',(0.,0.,48.6));
#1790=CARTESIAN_POINT('Origin',(-6.8,0.,48.6));
#1791=CARTESIAN_POINT('',(0.,13.9,48.6));
#1792=CARTESIAN_POINT('',(0.,0.,48.6));
#1793=CARTESIAN_POINT('',(0.,13.9,48.6));
#1794=CARTESIAN_POINT('Origin',(0.,0.,18.2));
#1795=CARTESIAN_POINT('',(0.,-13.9,18.2));
#1796=CARTESIAN_POINT('',(0.,0.,18.2));
#1797=CARTESIAN_POINT('',(-2.8,-13.9,18.2));
#1798=CARTESIAN_POINT('',(-2.8,-13.9,18.2));
#1799=CARTESIAN_POINT('',(-2.8,0.,18.2));
#1800=CARTESIAN_POINT('Origin',(0.,0.,18.2));
#1801=CARTESIAN_POINT('',(-2.8,13.9,18.2));
#1802=CARTESIAN_POINT('',(-2.8,0.,18.2));
#1803=CARTESIAN_POINT('',(0.,13.9,18.2));
#1804=CARTESIAN_POINT('',(-2.8,13.9,18.2));
#1805=CARTESIAN_POINT('',(0.,0.,18.2));
#1806=CARTESIAN_POINT('Origin',(-2.8,0.,18.2));
#1807=CARTESIAN_POINT('',(-2.8,-13.9,6.2));
#1808=CARTESIAN_POINT('',(-2.8,-13.9,6.2));
#1809=CARTESIAN_POINT('',(-2.8,0.,6.2));
#1810=CARTESIAN_POINT('Origin',(-2.8,0.,18.2));
#1811=CARTESIAN_POINT('',(-2.8,13.9,6.2));
#1812=CARTESIAN_POINT('',(-2.8,0.,6.2));
#1813=CARTESIAN_POINT('',(-2.8,13.9,6.2));
#1814=CARTESIAN_POINT('Origin',(-2.8,0.,6.2));
#1815=CARTESIAN_POINT('',(-6.8,-13.9,6.2));
#1816=CARTESIAN_POINT('',(-6.8,-13.9,6.2));
#1817=CARTESIAN_POINT('',(-6.8,0.,6.2));
#1818=CARTESIAN_POINT('Origin',(-2.8,0.,6.2));
#1819=CARTESIAN_POINT('',(-6.8,13.9,6.2));
#1820=CARTESIAN_POINT('',(-6.8,0.,6.2));
#1821=CARTESIAN_POINT('',(-6.8,13.9,6.2));
#1822=CARTESIAN_POINT('Origin',(-6.8,0.,6.2));
#1823=CARTESIAN_POINT('',(-6.8,-13.9,23.2));
#1824=CARTESIAN_POINT('',(-6.8,-13.9,23.2));
#1825=CARTESIAN_POINT('',(-6.8,0.,23.2));
#1826=CARTESIAN_POINT('Origin',(-6.8,0.,6.2));
#1827=CARTESIAN_POINT('',(-6.8,13.9,23.2));
#1828=CARTESIAN_POINT('',(-6.8,0.,23.2));
#1829=CARTESIAN_POINT('',(-6.8,13.9,23.2));
#1830=CARTESIAN_POINT('Origin',(-6.8,0.,23.2));
#1831=CARTESIAN_POINT('',(0.,-13.9,23.2));
#1832=CARTESIAN_POINT('',(0.,-13.9,23.2));
#1833=CARTESIAN_POINT('',(0.,0.,23.2));
#1834=CARTESIAN_POINT('Origin',(-6.8,0.,23.2));
#1835=CARTESIAN_POINT('',(0.,13.9,23.2));
#1836=CARTESIAN_POINT('',(0.,0.,23.2));
#1837=CARTESIAN_POINT('',(0.,13.9,23.2));
#1838=CARTESIAN_POINT('Origin',(-3.4,-13.9,14.7));
#1839=CARTESIAN_POINT('',(0.,-13.9,7.35));
#1840=CARTESIAN_POINT('Origin',(-3.4,13.9,14.7));
#1841=CARTESIAN_POINT('',(0.,13.9,7.35));
#1842=CARTESIAN_POINT('Origin',(-3.4,-13.9,40.1));
#1843=CARTESIAN_POINT('',(0.,-13.9,20.05));
#1844=CARTESIAN_POINT('Origin',(-3.4,13.9,40.1));
#1845=CARTESIAN_POINT('',(0.,13.9,20.05));
#1846=CARTESIAN_POINT('Origin',(-3.4,-13.9,65.5));
#1847=CARTESIAN_POINT('',(0.,-13.9,32.75));
#1848=CARTESIAN_POINT('Origin',(-3.4,13.9,65.5));
#1849=CARTESIAN_POINT('',(0.,13.9,32.75));
#1850=CARTESIAN_POINT('Origin',(132.9,0.,76.));
#1851=CARTESIAN_POINT('',(132.9,-20.,76.));
#1852=CARTESIAN_POINT('',(132.9,-20.,90.9291660852172));
#1853=CARTESIAN_POINT('',(132.9,-20.,57.));
#1854=CARTESIAN_POINT('',(132.9,20.,76.));
#1855=CARTESIAN_POINT('',(132.9,0.,76.));
#1856=CARTESIAN_POINT('',(132.9,20.,90.9291660852172));
#1857=CARTESIAN_POINT('',(132.9,20.,57.));
#1858=CARTESIAN_POINT('',(132.9,0.,90.9291660852172));
#1859=CARTESIAN_POINT('Origin',(167.1,0.,103.7));
#1860=CARTESIAN_POINT('',(167.1,20.,76.));
#1861=CARTESIAN_POINT('',(167.1,20.,90.9291660852172));
#1862=CARTESIAN_POINT('',(167.1,20.,70.85));
#1863=CARTESIAN_POINT('',(167.1,-20.,76.));
#1864=CARTESIAN_POINT('',(167.1,0.,76.));
#1865=CARTESIAN_POINT('',(167.1,-20.,90.9291660852172));
#1866=CARTESIAN_POINT('',(167.1,-20.,70.85));
#1867=CARTESIAN_POINT('',(167.1,0.,90.9291660852172));
#1868=CARTESIAN_POINT('Origin',(150.,0.,76.));
#1869=CARTESIAN_POINT('',(129.750787884113,-20.,65.7403991946172));
#1870=CARTESIAN_POINT('Origin',(150.,-20.,76.));
#1871=CARTESIAN_POINT('',(129.750787884113,20.,65.7403991946172));
#1872=CARTESIAN_POINT('',(129.750787884113,0.,65.7403991946172));
#1873=CARTESIAN_POINT('Origin',(150.,20.,76.));
#1874=CARTESIAN_POINT('Origin',(150.,0.,76.));
#1875=CARTESIAN_POINT('',(127.3,20.,76.));
#1876=CARTESIAN_POINT('Origin',(150.,20.,76.));
#1877=CARTESIAN_POINT('',(127.3,-20.,76.));
#1878=CARTESIAN_POINT('',(127.3,0.,76.));
#1879=CARTESIAN_POINT('Origin',(150.,-20.,76.));
#1880=CARTESIAN_POINT('Origin',(75.,20.,38.));
#1881=CARTESIAN_POINT('Origin',(150.,20.,76.));
#1882=CARTESIAN_POINT('',(6.,20.,3.04000000000001));
#1883=CARTESIAN_POINT('',(150.,20.,76.));
#1884=CARTESIAN_POINT('',(6.,20.,0.));
#1885=CARTESIAN_POINT('',(6.,20.,0.));
#1886=CARTESIAN_POINT('',(0.,20.,0.));
#1887=CARTESIAN_POINT('',(0.,20.,0.));
#1888=CARTESIAN_POINT('',(0.,20.,76.));
#1889=CARTESIAN_POINT('',(0.,20.,0.));
#1890=CARTESIAN_POINT('',(47.3,20.,76.));
#1891=CARTESIAN_POINT('',(0.,20.,76.));
#1892=CARTESIAN_POINT('',(52.9,20.,90.9291660852172));
#1893=CARTESIAN_POINT('Origin',(70.,20.,76.));
#1894=CARTESIAN_POINT('',(52.9,20.,76.));
#1895=CARTESIAN_POINT('',(52.9,20.,57.));
#1896=CARTESIAN_POINT('',(87.1,20.,76.));
#1897=CARTESIAN_POINT('Origin',(70.,20.,76.));
#1898=CARTESIAN_POINT('',(87.1,20.,90.9291660852172));
#1899=CARTESIAN_POINT('',(87.1,20.,70.85));
#1900=CARTESIAN_POINT('',(92.7,20.,76.));
#1901=CARTESIAN_POINT('Origin',(70.,20.,76.));
#1902=CARTESIAN_POINT('',(0.,20.,76.));
#1903=CARTESIAN_POINT('',(37.3,20.,34.5931044641087));
#1904=CARTESIAN_POINT('',(37.3,20.,62.));
#1905=CARTESIAN_POINT('',(37.3,20.,50.));
#1906=CARTESIAN_POINT('',(14.,20.,62.));
#1907=CARTESIAN_POINT('',(44.5,20.,62.));
#1908=CARTESIAN_POINT('',(14.,20.,22.7877711307754));
#1909=CARTESIAN_POINT('',(14.,20.,30.3938855653877));
#1910=CARTESIAN_POINT('',(52.9862464476793,20.,42.5408026642662));
#1911=CARTESIAN_POINT('Origin',(150.,0.,76.));
#1912=CARTESIAN_POINT('Origin',(150.,-20.,76.));
#1913=CARTESIAN_POINT('Origin',(52.9,0.,76.));
#1914=CARTESIAN_POINT('',(52.9,-20.,76.));
#1915=CARTESIAN_POINT('',(52.9,-20.,90.9291660852172));
#1916=CARTESIAN_POINT('',(52.9,-20.,57.));
#1917=CARTESIAN_POINT('',(52.9,0.,76.));
#1918=CARTESIAN_POINT('',(52.9,0.,90.9291660852172));
#1919=CARTESIAN_POINT('Origin',(87.1,0.,103.7));
#1920=CARTESIAN_POINT('',(87.1,-20.,76.));
#1921=CARTESIAN_POINT('',(87.1,0.,76.));
#1922=CARTESIAN_POINT('',(87.1,-20.,90.9291660852172));
#1923=CARTESIAN_POINT('',(87.1,-20.,70.85));
#1924=CARTESIAN_POINT('',(87.1,0.,90.9291660852172));
#1925=CARTESIAN_POINT('Origin',(70.,0.,76.));
#1926=CARTESIAN_POINT('',(92.7,-20.,76.));
#1927=CARTESIAN_POINT('Origin',(70.,-20.,76.));
#1928=CARTESIAN_POINT('',(92.7,0.,76.));
#1929=CARTESIAN_POINT('Origin',(70.,0.,76.));
#1930=CARTESIAN_POINT('',(47.3,-20.,76.));
#1931=CARTESIAN_POINT('',(47.3,0.,76.));
#1932=CARTESIAN_POINT('Origin',(70.,-20.,76.));
#1933=CARTESIAN_POINT('Origin',(70.,0.,76.));
#1934=CARTESIAN_POINT('Origin',(70.,-20.,76.));
#1935=CARTESIAN_POINT('Origin',(75.,-20.,38.));
#1936=CARTESIAN_POINT('',(0.,-20.,76.));
#1937=CARTESIAN_POINT('',(0.,-20.,76.));
#1938=CARTESIAN_POINT('',(0.,-20.,76.));
#1939=CARTESIAN_POINT('',(0.,-20.,0.));
#1940=CARTESIAN_POINT('',(0.,-20.,0.));
#1941=CARTESIAN_POINT('',(6.,-20.,0.));
#1942=CARTESIAN_POINT('',(0.,-20.,0.));
#1943=CARTESIAN_POINT('',(6.,-20.,3.04000000000001));
#1944=CARTESIAN_POINT('',(6.,-20.,0.));
#1945=CARTESIAN_POINT('',(150.,-20.,76.));
#1946=CARTESIAN_POINT('',(37.3,-20.,62.));
#1947=CARTESIAN_POINT('',(37.3,-20.,34.5931044641087));
#1948=CARTESIAN_POINT('',(37.3,-20.,50.));
#1949=CARTESIAN_POINT('',(14.,-20.,22.7877711307754));
#1950=CARTESIAN_POINT('',(52.9862464476793,-20.,42.5408026642662));
#1951=CARTESIAN_POINT('',(14.,-20.,62.));
#1952=CARTESIAN_POINT('',(14.,-20.,30.3938855653877));
#1953=CARTESIAN_POINT('',(44.5,-20.,62.));
#1954=CARTESIAN_POINT('Origin',(0.,0.,76.));
#1955=CARTESIAN_POINT('Origin',(0.,0.,76.));
#1956=CARTESIAN_POINT('',(0.,0.,76.));
#1957=CARTESIAN_POINT('Origin',(14.,0.,22.7877711307754));
#1958=CARTESIAN_POINT('',(14.,0.,62.));
#1959=CARTESIAN_POINT('',(14.,0.,22.7877711307754));
#1960=CARTESIAN_POINT('Origin',(37.3,0.,34.5931044641087));
#1961=CARTESIAN_POINT('',(37.3,0.,34.5931044641087));
#1962=CARTESIAN_POINT('Origin',(37.3,0.,62.));
#1963=CARTESIAN_POINT('',(37.3,0.,62.));
#1964=CARTESIAN_POINT('Origin',(14.,0.,62.));
#1965=CARTESIAN_POINT('Origin',(6.,0.,76.));
#1966=CARTESIAN_POINT('',(6.,0.,3.04));
#1967=CARTESIAN_POINT('',(6.,0.,0.));
#1968=CARTESIAN_POINT('Origin',(6.,0.,0.));
#1969=CARTESIAN_POINT('',(0.,0.,0.));
#1970=CARTESIAN_POINT('Origin',(0.,0.,0.));
#1971=CARTESIAN_POINT('Origin',(150.,0.,76.));
#1972=UNCERTAINTY_MEASURE_WITH_UNIT(LENGTH_MEASURE(0.01),#1976,
'DISTANCE_ACCURACY_VALUE',
'Maximum model space distance between geometric entities at asserted c
onnectivities');
#1973=UNCERTAINTY_MEASURE_WITH_UNIT(LENGTH_MEASURE(0.01),#1976,
'DISTANCE_ACCURACY_VALUE',
'Maximum model space distance between geometric entities at asserted c
onnectivities');
#1974=(
GEOMETRIC_REPRESENTATION_CONTEXT(3)
GLOBAL_UNCERTAINTY_ASSIGNED_CONTEXT((#1972))
GLOBAL_UNIT_ASSIGNED_CONTEXT((#1976,#1978,#1979))
REPRESENTATION_CONTEXT('','3D')
);
#1975=(
GEOMETRIC_REPRESENTATION_CONTEXT(3)
GLOBAL_UNCERTAINTY_ASSIGNED_CONTEXT((#1973))
GLOBAL_UNIT_ASSIGNED_CONTEXT((#1976,#1978,#1979))
REPRESENTATION_CONTEXT('','3D')
);
#1976=(
LENGTH_UNIT()
NAMED_UNIT(*)
SI_UNIT(.MILLI.,.METRE.)
);
#1977=(
LENGTH_UNIT()
NAMED_UNIT(*)
SI_UNIT($,.METRE.)
);
#1978=(
NAMED_UNIT(*)
PLANE_ANGLE_UNIT()
SI_UNIT($,.RADIAN.)
);
#1979=(
NAMED_UNIT(*)
SI_UNIT($,.STERADIAN.)
SOLID_ANGLE_UNIT()
);
#1980=SHAPE_DEFINITION_REPRESENTATION(#1981,#1982);
#1981=PRODUCT_DEFINITION_SHAPE('',$,#1984);
#1982=SHAPE_REPRESENTATION('',(#1240),#1974);
#1983=PRODUCT_DEFINITION_CONTEXT('part definition',#1988,'design');
#1984=PRODUCT_DEFINITION('2026-09-02-15-19-19-598','(Unsaved)',#1985,#1983);
#1985=PRODUCT_DEFINITION_FORMATION('',$,#1990);
#1986=PRODUCT_RELATED_PRODUCT_CATEGORY('(Unsaved)','(Unsaved)',(#1990));
#1987=APPLICATION_PROTOCOL_DEFINITION('international standard',
'automotive_design',2009,#1988);
#1988=APPLICATION_CONTEXT(
'Core Data for Automotive Mechanical Design Process');
#1989=PRODUCT_CONTEXT('part definition',#1988,'mechanical');
#1990=PRODUCT('2026-09-02-15-19-19-598','(Unsaved)',$,(#1989));
#1991=PRESENTATION_STYLE_ASSIGNMENT((#1992));
#1992=SURFACE_STYLE_USAGE(.BOTH.,#1993);
#1993=SURFACE_SIDE_STYLE('',(#1994));
#1994=SURFACE_STYLE_FILL_AREA(#1995);
#1995=FILL_AREA_STYLE('Steel - Satin',(#1996));
#1996=FILL_AREA_STYLE_COLOUR('Steel - Satin',#1997);
#1997=COLOUR_RGB('Steel - Satin',0.627450980392157,0.627450980392157,0.627450980392157);
ENDSEC;
END-ISO-10303-21;
