ISO-10303-21;
HEADER;
/* Generated by software containing ST-Developer
 * from STEP Tools, Inc. (www.steptools.com) 
 */

FILE_DESCRIPTION(
/* description */ (''),
/* implementation_level */ '2;1');

FILE_NAME(
/* name */ 'spool_rod_bracket.step',
/* time_stamp */ '2026-09-02T15:09:45-05:00',
/* author */ (''),
/* organization */ (''),
/* preprocessor_version */ 'ST-DEVELOPER v20.1',
/* originating_system */ 'Autodesk Translation Framework v15.8.0.0',
/* authorisation */ '');

FILE_SCHEMA (('AUTOMOTIVE_DESIGN { 1 0 10303 214 3 1 1 }'));
ENDSEC;

DATA;
#10=MECHANICAL_DESIGN_GEOMETRIC_PRESENTATION_REPRESENTATION('',(#13),#1738);
#11=SHAPE_REPRESENTATION_RELATIONSHIP('SRR','None',#1745,#12);
#12=ADVANCED_BREP_SHAPE_REPRESENTATION('',(#14),#1737);
#13=STYLED_ITEM('',(#1754),#14);
#14=MANIFOLD_SOLID_BREP('spool_rod_bracket',#1086);
#15=CYLINDRICAL_SURFACE('',#1148,17.1);
#16=CYLINDRICAL_SURFACE('',#1150,22.7);
#17=CYLINDRICAL_SURFACE('',#1155,22.7);
#18=FACE_BOUND('',#134,.T.);
#19=FACE_BOUND('',#145,.T.);
#20=FACE_BOUND('',#147,.T.);
#21=FACE_BOUND('',#148,.T.);
#22=FACE_BOUND('',#149,.T.);
#23=FACE_BOUND('',#150,.T.);
#24=FACE_BOUND('',#151,.T.);
#25=FACE_BOUND('',#152,.T.);
#26=CIRCLE('',#1145,22.7);
#27=CIRCLE('',#1146,22.7);
#28=CIRCLE('',#1147,17.1);
#29=CIRCLE('',#1149,17.1);
#30=CIRCLE('',#1151,22.7);
#31=CIRCLE('',#1156,22.7);
#32=FACE_OUTER_BOUND('',#89,.T.);
#33=FACE_OUTER_BOUND('',#90,.T.);
#34=FACE_OUTER_BOUND('',#91,.T.);
#35=FACE_OUTER_BOUND('',#92,.T.);
#36=FACE_OUTER_BOUND('',#93,.T.);
#37=FACE_OUTER_BOUND('',#94,.T.);
#38=FACE_OUTER_BOUND('',#95,.T.);
#39=FACE_OUTER_BOUND('',#96,.T.);
#40=FACE_OUTER_BOUND('',#97,.T.);
#41=FACE_OUTER_BOUND('',#98,.T.);
#42=FACE_OUTER_BOUND('',#99,.T.);
#43=FACE_OUTER_BOUND('',#100,.T.);
#44=FACE_OUTER_BOUND('',#101,.T.);
#45=FACE_OUTER_BOUND('',#102,.T.);
#46=FACE_OUTER_BOUND('',#103,.T.);
#47=FACE_OUTER_BOUND('',#104,.T.);
#48=FACE_OUTER_BOUND('',#105,.T.);
#49=FACE_OUTER_BOUND('',#106,.T.);
#50=FACE_OUTER_BOUND('',#107,.T.);
#51=FACE_OUTER_BOUND('',#108,.T.);
#52=FACE_OUTER_BOUND('',#109,.T.);
#53=FACE_OUTER_BOUND('',#110,.T.);
#54=FACE_OUTER_BOUND('',#111,.T.);
#55=FACE_OUTER_BOUND('',#112,.T.);
#56=FACE_OUTER_BOUND('',#113,.T.);
#57=FACE_OUTER_BOUND('',#114,.T.);
#58=FACE_OUTER_BOUND('',#115,.T.);
#59=FACE_OUTER_BOUND('',#116,.T.);
#60=FACE_OUTER_BOUND('',#117,.T.);
#61=FACE_OUTER_BOUND('',#118,.T.);
#62=FACE_OUTER_BOUND('',#119,.T.);
#63=FACE_OUTER_BOUND('',#120,.T.);
#64=FACE_OUTER_BOUND('',#121,.T.);
#65=FACE_OUTER_BOUND('',#122,.T.);
#66=FACE_OUTER_BOUND('',#123,.T.);
#67=FACE_OUTER_BOUND('',#124,.T.);
#68=FACE_OUTER_BOUND('',#125,.T.);
#69=FACE_OUTER_BOUND('',#126,.T.);
#70=FACE_OUTER_BOUND('',#127,.T.);
#71=FACE_OUTER_BOUND('',#128,.T.);
#72=FACE_OUTER_BOUND('',#129,.T.);
#73=FACE_OUTER_BOUND('',#130,.T.);
#74=FACE_OUTER_BOUND('',#131,.T.);
#75=FACE_OUTER_BOUND('',#132,.T.);
#76=FACE_OUTER_BOUND('',#133,.T.);
#77=FACE_OUTER_BOUND('',#135,.T.);
#78=FACE_OUTER_BOUND('',#136,.T.);
#79=FACE_OUTER_BOUND('',#137,.T.);
#80=FACE_OUTER_BOUND('',#138,.T.);
#81=FACE_OUTER_BOUND('',#139,.T.);
#82=FACE_OUTER_BOUND('',#140,.T.);
#83=FACE_OUTER_BOUND('',#141,.T.);
#84=FACE_OUTER_BOUND('',#142,.T.);
#85=FACE_OUTER_BOUND('',#143,.T.);
#86=FACE_OUTER_BOUND('',#144,.T.);
#87=FACE_OUTER_BOUND('',#146,.T.);
#88=FACE_OUTER_BOUND('',#153,.T.);
#89=EDGE_LOOP('',(#681,#682,#683,#684,#685,#686));
#90=EDGE_LOOP('',(#687,#688,#689,#690,#691,#692));
#91=EDGE_LOOP('',(#693,#694,#695,#696,#697,#698));
#92=EDGE_LOOP('',(#699,#700,#701,#702,#703,#704));
#93=EDGE_LOOP('',(#705,#706,#707,#708,#709,#710));
#94=EDGE_LOOP('',(#711,#712,#713,#714,#715,#716));
#95=EDGE_LOOP('',(#717,#718,#719,#720));
#96=EDGE_LOOP('',(#721,#722,#723,#724));
#97=EDGE_LOOP('',(#725,#726,#727,#728));
#98=EDGE_LOOP('',(#729,#730,#731,#732));
#99=EDGE_LOOP('',(#733,#734,#735,#736));
#100=EDGE_LOOP('',(#737,#738,#739,#740));
#101=EDGE_LOOP('',(#741,#742,#743,#744));
#102=EDGE_LOOP('',(#745,#746,#747,#748));
#103=EDGE_LOOP('',(#749,#750,#751,#752));
#104=EDGE_LOOP('',(#753,#754,#755,#756));
#105=EDGE_LOOP('',(#757,#758,#759,#760));
#106=EDGE_LOOP('',(#761,#762,#763,#764));
#107=EDGE_LOOP('',(#765,#766,#767,#768));
#108=EDGE_LOOP('',(#769,#770,#771,#772));
#109=EDGE_LOOP('',(#773,#774,#775,#776));
#110=EDGE_LOOP('',(#777,#778,#779,#780));
#111=EDGE_LOOP('',(#781,#782,#783,#784));
#112=EDGE_LOOP('',(#785,#786,#787,#788));
#113=EDGE_LOOP('',(#789,#790,#791,#792));
#114=EDGE_LOOP('',(#793,#794,#795,#796));
#115=EDGE_LOOP('',(#797,#798,#799,#800));
#116=EDGE_LOOP('',(#801,#802,#803,#804));
#117=EDGE_LOOP('',(#805,#806,#807,#808));
#118=EDGE_LOOP('',(#809,#810,#811,#812));
#119=EDGE_LOOP('',(#813,#814,#815,#816));
#120=EDGE_LOOP('',(#817,#818,#819,#820));
#121=EDGE_LOOP('',(#821,#822,#823,#824));
#122=EDGE_LOOP('',(#825,#826,#827,#828));
#123=EDGE_LOOP('',(#829,#830,#831,#832));
#124=EDGE_LOOP('',(#833,#834,#835,#836));
#125=EDGE_LOOP('',(#837,#838,#839,#840,#841,#842));
#126=EDGE_LOOP('',(#843,#844,#845,#846,#847,#848));
#127=EDGE_LOOP('',(#849,#850,#851,#852,#853,#854));
#128=EDGE_LOOP('',(#855,#856,#857,#858,#859,#860));
#129=EDGE_LOOP('',(#861,#862,#863,#864,#865,#866));
#130=EDGE_LOOP('',(#867,#868,#869,#870,#871,#872));
#131=EDGE_LOOP('',(#873,#874,#875,#876));
#132=EDGE_LOOP('',(#877,#878,#879,#880));
#133=EDGE_LOOP('',(#881,#882,#883,#884,#885,#886,#887,#888,#889,#890));
#134=EDGE_LOOP('',(#891,#892,#893));
#135=EDGE_LOOP('',(#894,#895,#896,#897));
#136=EDGE_LOOP('',(#898,#899,#900,#901));
#137=EDGE_LOOP('',(#902,#903,#904,#905));
#138=EDGE_LOOP('',(#906,#907,#908,#909));
#139=EDGE_LOOP('',(#910,#911,#912,#913));
#140=EDGE_LOOP('',(#914,#915,#916,#917));
#141=EDGE_LOOP('',(#918,#919,#920,#921));
#142=EDGE_LOOP('',(#922,#923,#924,#925));
#143=EDGE_LOOP('',(#926,#927,#928,#929));
#144=EDGE_LOOP('',(#930,#931,#932,#933,#934,#935,#936,#937,#938,#939));
#145=EDGE_LOOP('',(#940,#941,#942));
#146=EDGE_LOOP('',(#943,#944,#945,#946));
#147=EDGE_LOOP('',(#947,#948,#949,#950));
#148=EDGE_LOOP('',(#951,#952,#953,#954));
#149=EDGE_LOOP('',(#955,#956,#957,#958));
#150=EDGE_LOOP('',(#959,#960,#961,#962));
#151=EDGE_LOOP('',(#963,#964,#965,#966));
#152=EDGE_LOOP('',(#967,#968,#969,#970));
#153=EDGE_LOOP('',(#971,#972,#973,#974));
#154=LINE('',#1436,#295);
#155=LINE('',#1438,#296);
#156=LINE('',#1440,#297);
#157=LINE('',#1442,#298);
#158=LINE('',#1444,#299);
#159=LINE('',#1445,#300);
#160=LINE('',#1449,#301);
#161=LINE('',#1451,#302);
#162=LINE('',#1453,#303);
#163=LINE('',#1455,#304);
#164=LINE('',#1457,#305);
#165=LINE('',#1458,#306);
#166=LINE('',#1462,#307);
#167=LINE('',#1464,#308);
#168=LINE('',#1466,#309);
#169=LINE('',#1468,#310);
#170=LINE('',#1470,#311);
#171=LINE('',#1471,#312);
#172=LINE('',#1475,#313);
#173=LINE('',#1477,#314);
#174=LINE('',#1479,#315);
#175=LINE('',#1481,#316);
#176=LINE('',#1483,#317);
#177=LINE('',#1484,#318);
#178=LINE('',#1488,#319);
#179=LINE('',#1490,#320);
#180=LINE('',#1492,#321);
#181=LINE('',#1494,#322);
#182=LINE('',#1496,#323);
#183=LINE('',#1497,#324);
#184=LINE('',#1501,#325);
#185=LINE('',#1503,#326);
#186=LINE('',#1505,#327);
#187=LINE('',#1507,#328);
#188=LINE('',#1509,#329);
#189=LINE('',#1510,#330);
#190=LINE('',#1513,#331);
#191=LINE('',#1515,#332);
#192=LINE('',#1516,#333);
#193=LINE('',#1519,#334);
#194=LINE('',#1521,#335);
#195=LINE('',#1522,#336);
#196=LINE('',#1525,#337);
#197=LINE('',#1526,#338);
#198=LINE('',#1529,#339);
#199=LINE('',#1530,#340);
#200=LINE('',#1533,#341);
#201=LINE('',#1534,#342);
#202=LINE('',#1537,#343);
#203=LINE('',#1538,#344);
#204=LINE('',#1541,#345);
#205=LINE('',#1542,#346);
#206=LINE('',#1545,#347);
#207=LINE('',#1546,#348);
#208=LINE('',#1549,#349);
#209=LINE('',#1550,#350);
#210=LINE('',#1553,#351);
#211=LINE('',#1554,#352);
#212=LINE('',#1557,#353);
#213=LINE('',#1559,#354);
#214=LINE('',#1560,#355);
#215=LINE('',#1563,#356);
#216=LINE('',#1565,#357);
#217=LINE('',#1566,#358);
#218=LINE('',#1569,#359);
#219=LINE('',#1570,#360);
#220=LINE('',#1573,#361);
#221=LINE('',#1574,#362);
#222=LINE('',#1577,#363);
#223=LINE('',#1578,#364);
#224=LINE('',#1581,#365);
#225=LINE('',#1582,#366);
#226=LINE('',#1585,#367);
#227=LINE('',#1586,#368);
#228=LINE('',#1589,#369);
#229=LINE('',#1590,#370);
#230=LINE('',#1593,#371);
#231=LINE('',#1594,#372);
#232=LINE('',#1597,#373);
#233=LINE('',#1598,#374);
#234=LINE('',#1601,#375);
#235=LINE('',#1603,#376);
#236=LINE('',#1604,#377);
#237=LINE('',#1607,#378);
#238=LINE('',#1609,#379);
#239=LINE('',#1610,#380);
#240=LINE('',#1613,#381);
#241=LINE('',#1614,#382);
#242=LINE('',#1617,#383);
#243=LINE('',#1618,#384);
#244=LINE('',#1621,#385);
#245=LINE('',#1622,#386);
#246=LINE('',#1625,#387);
#247=LINE('',#1626,#388);
#248=LINE('',#1629,#389);
#249=LINE('',#1630,#390);
#250=LINE('',#1633,#391);
#251=LINE('',#1634,#392);
#252=LINE('',#1637,#393);
#253=LINE('',#1638,#394);
#254=LINE('',#1641,#395);
#255=LINE('',#1642,#396);
#256=LINE('',#1644,#397);
#257=LINE('',#1646,#398);
#258=LINE('',#1648,#399);
#259=LINE('',#1650,#400);
#260=LINE('',#1652,#401);
#261=LINE('',#1654,#402);
#262=LINE('',#1658,#403);
#263=LINE('',#1660,#404);
#264=LINE('',#1662,#405);
#265=LINE('',#1663,#406);
#266=LINE('',#1667,#407);
#267=LINE('',#1669,#408);
#268=LINE('',#1671,#409);
#269=LINE('',#1672,#410);
#270=LINE('',#1677,#411);
#271=LINE('',#1679,#412);
#272=LINE('',#1681,#413);
#273=LINE('',#1683,#414);
#274=LINE('',#1685,#415);
#275=LINE('',#1690,#416);
#276=LINE('',#1692,#417);
#277=LINE('',#1693,#418);
#278=LINE('',#1698,#419);
#279=LINE('',#1702,#420);
#280=LINE('',#1704,#421);
#281=LINE('',#1705,#422);
#282=LINE('',#1708,#423);
#283=LINE('',#1709,#424);
#284=LINE('',#1711,#425);
#285=LINE('',#1715,#426);
#286=LINE('',#1718,#427);
#287=LINE('',#1719,#428);
#288=LINE('',#1722,#429);
#289=LINE('',#1724,#430);
#290=LINE('',#1725,#431);
#291=LINE('',#1728,#432);
#292=LINE('',#1729,#433);
#293=LINE('',#1731,#434);
#294=LINE('',#1732,#435);
#295=VECTOR('',#1167,10.);
#296=VECTOR('',#1168,10.);
#297=VECTOR('',#1169,10.);
#298=VECTOR('',#1170,10.);
#299=VECTOR('',#1171,10.);
#300=VECTOR('',#1172,10.);
#301=VECTOR('',#1175,10.);
#302=VECTOR('',#1176,10.);
#303=VECTOR('',#1177,10.);
#304=VECTOR('',#1178,10.);
#305=VECTOR('',#1179,10.);
#306=VECTOR('',#1180,10.);
#307=VECTOR('',#1183,10.);
#308=VECTOR('',#1184,10.);
#309=VECTOR('',#1185,10.);
#310=VECTOR('',#1186,10.);
#311=VECTOR('',#1187,10.);
#312=VECTOR('',#1188,10.);
#313=VECTOR('',#1191,10.);
#314=VECTOR('',#1192,10.);
#315=VECTOR('',#1193,10.);
#316=VECTOR('',#1194,10.);
#317=VECTOR('',#1195,10.);
#318=VECTOR('',#1196,10.);
#319=VECTOR('',#1199,10.);
#320=VECTOR('',#1200,10.);
#321=VECTOR('',#1201,10.);
#322=VECTOR('',#1202,10.);
#323=VECTOR('',#1203,10.);
#324=VECTOR('',#1204,10.);
#325=VECTOR('',#1207,10.);
#326=VECTOR('',#1208,10.);
#327=VECTOR('',#1209,10.);
#328=VECTOR('',#1210,10.);
#329=VECTOR('',#1211,10.);
#330=VECTOR('',#1212,10.);
#331=VECTOR('',#1215,10.);
#332=VECTOR('',#1216,10.);
#333=VECTOR('',#1217,10.);
#334=VECTOR('',#1220,10.);
#335=VECTOR('',#1221,10.);
#336=VECTOR('',#1222,10.);
#337=VECTOR('',#1225,10.);
#338=VECTOR('',#1226,10.);
#339=VECTOR('',#1229,10.);
#340=VECTOR('',#1230,10.);
#341=VECTOR('',#1233,10.);
#342=VECTOR('',#1234,10.);
#343=VECTOR('',#1237,10.);
#344=VECTOR('',#1238,10.);
#345=VECTOR('',#1241,10.);
#346=VECTOR('',#1242,10.);
#347=VECTOR('',#1245,10.);
#348=VECTOR('',#1246,10.);
#349=VECTOR('',#1249,10.);
#350=VECTOR('',#1250,10.);
#351=VECTOR('',#1253,10.);
#352=VECTOR('',#1254,10.);
#353=VECTOR('',#1257,10.);
#354=VECTOR('',#1258,10.);
#355=VECTOR('',#1259,10.);
#356=VECTOR('',#1262,10.);
#357=VECTOR('',#1263,10.);
#358=VECTOR('',#1264,10.);
#359=VECTOR('',#1267,10.);
#360=VECTOR('',#1268,10.);
#361=VECTOR('',#1271,10.);
#362=VECTOR('',#1272,10.);
#363=VECTOR('',#1275,10.);
#364=VECTOR('',#1276,10.);
#365=VECTOR('',#1279,10.);
#366=VECTOR('',#1280,10.);
#367=VECTOR('',#1283,10.);
#368=VECTOR('',#1284,10.);
#369=VECTOR('',#1287,10.);
#370=VECTOR('',#1288,10.);
#371=VECTOR('',#1291,10.);
#372=VECTOR('',#1292,10.);
#373=VECTOR('',#1295,10.);
#374=VECTOR('',#1296,10.);
#375=VECTOR('',#1299,10.);
#376=VECTOR('',#1300,10.);
#377=VECTOR('',#1301,10.);
#378=VECTOR('',#1304,10.);
#379=VECTOR('',#1305,10.);
#380=VECTOR('',#1306,10.);
#381=VECTOR('',#1309,10.);
#382=VECTOR('',#1310,10.);
#383=VECTOR('',#1313,10.);
#384=VECTOR('',#1314,10.);
#385=VECTOR('',#1317,10.);
#386=VECTOR('',#1318,10.);
#387=VECTOR('',#1321,10.);
#388=VECTOR('',#1322,10.);
#389=VECTOR('',#1325,10.);
#390=VECTOR('',#1326,10.);
#391=VECTOR('',#1329,10.);
#392=VECTOR('',#1330,10.);
#393=VECTOR('',#1333,10.);
#394=VECTOR('',#1334,10.);
#395=VECTOR('',#1337,10.);
#396=VECTOR('',#1338,10.);
#397=VECTOR('',#1341,10.);
#398=VECTOR('',#1344,10.);
#399=VECTOR('',#1347,10.);
#400=VECTOR('',#1350,10.);
#401=VECTOR('',#1353,10.);
#402=VECTOR('',#1356,10.);
#403=VECTOR('',#1359,10.);
#404=VECTOR('',#1360,10.);
#405=VECTOR('',#1361,10.);
#406=VECTOR('',#1362,10.);
#407=VECTOR('',#1365,10.);
#408=VECTOR('',#1366,10.);
#409=VECTOR('',#1367,10.);
#410=VECTOR('',#1368,10.);
#411=VECTOR('',#1373,10.);
#412=VECTOR('',#1374,10.);
#413=VECTOR('',#1375,10.);
#414=VECTOR('',#1376,10.);
#415=VECTOR('',#1377,10.);
#416=VECTOR('',#1382,10.);
#417=VECTOR('',#1383,10.);
#418=VECTOR('',#1384,10.);
#419=VECTOR('',#1391,10.);
#420=VECTOR('',#1396,10.);
#421=VECTOR('',#1397,10.);
#422=VECTOR('',#1398,10.);
#423=VECTOR('',#1401,10.);
#424=VECTOR('',#1402,10.);
#425=VECTOR('',#1405,10.);
#426=VECTOR('',#1410,10.);
#427=VECTOR('',#1413,10.);
#428=VECTOR('',#1414,10.);
#429=VECTOR('',#1417,10.);
#430=VECTOR('',#1418,10.);
#431=VECTOR('',#1419,10.);
#432=VECTOR('',#1422,10.);
#433=VECTOR('',#1423,10.);
#434=VECTOR('',#1426,10.);
#435=VECTOR('',#1427,10.);
#436=VERTEX_POINT('',#1434);
#437=VERTEX_POINT('',#1435);
#438=VERTEX_POINT('',#1437);
#439=VERTEX_POINT('',#1439);
#440=VERTEX_POINT('',#1441);
#441=VERTEX_POINT('',#1443);
#442=VERTEX_POINT('',#1447);
#443=VERTEX_POINT('',#1448);
#444=VERTEX_POINT('',#1450);
#445=VERTEX_POINT('',#1452);
#446=VERTEX_POINT('',#1454);
#447=VERTEX_POINT('',#1456);
#448=VERTEX_POINT('',#1460);
#449=VERTEX_POINT('',#1461);
#450=VERTEX_POINT('',#1463);
#451=VERTEX_POINT('',#1465);
#452=VERTEX_POINT('',#1467);
#453=VERTEX_POINT('',#1469);
#454=VERTEX_POINT('',#1473);
#455=VERTEX_POINT('',#1474);
#456=VERTEX_POINT('',#1476);
#457=VERTEX_POINT('',#1478);
#458=VERTEX_POINT('',#1480);
#459=VERTEX_POINT('',#1482);
#460=VERTEX_POINT('',#1486);
#461=VERTEX_POINT('',#1487);
#462=VERTEX_POINT('',#1489);
#463=VERTEX_POINT('',#1491);
#464=VERTEX_POINT('',#1493);
#465=VERTEX_POINT('',#1495);
#466=VERTEX_POINT('',#1499);
#467=VERTEX_POINT('',#1500);
#468=VERTEX_POINT('',#1502);
#469=VERTEX_POINT('',#1504);
#470=VERTEX_POINT('',#1506);
#471=VERTEX_POINT('',#1508);
#472=VERTEX_POINT('',#1512);
#473=VERTEX_POINT('',#1514);
#474=VERTEX_POINT('',#1518);
#475=VERTEX_POINT('',#1520);
#476=VERTEX_POINT('',#1524);
#477=VERTEX_POINT('',#1528);
#478=VERTEX_POINT('',#1532);
#479=VERTEX_POINT('',#1536);
#480=VERTEX_POINT('',#1540);
#481=VERTEX_POINT('',#1544);
#482=VERTEX_POINT('',#1548);
#483=VERTEX_POINT('',#1552);
#484=VERTEX_POINT('',#1556);
#485=VERTEX_POINT('',#1558);
#486=VERTEX_POINT('',#1562);
#487=VERTEX_POINT('',#1564);
#488=VERTEX_POINT('',#1568);
#489=VERTEX_POINT('',#1572);
#490=VERTEX_POINT('',#1576);
#491=VERTEX_POINT('',#1580);
#492=VERTEX_POINT('',#1584);
#493=VERTEX_POINT('',#1588);
#494=VERTEX_POINT('',#1592);
#495=VERTEX_POINT('',#1596);
#496=VERTEX_POINT('',#1600);
#497=VERTEX_POINT('',#1602);
#498=VERTEX_POINT('',#1606);
#499=VERTEX_POINT('',#1608);
#500=VERTEX_POINT('',#1612);
#501=VERTEX_POINT('',#1616);
#502=VERTEX_POINT('',#1620);
#503=VERTEX_POINT('',#1624);
#504=VERTEX_POINT('',#1628);
#505=VERTEX_POINT('',#1632);
#506=VERTEX_POINT('',#1636);
#507=VERTEX_POINT('',#1640);
#508=VERTEX_POINT('',#1656);
#509=VERTEX_POINT('',#1657);
#510=VERTEX_POINT('',#1659);
#511=VERTEX_POINT('',#1661);
#512=VERTEX_POINT('',#1665);
#513=VERTEX_POINT('',#1666);
#514=VERTEX_POINT('',#1668);
#515=VERTEX_POINT('',#1670);
#516=VERTEX_POINT('',#1674);
#517=VERTEX_POINT('',#1676);
#518=VERTEX_POINT('',#1678);
#519=VERTEX_POINT('',#1680);
#520=VERTEX_POINT('',#1682);
#521=VERTEX_POINT('',#1684);
#522=VERTEX_POINT('',#1688);
#523=VERTEX_POINT('',#1689);
#524=VERTEX_POINT('',#1691);
#525=VERTEX_POINT('',#1697);
#526=VERTEX_POINT('',#1701);
#527=VERTEX_POINT('',#1703);
#528=VERTEX_POINT('',#1707);
#529=VERTEX_POINT('',#1713);
#530=VERTEX_POINT('',#1717);
#531=VERTEX_POINT('',#1721);
#532=VERTEX_POINT('',#1723);
#533=VERTEX_POINT('',#1727);
#534=EDGE_CURVE('',#436,#437,#154,.T.);
#535=EDGE_CURVE('',#438,#436,#155,.T.);
#536=EDGE_CURVE('',#439,#438,#156,.T.);
#537=EDGE_CURVE('',#440,#439,#157,.T.);
#538=EDGE_CURVE('',#441,#440,#158,.T.);
#539=EDGE_CURVE('',#437,#441,#159,.T.);
#540=EDGE_CURVE('',#442,#443,#160,.T.);
#541=EDGE_CURVE('',#444,#442,#161,.T.);
#542=EDGE_CURVE('',#445,#444,#162,.T.);
#543=EDGE_CURVE('',#446,#445,#163,.T.);
#544=EDGE_CURVE('',#447,#446,#164,.T.);
#545=EDGE_CURVE('',#443,#447,#165,.T.);
#546=EDGE_CURVE('',#448,#449,#166,.T.);
#547=EDGE_CURVE('',#450,#448,#167,.T.);
#548=EDGE_CURVE('',#451,#450,#168,.T.);
#549=EDGE_CURVE('',#452,#451,#169,.T.);
#550=EDGE_CURVE('',#453,#452,#170,.T.);
#551=EDGE_CURVE('',#449,#453,#171,.T.);
#552=EDGE_CURVE('',#454,#455,#172,.T.);
#553=EDGE_CURVE('',#456,#454,#173,.T.);
#554=EDGE_CURVE('',#457,#456,#174,.T.);
#555=EDGE_CURVE('',#458,#457,#175,.T.);
#556=EDGE_CURVE('',#459,#458,#176,.T.);
#557=EDGE_CURVE('',#455,#459,#177,.T.);
#558=EDGE_CURVE('',#460,#461,#178,.T.);
#559=EDGE_CURVE('',#462,#460,#179,.T.);
#560=EDGE_CURVE('',#463,#462,#180,.T.);
#561=EDGE_CURVE('',#464,#463,#181,.T.);
#562=EDGE_CURVE('',#465,#464,#182,.T.);
#563=EDGE_CURVE('',#461,#465,#183,.T.);
#564=EDGE_CURVE('',#466,#467,#184,.T.);
#565=EDGE_CURVE('',#468,#466,#185,.T.);
#566=EDGE_CURVE('',#469,#468,#186,.T.);
#567=EDGE_CURVE('',#470,#469,#187,.T.);
#568=EDGE_CURVE('',#471,#470,#188,.T.);
#569=EDGE_CURVE('',#467,#471,#189,.T.);
#570=EDGE_CURVE('',#472,#437,#190,.T.);
#571=EDGE_CURVE('',#473,#472,#191,.T.);
#572=EDGE_CURVE('',#473,#436,#192,.T.);
#573=EDGE_CURVE('',#443,#474,#193,.T.);
#574=EDGE_CURVE('',#475,#474,#194,.T.);
#575=EDGE_CURVE('',#442,#475,#195,.T.);
#576=EDGE_CURVE('',#476,#473,#196,.T.);
#577=EDGE_CURVE('',#476,#438,#197,.T.);
#578=EDGE_CURVE('',#447,#477,#198,.T.);
#579=EDGE_CURVE('',#474,#477,#199,.T.);
#580=EDGE_CURVE('',#478,#476,#200,.T.);
#581=EDGE_CURVE('',#478,#439,#201,.T.);
#582=EDGE_CURVE('',#446,#479,#202,.T.);
#583=EDGE_CURVE('',#477,#479,#203,.T.);
#584=EDGE_CURVE('',#480,#478,#204,.T.);
#585=EDGE_CURVE('',#480,#440,#205,.T.);
#586=EDGE_CURVE('',#445,#481,#206,.T.);
#587=EDGE_CURVE('',#479,#481,#207,.T.);
#588=EDGE_CURVE('',#482,#480,#208,.T.);
#589=EDGE_CURVE('',#441,#482,#209,.T.);
#590=EDGE_CURVE('',#483,#444,#210,.T.);
#591=EDGE_CURVE('',#481,#483,#211,.T.);
#592=EDGE_CURVE('',#484,#449,#212,.T.);
#593=EDGE_CURVE('',#485,#484,#213,.T.);
#594=EDGE_CURVE('',#485,#448,#214,.T.);
#595=EDGE_CURVE('',#455,#486,#215,.T.);
#596=EDGE_CURVE('',#487,#486,#216,.T.);
#597=EDGE_CURVE('',#454,#487,#217,.T.);
#598=EDGE_CURVE('',#488,#485,#218,.T.);
#599=EDGE_CURVE('',#488,#450,#219,.T.);
#600=EDGE_CURVE('',#459,#489,#220,.T.);
#601=EDGE_CURVE('',#486,#489,#221,.T.);
#602=EDGE_CURVE('',#490,#488,#222,.T.);
#603=EDGE_CURVE('',#490,#451,#223,.T.);
#604=EDGE_CURVE('',#458,#491,#224,.T.);
#605=EDGE_CURVE('',#489,#491,#225,.T.);
#606=EDGE_CURVE('',#492,#490,#226,.T.);
#607=EDGE_CURVE('',#492,#452,#227,.T.);
#608=EDGE_CURVE('',#457,#493,#228,.T.);
#609=EDGE_CURVE('',#491,#493,#229,.T.);
#610=EDGE_CURVE('',#494,#492,#230,.T.);
#611=EDGE_CURVE('',#453,#494,#231,.T.);
#612=EDGE_CURVE('',#495,#456,#232,.T.);
#613=EDGE_CURVE('',#493,#495,#233,.T.);
#614=EDGE_CURVE('',#496,#461,#234,.T.);
#615=EDGE_CURVE('',#497,#496,#235,.T.);
#616=EDGE_CURVE('',#497,#460,#236,.T.);
#617=EDGE_CURVE('',#467,#498,#237,.T.);
#618=EDGE_CURVE('',#499,#498,#238,.T.);
#619=EDGE_CURVE('',#466,#499,#239,.T.);
#620=EDGE_CURVE('',#500,#497,#240,.T.);
#621=EDGE_CURVE('',#500,#462,#241,.T.);
#622=EDGE_CURVE('',#471,#501,#242,.T.);
#623=EDGE_CURVE('',#498,#501,#243,.T.);
#624=EDGE_CURVE('',#502,#500,#244,.T.);
#625=EDGE_CURVE('',#502,#463,#245,.T.);
#626=EDGE_CURVE('',#470,#503,#246,.T.);
#627=EDGE_CURVE('',#501,#503,#247,.T.);
#628=EDGE_CURVE('',#504,#502,#248,.T.);
#629=EDGE_CURVE('',#504,#464,#249,.T.);
#630=EDGE_CURVE('',#469,#505,#250,.T.);
#631=EDGE_CURVE('',#503,#505,#251,.T.);
#632=EDGE_CURVE('',#506,#504,#252,.T.);
#633=EDGE_CURVE('',#465,#506,#253,.T.);
#634=EDGE_CURVE('',#507,#468,#254,.T.);
#635=EDGE_CURVE('',#505,#507,#255,.T.);
#636=EDGE_CURVE('',#506,#496,#256,.T.);
#637=EDGE_CURVE('',#499,#507,#257,.T.);
#638=EDGE_CURVE('',#494,#484,#258,.T.);
#639=EDGE_CURVE('',#487,#495,#259,.T.);
#640=EDGE_CURVE('',#482,#472,#260,.T.);
#641=EDGE_CURVE('',#475,#483,#261,.T.);
#642=EDGE_CURVE('',#508,#509,#262,.T.);
#643=EDGE_CURVE('',#510,#508,#263,.T.);
#644=EDGE_CURVE('',#511,#510,#264,.T.);
#645=EDGE_CURVE('',#509,#511,#265,.T.);
#646=EDGE_CURVE('',#512,#513,#266,.T.);
#647=EDGE_CURVE('',#514,#512,#267,.T.);
#648=EDGE_CURVE('',#515,#514,#268,.T.);
#649=EDGE_CURVE('',#513,#515,#269,.T.);
#650=EDGE_CURVE('',#510,#516,#26,.T.);
#651=EDGE_CURVE('',#516,#517,#270,.T.);
#652=EDGE_CURVE('',#517,#518,#271,.T.);
#653=EDGE_CURVE('',#518,#519,#272,.T.);
#654=EDGE_CURVE('',#519,#520,#273,.T.);
#655=EDGE_CURVE('',#520,#521,#274,.T.);
#656=EDGE_CURVE('',#521,#512,#27,.T.);
#657=EDGE_CURVE('',#513,#511,#28,.T.);
#658=EDGE_CURVE('',#522,#523,#275,.T.);
#659=EDGE_CURVE('',#523,#524,#276,.T.);
#660=EDGE_CURVE('',#524,#522,#277,.T.);
#661=EDGE_CURVE('',#509,#515,#29,.T.);
#662=EDGE_CURVE('',#525,#521,#278,.T.);
#663=EDGE_CURVE('',#514,#525,#30,.T.);
#664=EDGE_CURVE('',#524,#526,#279,.T.);
#665=EDGE_CURVE('',#527,#526,#280,.T.);
#666=EDGE_CURVE('',#522,#527,#281,.T.);
#667=EDGE_CURVE('',#528,#527,#282,.T.);
#668=EDGE_CURVE('',#528,#523,#283,.T.);
#669=EDGE_CURVE('',#526,#528,#284,.T.);
#670=EDGE_CURVE('',#529,#508,#31,.T.);
#671=EDGE_CURVE('',#516,#529,#285,.T.);
#672=EDGE_CURVE('',#530,#529,#286,.T.);
#673=EDGE_CURVE('',#517,#530,#287,.T.);
#674=EDGE_CURVE('',#520,#531,#288,.T.);
#675=EDGE_CURVE('',#519,#532,#289,.T.);
#676=EDGE_CURVE('',#531,#532,#290,.T.);
#677=EDGE_CURVE('',#518,#533,#291,.T.);
#678=EDGE_CURVE('',#532,#533,#292,.T.);
#679=EDGE_CURVE('',#525,#531,#293,.T.);
#680=EDGE_CURVE('',#533,#530,#294,.T.);
#681=ORIENTED_EDGE('',*,*,#534,.F.);
#682=ORIENTED_EDGE('',*,*,#535,.F.);
#683=ORIENTED_EDGE('',*,*,#536,.F.);
#684=ORIENTED_EDGE('',*,*,#537,.F.);
#685=ORIENTED_EDGE('',*,*,#538,.F.);
#686=ORIENTED_EDGE('',*,*,#539,.F.);
#687=ORIENTED_EDGE('',*,*,#540,.F.);
#688=ORIENTED_EDGE('',*,*,#541,.F.);
#689=ORIENTED_EDGE('',*,*,#542,.F.);
#690=ORIENTED_EDGE('',*,*,#543,.F.);
#691=ORIENTED_EDGE('',*,*,#544,.F.);
#692=ORIENTED_EDGE('',*,*,#545,.F.);
#693=ORIENTED_EDGE('',*,*,#546,.F.);
#694=ORIENTED_EDGE('',*,*,#547,.F.);
#695=ORIENTED_EDGE('',*,*,#548,.F.);
#696=ORIENTED_EDGE('',*,*,#549,.F.);
#697=ORIENTED_EDGE('',*,*,#550,.F.);
#698=ORIENTED_EDGE('',*,*,#551,.F.);
#699=ORIENTED_EDGE('',*,*,#552,.F.);
#700=ORIENTED_EDGE('',*,*,#553,.F.);
#701=ORIENTED_EDGE('',*,*,#554,.F.);
#702=ORIENTED_EDGE('',*,*,#555,.F.);
#703=ORIENTED_EDGE('',*,*,#556,.F.);
#704=ORIENTED_EDGE('',*,*,#557,.F.);
#705=ORIENTED_EDGE('',*,*,#558,.F.);
#706=ORIENTED_EDGE('',*,*,#559,.F.);
#707=ORIENTED_EDGE('',*,*,#560,.F.);
#708=ORIENTED_EDGE('',*,*,#561,.F.);
#709=ORIENTED_EDGE('',*,*,#562,.F.);
#710=ORIENTED_EDGE('',*,*,#563,.F.);
#711=ORIENTED_EDGE('',*,*,#564,.F.);
#712=ORIENTED_EDGE('',*,*,#565,.F.);
#713=ORIENTED_EDGE('',*,*,#566,.F.);
#714=ORIENTED_EDGE('',*,*,#567,.F.);
#715=ORIENTED_EDGE('',*,*,#568,.F.);
#716=ORIENTED_EDGE('',*,*,#569,.F.);
#717=ORIENTED_EDGE('',*,*,#534,.T.);
#718=ORIENTED_EDGE('',*,*,#570,.F.);
#719=ORIENTED_EDGE('',*,*,#571,.F.);
#720=ORIENTED_EDGE('',*,*,#572,.T.);
#721=ORIENTED_EDGE('',*,*,#540,.T.);
#722=ORIENTED_EDGE('',*,*,#573,.T.);
#723=ORIENTED_EDGE('',*,*,#574,.F.);
#724=ORIENTED_EDGE('',*,*,#575,.F.);
#725=ORIENTED_EDGE('',*,*,#535,.T.);
#726=ORIENTED_EDGE('',*,*,#572,.F.);
#727=ORIENTED_EDGE('',*,*,#576,.F.);
#728=ORIENTED_EDGE('',*,*,#577,.T.);
#729=ORIENTED_EDGE('',*,*,#545,.T.);
#730=ORIENTED_EDGE('',*,*,#578,.T.);
#731=ORIENTED_EDGE('',*,*,#579,.F.);
#732=ORIENTED_EDGE('',*,*,#573,.F.);
#733=ORIENTED_EDGE('',*,*,#536,.T.);
#734=ORIENTED_EDGE('',*,*,#577,.F.);
#735=ORIENTED_EDGE('',*,*,#580,.F.);
#736=ORIENTED_EDGE('',*,*,#581,.T.);
#737=ORIENTED_EDGE('',*,*,#544,.T.);
#738=ORIENTED_EDGE('',*,*,#582,.T.);
#739=ORIENTED_EDGE('',*,*,#583,.F.);
#740=ORIENTED_EDGE('',*,*,#578,.F.);
#741=ORIENTED_EDGE('',*,*,#537,.T.);
#742=ORIENTED_EDGE('',*,*,#581,.F.);
#743=ORIENTED_EDGE('',*,*,#584,.F.);
#744=ORIENTED_EDGE('',*,*,#585,.T.);
#745=ORIENTED_EDGE('',*,*,#543,.T.);
#746=ORIENTED_EDGE('',*,*,#586,.T.);
#747=ORIENTED_EDGE('',*,*,#587,.F.);
#748=ORIENTED_EDGE('',*,*,#582,.F.);
#749=ORIENTED_EDGE('',*,*,#538,.T.);
#750=ORIENTED_EDGE('',*,*,#585,.F.);
#751=ORIENTED_EDGE('',*,*,#588,.F.);
#752=ORIENTED_EDGE('',*,*,#589,.F.);
#753=ORIENTED_EDGE('',*,*,#542,.T.);
#754=ORIENTED_EDGE('',*,*,#590,.F.);
#755=ORIENTED_EDGE('',*,*,#591,.F.);
#756=ORIENTED_EDGE('',*,*,#586,.F.);
#757=ORIENTED_EDGE('',*,*,#546,.T.);
#758=ORIENTED_EDGE('',*,*,#592,.F.);
#759=ORIENTED_EDGE('',*,*,#593,.F.);
#760=ORIENTED_EDGE('',*,*,#594,.T.);
#761=ORIENTED_EDGE('',*,*,#552,.T.);
#762=ORIENTED_EDGE('',*,*,#595,.T.);
#763=ORIENTED_EDGE('',*,*,#596,.F.);
#764=ORIENTED_EDGE('',*,*,#597,.F.);
#765=ORIENTED_EDGE('',*,*,#547,.T.);
#766=ORIENTED_EDGE('',*,*,#594,.F.);
#767=ORIENTED_EDGE('',*,*,#598,.F.);
#768=ORIENTED_EDGE('',*,*,#599,.T.);
#769=ORIENTED_EDGE('',*,*,#557,.T.);
#770=ORIENTED_EDGE('',*,*,#600,.T.);
#771=ORIENTED_EDGE('',*,*,#601,.F.);
#772=ORIENTED_EDGE('',*,*,#595,.F.);
#773=ORIENTED_EDGE('',*,*,#548,.T.);
#774=ORIENTED_EDGE('',*,*,#599,.F.);
#775=ORIENTED_EDGE('',*,*,#602,.F.);
#776=ORIENTED_EDGE('',*,*,#603,.T.);
#777=ORIENTED_EDGE('',*,*,#556,.T.);
#778=ORIENTED_EDGE('',*,*,#604,.T.);
#779=ORIENTED_EDGE('',*,*,#605,.F.);
#780=ORIENTED_EDGE('',*,*,#600,.F.);
#781=ORIENTED_EDGE('',*,*,#549,.T.);
#782=ORIENTED_EDGE('',*,*,#603,.F.);
#783=ORIENTED_EDGE('',*,*,#606,.F.);
#784=ORIENTED_EDGE('',*,*,#607,.T.);
#785=ORIENTED_EDGE('',*,*,#555,.T.);
#786=ORIENTED_EDGE('',*,*,#608,.T.);
#787=ORIENTED_EDGE('',*,*,#609,.F.);
#788=ORIENTED_EDGE('',*,*,#604,.F.);
#789=ORIENTED_EDGE('',*,*,#550,.T.);
#790=ORIENTED_EDGE('',*,*,#607,.F.);
#791=ORIENTED_EDGE('',*,*,#610,.F.);
#792=ORIENTED_EDGE('',*,*,#611,.F.);
#793=ORIENTED_EDGE('',*,*,#554,.T.);
#794=ORIENTED_EDGE('',*,*,#612,.F.);
#795=ORIENTED_EDGE('',*,*,#613,.F.);
#796=ORIENTED_EDGE('',*,*,#608,.F.);
#797=ORIENTED_EDGE('',*,*,#558,.T.);
#798=ORIENTED_EDGE('',*,*,#614,.F.);
#799=ORIENTED_EDGE('',*,*,#615,.F.);
#800=ORIENTED_EDGE('',*,*,#616,.T.);
#801=ORIENTED_EDGE('',*,*,#564,.T.);
#802=ORIENTED_EDGE('',*,*,#617,.T.);
#803=ORIENTED_EDGE('',*,*,#618,.F.);
#804=ORIENTED_EDGE('',*,*,#619,.F.);
#805=ORIENTED_EDGE('',*,*,#559,.T.);
#806=ORIENTED_EDGE('',*,*,#616,.F.);
#807=ORIENTED_EDGE('',*,*,#620,.F.);
#808=ORIENTED_EDGE('',*,*,#621,.T.);
#809=ORIENTED_EDGE('',*,*,#569,.T.);
#810=ORIENTED_EDGE('',*,*,#622,.T.);
#811=ORIENTED_EDGE('',*,*,#623,.F.);
#812=ORIENTED_EDGE('',*,*,#617,.F.);
#813=ORIENTED_EDGE('',*,*,#560,.T.);
#814=ORIENTED_EDGE('',*,*,#621,.F.);
#815=ORIENTED_EDGE('',*,*,#624,.F.);
#816=ORIENTED_EDGE('',*,*,#625,.T.);
#817=ORIENTED_EDGE('',*,*,#568,.T.);
#818=ORIENTED_EDGE('',*,*,#626,.T.);
#819=ORIENTED_EDGE('',*,*,#627,.F.);
#820=ORIENTED_EDGE('',*,*,#622,.F.);
#821=ORIENTED_EDGE('',*,*,#561,.T.);
#822=ORIENTED_EDGE('',*,*,#625,.F.);
#823=ORIENTED_EDGE('',*,*,#628,.F.);
#824=ORIENTED_EDGE('',*,*,#629,.T.);
#825=ORIENTED_EDGE('',*,*,#567,.T.);
#826=ORIENTED_EDGE('',*,*,#630,.T.);
#827=ORIENTED_EDGE('',*,*,#631,.F.);
#828=ORIENTED_EDGE('',*,*,#626,.F.);
#829=ORIENTED_EDGE('',*,*,#562,.T.);
#830=ORIENTED_EDGE('',*,*,#629,.F.);
#831=ORIENTED_EDGE('',*,*,#632,.F.);
#832=ORIENTED_EDGE('',*,*,#633,.F.);
#833=ORIENTED_EDGE('',*,*,#566,.T.);
#834=ORIENTED_EDGE('',*,*,#634,.F.);
#835=ORIENTED_EDGE('',*,*,#635,.F.);
#836=ORIENTED_EDGE('',*,*,#630,.F.);
#837=ORIENTED_EDGE('',*,*,#615,.T.);
#838=ORIENTED_EDGE('',*,*,#636,.F.);
#839=ORIENTED_EDGE('',*,*,#632,.T.);
#840=ORIENTED_EDGE('',*,*,#628,.T.);
#841=ORIENTED_EDGE('',*,*,#624,.T.);
#842=ORIENTED_EDGE('',*,*,#620,.T.);
#843=ORIENTED_EDGE('',*,*,#618,.T.);
#844=ORIENTED_EDGE('',*,*,#623,.T.);
#845=ORIENTED_EDGE('',*,*,#627,.T.);
#846=ORIENTED_EDGE('',*,*,#631,.T.);
#847=ORIENTED_EDGE('',*,*,#635,.T.);
#848=ORIENTED_EDGE('',*,*,#637,.F.);
#849=ORIENTED_EDGE('',*,*,#593,.T.);
#850=ORIENTED_EDGE('',*,*,#638,.F.);
#851=ORIENTED_EDGE('',*,*,#610,.T.);
#852=ORIENTED_EDGE('',*,*,#606,.T.);
#853=ORIENTED_EDGE('',*,*,#602,.T.);
#854=ORIENTED_EDGE('',*,*,#598,.T.);
#855=ORIENTED_EDGE('',*,*,#596,.T.);
#856=ORIENTED_EDGE('',*,*,#601,.T.);
#857=ORIENTED_EDGE('',*,*,#605,.T.);
#858=ORIENTED_EDGE('',*,*,#609,.T.);
#859=ORIENTED_EDGE('',*,*,#613,.T.);
#860=ORIENTED_EDGE('',*,*,#639,.F.);
#861=ORIENTED_EDGE('',*,*,#571,.T.);
#862=ORIENTED_EDGE('',*,*,#640,.F.);
#863=ORIENTED_EDGE('',*,*,#588,.T.);
#864=ORIENTED_EDGE('',*,*,#584,.T.);
#865=ORIENTED_EDGE('',*,*,#580,.T.);
#866=ORIENTED_EDGE('',*,*,#576,.T.);
#867=ORIENTED_EDGE('',*,*,#574,.T.);
#868=ORIENTED_EDGE('',*,*,#579,.T.);
#869=ORIENTED_EDGE('',*,*,#583,.T.);
#870=ORIENTED_EDGE('',*,*,#587,.T.);
#871=ORIENTED_EDGE('',*,*,#591,.T.);
#872=ORIENTED_EDGE('',*,*,#641,.F.);
#873=ORIENTED_EDGE('',*,*,#642,.F.);
#874=ORIENTED_EDGE('',*,*,#643,.F.);
#875=ORIENTED_EDGE('',*,*,#644,.F.);
#876=ORIENTED_EDGE('',*,*,#645,.F.);
#877=ORIENTED_EDGE('',*,*,#646,.F.);
#878=ORIENTED_EDGE('',*,*,#647,.F.);
#879=ORIENTED_EDGE('',*,*,#648,.F.);
#880=ORIENTED_EDGE('',*,*,#649,.F.);
#881=ORIENTED_EDGE('',*,*,#644,.T.);
#882=ORIENTED_EDGE('',*,*,#650,.T.);
#883=ORIENTED_EDGE('',*,*,#651,.T.);
#884=ORIENTED_EDGE('',*,*,#652,.T.);
#885=ORIENTED_EDGE('',*,*,#653,.T.);
#886=ORIENTED_EDGE('',*,*,#654,.T.);
#887=ORIENTED_EDGE('',*,*,#655,.T.);
#888=ORIENTED_EDGE('',*,*,#656,.T.);
#889=ORIENTED_EDGE('',*,*,#646,.T.);
#890=ORIENTED_EDGE('',*,*,#657,.T.);
#891=ORIENTED_EDGE('',*,*,#658,.T.);
#892=ORIENTED_EDGE('',*,*,#659,.T.);
#893=ORIENTED_EDGE('',*,*,#660,.T.);
#894=ORIENTED_EDGE('',*,*,#645,.T.);
#895=ORIENTED_EDGE('',*,*,#657,.F.);
#896=ORIENTED_EDGE('',*,*,#649,.T.);
#897=ORIENTED_EDGE('',*,*,#661,.F.);
#898=ORIENTED_EDGE('',*,*,#647,.T.);
#899=ORIENTED_EDGE('',*,*,#656,.F.);
#900=ORIENTED_EDGE('',*,*,#662,.F.);
#901=ORIENTED_EDGE('',*,*,#663,.F.);
#902=ORIENTED_EDGE('',*,*,#660,.F.);
#903=ORIENTED_EDGE('',*,*,#664,.T.);
#904=ORIENTED_EDGE('',*,*,#665,.F.);
#905=ORIENTED_EDGE('',*,*,#666,.F.);
#906=ORIENTED_EDGE('',*,*,#658,.F.);
#907=ORIENTED_EDGE('',*,*,#666,.T.);
#908=ORIENTED_EDGE('',*,*,#667,.F.);
#909=ORIENTED_EDGE('',*,*,#668,.T.);
#910=ORIENTED_EDGE('',*,*,#659,.F.);
#911=ORIENTED_EDGE('',*,*,#668,.F.);
#912=ORIENTED_EDGE('',*,*,#669,.F.);
#913=ORIENTED_EDGE('',*,*,#664,.F.);
#914=ORIENTED_EDGE('',*,*,#643,.T.);
#915=ORIENTED_EDGE('',*,*,#670,.F.);
#916=ORIENTED_EDGE('',*,*,#671,.F.);
#917=ORIENTED_EDGE('',*,*,#650,.F.);
#918=ORIENTED_EDGE('',*,*,#671,.T.);
#919=ORIENTED_EDGE('',*,*,#672,.F.);
#920=ORIENTED_EDGE('',*,*,#673,.F.);
#921=ORIENTED_EDGE('',*,*,#651,.F.);
#922=ORIENTED_EDGE('',*,*,#674,.F.);
#923=ORIENTED_EDGE('',*,*,#654,.F.);
#924=ORIENTED_EDGE('',*,*,#675,.T.);
#925=ORIENTED_EDGE('',*,*,#676,.F.);
#926=ORIENTED_EDGE('',*,*,#677,.T.);
#927=ORIENTED_EDGE('',*,*,#678,.F.);
#928=ORIENTED_EDGE('',*,*,#675,.F.);
#929=ORIENTED_EDGE('',*,*,#653,.F.);
#930=ORIENTED_EDGE('',*,*,#642,.T.);
#931=ORIENTED_EDGE('',*,*,#661,.T.);
#932=ORIENTED_EDGE('',*,*,#648,.T.);
#933=ORIENTED_EDGE('',*,*,#663,.T.);
#934=ORIENTED_EDGE('',*,*,#679,.T.);
#935=ORIENTED_EDGE('',*,*,#676,.T.);
#936=ORIENTED_EDGE('',*,*,#678,.T.);
#937=ORIENTED_EDGE('',*,*,#680,.T.);
#938=ORIENTED_EDGE('',*,*,#672,.T.);
#939=ORIENTED_EDGE('',*,*,#670,.T.);
#940=ORIENTED_EDGE('',*,*,#667,.T.);
#941=ORIENTED_EDGE('',*,*,#665,.T.);
#942=ORIENTED_EDGE('',*,*,#669,.T.);
#943=ORIENTED_EDGE('',*,*,#673,.T.);
#944=ORIENTED_EDGE('',*,*,#680,.F.);
#945=ORIENTED_EDGE('',*,*,#677,.F.);
#946=ORIENTED_EDGE('',*,*,#652,.F.);
#947=ORIENTED_EDGE('',*,*,#575,.T.);
#948=ORIENTED_EDGE('',*,*,#641,.T.);
#949=ORIENTED_EDGE('',*,*,#590,.T.);
#950=ORIENTED_EDGE('',*,*,#541,.T.);
#951=ORIENTED_EDGE('',*,*,#597,.T.);
#952=ORIENTED_EDGE('',*,*,#639,.T.);
#953=ORIENTED_EDGE('',*,*,#612,.T.);
#954=ORIENTED_EDGE('',*,*,#553,.T.);
#955=ORIENTED_EDGE('',*,*,#619,.T.);
#956=ORIENTED_EDGE('',*,*,#637,.T.);
#957=ORIENTED_EDGE('',*,*,#634,.T.);
#958=ORIENTED_EDGE('',*,*,#565,.T.);
#959=ORIENTED_EDGE('',*,*,#563,.T.);
#960=ORIENTED_EDGE('',*,*,#633,.T.);
#961=ORIENTED_EDGE('',*,*,#636,.T.);
#962=ORIENTED_EDGE('',*,*,#614,.T.);
#963=ORIENTED_EDGE('',*,*,#551,.T.);
#964=ORIENTED_EDGE('',*,*,#611,.T.);
#965=ORIENTED_EDGE('',*,*,#638,.T.);
#966=ORIENTED_EDGE('',*,*,#592,.T.);
#967=ORIENTED_EDGE('',*,*,#539,.T.);
#968=ORIENTED_EDGE('',*,*,#589,.T.);
#969=ORIENTED_EDGE('',*,*,#640,.T.);
#970=ORIENTED_EDGE('',*,*,#570,.T.);
#971=ORIENTED_EDGE('',*,*,#662,.T.);
#972=ORIENTED_EDGE('',*,*,#655,.F.);
#973=ORIENTED_EDGE('',*,*,#674,.T.);
#974=ORIENTED_EDGE('',*,*,#679,.F.);
#975=PLANE('',#1100);
#976=PLANE('',#1101);
#977=PLANE('',#1102);
#978=PLANE('',#1103);
#979=PLANE('',#1104);
#980=PLANE('',#1105);
#981=PLANE('',#1106);
#982=PLANE('',#1107);
#983=PLANE('',#1108);
#984=PLANE('',#1109);
#985=PLANE('',#1110);
#986=PLANE('',#1111);
#987=PLANE('',#1112);
#988=PLANE('',#1113);
#989=PLANE('',#1114);
#990=PLANE('',#1115);
#991=PLANE('',#1116);
#992=PLANE('',#1117);
#993=PLANE('',#1118);
#994=PLANE('',#1119);
#995=PLANE('',#1120);
#996=PLANE('',#1121);
#997=PLANE('',#1122);
#998=PLANE('',#1123);
#999=PLANE('',#1124);
#1000=PLANE('',#1125);
#1001=PLANE('',#1126);
#1002=PLANE('',#1127);
#1003=PLANE('',#1128);
#1004=PLANE('',#1129);
#1005=PLANE('',#1130);
#1006=PLANE('',#1131);
#1007=PLANE('',#1132);
#1008=PLANE('',#1133);
#1009=PLANE('',#1134);
#1010=PLANE('',#1135);
#1011=PLANE('',#1136);
#1012=PLANE('',#1137);
#1013=PLANE('',#1138);
#1014=PLANE('',#1139);
#1015=PLANE('',#1140);
#1016=PLANE('',#1141);
#1017=PLANE('',#1142);
#1018=PLANE('',#1143);
#1019=PLANE('',#1144);
#1020=PLANE('',#1152);
#1021=PLANE('',#1153);
#1022=PLANE('',#1154);
#1023=PLANE('',#1157);
#1024=PLANE('',#1158);
#1025=PLANE('',#1159);
#1026=PLANE('',#1160);
#1027=PLANE('',#1161);
#1028=PLANE('',#1162);
#1029=ADVANCED_FACE('',(#32),#975,.F.);
#1030=ADVANCED_FACE('',(#33),#976,.F.);
#1031=ADVANCED_FACE('',(#34),#977,.F.);
#1032=ADVANCED_FACE('',(#35),#978,.F.);
#1033=ADVANCED_FACE('',(#36),#979,.F.);
#1034=ADVANCED_FACE('',(#37),#980,.F.);
#1035=ADVANCED_FACE('',(#38),#981,.T.);
#1036=ADVANCED_FACE('',(#39),#982,.T.);
#1037=ADVANCED_FACE('',(#40),#983,.T.);
#1038=ADVANCED_FACE('',(#41),#984,.T.);
#1039=ADVANCED_FACE('',(#42),#985,.T.);
#1040=ADVANCED_FACE('',(#43),#986,.T.);
#1041=ADVANCED_FACE('',(#44),#987,.T.);
#1042=ADVANCED_FACE('',(#45),#988,.T.);
#1043=ADVANCED_FACE('',(#46),#989,.T.);
#1044=ADVANCED_FACE('',(#47),#990,.T.);
#1045=ADVANCED_FACE('',(#48),#991,.T.);
#1046=ADVANCED_FACE('',(#49),#992,.T.);
#1047=ADVANCED_FACE('',(#50),#993,.T.);
#1048=ADVANCED_FACE('',(#51),#994,.T.);
#1049=ADVANCED_FACE('',(#52),#995,.T.);
#1050=ADVANCED_FACE('',(#53),#996,.T.);
#1051=ADVANCED_FACE('',(#54),#997,.T.);
#1052=ADVANCED_FACE('',(#55),#998,.T.);
#1053=ADVANCED_FACE('',(#56),#999,.T.);
#1054=ADVANCED_FACE('',(#57),#1000,.T.);
#1055=ADVANCED_FACE('',(#58),#1001,.T.);
#1056=ADVANCED_FACE('',(#59),#1002,.T.);
#1057=ADVANCED_FACE('',(#60),#1003,.T.);
#1058=ADVANCED_FACE('',(#61),#1004,.T.);
#1059=ADVANCED_FACE('',(#62),#1005,.T.);
#1060=ADVANCED_FACE('',(#63),#1006,.T.);
#1061=ADVANCED_FACE('',(#64),#1007,.T.);
#1062=ADVANCED_FACE('',(#65),#1008,.T.);
#1063=ADVANCED_FACE('',(#66),#1009,.T.);
#1064=ADVANCED_FACE('',(#67),#1010,.T.);
#1065=ADVANCED_FACE('',(#68),#1011,.T.);
#1066=ADVANCED_FACE('',(#69),#1012,.T.);
#1067=ADVANCED_FACE('',(#70),#1013,.T.);
#1068=ADVANCED_FACE('',(#71),#1014,.T.);
#1069=ADVANCED_FACE('',(#72),#1015,.T.);
#1070=ADVANCED_FACE('',(#73),#1016,.T.);
#1071=ADVANCED_FACE('',(#74),#1017,.F.);
#1072=ADVANCED_FACE('',(#75),#1018,.F.);
#1073=ADVANCED_FACE('',(#76,#18),#1019,.T.);
#1074=ADVANCED_FACE('',(#77),#15,.F.);
#1075=ADVANCED_FACE('',(#78),#16,.T.);
#1076=ADVANCED_FACE('',(#79),#1020,.F.);
#1077=ADVANCED_FACE('',(#80),#1021,.F.);
#1078=ADVANCED_FACE('',(#81),#1022,.F.);
#1079=ADVANCED_FACE('',(#82),#17,.T.);
#1080=ADVANCED_FACE('',(#83),#1023,.T.);
#1081=ADVANCED_FACE('',(#84),#1024,.T.);
#1082=ADVANCED_FACE('',(#85),#1025,.T.);
#1083=ADVANCED_FACE('',(#86,#19),#1026,.T.);
#1084=ADVANCED_FACE('',(#87,#20,#21,#22,#23,#24,#25),#1027,.T.);
#1085=ADVANCED_FACE('',(#88),#1028,.T.);
#1086=CLOSED_SHELL('',(#1029,#1030,#1031,#1032,#1033,#1034,#1035,#1036,
#1037,#1038,#1039,#1040,#1041,#1042,#1043,#1044,#1045,#1046,#1047,#1048,
#1049,#1050,#1051,#1052,#1053,#1054,#1055,#1056,#1057,#1058,#1059,#1060,
#1061,#1062,#1063,#1064,#1065,#1066,#1067,#1068,#1069,#1070,#1071,#1072,
#1073,#1074,#1075,#1076,#1077,#1078,#1079,#1080,#1081,#1082,#1083,#1084,
#1085));
#1087=DERIVED_UNIT_ELEMENT(#1089,1.);
#1088=DERIVED_UNIT_ELEMENT(#1740,-3.);
#1089=(
MASS_UNIT()
NAMED_UNIT(*)
SI_UNIT(.KILO.,.GRAM.)
);
#1090=DERIVED_UNIT((#1087,#1088));
#1091=MEASURE_REPRESENTATION_ITEM('density measure',
POSITIVE_RATIO_MEASURE(7850.),#1090);
#1092=PROPERTY_DEFINITION_REPRESENTATION(#1097,#1094);
#1093=PROPERTY_DEFINITION_REPRESENTATION(#1098,#1095);
#1094=REPRESENTATION('material name',(#1096),#1737);
#1095=REPRESENTATION('density',(#1091),#1737);
#1096=DESCRIPTIVE_REPRESENTATION_ITEM('Steel','Steel');
#1097=PROPERTY_DEFINITION('material property','material name',#1747);
#1098=PROPERTY_DEFINITION('material property','density of part',#1747);
#1099=AXIS2_PLACEMENT_3D('',#1432,#1163,#1164);
#1100=AXIS2_PLACEMENT_3D('',#1433,#1165,#1166);
#1101=AXIS2_PLACEMENT_3D('',#1446,#1173,#1174);
#1102=AXIS2_PLACEMENT_3D('',#1459,#1181,#1182);
#1103=AXIS2_PLACEMENT_3D('',#1472,#1189,#1190);
#1104=AXIS2_PLACEMENT_3D('',#1485,#1197,#1198);
#1105=AXIS2_PLACEMENT_3D('',#1498,#1205,#1206);
#1106=AXIS2_PLACEMENT_3D('',#1511,#1213,#1214);
#1107=AXIS2_PLACEMENT_3D('',#1517,#1218,#1219);
#1108=AXIS2_PLACEMENT_3D('',#1523,#1223,#1224);
#1109=AXIS2_PLACEMENT_3D('',#1527,#1227,#1228);
#1110=AXIS2_PLACEMENT_3D('',#1531,#1231,#1232);
#1111=AXIS2_PLACEMENT_3D('',#1535,#1235,#1236);
#1112=AXIS2_PLACEMENT_3D('',#1539,#1239,#1240);
#1113=AXIS2_PLACEMENT_3D('',#1543,#1243,#1244);
#1114=AXIS2_PLACEMENT_3D('',#1547,#1247,#1248);
#1115=AXIS2_PLACEMENT_3D('',#1551,#1251,#1252);
#1116=AXIS2_PLACEMENT_3D('',#1555,#1255,#1256);
#1117=AXIS2_PLACEMENT_3D('',#1561,#1260,#1261);
#1118=AXIS2_PLACEMENT_3D('',#1567,#1265,#1266);
#1119=AXIS2_PLACEMENT_3D('',#1571,#1269,#1270);
#1120=AXIS2_PLACEMENT_3D('',#1575,#1273,#1274);
#1121=AXIS2_PLACEMENT_3D('',#1579,#1277,#1278);
#1122=AXIS2_PLACEMENT_3D('',#1583,#1281,#1282);
#1123=AXIS2_PLACEMENT_3D('',#1587,#1285,#1286);
#1124=AXIS2_PLACEMENT_3D('',#1591,#1289,#1290);
#1125=AXIS2_PLACEMENT_3D('',#1595,#1293,#1294);
#1126=AXIS2_PLACEMENT_3D('',#1599,#1297,#1298);
#1127=AXIS2_PLACEMENT_3D('',#1605,#1302,#1303);
#1128=AXIS2_PLACEMENT_3D('',#1611,#1307,#1308);
#1129=AXIS2_PLACEMENT_3D('',#1615,#1311,#1312);
#1130=AXIS2_PLACEMENT_3D('',#1619,#1315,#1316);
#1131=AXIS2_PLACEMENT_3D('',#1623,#1319,#1320);
#1132=AXIS2_PLACEMENT_3D('',#1627,#1323,#1324);
#1133=AXIS2_PLACEMENT_3D('',#1631,#1327,#1328);
#1134=AXIS2_PLACEMENT_3D('',#1635,#1331,#1332);
#1135=AXIS2_PLACEMENT_3D('',#1639,#1335,#1336);
#1136=AXIS2_PLACEMENT_3D('',#1643,#1339,#1340);
#1137=AXIS2_PLACEMENT_3D('',#1645,#1342,#1343);
#1138=AXIS2_PLACEMENT_3D('',#1647,#1345,#1346);
#1139=AXIS2_PLACEMENT_3D('',#1649,#1348,#1349);
#1140=AXIS2_PLACEMENT_3D('',#1651,#1351,#1352);
#1141=AXIS2_PLACEMENT_3D('',#1653,#1354,#1355);
#1142=AXIS2_PLACEMENT_3D('',#1655,#1357,#1358);
#1143=AXIS2_PLACEMENT_3D('',#1664,#1363,#1364);
#1144=AXIS2_PLACEMENT_3D('',#1673,#1369,#1370);
#1145=AXIS2_PLACEMENT_3D('',#1675,#1371,#1372);
#1146=AXIS2_PLACEMENT_3D('',#1686,#1378,#1379);
#1147=AXIS2_PLACEMENT_3D('',#1687,#1380,#1381);
#1148=AXIS2_PLACEMENT_3D('',#1694,#1385,#1386);
#1149=AXIS2_PLACEMENT_3D('',#1695,#1387,#1388);
#1150=AXIS2_PLACEMENT_3D('',#1696,#1389,#1390);
#1151=AXIS2_PLACEMENT_3D('',#1699,#1392,#1393);
#1152=AXIS2_PLACEMENT_3D('',#1700,#1394,#1395);
#1153=AXIS2_PLACEMENT_3D('',#1706,#1399,#1400);
#1154=AXIS2_PLACEMENT_3D('',#1710,#1403,#1404);
#1155=AXIS2_PLACEMENT_3D('',#1712,#1406,#1407);
#1156=AXIS2_PLACEMENT_3D('',#1714,#1408,#1409);
#1157=AXIS2_PLACEMENT_3D('',#1716,#1411,#1412);
#1158=AXIS2_PLACEMENT_3D('',#1720,#1415,#1416);
#1159=AXIS2_PLACEMENT_3D('',#1726,#1420,#1421);
#1160=AXIS2_PLACEMENT_3D('',#1730,#1424,#1425);
#1161=AXIS2_PLACEMENT_3D('',#1733,#1428,#1429);
#1162=AXIS2_PLACEMENT_3D('',#1734,#1430,#1431);
#1163=DIRECTION('axis',(0.,0.,1.));
#1164=DIRECTION('refdir',(1.,0.,0.));
#1165=DIRECTION('center_axis',(0.,-1.,0.));
#1166=DIRECTION('ref_axis',(0.,0.,-1.));
#1167=DIRECTION('',(1.,0.,0.));
#1168=DIRECTION('',(0.,0.,1.));
#1169=DIRECTION('',(1.,0.,0.));
#1170=DIRECTION('',(0.,0.,-1.));
#1171=DIRECTION('',(-1.,0.,0.));
#1172=DIRECTION('',(0.,0.,1.));
#1173=DIRECTION('center_axis',(0.,1.,0.));
#1174=DIRECTION('ref_axis',(0.,0.,1.));
#1175=DIRECTION('',(-1.,0.,0.));
#1176=DIRECTION('',(0.,0.,-1.));
#1177=DIRECTION('',(1.,0.,0.));
#1178=DIRECTION('',(0.,0.,1.));
#1179=DIRECTION('',(-1.,0.,0.));
#1180=DIRECTION('',(0.,0.,-1.));
#1181=DIRECTION('center_axis',(0.,-1.,0.));
#1182=DIRECTION('ref_axis',(0.,0.,-1.));
#1183=DIRECTION('',(1.,0.,0.));
#1184=DIRECTION('',(0.,0.,1.));
#1185=DIRECTION('',(1.,0.,0.));
#1186=DIRECTION('',(0.,0.,-1.));
#1187=DIRECTION('',(-1.,0.,0.));
#1188=DIRECTION('',(0.,0.,1.));
#1189=DIRECTION('center_axis',(0.,1.,0.));
#1190=DIRECTION('ref_axis',(0.,0.,1.));
#1191=DIRECTION('',(-1.,0.,0.));
#1192=DIRECTION('',(0.,0.,-1.));
#1193=DIRECTION('',(1.,0.,0.));
#1194=DIRECTION('',(0.,0.,1.));
#1195=DIRECTION('',(-1.,0.,0.));
#1196=DIRECTION('',(0.,0.,-1.));
#1197=DIRECTION('center_axis',(0.,-1.,0.));
#1198=DIRECTION('ref_axis',(0.,0.,-1.));
#1199=DIRECTION('',(1.,0.,0.));
#1200=DIRECTION('',(0.,0.,1.));
#1201=DIRECTION('',(1.,0.,0.));
#1202=DIRECTION('',(0.,0.,-1.));
#1203=DIRECTION('',(-1.,0.,0.));
#1204=DIRECTION('',(0.,0.,1.));
#1205=DIRECTION('center_axis',(0.,1.,0.));
#1206=DIRECTION('ref_axis',(0.,0.,1.));
#1207=DIRECTION('',(-1.,0.,0.));
#1208=DIRECTION('',(0.,0.,-1.));
#1209=DIRECTION('',(1.,0.,0.));
#1210=DIRECTION('',(0.,0.,1.));
#1211=DIRECTION('',(-1.,0.,0.));
#1212=DIRECTION('',(0.,0.,-1.));
#1213=DIRECTION('center_axis',(0.,0.,-1.));
#1214=DIRECTION('ref_axis',(-1.,0.,0.));
#1215=DIRECTION('',(0.,1.,0.));
#1216=DIRECTION('',(1.,0.,0.));
#1217=DIRECTION('',(0.,1.,0.));
#1218=DIRECTION('center_axis',(0.,0.,-1.));
#1219=DIRECTION('ref_axis',(-1.,0.,0.));
#1220=DIRECTION('',(0.,1.,0.));
#1221=DIRECTION('',(-1.,0.,0.));
#1222=DIRECTION('',(0.,1.,0.));
#1223=DIRECTION('center_axis',(1.,0.,0.));
#1224=DIRECTION('ref_axis',(0.,0.,-1.));
#1225=DIRECTION('',(0.,0.,1.));
#1226=DIRECTION('',(0.,1.,0.));
#1227=DIRECTION('center_axis',(1.,0.,0.));
#1228=DIRECTION('ref_axis',(0.,0.,-1.));
#1229=DIRECTION('',(0.,1.,0.));
#1230=DIRECTION('',(0.,0.,-1.));
#1231=DIRECTION('center_axis',(0.,0.,-1.));
#1232=DIRECTION('ref_axis',(-1.,0.,0.));
#1233=DIRECTION('',(1.,0.,0.));
#1234=DIRECTION('',(0.,1.,0.));
#1235=DIRECTION('center_axis',(0.,0.,-1.));
#1236=DIRECTION('ref_axis',(-1.,0.,0.));
#1237=DIRECTION('',(0.,1.,0.));
#1238=DIRECTION('',(-1.,0.,0.));
#1239=DIRECTION('center_axis',(-1.,0.,0.));
#1240=DIRECTION('ref_axis',(0.,0.,1.));
#1241=DIRECTION('',(0.,0.,-1.));
#1242=DIRECTION('',(0.,1.,0.));
#1243=DIRECTION('center_axis',(-1.,0.,0.));
#1244=DIRECTION('ref_axis',(0.,0.,1.));
#1245=DIRECTION('',(0.,1.,0.));
#1246=DIRECTION('',(0.,0.,1.));
#1247=DIRECTION('center_axis',(0.,0.,1.));
#1248=DIRECTION('ref_axis',(1.,0.,0.));
#1249=DIRECTION('',(-1.,0.,0.));
#1250=DIRECTION('',(0.,-1.,0.));
#1251=DIRECTION('center_axis',(0.,0.,1.));
#1252=DIRECTION('ref_axis',(1.,0.,0.));
#1253=DIRECTION('',(0.,-1.,0.));
#1254=DIRECTION('',(1.,0.,0.));
#1255=DIRECTION('center_axis',(0.,0.,-1.));
#1256=DIRECTION('ref_axis',(-1.,0.,0.));
#1257=DIRECTION('',(0.,1.,0.));
#1258=DIRECTION('',(1.,0.,0.));
#1259=DIRECTION('',(0.,1.,0.));
#1260=DIRECTION('center_axis',(0.,0.,-1.));
#1261=DIRECTION('ref_axis',(-1.,0.,0.));
#1262=DIRECTION('',(0.,1.,0.));
#1263=DIRECTION('',(-1.,0.,0.));
#1264=DIRECTION('',(0.,1.,0.));
#1265=DIRECTION('center_axis',(1.,0.,0.));
#1266=DIRECTION('ref_axis',(0.,0.,-1.));
#1267=DIRECTION('',(0.,0.,1.));
#1268=DIRECTION('',(0.,1.,0.));
#1269=DIRECTION('center_axis',(1.,0.,0.));
#1270=DIRECTION('ref_axis',(0.,0.,-1.));
#1271=DIRECTION('',(0.,1.,0.));
#1272=DIRECTION('',(0.,0.,-1.));
#1273=DIRECTION('center_axis',(0.,0.,-1.));
#1274=DIRECTION('ref_axis',(-1.,0.,0.));
#1275=DIRECTION('',(1.,0.,0.));
#1276=DIRECTION('',(0.,1.,0.));
#1277=DIRECTION('center_axis',(0.,0.,-1.));
#1278=DIRECTION('ref_axis',(-1.,0.,0.));
#1279=DIRECTION('',(0.,1.,0.));
#1280=DIRECTION('',(-1.,0.,0.));
#1281=DIRECTION('center_axis',(-1.,0.,0.));
#1282=DIRECTION('ref_axis',(0.,0.,1.));
#1283=DIRECTION('',(0.,0.,-1.));
#1284=DIRECTION('',(0.,1.,0.));
#1285=DIRECTION('center_axis',(-1.,0.,0.));
#1286=DIRECTION('ref_axis',(0.,0.,1.));
#1287=DIRECTION('',(0.,1.,0.));
#1288=DIRECTION('',(0.,0.,1.));
#1289=DIRECTION('center_axis',(0.,0.,1.));
#1290=DIRECTION('ref_axis',(1.,0.,0.));
#1291=DIRECTION('',(-1.,0.,0.));
#1292=DIRECTION('',(0.,-1.,0.));
#1293=DIRECTION('center_axis',(0.,0.,1.));
#1294=DIRECTION('ref_axis',(1.,0.,0.));
#1295=DIRECTION('',(0.,-1.,0.));
#1296=DIRECTION('',(1.,0.,0.));
#1297=DIRECTION('center_axis',(0.,0.,-1.));
#1298=DIRECTION('ref_axis',(-1.,0.,0.));
#1299=DIRECTION('',(0.,1.,0.));
#1300=DIRECTION('',(1.,0.,0.));
#1301=DIRECTION('',(0.,1.,0.));
#1302=DIRECTION('center_axis',(0.,0.,-1.));
#1303=DIRECTION('ref_axis',(-1.,0.,0.));
#1304=DIRECTION('',(0.,1.,0.));
#1305=DIRECTION('',(-1.,0.,0.));
#1306=DIRECTION('',(0.,1.,0.));
#1307=DIRECTION('center_axis',(1.,0.,0.));
#1308=DIRECTION('ref_axis',(0.,0.,-1.));
#1309=DIRECTION('',(0.,0.,1.));
#1310=DIRECTION('',(0.,1.,0.));
#1311=DIRECTION('center_axis',(1.,0.,0.));
#1312=DIRECTION('ref_axis',(0.,0.,-1.));
#1313=DIRECTION('',(0.,1.,0.));
#1314=DIRECTION('',(0.,0.,-1.));
#1315=DIRECTION('center_axis',(0.,0.,-1.));
#1316=DIRECTION('ref_axis',(-1.,0.,0.));
#1317=DIRECTION('',(1.,0.,0.));
#1318=DIRECTION('',(0.,1.,0.));
#1319=DIRECTION('center_axis',(0.,0.,-1.));
#1320=DIRECTION('ref_axis',(-1.,0.,0.));
#1321=DIRECTION('',(0.,1.,0.));
#1322=DIRECTION('',(-1.,0.,0.));
#1323=DIRECTION('center_axis',(-1.,0.,0.));
#1324=DIRECTION('ref_axis',(0.,0.,1.));
#1325=DIRECTION('',(0.,0.,-1.));
#1326=DIRECTION('',(0.,1.,0.));
#1327=DIRECTION('center_axis',(-1.,0.,0.));
#1328=DIRECTION('ref_axis',(0.,0.,1.));
#1329=DIRECTION('',(0.,1.,0.));
#1330=DIRECTION('',(0.,0.,1.));
#1331=DIRECTION('center_axis',(0.,0.,1.));
#1332=DIRECTION('ref_axis',(1.,0.,0.));
#1333=DIRECTION('',(-1.,0.,0.));
#1334=DIRECTION('',(0.,-1.,0.));
#1335=DIRECTION('center_axis',(0.,0.,1.));
#1336=DIRECTION('ref_axis',(1.,0.,0.));
#1337=DIRECTION('',(0.,-1.,0.));
#1338=DIRECTION('',(1.,0.,0.));
#1339=DIRECTION('center_axis',(0.,-1.,0.));
#1340=DIRECTION('ref_axis',(0.,0.,-1.));
#1341=DIRECTION('',(0.,0.,-1.));
#1342=DIRECTION('center_axis',(0.,1.,0.));
#1343=DIRECTION('ref_axis',(0.,0.,1.));
#1344=DIRECTION('',(0.,0.,1.));
#1345=DIRECTION('center_axis',(0.,-1.,0.));
#1346=DIRECTION('ref_axis',(0.,0.,-1.));
#1347=DIRECTION('',(0.,0.,-1.));
#1348=DIRECTION('center_axis',(0.,1.,0.));
#1349=DIRECTION('ref_axis',(0.,0.,1.));
#1350=DIRECTION('',(0.,0.,1.));
#1351=DIRECTION('center_axis',(0.,-1.,0.));
#1352=DIRECTION('ref_axis',(0.,0.,-1.));
#1353=DIRECTION('',(0.,0.,-1.));
#1354=DIRECTION('center_axis',(0.,1.,0.));
#1355=DIRECTION('ref_axis',(0.,0.,1.));
#1356=DIRECTION('',(0.,0.,1.));
#1357=DIRECTION('center_axis',(-1.,0.,0.));
#1358=DIRECTION('ref_axis',(0.,0.,1.));
#1359=DIRECTION('',(0.,0.,-1.));
#1360=DIRECTION('',(0.,1.,0.));
#1361=DIRECTION('',(0.,0.,1.));
#1362=DIRECTION('',(0.,-1.,0.));
#1363=DIRECTION('center_axis',(1.,0.,0.));
#1364=DIRECTION('ref_axis',(0.,0.,-1.));
#1365=DIRECTION('',(0.,0.,-1.));
#1366=DIRECTION('',(0.,-1.,0.));
#1367=DIRECTION('',(0.,0.,1.));
#1368=DIRECTION('',(0.,1.,0.));
#1369=DIRECTION('center_axis',(0.,-1.,0.));
#1370=DIRECTION('ref_axis',(0.,0.,-1.));
#1371=DIRECTION('center_axis',(0.,-1.,0.));
#1372=DIRECTION('ref_axis',(1.,0.,0.));
#1373=DIRECTION('',(-1.,0.,0.));
#1374=DIRECTION('',(0.,0.,-1.));
#1375=DIRECTION('',(1.,0.,0.));
#1376=DIRECTION('',(0.,0.,1.));
#1377=DIRECTION('',(0.834275733290822,0.,0.551347441131326));
#1378=DIRECTION('center_axis',(0.,-1.,0.));
#1379=DIRECTION('ref_axis',(1.,0.,0.));
#1380=DIRECTION('center_axis',(0.,1.,0.));
#1381=DIRECTION('ref_axis',(1.,0.,0.));
#1382=DIRECTION('',(1.,0.,0.));
#1383=DIRECTION('',(-0.834275733290822,0.,-0.551347441131326));
#1384=DIRECTION('',(0.,0.,1.));
#1385=DIRECTION('center_axis',(0.,1.,0.));
#1386=DIRECTION('ref_axis',(1.,0.,0.));
#1387=DIRECTION('center_axis',(0.,-1.,0.));
#1388=DIRECTION('ref_axis',(1.,0.,0.));
#1389=DIRECTION('center_axis',(0.,1.,0.));
#1390=DIRECTION('ref_axis',(1.,0.,0.));
#1391=DIRECTION('',(0.,-1.,0.));
#1392=DIRECTION('center_axis',(0.,1.,0.));
#1393=DIRECTION('ref_axis',(1.,0.,0.));
#1394=DIRECTION('center_axis',(-1.,0.,0.));
#1395=DIRECTION('ref_axis',(0.,0.,1.));
#1396=DIRECTION('',(0.,1.,0.));
#1397=DIRECTION('',(0.,0.,-1.));
#1398=DIRECTION('',(0.,1.,0.));
#1399=DIRECTION('center_axis',(0.,0.,1.));
#1400=DIRECTION('ref_axis',(1.,0.,0.));
#1401=DIRECTION('',(-1.,0.,0.));
#1402=DIRECTION('',(0.,-1.,0.));
#1403=DIRECTION('center_axis',(0.551347441131326,0.,-0.834275733290822));
#1404=DIRECTION('ref_axis',(-0.834275733290822,0.,-0.551347441131326));
#1405=DIRECTION('',(0.834275733290822,0.,0.551347441131326));
#1406=DIRECTION('center_axis',(0.,1.,0.));
#1407=DIRECTION('ref_axis',(1.,0.,0.));
#1408=DIRECTION('center_axis',(0.,1.,0.));
#1409=DIRECTION('ref_axis',(1.,0.,0.));
#1410=DIRECTION('',(0.,1.,0.));
#1411=DIRECTION('center_axis',(0.,0.,1.));
#1412=DIRECTION('ref_axis',(1.,0.,0.));
#1413=DIRECTION('',(1.,0.,0.));
#1414=DIRECTION('',(0.,1.,0.));
#1415=DIRECTION('center_axis',(1.,0.,0.));
#1416=DIRECTION('ref_axis',(0.,0.,-1.));
#1417=DIRECTION('',(0.,1.,0.));
#1418=DIRECTION('',(0.,1.,0.));
#1419=DIRECTION('',(0.,0.,-1.));
#1420=DIRECTION('center_axis',(0.,0.,-1.));
#1421=DIRECTION('ref_axis',(-1.,0.,0.));
#1422=DIRECTION('',(0.,1.,0.));
#1423=DIRECTION('',(-1.,0.,0.));
#1424=DIRECTION('center_axis',(0.,1.,0.));
#1425=DIRECTION('ref_axis',(0.,0.,1.));
#1426=DIRECTION('',(-0.834275733290822,0.,-0.551347441131326));
#1427=DIRECTION('',(0.,0.,1.));
#1428=DIRECTION('center_axis',(-1.,0.,0.));
#1429=DIRECTION('ref_axis',(0.,0.,1.));
#1430=DIRECTION('center_axis',(0.551347441131326,0.,-0.834275733290822));
#1431=DIRECTION('ref_axis',(-0.834275733290822,0.,-0.551347441131326));
#1432=CARTESIAN_POINT('',(0.,0.,0.));
#1433=CARTESIAN_POINT('Origin',(-3.4,-11.5,65.5));
#1434=CARTESIAN_POINT('',(-2.8,-11.5,69.));
#1435=CARTESIAN_POINT('',(0.,-11.5,69.));
#1436=CARTESIAN_POINT('',(-1.7,-11.5,69.));
#1437=CARTESIAN_POINT('',(-2.8,-11.5,57.));
#1438=CARTESIAN_POINT('',(-2.8,-11.5,67.25));
#1439=CARTESIAN_POINT('',(-6.8,-11.5,57.));
#1440=CARTESIAN_POINT('',(-3.1,-11.5,57.));
#1441=CARTESIAN_POINT('',(-6.8,-11.5,74.));
#1442=CARTESIAN_POINT('',(-6.8,-11.5,61.25));
#1443=CARTESIAN_POINT('',(0.,-11.5,74.));
#1444=CARTESIAN_POINT('',(-5.1,-11.5,74.));
#1445=CARTESIAN_POINT('',(0.,-11.5,69.));
#1446=CARTESIAN_POINT('Origin',(-3.4,11.5,65.5));
#1447=CARTESIAN_POINT('',(0.,11.5,69.));
#1448=CARTESIAN_POINT('',(-2.8,11.5,69.));
#1449=CARTESIAN_POINT('',(-1.7,11.5,69.));
#1450=CARTESIAN_POINT('',(0.,11.5,74.));
#1451=CARTESIAN_POINT('',(0.,11.5,69.));
#1452=CARTESIAN_POINT('',(-6.8,11.5,74.));
#1453=CARTESIAN_POINT('',(-5.1,11.5,74.));
#1454=CARTESIAN_POINT('',(-6.8,11.5,57.));
#1455=CARTESIAN_POINT('',(-6.8,11.5,61.25));
#1456=CARTESIAN_POINT('',(-2.8,11.5,57.));
#1457=CARTESIAN_POINT('',(-3.1,11.5,57.));
#1458=CARTESIAN_POINT('',(-2.8,11.5,67.25));
#1459=CARTESIAN_POINT('Origin',(-3.4,-11.5,40.1));
#1460=CARTESIAN_POINT('',(-2.8,-11.5,43.6));
#1461=CARTESIAN_POINT('',(0.,-11.5,43.6));
#1462=CARTESIAN_POINT('',(-1.7,-11.5,43.6));
#1463=CARTESIAN_POINT('',(-2.8,-11.5,31.6));
#1464=CARTESIAN_POINT('',(-2.8,-11.5,41.85));
#1465=CARTESIAN_POINT('',(-6.8,-11.5,31.6));
#1466=CARTESIAN_POINT('',(-3.1,-11.5,31.6));
#1467=CARTESIAN_POINT('',(-6.8,-11.5,48.6));
#1468=CARTESIAN_POINT('',(-6.8,-11.5,35.85));
#1469=CARTESIAN_POINT('',(0.,-11.5,48.6));
#1470=CARTESIAN_POINT('',(-5.1,-11.5,48.6));
#1471=CARTESIAN_POINT('',(0.,-11.5,43.6));
#1472=CARTESIAN_POINT('Origin',(-3.4,11.5,40.1));
#1473=CARTESIAN_POINT('',(0.,11.5,43.6));
#1474=CARTESIAN_POINT('',(-2.8,11.5,43.6));
#1475=CARTESIAN_POINT('',(-1.7,11.5,43.6));
#1476=CARTESIAN_POINT('',(0.,11.5,48.6));
#1477=CARTESIAN_POINT('',(0.,11.5,43.6));
#1478=CARTESIAN_POINT('',(-6.8,11.5,48.6));
#1479=CARTESIAN_POINT('',(-5.1,11.5,48.6));
#1480=CARTESIAN_POINT('',(-6.8,11.5,31.6));
#1481=CARTESIAN_POINT('',(-6.8,11.5,35.85));
#1482=CARTESIAN_POINT('',(-2.8,11.5,31.6));
#1483=CARTESIAN_POINT('',(-3.1,11.5,31.6));
#1484=CARTESIAN_POINT('',(-2.8,11.5,41.85));
#1485=CARTESIAN_POINT('Origin',(-3.4,-11.5,14.7));
#1486=CARTESIAN_POINT('',(-2.8,-11.5,18.2));
#1487=CARTESIAN_POINT('',(0.,-11.5,18.2));
#1488=CARTESIAN_POINT('',(-1.7,-11.5,18.2));
#1489=CARTESIAN_POINT('',(-2.8,-11.5,6.2));
#1490=CARTESIAN_POINT('',(-2.8,-11.5,16.45));
#1491=CARTESIAN_POINT('',(-6.8,-11.5,6.2));
#1492=CARTESIAN_POINT('',(-3.1,-11.5,6.2));
#1493=CARTESIAN_POINT('',(-6.8,-11.5,23.2));
#1494=CARTESIAN_POINT('',(-6.8,-11.5,10.45));
#1495=CARTESIAN_POINT('',(0.,-11.5,23.2));
#1496=CARTESIAN_POINT('',(-5.1,-11.5,23.2));
#1497=CARTESIAN_POINT('',(0.,-11.5,18.2));
#1498=CARTESIAN_POINT('Origin',(-3.4,11.5,14.7));
#1499=CARTESIAN_POINT('',(0.,11.5,18.2));
#1500=CARTESIAN_POINT('',(-2.8,11.5,18.2));
#1501=CARTESIAN_POINT('',(-1.7,11.5,18.2));
#1502=CARTESIAN_POINT('',(0.,11.5,23.2));
#1503=CARTESIAN_POINT('',(0.,11.5,18.2));
#1504=CARTESIAN_POINT('',(-6.8,11.5,23.2));
#1505=CARTESIAN_POINT('',(-5.1,11.5,23.2));
#1506=CARTESIAN_POINT('',(-6.8,11.5,6.2));
#1507=CARTESIAN_POINT('',(-6.8,11.5,10.45));
#1508=CARTESIAN_POINT('',(-2.8,11.5,6.2));
#1509=CARTESIAN_POINT('',(-3.1,11.5,6.2));
#1510=CARTESIAN_POINT('',(-2.8,11.5,16.45));
#1511=CARTESIAN_POINT('Origin',(0.,0.,69.));
#1512=CARTESIAN_POINT('',(0.,-13.9,69.));
#1513=CARTESIAN_POINT('',(0.,0.,69.));
#1514=CARTESIAN_POINT('',(-2.8,-13.9,69.));
#1515=CARTESIAN_POINT('',(-2.8,-13.9,69.));
#1516=CARTESIAN_POINT('',(-2.8,0.,69.));
#1517=CARTESIAN_POINT('Origin',(0.,0.,69.));
#1518=CARTESIAN_POINT('',(-2.8,13.9,69.));
#1519=CARTESIAN_POINT('',(-2.8,0.,69.));
#1520=CARTESIAN_POINT('',(0.,13.9,69.));
#1521=CARTESIAN_POINT('',(-2.8,13.9,69.));
#1522=CARTESIAN_POINT('',(0.,0.,69.));
#1523=CARTESIAN_POINT('Origin',(-2.8,0.,69.));
#1524=CARTESIAN_POINT('',(-2.8,-13.9,57.));
#1525=CARTESIAN_POINT('',(-2.8,-13.9,57.));
#1526=CARTESIAN_POINT('',(-2.8,0.,57.));
#1527=CARTESIAN_POINT('Origin',(-2.8,0.,69.));
#1528=CARTESIAN_POINT('',(-2.8,13.9,57.));
#1529=CARTESIAN_POINT('',(-2.8,0.,57.));
#1530=CARTESIAN_POINT('',(-2.8,13.9,57.));
#1531=CARTESIAN_POINT('Origin',(-2.8,0.,57.));
#1532=CARTESIAN_POINT('',(-6.8,-13.9,57.));
#1533=CARTESIAN_POINT('',(-6.8,-13.9,57.));
#1534=CARTESIAN_POINT('',(-6.8,0.,57.));
#1535=CARTESIAN_POINT('Origin',(-2.8,0.,57.));
#1536=CARTESIAN_POINT('',(-6.8,13.9,57.));
#1537=CARTESIAN_POINT('',(-6.8,0.,57.));
#1538=CARTESIAN_POINT('',(-6.8,13.9,57.));
#1539=CARTESIAN_POINT('Origin',(-6.8,0.,57.));
#1540=CARTESIAN_POINT('',(-6.8,-13.9,74.));
#1541=CARTESIAN_POINT('',(-6.8,-13.9,74.));
#1542=CARTESIAN_POINT('',(-6.8,0.,74.));
#1543=CARTESIAN_POINT('Origin',(-6.8,0.,57.));
#1544=CARTESIAN_POINT('',(-6.8,13.9,74.));
#1545=CARTESIAN_POINT('',(-6.8,0.,74.));
#1546=CARTESIAN_POINT('',(-6.8,13.9,74.));
#1547=CARTESIAN_POINT('Origin',(-6.8,0.,74.));
#1548=CARTESIAN_POINT('',(0.,-13.9,74.));
#1549=CARTESIAN_POINT('',(0.,-13.9,74.));
#1550=CARTESIAN_POINT('',(0.,0.,74.));
#1551=CARTESIAN_POINT('Origin',(-6.8,0.,74.));
#1552=CARTESIAN_POINT('',(0.,13.9,74.));
#1553=CARTESIAN_POINT('',(0.,0.,74.));
#1554=CARTESIAN_POINT('',(0.,13.9,74.));
#1555=CARTESIAN_POINT('Origin',(0.,0.,43.6));
#1556=CARTESIAN_POINT('',(0.,-13.9,43.6));
#1557=CARTESIAN_POINT('',(0.,0.,43.6));
#1558=CARTESIAN_POINT('',(-2.8,-13.9,43.6));
#1559=CARTESIAN_POINT('',(-2.8,-13.9,43.6));
#1560=CARTESIAN_POINT('',(-2.8,0.,43.6));
#1561=CARTESIAN_POINT('Origin',(0.,0.,43.6));
#1562=CARTESIAN_POINT('',(-2.8,13.9,43.6));
#1563=CARTESIAN_POINT('',(-2.8,0.,43.6));
#1564=CARTESIAN_POINT('',(0.,13.9,43.6));
#1565=CARTESIAN_POINT('',(-2.8,13.9,43.6));
#1566=CARTESIAN_POINT('',(0.,0.,43.6));
#1567=CARTESIAN_POINT('Origin',(-2.8,0.,43.6));
#1568=CARTESIAN_POINT('',(-2.8,-13.9,31.6));
#1569=CARTESIAN_POINT('',(-2.8,-13.9,31.6));
#1570=CARTESIAN_POINT('',(-2.8,0.,31.6));
#1571=CARTESIAN_POINT('Origin',(-2.8,0.,43.6));
#1572=CARTESIAN_POINT('',(-2.8,13.9,31.6));
#1573=CARTESIAN_POINT('',(-2.8,0.,31.6));
#1574=CARTESIAN_POINT('',(-2.8,13.9,31.6));
#1575=CARTESIAN_POINT('Origin',(-2.8,0.,31.6));
#1576=CARTESIAN_POINT('',(-6.8,-13.9,31.6));
#1577=CARTESIAN_POINT('',(-6.8,-13.9,31.6));
#1578=CARTESIAN_POINT('',(-6.8,0.,31.6));
#1579=CARTESIAN_POINT('Origin',(-2.8,0.,31.6));
#1580=CARTESIAN_POINT('',(-6.8,13.9,31.6));
#1581=CARTESIAN_POINT('',(-6.8,0.,31.6));
#1582=CARTESIAN_POINT('',(-6.8,13.9,31.6));
#1583=CARTESIAN_POINT('Origin',(-6.8,0.,31.6));
#1584=CARTESIAN_POINT('',(-6.8,-13.9,48.6));
#1585=CARTESIAN_POINT('',(-6.8,-13.9,48.6));
#1586=CARTESIAN_POINT('',(-6.8,0.,48.6));
#1587=CARTESIAN_POINT('Origin',(-6.8,0.,31.6));
#1588=CARTESIAN_POINT('',(-6.8,13.9,48.6));
#1589=CARTESIAN_POINT('',(-6.8,0.,48.6));
#1590=CARTESIAN_POINT('',(-6.8,13.9,48.6));
#1591=CARTESIAN_POINT('Origin',(-6.8,0.,48.6));
#1592=CARTESIAN_POINT('',(0.,-13.9,48.6));
#1593=CARTESIAN_POINT('',(0.,-13.9,48.6));
#1594=CARTESIAN_POINT('',(0.,0.,48.6));
#1595=CARTESIAN_POINT('Origin',(-6.8,0.,48.6));
#1596=CARTESIAN_POINT('',(0.,13.9,48.6));
#1597=CARTESIAN_POINT('',(0.,0.,48.6));
#1598=CARTESIAN_POINT('',(0.,13.9,48.6));
#1599=CARTESIAN_POINT('Origin',(0.,0.,18.2));
#1600=CARTESIAN_POINT('',(0.,-13.9,18.2));
#1601=CARTESIAN_POINT('',(0.,0.,18.2));
#1602=CARTESIAN_POINT('',(-2.8,-13.9,18.2));
#1603=CARTESIAN_POINT('',(-2.8,-13.9,18.2));
#1604=CARTESIAN_POINT('',(-2.8,0.,18.2));
#1605=CARTESIAN_POINT('Origin',(0.,0.,18.2));
#1606=CARTESIAN_POINT('',(-2.8,13.9,18.2));
#1607=CARTESIAN_POINT('',(-2.8,0.,18.2));
#1608=CARTESIAN_POINT('',(0.,13.9,18.2));
#1609=CARTESIAN_POINT('',(-2.8,13.9,18.2));
#1610=CARTESIAN_POINT('',(0.,0.,18.2));
#1611=CARTESIAN_POINT('Origin',(-2.8,0.,18.2));
#1612=CARTESIAN_POINT('',(-2.8,-13.9,6.2));
#1613=CARTESIAN_POINT('',(-2.8,-13.9,6.2));
#1614=CARTESIAN_POINT('',(-2.8,0.,6.2));
#1615=CARTESIAN_POINT('Origin',(-2.8,0.,18.2));
#1616=CARTESIAN_POINT('',(-2.8,13.9,6.2));
#1617=CARTESIAN_POINT('',(-2.8,0.,6.2));
#1618=CARTESIAN_POINT('',(-2.8,13.9,6.2));
#1619=CARTESIAN_POINT('Origin',(-2.8,0.,6.2));
#1620=CARTESIAN_POINT('',(-6.8,-13.9,6.2));
#1621=CARTESIAN_POINT('',(-6.8,-13.9,6.2));
#1622=CARTESIAN_POINT('',(-6.8,0.,6.2));
#1623=CARTESIAN_POINT('Origin',(-2.8,0.,6.2));
#1624=CARTESIAN_POINT('',(-6.8,13.9,6.2));
#1625=CARTESIAN_POINT('',(-6.8,0.,6.2));
#1626=CARTESIAN_POINT('',(-6.8,13.9,6.2));
#1627=CARTESIAN_POINT('Origin',(-6.8,0.,6.2));
#1628=CARTESIAN_POINT('',(-6.8,-13.9,23.2));
#1629=CARTESIAN_POINT('',(-6.8,-13.9,23.2));
#1630=CARTESIAN_POINT('',(-6.8,0.,23.2));
#1631=CARTESIAN_POINT('Origin',(-6.8,0.,6.2));
#1632=CARTESIAN_POINT('',(-6.8,13.9,23.2));
#1633=CARTESIAN_POINT('',(-6.8,0.,23.2));
#1634=CARTESIAN_POINT('',(-6.8,13.9,23.2));
#1635=CARTESIAN_POINT('Origin',(-6.8,0.,23.2));
#1636=CARTESIAN_POINT('',(0.,-13.9,23.2));
#1637=CARTESIAN_POINT('',(0.,-13.9,23.2));
#1638=CARTESIAN_POINT('',(0.,0.,23.2));
#1639=CARTESIAN_POINT('Origin',(-6.8,0.,23.2));
#1640=CARTESIAN_POINT('',(0.,13.9,23.2));
#1641=CARTESIAN_POINT('',(0.,0.,23.2));
#1642=CARTESIAN_POINT('',(0.,13.9,23.2));
#1643=CARTESIAN_POINT('Origin',(-3.4,-13.9,14.7));
#1644=CARTESIAN_POINT('',(0.,-13.9,7.35));
#1645=CARTESIAN_POINT('Origin',(-3.4,13.9,14.7));
#1646=CARTESIAN_POINT('',(0.,13.9,7.35));
#1647=CARTESIAN_POINT('Origin',(-3.4,-13.9,40.1));
#1648=CARTESIAN_POINT('',(0.,-13.9,20.05));
#1649=CARTESIAN_POINT('Origin',(-3.4,13.9,40.1));
#1650=CARTESIAN_POINT('',(0.,13.9,20.05));
#1651=CARTESIAN_POINT('Origin',(-3.4,-13.9,65.5));
#1652=CARTESIAN_POINT('',(0.,-13.9,32.75));
#1653=CARTESIAN_POINT('Origin',(-3.4,13.9,65.5));
#1654=CARTESIAN_POINT('',(0.,13.9,32.75));
#1655=CARTESIAN_POINT('Origin',(97.9,0.,76.));
#1656=CARTESIAN_POINT('',(97.9,20.,90.9291660852172));
#1657=CARTESIAN_POINT('',(97.9,20.,76.));
#1658=CARTESIAN_POINT('',(97.9,20.,57.));
#1659=CARTESIAN_POINT('',(97.9,-20.,90.9291660852172));
#1660=CARTESIAN_POINT('',(97.9,0.,90.9291660852172));
#1661=CARTESIAN_POINT('',(97.9,-20.,76.));
#1662=CARTESIAN_POINT('',(97.9,-20.,57.));
#1663=CARTESIAN_POINT('',(97.9,0.,76.));
#1664=CARTESIAN_POINT('Origin',(132.1,0.,103.7));
#1665=CARTESIAN_POINT('',(132.1,-20.,90.9291660852172));
#1666=CARTESIAN_POINT('',(132.1,-20.,76.));
#1667=CARTESIAN_POINT('',(132.1,-20.,70.85));
#1668=CARTESIAN_POINT('',(132.1,20.,90.9291660852172));
#1669=CARTESIAN_POINT('',(132.1,0.,90.9291660852172));
#1670=CARTESIAN_POINT('',(132.1,20.,76.));
#1671=CARTESIAN_POINT('',(132.1,20.,70.85));
#1672=CARTESIAN_POINT('',(132.1,0.,76.));
#1673=CARTESIAN_POINT('Origin',(57.5,-20.,38.));
#1674=CARTESIAN_POINT('',(92.3,-20.,76.));
#1675=CARTESIAN_POINT('Origin',(115.,-20.,76.));
#1676=CARTESIAN_POINT('',(0.,-20.,76.));
#1677=CARTESIAN_POINT('',(0.,-20.,76.));
#1678=CARTESIAN_POINT('',(0.,-20.,8.88178419700125E-15));
#1679=CARTESIAN_POINT('',(0.,-20.,0.));
#1680=CARTESIAN_POINT('',(6.,-20.,0.));
#1681=CARTESIAN_POINT('',(0.,-20.,0.));
#1682=CARTESIAN_POINT('',(6.,-20.,3.96521739130435));
#1683=CARTESIAN_POINT('',(6.,-20.,0.));
#1684=CARTESIAN_POINT('',(96.0619408542983,-20.,63.4844130863189));
#1685=CARTESIAN_POINT('',(115.,-20.,76.));
#1686=CARTESIAN_POINT('Origin',(115.,-20.,76.));
#1687=CARTESIAN_POINT('Origin',(115.,-20.,76.));
#1688=CARTESIAN_POINT('',(14.,-20.,62.));
#1689=CARTESIAN_POINT('',(68.4234525268164,-20.,62.));
#1690=CARTESIAN_POINT('',(35.75,-20.,62.));
#1691=CARTESIAN_POINT('',(14.,-20.,26.0331965909735));
#1692=CARTESIAN_POINT('',(59.1022941754889,-20.,55.8399301330358));
#1693=CARTESIAN_POINT('',(14.,-20.,32.0165982954868));
#1694=CARTESIAN_POINT('Origin',(115.,0.,76.));
#1695=CARTESIAN_POINT('Origin',(115.,20.,76.));
#1696=CARTESIAN_POINT('Origin',(115.,0.,76.));
#1697=CARTESIAN_POINT('',(96.0619408542983,20.,63.4844130863189));
#1698=CARTESIAN_POINT('',(96.0619408542983,0.,63.4844130863189));
#1699=CARTESIAN_POINT('Origin',(115.,20.,76.));
#1700=CARTESIAN_POINT('Origin',(14.,0.,26.0331965909735));
#1701=CARTESIAN_POINT('',(14.,20.,26.0331965909735));
#1702=CARTESIAN_POINT('',(14.,0.,26.0331965909735));
#1703=CARTESIAN_POINT('',(14.,20.,62.));
#1704=CARTESIAN_POINT('',(14.,20.,32.0165982954868));
#1705=CARTESIAN_POINT('',(14.,0.,62.));
#1706=CARTESIAN_POINT('Origin',(14.,0.,62.));
#1707=CARTESIAN_POINT('',(68.4234525268164,20.,62.));
#1708=CARTESIAN_POINT('',(35.75,20.,62.));
#1709=CARTESIAN_POINT('',(68.4234525268164,0.,62.));
#1710=CARTESIAN_POINT('Origin',(68.4234525268164,0.,62.));
#1711=CARTESIAN_POINT('',(59.1022941754889,20.,55.8399301330358));
#1712=CARTESIAN_POINT('Origin',(115.,0.,76.));
#1713=CARTESIAN_POINT('',(92.3,20.,76.));
#1714=CARTESIAN_POINT('Origin',(115.,20.,76.));
#1715=CARTESIAN_POINT('',(92.3,0.,76.));
#1716=CARTESIAN_POINT('Origin',(0.,0.,76.));
#1717=CARTESIAN_POINT('',(0.,20.,76.));
#1718=CARTESIAN_POINT('',(0.,20.,76.));
#1719=CARTESIAN_POINT('',(0.,0.,76.));
#1720=CARTESIAN_POINT('Origin',(6.,0.,76.));
#1721=CARTESIAN_POINT('',(6.,20.,3.96521739130435));
#1722=CARTESIAN_POINT('',(6.,0.,3.96521739130435));
#1723=CARTESIAN_POINT('',(6.,20.,0.));
#1724=CARTESIAN_POINT('',(6.,0.,0.));
#1725=CARTESIAN_POINT('',(6.,20.,0.));
#1726=CARTESIAN_POINT('Origin',(6.,0.,0.));
#1727=CARTESIAN_POINT('',(0.,20.,8.88178419700125E-15));
#1728=CARTESIAN_POINT('',(0.,0.,8.88178419700125E-15));
#1729=CARTESIAN_POINT('',(0.,20.,0.));
#1730=CARTESIAN_POINT('Origin',(57.5,20.,38.));
#1731=CARTESIAN_POINT('',(115.,20.,76.));
#1732=CARTESIAN_POINT('',(0.,20.,0.));
#1733=CARTESIAN_POINT('Origin',(0.,0.,8.88178419700125E-15));
#1734=CARTESIAN_POINT('Origin',(115.,0.,76.));
#1735=UNCERTAINTY_MEASURE_WITH_UNIT(LENGTH_MEASURE(0.01),#1739,
'DISTANCE_ACCURACY_VALUE',
'Maximum model space distance between geometric entities at asserted c
onnectivities');
#1736=UNCERTAINTY_MEASURE_WITH_UNIT(LENGTH_MEASURE(0.01),#1739,
'DISTANCE_ACCURACY_VALUE',
'Maximum model space distance between geometric entities at asserted c
onnectivities');
#1737=(
GEOMETRIC_REPRESENTATION_CONTEXT(3)
GLOBAL_UNCERTAINTY_ASSIGNED_CONTEXT((#1735))
GLOBAL_UNIT_ASSIGNED_CONTEXT((#1739,#1741,#1742))
REPRESENTATION_CONTEXT('','3D')
);
#1738=(
GEOMETRIC_REPRESENTATION_CONTEXT(3)
GLOBAL_UNCERTAINTY_ASSIGNED_CONTEXT((#1736))
GLOBAL_UNIT_ASSIGNED_CONTEXT((#1739,#1741,#1742))
REPRESENTATION_CONTEXT('','3D')
);
#1739=(
LENGTH_UNIT()
NAMED_UNIT(*)
SI_UNIT(.MILLI.,.METRE.)
);
#1740=(
LENGTH_UNIT()
NAMED_UNIT(*)
SI_UNIT($,.METRE.)
);
#1741=(
NAMED_UNIT(*)
PLANE_ANGLE_UNIT()
SI_UNIT($,.RADIAN.)
);
#1742=(
NAMED_UNIT(*)
SI_UNIT($,.STERADIAN.)
SOLID_ANGLE_UNIT()
);
#1743=SHAPE_DEFINITION_REPRESENTATION(#1744,#1745);
#1744=PRODUCT_DEFINITION_SHAPE('',$,#1747);
#1745=SHAPE_REPRESENTATION('',(#1099),#1737);
#1746=PRODUCT_DEFINITION_CONTEXT('part definition',#1751,'design');
#1747=PRODUCT_DEFINITION('2026-09-02-15-09-45-457','(Unsaved)',#1748,#1746);
#1748=PRODUCT_DEFINITION_FORMATION('',$,#1753);
#1749=PRODUCT_RELATED_PRODUCT_CATEGORY('(Unsaved)','(Unsaved)',(#1753));
#1750=APPLICATION_PROTOCOL_DEFINITION('international standard',
'automotive_design',2009,#1751);
#1751=APPLICATION_CONTEXT(
'Core Data for Automotive Mechanical Design Process');
#1752=PRODUCT_CONTEXT('part definition',#1751,'mechanical');
#1753=PRODUCT('2026-09-02-15-09-45-457','(Unsaved)',$,(#1752));
#1754=PRESENTATION_STYLE_ASSIGNMENT((#1755));
#1755=SURFACE_STYLE_USAGE(.BOTH.,#1756);
#1756=SURFACE_SIDE_STYLE('',(#1757));
#1757=SURFACE_STYLE_FILL_AREA(#1758);
#1758=FILL_AREA_STYLE('Steel - Satin',(#1759));
#1759=FILL_AREA_STYLE_COLOUR('Steel - Satin',#1760);
#1760=COLOUR_RGB('Steel - Satin',0.627450980392157,0.627450980392157,0.627450980392157);
ENDSEC;
END-ISO-10303-21;
